G04 #@! TF.GenerationSoftware,KiCad,Pcbnew,(5.0.0-rc2-dev-179-gab3780148)*
G04 #@! TF.CreationDate,2018-03-20T17:07:23-05:00*
G04 #@! TF.ProjectId,conductivity_sensor_vert,636F6E6475637469766974795F73656E,rev?*
G04 #@! TF.SameCoordinates,Original*
G04 #@! TF.FileFunction,Copper,L2,Bot,Signal*
G04 #@! TF.FilePolarity,Positive*
%FSLAX46Y46*%
G04 Gerber Fmt 4.6, Leading zero omitted, Abs format (unit mm)*
G04 Created by KiCad (PCBNEW (5.0.0-rc2-dev-179-gab3780148)) date 03/20/18 17:07:23*
%MOMM*%
%LPD*%
G01*
G04 APERTURE LIST*
%ADD10O,1.500000X2.000000*%
%ADD11R,2.000000X1.500000*%
%ADD12O,2.000000X1.500000*%
%ADD13C,1.600000*%
%ADD14R,1.600000X1.600000*%
%ADD15O,1.600000X1.600000*%
%ADD16R,2.400000X1.600000*%
%ADD17O,2.400000X1.600000*%
%ADD18R,2.400000X2.400000*%
%ADD19C,2.400000*%
%ADD20C,2.000000*%
%ADD21C,3.302000*%
%ADD22C,0.350000*%
%ADD23C,0.889000*%
%ADD24C,0.304800*%
%ADD25C,0.508000*%
%ADD26C,0.254000*%
G04 APERTURE END LIST*
D10*
X148590000Y-68580000D03*
D11*
X151130000Y-66040000D03*
D12*
X146050000Y-66040000D03*
D13*
X153670000Y-68580000D03*
X153670000Y-66080000D03*
D14*
X151384000Y-104267000D03*
D15*
X118364000Y-119507000D03*
X148844000Y-104267000D03*
X120904000Y-119507000D03*
X146304000Y-104267000D03*
X123444000Y-119507000D03*
X143764000Y-104267000D03*
X125984000Y-119507000D03*
X141224000Y-104267000D03*
X128524000Y-119507000D03*
X138684000Y-104267000D03*
X131064000Y-119507000D03*
X136144000Y-104267000D03*
X133604000Y-119507000D03*
X133604000Y-104267000D03*
X136144000Y-119507000D03*
X131064000Y-104267000D03*
X138684000Y-119507000D03*
X128524000Y-104267000D03*
X141224000Y-119507000D03*
X125984000Y-104267000D03*
X143764000Y-119507000D03*
X123444000Y-104267000D03*
X146304000Y-119507000D03*
X120904000Y-104267000D03*
X148844000Y-119507000D03*
X118364000Y-104267000D03*
X151384000Y-119507000D03*
X115824000Y-104267000D03*
X115824000Y-119507000D03*
D16*
X160655000Y-78359000D03*
D17*
X168275000Y-96139000D03*
X160655000Y-80899000D03*
X168275000Y-93599000D03*
X160655000Y-83439000D03*
X168275000Y-91059000D03*
X160655000Y-85979000D03*
X168275000Y-88519000D03*
X160655000Y-88519000D03*
X168275000Y-85979000D03*
X160655000Y-91059000D03*
X168275000Y-83439000D03*
X160655000Y-93599000D03*
X168275000Y-80899000D03*
X160655000Y-96139000D03*
X168275000Y-78359000D03*
D16*
X111760000Y-79121000D03*
D17*
X119380000Y-96901000D03*
X111760000Y-81661000D03*
X119380000Y-94361000D03*
X111760000Y-84201000D03*
X119380000Y-91821000D03*
X111760000Y-86741000D03*
X119380000Y-89281000D03*
X111760000Y-89281000D03*
X119380000Y-86741000D03*
X111760000Y-91821000D03*
X119380000Y-84201000D03*
X111760000Y-94361000D03*
X119380000Y-81661000D03*
X111760000Y-96901000D03*
X119380000Y-79121000D03*
D16*
X149225000Y-91440000D03*
D17*
X141605000Y-76200000D03*
X149225000Y-88900000D03*
X141605000Y-78740000D03*
X149225000Y-86360000D03*
X141605000Y-81280000D03*
X149225000Y-83820000D03*
X141605000Y-83820000D03*
X149225000Y-81280000D03*
X141605000Y-86360000D03*
X149225000Y-78740000D03*
X141605000Y-88900000D03*
X149225000Y-76200000D03*
X141605000Y-91440000D03*
D13*
X156845000Y-68072000D03*
D15*
X156845000Y-78232000D03*
D13*
X155575000Y-81915000D03*
D15*
X155575000Y-92075000D03*
D13*
X122428000Y-95250000D03*
D15*
X132588000Y-95250000D03*
D13*
X121285000Y-100330000D03*
D15*
X131445000Y-100330000D03*
D13*
X140970000Y-96520000D03*
D15*
X151130000Y-96520000D03*
D13*
X147320000Y-100965000D03*
D15*
X157480000Y-100965000D03*
D13*
X132080000Y-88265000D03*
D15*
X132080000Y-78105000D03*
D13*
X137160000Y-88265000D03*
D15*
X137160000Y-78105000D03*
D13*
X122555000Y-78105000D03*
D15*
X122555000Y-88265000D03*
D13*
X156972000Y-105283000D03*
D15*
X167132000Y-105283000D03*
D18*
X157480000Y-116967000D03*
D19*
X160980000Y-116967000D03*
X164480000Y-116967000D03*
X167980000Y-116967000D03*
D14*
X127635000Y-88265000D03*
D15*
X127635000Y-78105000D03*
D10*
X165608000Y-111379000D03*
D11*
X168148000Y-108839000D03*
D12*
X163068000Y-108839000D03*
D20*
X136525000Y-92710000D03*
X136525000Y-100210000D03*
D13*
X152400000Y-78740000D03*
X152400000Y-76240000D03*
X165735000Y-75565000D03*
X163235000Y-75565000D03*
D20*
X142240000Y-69850000D03*
X134740000Y-69850000D03*
D13*
X116840000Y-76073000D03*
X114340000Y-76073000D03*
X152400000Y-84455000D03*
X152400000Y-86955000D03*
X167894000Y-100076000D03*
X167894000Y-102576000D03*
D14*
X157480000Y-109855000D03*
D13*
X159480000Y-109855000D03*
D14*
X164465000Y-100711000D03*
D13*
X162465000Y-100711000D03*
D21*
X111582200Y-66675000D03*
X111582200Y-71755000D03*
X117017800Y-71755000D03*
X117017800Y-66675000D03*
X167817800Y-66675000D03*
X167817800Y-71755000D03*
X162382200Y-71755000D03*
X162382200Y-66675000D03*
X129717800Y-66675000D03*
X129717800Y-71755000D03*
X124282200Y-71755000D03*
X124282200Y-66675000D03*
D22*
X119405915Y-65880000D03*
X121945915Y-65880000D03*
X127025915Y-65880000D03*
X132105915Y-65880000D03*
X134645915Y-65880000D03*
X137185915Y-65880000D03*
X139725915Y-65880000D03*
X142265915Y-65880000D03*
X160045915Y-65880000D03*
X165125915Y-65880000D03*
X119405915Y-68420000D03*
X121945915Y-68420000D03*
X127025915Y-68420000D03*
X132105915Y-68420000D03*
X137185915Y-68420000D03*
X139725915Y-68420000D03*
X144805915Y-68420000D03*
X160045915Y-68420000D03*
X165125915Y-68420000D03*
X119405915Y-70960000D03*
X121945915Y-70960000D03*
X127025915Y-70960000D03*
X132105915Y-70960000D03*
X137185915Y-70960000D03*
X139725915Y-70960000D03*
X147345915Y-70960000D03*
X149885915Y-70960000D03*
X152425915Y-70960000D03*
X154965915Y-70960000D03*
X160045915Y-70960000D03*
X165125915Y-70960000D03*
X119405915Y-73500000D03*
X127025915Y-73500000D03*
X132105915Y-73500000D03*
X137185915Y-73500000D03*
X139725915Y-73500000D03*
X142265915Y-73500000D03*
X147345915Y-73500000D03*
X149885915Y-73500000D03*
X152425915Y-73500000D03*
X154965915Y-73500000D03*
X165125915Y-73500000D03*
X157505915Y-76040000D03*
X167665915Y-76040000D03*
X116865915Y-78580000D03*
X129565915Y-78580000D03*
X134645915Y-78580000D03*
X147345915Y-78580000D03*
X124485915Y-81120000D03*
X129565915Y-81120000D03*
X132105915Y-81120000D03*
X137185915Y-81120000D03*
X139725915Y-81120000D03*
X127025915Y-83660000D03*
X134645915Y-83660000D03*
X137185915Y-83660000D03*
X139725915Y-83660000D03*
X165125915Y-83660000D03*
X127025915Y-86200000D03*
X134645915Y-86200000D03*
X137185915Y-86200000D03*
X165125915Y-86200000D03*
X129565915Y-88740000D03*
X147345915Y-88740000D03*
X157505915Y-88740000D03*
X165125915Y-88740000D03*
X116865915Y-91280000D03*
X132105915Y-91280000D03*
X134645915Y-91280000D03*
X147345915Y-91280000D03*
X165125915Y-91280000D03*
X116865915Y-93820000D03*
X157505915Y-93820000D03*
X127025915Y-96360000D03*
X129565915Y-96360000D03*
X134645915Y-96360000D03*
X137185915Y-96360000D03*
X111785915Y-98900000D03*
X114325915Y-98900000D03*
X121945915Y-98900000D03*
X124485915Y-98900000D03*
X129565915Y-98900000D03*
X134645915Y-98900000D03*
X139725915Y-98900000D03*
X142265915Y-98900000D03*
X149885915Y-98900000D03*
X111785915Y-101440000D03*
X114325915Y-101440000D03*
X116865915Y-101440000D03*
X124485915Y-101440000D03*
X127025915Y-101440000D03*
X134645915Y-101440000D03*
X142265915Y-101440000D03*
X111785915Y-103980000D03*
X114325915Y-103980000D03*
X157505915Y-103980000D03*
X111785915Y-106520000D03*
X114325915Y-106520000D03*
X116865915Y-106520000D03*
X119405915Y-106520000D03*
X121945915Y-106520000D03*
X124485915Y-106520000D03*
X162585915Y-106520000D03*
X111785915Y-109060000D03*
X114325915Y-109060000D03*
X116865915Y-109060000D03*
X119405915Y-109060000D03*
X121945915Y-109060000D03*
X124485915Y-109060000D03*
X127025915Y-109060000D03*
X129565915Y-109060000D03*
X134645915Y-109060000D03*
X144805915Y-109060000D03*
X147345915Y-109060000D03*
X149885915Y-109060000D03*
X111785915Y-111600000D03*
X114325915Y-111600000D03*
X116865915Y-111600000D03*
X119405915Y-111600000D03*
X121945915Y-111600000D03*
X124485915Y-111600000D03*
X127025915Y-111600000D03*
X132105915Y-111600000D03*
X134645915Y-111600000D03*
X139725915Y-111600000D03*
X142265915Y-111600000D03*
X144805915Y-111600000D03*
X149885915Y-111600000D03*
X162585915Y-111600000D03*
X167665915Y-111600000D03*
X111785915Y-114140000D03*
X114325915Y-114140000D03*
X116865915Y-114140000D03*
X119405915Y-114140000D03*
X121945915Y-114140000D03*
X137185915Y-114140000D03*
X139725915Y-114140000D03*
X142265915Y-114140000D03*
X149885915Y-114140000D03*
X152425915Y-114140000D03*
X154965915Y-114140000D03*
X165125915Y-114140000D03*
X167665915Y-114140000D03*
X111785915Y-116680000D03*
X114325915Y-116680000D03*
X116865915Y-116680000D03*
X119405915Y-116680000D03*
X127025915Y-116680000D03*
X134645915Y-116680000D03*
X137185915Y-116680000D03*
X139725915Y-116680000D03*
X142265915Y-116680000D03*
X147345915Y-116680000D03*
X149885915Y-116680000D03*
X152425915Y-116680000D03*
X154965915Y-116680000D03*
X111785915Y-119220000D03*
X114325915Y-119220000D03*
X154965915Y-119220000D03*
X157505915Y-119220000D03*
X160045915Y-119220000D03*
X162585915Y-119220000D03*
X165125915Y-119220000D03*
X167665915Y-119220000D03*
D23*
X159004000Y-107188000D03*
X139192000Y-101600000D03*
X137160000Y-108204000D03*
X142240000Y-108204000D03*
X145288000Y-93980000D03*
X145288000Y-87376000D03*
X145288000Y-106172000D03*
X154432000Y-107188000D03*
X148336000Y-106680000D03*
X153416000Y-106172000D03*
X155448000Y-88900000D03*
X153924000Y-95504000D03*
X152908000Y-112268000D03*
X159004000Y-73152000D03*
X159512000Y-75692000D03*
X124460000Y-84328000D03*
X116332000Y-84328000D03*
D24*
X161711389Y-114198389D02*
X164480000Y-116967000D01*
X151384000Y-104267000D02*
X151384000Y-106325880D01*
X151384000Y-106325880D02*
X159256509Y-114198389D01*
X159256509Y-114198389D02*
X161711389Y-114198389D01*
X159512000Y-114808000D02*
X159512000Y-115499000D01*
X159512000Y-115499000D02*
X160980000Y-116967000D01*
X158253630Y-114808000D02*
X159512000Y-114808000D01*
X148844000Y-104267000D02*
X148844000Y-105398370D01*
X148844000Y-105398370D02*
X158253630Y-114808000D01*
D25*
X159004000Y-107188000D02*
X159004000Y-106172000D01*
X159004000Y-106172000D02*
X164465000Y-100711000D01*
X160769357Y-99326643D02*
X159131000Y-100965000D01*
X159131000Y-100965000D02*
X157480000Y-100965000D01*
X164122000Y-99060000D02*
X162642007Y-99060000D01*
X162642007Y-99060000D02*
X162375364Y-99326643D01*
X162375364Y-99326643D02*
X160769357Y-99326643D01*
X164465000Y-100711000D02*
X164465000Y-99403000D01*
X164465000Y-99403000D02*
X164122000Y-99060000D01*
X164465000Y-100711000D02*
X167259000Y-100711000D01*
X167259000Y-100711000D02*
X167894000Y-100076000D01*
X165951001Y-104483001D02*
X164465000Y-102997000D01*
X164465000Y-102997000D02*
X164465000Y-102019000D01*
X164465000Y-102019000D02*
X164465000Y-100711000D01*
X167132000Y-105283000D02*
X166332001Y-104483001D01*
X166332001Y-104483001D02*
X165951001Y-104483001D01*
X165608000Y-106807000D02*
X165608000Y-111379000D01*
X167132000Y-105283000D02*
X165608000Y-106807000D01*
D24*
X146812000Y-81788000D02*
X147320000Y-81280000D01*
X147320000Y-81280000D02*
X149225000Y-81280000D01*
X146812000Y-86360000D02*
X146812000Y-81788000D01*
X149225000Y-86360000D02*
X146812000Y-86360000D01*
X139192000Y-101600000D02*
X140970000Y-99822000D01*
X140970000Y-99822000D02*
X140970000Y-96520000D01*
X133604000Y-108204000D02*
X137160000Y-108204000D01*
X123444000Y-118364000D02*
X133604000Y-108204000D01*
X123444000Y-119507000D02*
X123444000Y-118364000D01*
X141605000Y-91440000D02*
X141605000Y-95885000D01*
X141605000Y-95885000D02*
X140970000Y-96520000D01*
X127635000Y-117856000D02*
X125984000Y-119507000D01*
X131572000Y-116840000D02*
X128651000Y-116840000D01*
X128651000Y-116840000D02*
X127635000Y-117856000D01*
X140208000Y-108204000D02*
X131572000Y-116840000D01*
X142240000Y-108204000D02*
X140208000Y-108204000D01*
X145288000Y-93472000D02*
X145288000Y-93980000D01*
X145288000Y-87376000D02*
X145288000Y-93472000D01*
X138684000Y-104267000D02*
X140335000Y-102616000D01*
X166770200Y-92163800D02*
X167875000Y-91059000D01*
X167875000Y-91059000D02*
X168275000Y-91059000D01*
X166770200Y-92201763D02*
X166770200Y-92163800D01*
X155079788Y-97396212D02*
X161575751Y-97396212D01*
X161575751Y-97396212D02*
X166770200Y-92201763D01*
X149860000Y-102616000D02*
X155079788Y-97396212D01*
X140335000Y-102616000D02*
X149860000Y-102616000D01*
X132135778Y-102616000D02*
X131106979Y-101587201D01*
X131106979Y-101587201D02*
X130841543Y-101587201D01*
X134112000Y-102616000D02*
X132135778Y-102616000D01*
X130841543Y-101587201D02*
X134112000Y-102616000D01*
X130841543Y-101587201D02*
X124904421Y-95650079D01*
X124904421Y-95650079D02*
X124904420Y-94141524D01*
X124904420Y-94141524D02*
X122583892Y-91821000D01*
X122583892Y-91821000D02*
X119380000Y-91821000D01*
X134505799Y-103009799D02*
X134112000Y-102616000D01*
X136144000Y-104267000D02*
X134886799Y-103009799D01*
X134886799Y-103009799D02*
X134505799Y-103009799D01*
X133604000Y-104267000D02*
X132804001Y-103467001D01*
X132804001Y-103467001D02*
X132068881Y-103467001D01*
X124294810Y-94394034D02*
X123283965Y-93383189D01*
X123283965Y-93383189D02*
X120357810Y-93383190D01*
X124294812Y-96354812D02*
X124294810Y-94394034D01*
X132068881Y-103467001D02*
X131470389Y-102868509D01*
X131470389Y-102868509D02*
X130808509Y-102868509D01*
X120357810Y-93383190D02*
X119380000Y-94361000D01*
X130808509Y-102868509D02*
X124294812Y-96354812D01*
X123031457Y-93992799D02*
X121824543Y-93992799D01*
X123685201Y-96761201D02*
X123685201Y-94646543D01*
X121824543Y-93992799D02*
X121170799Y-94646543D01*
X131064000Y-104267000D02*
X130264001Y-103467001D01*
X121170799Y-94646543D02*
X121170799Y-95510201D01*
X130264001Y-103467001D02*
X130264001Y-103340001D01*
X123685201Y-94646543D02*
X123031457Y-93992799D01*
X130264001Y-103340001D02*
X123685201Y-96761201D01*
X121170799Y-95510201D02*
X119780000Y-96901000D01*
X119780000Y-96901000D02*
X119380000Y-96901000D01*
X154432000Y-102152342D02*
X154432000Y-106559383D01*
X164557203Y-96139000D02*
X162080771Y-98615432D01*
X157968910Y-98615432D02*
X154432000Y-102152342D01*
X162080771Y-98615432D02*
X157968910Y-98615432D01*
X168275000Y-96139000D02*
X164557203Y-96139000D01*
X154432000Y-106559383D02*
X154432000Y-107188000D01*
X129032000Y-106172000D02*
X128524000Y-105664000D01*
X145288000Y-106172000D02*
X129032000Y-106172000D01*
X128524000Y-105664000D02*
X128524000Y-104267000D01*
X168275000Y-93599000D02*
X166235083Y-93599000D01*
X166235083Y-93599000D02*
X161828260Y-98005823D01*
X161828260Y-98005823D02*
X157164057Y-98005823D01*
X157164057Y-98005823D02*
X153416000Y-101753880D01*
X153416000Y-101753880D02*
X153416000Y-105543383D01*
X153416000Y-105543383D02*
X153416000Y-106172000D01*
X128841499Y-107124499D02*
X125984000Y-104267000D01*
X147891501Y-107124499D02*
X128841499Y-107124499D01*
X148336000Y-106680000D02*
X147891501Y-107124499D01*
D25*
X116840000Y-76073000D02*
X116840000Y-76581000D01*
X116840000Y-76581000D02*
X119380000Y-79121000D01*
X153670000Y-66080000D02*
X151170000Y-66080000D01*
X151170000Y-66080000D02*
X151130000Y-66040000D01*
X165735000Y-75565000D02*
X165735000Y-75819000D01*
X165735000Y-75819000D02*
X168275000Y-78359000D01*
X152400000Y-84455000D02*
X149860000Y-84455000D01*
X149860000Y-84455000D02*
X149225000Y-83820000D01*
X153924000Y-90424000D02*
X155448000Y-88900000D01*
X153924000Y-95504000D02*
X153924000Y-90424000D01*
X157480000Y-109855000D02*
X157480000Y-105791000D01*
X157480000Y-105791000D02*
X156972000Y-105283000D01*
X143764000Y-116332000D02*
X143764000Y-119507000D01*
X146812000Y-113284000D02*
X143764000Y-116332000D01*
X151892000Y-113284000D02*
X146812000Y-113284000D01*
X152908000Y-112268000D02*
X151892000Y-113284000D01*
D24*
X157988000Y-72136000D02*
X144526000Y-72136000D01*
X144526000Y-72136000D02*
X142240000Y-69850000D01*
X159004000Y-73152000D02*
X157988000Y-72136000D01*
X168275000Y-83439000D02*
X167875000Y-83439000D01*
X167875000Y-83439000D02*
X162312201Y-77876201D01*
X160639222Y-75692000D02*
X159512000Y-75692000D01*
X162312201Y-77876201D02*
X162312201Y-77364979D01*
X162312201Y-77364979D02*
X160639222Y-75692000D01*
X132588000Y-74676000D02*
X134740000Y-72524000D01*
X134740000Y-72524000D02*
X134740000Y-69850000D01*
X127508000Y-74676000D02*
X132588000Y-74676000D01*
X124968000Y-77216000D02*
X127508000Y-74676000D01*
X124968000Y-78740000D02*
X124968000Y-77216000D01*
X122555000Y-81153000D02*
X124968000Y-78740000D01*
X122555000Y-88265000D02*
X122555000Y-81153000D01*
X139192000Y-92964000D02*
X139192000Y-88392000D01*
X139192000Y-88392000D02*
X139966790Y-87617210D01*
X135128000Y-94996000D02*
X137160000Y-94996000D01*
X139966790Y-87617210D02*
X143712272Y-87617210D01*
X143712272Y-87617210D02*
X145796000Y-85533482D01*
X145796000Y-81769000D02*
X148825000Y-78740000D01*
X124460000Y-84328000D02*
X124460000Y-87512962D01*
X145796000Y-85533482D02*
X145796000Y-81769000D01*
X133604000Y-93472000D02*
X135128000Y-94996000D01*
X137160000Y-94996000D02*
X139192000Y-92964000D01*
X130419038Y-93472000D02*
X133604000Y-93472000D01*
X148825000Y-78740000D02*
X149225000Y-78740000D01*
X124460000Y-87512962D02*
X130419038Y-93472000D01*
X152400000Y-78740000D02*
X149225000Y-78740000D01*
X156591000Y-85979000D02*
X152400000Y-81788000D01*
X152400000Y-81788000D02*
X152400000Y-78740000D01*
X160655000Y-85979000D02*
X156591000Y-85979000D01*
X143764000Y-80156200D02*
X143128800Y-80156200D01*
X143128800Y-80156200D02*
X142005000Y-81280000D01*
X142005000Y-81280000D02*
X141605000Y-81280000D01*
X149225000Y-76200000D02*
X147720200Y-76200000D01*
X147720200Y-76200000D02*
X143764000Y-80156200D01*
X152400000Y-76240000D02*
X149265000Y-76240000D01*
X149265000Y-76240000D02*
X149225000Y-76200000D01*
X154940000Y-77724000D02*
X153884000Y-77724000D01*
X153884000Y-77724000D02*
X152400000Y-76240000D01*
X154940000Y-80148630D02*
X154940000Y-77724000D01*
X155575000Y-81915000D02*
X155575000Y-80783630D01*
X155575000Y-80783630D02*
X154940000Y-80148630D01*
X127635000Y-88265000D02*
X127635000Y-89369800D01*
X127635000Y-89369800D02*
X130975200Y-92710000D01*
X130975200Y-92710000D02*
X135110787Y-92710000D01*
X135110787Y-92710000D02*
X136525000Y-92710000D01*
X160178999Y-74307799D02*
X146437201Y-74307799D01*
X168275000Y-80899000D02*
X166770200Y-80899000D01*
X166770200Y-80899000D02*
X160178999Y-74307799D01*
X142005000Y-78740000D02*
X141605000Y-78740000D01*
X146437201Y-74307799D02*
X142005000Y-78740000D01*
X127635000Y-88265000D02*
X127635000Y-87160200D01*
X127635000Y-87160200D02*
X136690200Y-78105000D01*
X136690200Y-78105000D02*
X137160000Y-78105000D01*
X137160000Y-78105000D02*
X140970000Y-78105000D01*
X140970000Y-78105000D02*
X141605000Y-78740000D01*
X127635000Y-78105000D02*
X129540000Y-76200000D01*
X129540000Y-76200000D02*
X141605000Y-76200000D01*
X116332000Y-80772000D02*
X116332000Y-84328000D01*
X112268000Y-76708000D02*
X116332000Y-80772000D01*
X112268000Y-75692000D02*
X112268000Y-76708000D01*
X114554001Y-73405999D02*
X112268000Y-75692000D01*
X117017800Y-71755000D02*
X115366801Y-73405999D01*
X115366801Y-73405999D02*
X114554001Y-73405999D01*
X117017800Y-66675000D02*
X117017800Y-71755000D01*
X111582200Y-66675000D02*
X111582200Y-71755000D01*
X114300000Y-72797880D02*
X114300000Y-65024000D01*
X114300000Y-65024000D02*
X114757201Y-64566799D01*
X155448000Y-66548000D02*
X155575000Y-66675000D01*
X114757201Y-64566799D02*
X154482799Y-64566799D01*
X154482799Y-64566799D02*
X155448000Y-65532000D01*
X110102790Y-88023790D02*
X110102790Y-76995090D01*
X155448000Y-65532000D02*
X155448000Y-66548000D01*
X155575000Y-66675000D02*
X162382200Y-66675000D01*
X111760000Y-89281000D02*
X111360000Y-89281000D01*
X110102790Y-76995090D02*
X114300000Y-72797880D01*
X111360000Y-89281000D02*
X110102790Y-88023790D01*
X167817800Y-66675000D02*
X162382200Y-66675000D01*
X167817800Y-71755000D02*
X167817800Y-66675000D01*
X162382200Y-71755000D02*
X167817800Y-71755000D01*
X162382200Y-66675000D02*
X162382200Y-71755000D01*
X122555000Y-78105000D02*
X121297799Y-79362201D01*
X121297799Y-79362201D02*
X121297799Y-88868457D01*
X121297799Y-88868457D02*
X127679342Y-95250000D01*
X131456630Y-95250000D02*
X132588000Y-95250000D01*
X127679342Y-95250000D02*
X131456630Y-95250000D01*
X129717800Y-71755000D02*
X128066801Y-70104001D01*
X128066801Y-70104001D02*
X125933199Y-70104001D01*
X125933199Y-70104001D02*
X124282200Y-71755000D01*
X129717800Y-66675000D02*
X129717800Y-71755000D01*
X124282200Y-66675000D02*
X129717800Y-66675000D01*
X124282200Y-71755000D02*
X124282200Y-66675000D01*
X131445000Y-100330000D02*
X132588000Y-99187000D01*
X132588000Y-99187000D02*
X132588000Y-95250000D01*
X122555000Y-78105000D02*
X122555000Y-73482200D01*
X122555000Y-73482200D02*
X124282200Y-71755000D01*
X139065000Y-86360000D02*
X141605000Y-86360000D01*
X137160000Y-88265000D02*
X139065000Y-86360000D01*
X132080000Y-88265000D02*
X137160000Y-88265000D01*
X151130000Y-96520000D02*
X146493480Y-96520000D01*
X143764000Y-90659000D02*
X142005000Y-88900000D01*
X146493480Y-96520000D02*
X143764000Y-93790520D01*
X142005000Y-88900000D02*
X141605000Y-88900000D01*
X143764000Y-93790520D02*
X143764000Y-90659000D01*
X151130000Y-96520000D02*
X149998630Y-96520000D01*
X149998630Y-96520000D02*
X147320000Y-99198630D01*
X147320000Y-99198630D02*
X147320000Y-100965000D01*
X121285000Y-100330000D02*
X120153630Y-100330000D01*
X115417611Y-80719731D02*
X113818880Y-79121000D01*
X120153630Y-100330000D02*
X115417611Y-95593981D01*
X113818880Y-79121000D02*
X111760000Y-79121000D01*
X115417611Y-95593981D02*
X115417611Y-80719731D01*
X114808000Y-82804000D02*
X113665000Y-81661000D01*
X113665000Y-81661000D02*
X111760000Y-81661000D01*
X114808000Y-98044000D02*
X114808000Y-82804000D01*
X118872000Y-102108000D02*
X114808000Y-98044000D01*
X121920000Y-102108000D02*
X118872000Y-102108000D01*
X123444000Y-100584000D02*
X121920000Y-102108000D01*
X123444000Y-97397370D02*
X123444000Y-100584000D01*
X122428000Y-95250000D02*
X122428000Y-96381370D01*
X122428000Y-96381370D02*
X123444000Y-97397370D01*
X160655000Y-88519000D02*
X159131000Y-88519000D01*
X159131000Y-88519000D02*
X155575000Y-92075000D01*
X156845000Y-78232000D02*
X156845000Y-80029000D01*
X156845000Y-80029000D02*
X160255000Y-83439000D01*
X160255000Y-83439000D02*
X160655000Y-83439000D01*
X155562210Y-87261790D02*
X153924000Y-88900000D01*
X153924000Y-88900000D02*
X149225000Y-88900000D01*
X166770200Y-85979000D02*
X165487410Y-87261790D01*
X168275000Y-85979000D02*
X166770200Y-85979000D01*
X165487410Y-87261790D02*
X155562210Y-87261790D01*
X149225000Y-88900000D02*
X149225000Y-91440000D01*
X117348000Y-86360000D02*
X117729000Y-86741000D01*
X117729000Y-86741000D02*
X119380000Y-86741000D01*
X117348000Y-82188200D02*
X117348000Y-86360000D01*
X119380000Y-81661000D02*
X117875200Y-81661000D01*
X117875200Y-81661000D02*
X117348000Y-82188200D01*
D26*
G36*
X114020601Y-83130153D02*
X114020600Y-97966449D01*
X114005174Y-98044000D01*
X114020600Y-98121551D01*
X114066285Y-98351227D01*
X114240316Y-98611684D01*
X114306065Y-98655616D01*
X118260386Y-102609938D01*
X118304316Y-102675684D01*
X118552217Y-102841326D01*
X118505333Y-102832000D01*
X118222667Y-102832000D01*
X117804091Y-102915260D01*
X117329423Y-103232423D01*
X117094000Y-103584758D01*
X116858577Y-103232423D01*
X116383909Y-102915260D01*
X115965333Y-102832000D01*
X115682667Y-102832000D01*
X115264091Y-102915260D01*
X114789423Y-103232423D01*
X114472260Y-103707091D01*
X114360887Y-104267000D01*
X114472260Y-104826909D01*
X114789423Y-105301577D01*
X115264091Y-105618740D01*
X115682667Y-105702000D01*
X115965333Y-105702000D01*
X116383909Y-105618740D01*
X116858577Y-105301577D01*
X117094000Y-104949242D01*
X117329423Y-105301577D01*
X117804091Y-105618740D01*
X118222667Y-105702000D01*
X118505333Y-105702000D01*
X118923909Y-105618740D01*
X119398577Y-105301577D01*
X119634000Y-104949242D01*
X119869423Y-105301577D01*
X120344091Y-105618740D01*
X120762667Y-105702000D01*
X121045333Y-105702000D01*
X121463909Y-105618740D01*
X121938577Y-105301577D01*
X122174000Y-104949242D01*
X122409423Y-105301577D01*
X122884091Y-105618740D01*
X123302667Y-105702000D01*
X123585333Y-105702000D01*
X124003909Y-105618740D01*
X124478577Y-105301577D01*
X124714000Y-104949242D01*
X124949423Y-105301577D01*
X125424091Y-105618740D01*
X125842667Y-105702000D01*
X126125333Y-105702000D01*
X126275566Y-105672117D01*
X128229885Y-107626437D01*
X128273815Y-107692183D01*
X128534271Y-107866214D01*
X128763947Y-107911899D01*
X128763948Y-107911899D01*
X128841499Y-107927325D01*
X128919050Y-107911899D01*
X132782549Y-107911899D01*
X122942063Y-117752386D01*
X122876317Y-117796316D01*
X122832387Y-117862062D01*
X122702286Y-118056772D01*
X122651825Y-118310455D01*
X122409423Y-118472423D01*
X122174000Y-118824758D01*
X121938577Y-118472423D01*
X121463909Y-118155260D01*
X121045333Y-118072000D01*
X120762667Y-118072000D01*
X120344091Y-118155260D01*
X119869423Y-118472423D01*
X119634000Y-118824758D01*
X119398577Y-118472423D01*
X118923909Y-118155260D01*
X118505333Y-118072000D01*
X118222667Y-118072000D01*
X117804091Y-118155260D01*
X117329423Y-118472423D01*
X117094000Y-118824758D01*
X116858577Y-118472423D01*
X116383909Y-118155260D01*
X115965333Y-118072000D01*
X115682667Y-118072000D01*
X115264091Y-118155260D01*
X114789423Y-118472423D01*
X114472260Y-118947091D01*
X114360887Y-119507000D01*
X114472260Y-120066909D01*
X114789423Y-120541577D01*
X115264091Y-120858740D01*
X115682667Y-120942000D01*
X115965333Y-120942000D01*
X116383909Y-120858740D01*
X116858577Y-120541577D01*
X117094000Y-120189242D01*
X117329423Y-120541577D01*
X117804091Y-120858740D01*
X118222667Y-120942000D01*
X118505333Y-120942000D01*
X118923909Y-120858740D01*
X119398577Y-120541577D01*
X119634000Y-120189242D01*
X119869423Y-120541577D01*
X120344091Y-120858740D01*
X120762667Y-120942000D01*
X121045333Y-120942000D01*
X121463909Y-120858740D01*
X121938577Y-120541577D01*
X122174000Y-120189242D01*
X122409423Y-120541577D01*
X122884091Y-120858740D01*
X123302667Y-120942000D01*
X123585333Y-120942000D01*
X124003909Y-120858740D01*
X124478577Y-120541577D01*
X124714000Y-120189242D01*
X124949423Y-120541577D01*
X125424091Y-120858740D01*
X125842667Y-120942000D01*
X126125333Y-120942000D01*
X126543909Y-120858740D01*
X127018577Y-120541577D01*
X127254000Y-120189242D01*
X127489423Y-120541577D01*
X127964091Y-120858740D01*
X128382667Y-120942000D01*
X128665333Y-120942000D01*
X129083909Y-120858740D01*
X129558577Y-120541577D01*
X129794000Y-120189242D01*
X130029423Y-120541577D01*
X130504091Y-120858740D01*
X130922667Y-120942000D01*
X131205333Y-120942000D01*
X131623909Y-120858740D01*
X132098577Y-120541577D01*
X132334000Y-120189242D01*
X132569423Y-120541577D01*
X133044091Y-120858740D01*
X133462667Y-120942000D01*
X133745333Y-120942000D01*
X134163909Y-120858740D01*
X134638577Y-120541577D01*
X134874000Y-120189242D01*
X135109423Y-120541577D01*
X135584091Y-120858740D01*
X136002667Y-120942000D01*
X136285333Y-120942000D01*
X136703909Y-120858740D01*
X137178577Y-120541577D01*
X137414000Y-120189242D01*
X137649423Y-120541577D01*
X138124091Y-120858740D01*
X138542667Y-120942000D01*
X138825333Y-120942000D01*
X139243909Y-120858740D01*
X139718577Y-120541577D01*
X139954000Y-120189242D01*
X140189423Y-120541577D01*
X140664091Y-120858740D01*
X141082667Y-120942000D01*
X141365333Y-120942000D01*
X141783909Y-120858740D01*
X142258577Y-120541577D01*
X142494000Y-120189242D01*
X142729423Y-120541577D01*
X143204091Y-120858740D01*
X143622667Y-120942000D01*
X143905333Y-120942000D01*
X144323909Y-120858740D01*
X144798577Y-120541577D01*
X145034000Y-120189242D01*
X145269423Y-120541577D01*
X145744091Y-120858740D01*
X146162667Y-120942000D01*
X146445333Y-120942000D01*
X146863909Y-120858740D01*
X147338577Y-120541577D01*
X147594947Y-120157892D01*
X147691611Y-120362134D01*
X148106577Y-120738041D01*
X148494961Y-120898904D01*
X148717000Y-120776915D01*
X148717000Y-119634000D01*
X148697000Y-119634000D01*
X148697000Y-119380000D01*
X148717000Y-119380000D01*
X148717000Y-118237085D01*
X148971000Y-118237085D01*
X148971000Y-119380000D01*
X148991000Y-119380000D01*
X148991000Y-119634000D01*
X148971000Y-119634000D01*
X148971000Y-120776915D01*
X149193039Y-120898904D01*
X149581423Y-120738041D01*
X149996389Y-120362134D01*
X150093053Y-120157892D01*
X150349423Y-120541577D01*
X150824091Y-120858740D01*
X151242667Y-120942000D01*
X151525333Y-120942000D01*
X151943909Y-120858740D01*
X152418577Y-120541577D01*
X152735740Y-120066909D01*
X152847113Y-119507000D01*
X152735740Y-118947091D01*
X152418577Y-118472423D01*
X151943909Y-118155260D01*
X151525333Y-118072000D01*
X151242667Y-118072000D01*
X150824091Y-118155260D01*
X150349423Y-118472423D01*
X150093053Y-118856108D01*
X149996389Y-118651866D01*
X149581423Y-118275959D01*
X149193039Y-118115096D01*
X148971000Y-118237085D01*
X148717000Y-118237085D01*
X148494961Y-118115096D01*
X148106577Y-118275959D01*
X147691611Y-118651866D01*
X147594947Y-118856108D01*
X147338577Y-118472423D01*
X146863909Y-118155260D01*
X146445333Y-118072000D01*
X146162667Y-118072000D01*
X145744091Y-118155260D01*
X145269423Y-118472423D01*
X145034000Y-118824758D01*
X144798577Y-118472423D01*
X144653000Y-118375152D01*
X144653000Y-116700235D01*
X147180236Y-114173000D01*
X151804445Y-114173000D01*
X151892000Y-114190416D01*
X151979555Y-114173000D01*
X151979556Y-114173000D01*
X152238870Y-114121419D01*
X152532933Y-113924933D01*
X152582531Y-113850704D01*
X153085736Y-113347500D01*
X153122726Y-113347500D01*
X153519488Y-113183156D01*
X153823156Y-112879488D01*
X153987500Y-112482726D01*
X153987500Y-112053274D01*
X153823156Y-111656512D01*
X153519488Y-111352844D01*
X153122726Y-111188500D01*
X152693274Y-111188500D01*
X152296512Y-111352844D01*
X151992844Y-111656512D01*
X151828500Y-112053274D01*
X151828500Y-112090264D01*
X151523765Y-112395000D01*
X146899555Y-112395000D01*
X146812000Y-112377584D01*
X146724445Y-112395000D01*
X146724444Y-112395000D01*
X146465130Y-112446581D01*
X146171067Y-112643067D01*
X146121471Y-112717293D01*
X143197296Y-115641469D01*
X143123067Y-115691067D01*
X142926581Y-115985131D01*
X142904073Y-116098286D01*
X142857584Y-116332000D01*
X142875000Y-116419555D01*
X142875001Y-118375151D01*
X142729423Y-118472423D01*
X142494000Y-118824758D01*
X142258577Y-118472423D01*
X141783909Y-118155260D01*
X141365333Y-118072000D01*
X141082667Y-118072000D01*
X140664091Y-118155260D01*
X140189423Y-118472423D01*
X139954000Y-118824758D01*
X139718577Y-118472423D01*
X139243909Y-118155260D01*
X138825333Y-118072000D01*
X138542667Y-118072000D01*
X138124091Y-118155260D01*
X137649423Y-118472423D01*
X137414000Y-118824758D01*
X137178577Y-118472423D01*
X136703909Y-118155260D01*
X136285333Y-118072000D01*
X136002667Y-118072000D01*
X135584091Y-118155260D01*
X135109423Y-118472423D01*
X134874000Y-118824758D01*
X134638577Y-118472423D01*
X134163909Y-118155260D01*
X133745333Y-118072000D01*
X133462667Y-118072000D01*
X133044091Y-118155260D01*
X132569423Y-118472423D01*
X132334000Y-118824758D01*
X132098577Y-118472423D01*
X131623909Y-118155260D01*
X131205333Y-118072000D01*
X130922667Y-118072000D01*
X130504091Y-118155260D01*
X130029423Y-118472423D01*
X129794000Y-118824758D01*
X129558577Y-118472423D01*
X129083909Y-118155260D01*
X128665333Y-118072000D01*
X128532551Y-118072000D01*
X128977152Y-117627400D01*
X131494449Y-117627400D01*
X131572000Y-117642826D01*
X131649551Y-117627400D01*
X131649552Y-117627400D01*
X131879228Y-117581715D01*
X132139684Y-117407684D01*
X132183616Y-117341935D01*
X140534152Y-108991400D01*
X141500756Y-108991400D01*
X141628512Y-109119156D01*
X142025274Y-109283500D01*
X142454726Y-109283500D01*
X142851488Y-109119156D01*
X143155156Y-108815488D01*
X143319500Y-108418726D01*
X143319500Y-107989274D01*
X143287450Y-107911899D01*
X147813950Y-107911899D01*
X147891501Y-107927325D01*
X147969052Y-107911899D01*
X147969053Y-107911899D01*
X148198729Y-107866214D01*
X148358438Y-107759500D01*
X148550726Y-107759500D01*
X148947488Y-107595156D01*
X149251156Y-107291488D01*
X149360233Y-107028154D01*
X157451638Y-115119560D01*
X156280000Y-115119560D01*
X156032235Y-115168843D01*
X155822191Y-115309191D01*
X155681843Y-115519235D01*
X155632560Y-115767000D01*
X155632560Y-118167000D01*
X155681843Y-118414765D01*
X155822191Y-118624809D01*
X156032235Y-118765157D01*
X156280000Y-118814440D01*
X158680000Y-118814440D01*
X158927765Y-118765157D01*
X159137809Y-118624809D01*
X159278157Y-118414765D01*
X159327440Y-118167000D01*
X159327440Y-117772453D01*
X159424362Y-118006444D01*
X159940556Y-118522638D01*
X160614996Y-118802000D01*
X161345004Y-118802000D01*
X162019444Y-118522638D01*
X162535638Y-118006444D01*
X162730000Y-117537212D01*
X162924362Y-118006444D01*
X163440556Y-118522638D01*
X164114996Y-118802000D01*
X164845004Y-118802000D01*
X165519444Y-118522638D01*
X165777907Y-118264175D01*
X166862430Y-118264175D01*
X166985565Y-118551788D01*
X167667734Y-118811707D01*
X168397443Y-118790786D01*
X168974435Y-118551788D01*
X169097570Y-118264175D01*
X167980000Y-117146605D01*
X166862430Y-118264175D01*
X165777907Y-118264175D01*
X166035638Y-118006444D01*
X166224747Y-117549895D01*
X166395212Y-117961435D01*
X166682825Y-118084570D01*
X167800395Y-116967000D01*
X166682825Y-115849430D01*
X166395212Y-115972565D01*
X166231862Y-116401284D01*
X166035638Y-115927556D01*
X165777907Y-115669825D01*
X166862430Y-115669825D01*
X167980000Y-116787395D01*
X169097570Y-115669825D01*
X168974435Y-115382212D01*
X168292266Y-115122293D01*
X167562557Y-115143214D01*
X166985565Y-115382212D01*
X166862430Y-115669825D01*
X165777907Y-115669825D01*
X165519444Y-115411362D01*
X164845004Y-115132000D01*
X164114996Y-115132000D01*
X163862952Y-115236400D01*
X162323005Y-113696454D01*
X162279073Y-113630705D01*
X162018617Y-113456674D01*
X161788941Y-113410989D01*
X161788940Y-113410989D01*
X161711389Y-113395563D01*
X161633838Y-113410989D01*
X159582661Y-113410989D01*
X157474112Y-111302440D01*
X158280000Y-111302440D01*
X158527765Y-111253157D01*
X158737516Y-111113005D01*
X159263223Y-111301965D01*
X159833454Y-111274778D01*
X160234005Y-111108864D01*
X160308139Y-110862745D01*
X159480000Y-110034605D01*
X159465858Y-110048748D01*
X159286253Y-109869143D01*
X159300395Y-109855000D01*
X159659605Y-109855000D01*
X160487745Y-110683139D01*
X160733864Y-110609005D01*
X160926965Y-110071777D01*
X160899778Y-109501546D01*
X160766666Y-109180185D01*
X161475682Y-109180185D01*
X161494519Y-109283235D01*
X161765264Y-109755894D01*
X162196279Y-110088964D01*
X162721945Y-110231739D01*
X162941000Y-110070868D01*
X162941000Y-108966000D01*
X163195000Y-108966000D01*
X163195000Y-110070868D01*
X163414055Y-110231739D01*
X163939721Y-110088964D01*
X164370736Y-109755894D01*
X164641481Y-109283235D01*
X164660318Y-109180185D01*
X164537656Y-108966000D01*
X163195000Y-108966000D01*
X162941000Y-108966000D01*
X161598344Y-108966000D01*
X161475682Y-109180185D01*
X160766666Y-109180185D01*
X160733864Y-109100995D01*
X160487745Y-109026861D01*
X159659605Y-109855000D01*
X159300395Y-109855000D01*
X159286253Y-109840858D01*
X159465858Y-109661252D01*
X159480000Y-109675395D01*
X160308139Y-108847255D01*
X160234005Y-108601136D01*
X159946555Y-108497815D01*
X161475682Y-108497815D01*
X161598344Y-108712000D01*
X162941000Y-108712000D01*
X162941000Y-107607132D01*
X163195000Y-107607132D01*
X163195000Y-108712000D01*
X164537656Y-108712000D01*
X164660318Y-108497815D01*
X164641481Y-108394765D01*
X164370736Y-107922106D01*
X163939721Y-107589036D01*
X163414055Y-107446261D01*
X163195000Y-107607132D01*
X162941000Y-107607132D01*
X162721945Y-107446261D01*
X162196279Y-107589036D01*
X161765264Y-107922106D01*
X161494519Y-108394765D01*
X161475682Y-108497815D01*
X159946555Y-108497815D01*
X159696777Y-108408035D01*
X159126546Y-108435222D01*
X158736933Y-108596605D01*
X158527765Y-108456843D01*
X158369000Y-108425263D01*
X158369000Y-108079644D01*
X158392512Y-108103156D01*
X158789274Y-108267500D01*
X159218726Y-108267500D01*
X159615488Y-108103156D01*
X159919156Y-107799488D01*
X160083500Y-107402726D01*
X160083500Y-106973274D01*
X159919156Y-106576512D01*
X159893000Y-106550356D01*
X159893000Y-106540235D01*
X163576000Y-102857236D01*
X163576000Y-102909445D01*
X163558584Y-102997000D01*
X163576000Y-103084555D01*
X163627581Y-103343869D01*
X163824067Y-103637933D01*
X163898296Y-103687531D01*
X165260471Y-105049707D01*
X165310068Y-105123934D01*
X165604131Y-105320420D01*
X165679305Y-105335373D01*
X165703044Y-105454720D01*
X165041296Y-106116469D01*
X164967067Y-106166067D01*
X164770581Y-106460131D01*
X164719000Y-106719444D01*
X164701584Y-106807000D01*
X164719000Y-106894555D01*
X164719001Y-110057286D01*
X164609472Y-110130471D01*
X164303359Y-110588600D01*
X164223000Y-110992593D01*
X164223000Y-111765406D01*
X164303359Y-112169399D01*
X164609471Y-112627528D01*
X165067600Y-112933641D01*
X165608000Y-113041133D01*
X166148399Y-112933641D01*
X166606528Y-112627529D01*
X166912641Y-112169400D01*
X166993000Y-111765407D01*
X166993000Y-110992594D01*
X166912641Y-110588601D01*
X166606529Y-110130471D01*
X166497000Y-110057286D01*
X166497000Y-107175235D01*
X166960280Y-106711956D01*
X166990667Y-106718000D01*
X167273333Y-106718000D01*
X167691909Y-106634740D01*
X168166577Y-106317577D01*
X168483740Y-105842909D01*
X168595113Y-105283000D01*
X168483740Y-104723091D01*
X168166577Y-104248423D01*
X167819036Y-104016204D01*
X168247454Y-103995778D01*
X168648005Y-103829864D01*
X168722139Y-103583745D01*
X167894000Y-102755605D01*
X167065861Y-103583745D01*
X167139995Y-103829864D01*
X167190451Y-103848000D01*
X166990667Y-103848000D01*
X166978513Y-103850418D01*
X166972934Y-103842068D01*
X166678871Y-103645582D01*
X166419557Y-103594001D01*
X166419556Y-103594001D01*
X166332001Y-103576585D01*
X166306828Y-103581592D01*
X165354000Y-102628765D01*
X165354000Y-102140737D01*
X165512765Y-102109157D01*
X165722809Y-101968809D01*
X165863157Y-101758765D01*
X165894737Y-101600000D01*
X166804364Y-101600000D01*
X166771378Y-101632986D01*
X166886253Y-101747861D01*
X166640136Y-101821995D01*
X166447035Y-102359223D01*
X166474222Y-102929454D01*
X166640136Y-103330005D01*
X166886255Y-103404139D01*
X167714395Y-102576000D01*
X168073605Y-102576000D01*
X168901745Y-103404139D01*
X169147864Y-103330005D01*
X169340965Y-102792777D01*
X169313778Y-102222546D01*
X169147864Y-101821995D01*
X168901745Y-101747861D01*
X168073605Y-102576000D01*
X167714395Y-102576000D01*
X167700252Y-102561858D01*
X167879858Y-102382252D01*
X167894000Y-102396395D01*
X168722139Y-101568255D01*
X168648005Y-101322136D01*
X168641254Y-101319710D01*
X168706862Y-101292534D01*
X169110534Y-100888862D01*
X169329000Y-100361439D01*
X169329000Y-99790561D01*
X169110534Y-99263138D01*
X168706862Y-98859466D01*
X168179439Y-98641000D01*
X167608561Y-98641000D01*
X167081138Y-98859466D01*
X166677466Y-99263138D01*
X166459000Y-99790561D01*
X166459000Y-99822000D01*
X165894737Y-99822000D01*
X165863157Y-99663235D01*
X165722809Y-99453191D01*
X165512765Y-99312843D01*
X165346921Y-99279855D01*
X165302419Y-99056130D01*
X165105933Y-98762067D01*
X165031704Y-98712469D01*
X164812531Y-98493296D01*
X164762933Y-98419067D01*
X164468870Y-98222581D01*
X164209556Y-98171000D01*
X164209555Y-98171000D01*
X164122000Y-98153584D01*
X164034445Y-98171000D01*
X163638754Y-98171000D01*
X164883355Y-96926400D01*
X166675265Y-96926400D01*
X166840423Y-97173577D01*
X167315091Y-97490740D01*
X167733667Y-97574000D01*
X168816333Y-97574000D01*
X169234909Y-97490740D01*
X169445000Y-97350361D01*
X169445000Y-107523741D01*
X169395765Y-107490843D01*
X169148000Y-107441560D01*
X167148000Y-107441560D01*
X166900235Y-107490843D01*
X166690191Y-107631191D01*
X166549843Y-107841235D01*
X166500560Y-108089000D01*
X166500560Y-109589000D01*
X166549843Y-109836765D01*
X166690191Y-110046809D01*
X166900235Y-110187157D01*
X167148000Y-110236440D01*
X169148000Y-110236440D01*
X169395765Y-110187157D01*
X169445000Y-110154259D01*
X169445000Y-115921281D01*
X169277175Y-115849430D01*
X168159605Y-116967000D01*
X169277175Y-118084570D01*
X169445000Y-118012719D01*
X169445000Y-121185000D01*
X109955000Y-121185000D01*
X109955000Y-97028002D01*
X110090084Y-97028002D01*
X109968096Y-97250039D01*
X109985633Y-97332819D01*
X110255500Y-97825896D01*
X110693517Y-98178166D01*
X111233000Y-98336000D01*
X111633000Y-98336000D01*
X111633000Y-97028000D01*
X111887000Y-97028000D01*
X111887000Y-98336000D01*
X112287000Y-98336000D01*
X112826483Y-98178166D01*
X113264500Y-97825896D01*
X113534367Y-97332819D01*
X113551904Y-97250039D01*
X113429915Y-97028000D01*
X111887000Y-97028000D01*
X111633000Y-97028000D01*
X111613000Y-97028000D01*
X111613000Y-96774000D01*
X111633000Y-96774000D01*
X111633000Y-96754000D01*
X111887000Y-96754000D01*
X111887000Y-96774000D01*
X113429915Y-96774000D01*
X113551904Y-96551961D01*
X113534367Y-96469181D01*
X113264500Y-95976104D01*
X112838501Y-95633499D01*
X113194577Y-95395577D01*
X113511740Y-94920909D01*
X113623113Y-94361000D01*
X113511740Y-93801091D01*
X113194577Y-93326423D01*
X112838501Y-93088501D01*
X113264500Y-92745896D01*
X113534367Y-92252819D01*
X113551904Y-92170039D01*
X113429915Y-91948000D01*
X111887000Y-91948000D01*
X111887000Y-91968000D01*
X111633000Y-91968000D01*
X111633000Y-91948000D01*
X111613000Y-91948000D01*
X111613000Y-91694000D01*
X111633000Y-91694000D01*
X111633000Y-91674000D01*
X111887000Y-91674000D01*
X111887000Y-91694000D01*
X113429915Y-91694000D01*
X113551904Y-91471961D01*
X113534367Y-91389181D01*
X113264500Y-90896104D01*
X112838501Y-90553499D01*
X113194577Y-90315577D01*
X113511740Y-89840909D01*
X113623113Y-89281000D01*
X113511740Y-88721091D01*
X113194577Y-88246423D01*
X112842242Y-88011000D01*
X113194577Y-87775577D01*
X113511740Y-87300909D01*
X113623113Y-86741000D01*
X113511740Y-86181091D01*
X113194577Y-85706423D01*
X112842242Y-85471000D01*
X113194577Y-85235577D01*
X113511740Y-84760909D01*
X113623113Y-84201000D01*
X113511740Y-83641091D01*
X113194577Y-83166423D01*
X112842242Y-82931000D01*
X113194577Y-82695577D01*
X113351369Y-82460921D01*
X114020601Y-83130153D01*
X114020601Y-83130153D01*
G37*
X114020601Y-83130153D02*
X114020600Y-97966449D01*
X114005174Y-98044000D01*
X114020600Y-98121551D01*
X114066285Y-98351227D01*
X114240316Y-98611684D01*
X114306065Y-98655616D01*
X118260386Y-102609938D01*
X118304316Y-102675684D01*
X118552217Y-102841326D01*
X118505333Y-102832000D01*
X118222667Y-102832000D01*
X117804091Y-102915260D01*
X117329423Y-103232423D01*
X117094000Y-103584758D01*
X116858577Y-103232423D01*
X116383909Y-102915260D01*
X115965333Y-102832000D01*
X115682667Y-102832000D01*
X115264091Y-102915260D01*
X114789423Y-103232423D01*
X114472260Y-103707091D01*
X114360887Y-104267000D01*
X114472260Y-104826909D01*
X114789423Y-105301577D01*
X115264091Y-105618740D01*
X115682667Y-105702000D01*
X115965333Y-105702000D01*
X116383909Y-105618740D01*
X116858577Y-105301577D01*
X117094000Y-104949242D01*
X117329423Y-105301577D01*
X117804091Y-105618740D01*
X118222667Y-105702000D01*
X118505333Y-105702000D01*
X118923909Y-105618740D01*
X119398577Y-105301577D01*
X119634000Y-104949242D01*
X119869423Y-105301577D01*
X120344091Y-105618740D01*
X120762667Y-105702000D01*
X121045333Y-105702000D01*
X121463909Y-105618740D01*
X121938577Y-105301577D01*
X122174000Y-104949242D01*
X122409423Y-105301577D01*
X122884091Y-105618740D01*
X123302667Y-105702000D01*
X123585333Y-105702000D01*
X124003909Y-105618740D01*
X124478577Y-105301577D01*
X124714000Y-104949242D01*
X124949423Y-105301577D01*
X125424091Y-105618740D01*
X125842667Y-105702000D01*
X126125333Y-105702000D01*
X126275566Y-105672117D01*
X128229885Y-107626437D01*
X128273815Y-107692183D01*
X128534271Y-107866214D01*
X128763947Y-107911899D01*
X128763948Y-107911899D01*
X128841499Y-107927325D01*
X128919050Y-107911899D01*
X132782549Y-107911899D01*
X122942063Y-117752386D01*
X122876317Y-117796316D01*
X122832387Y-117862062D01*
X122702286Y-118056772D01*
X122651825Y-118310455D01*
X122409423Y-118472423D01*
X122174000Y-118824758D01*
X121938577Y-118472423D01*
X121463909Y-118155260D01*
X121045333Y-118072000D01*
X120762667Y-118072000D01*
X120344091Y-118155260D01*
X119869423Y-118472423D01*
X119634000Y-118824758D01*
X119398577Y-118472423D01*
X118923909Y-118155260D01*
X118505333Y-118072000D01*
X118222667Y-118072000D01*
X117804091Y-118155260D01*
X117329423Y-118472423D01*
X117094000Y-118824758D01*
X116858577Y-118472423D01*
X116383909Y-118155260D01*
X115965333Y-118072000D01*
X115682667Y-118072000D01*
X115264091Y-118155260D01*
X114789423Y-118472423D01*
X114472260Y-118947091D01*
X114360887Y-119507000D01*
X114472260Y-120066909D01*
X114789423Y-120541577D01*
X115264091Y-120858740D01*
X115682667Y-120942000D01*
X115965333Y-120942000D01*
X116383909Y-120858740D01*
X116858577Y-120541577D01*
X117094000Y-120189242D01*
X117329423Y-120541577D01*
X117804091Y-120858740D01*
X118222667Y-120942000D01*
X118505333Y-120942000D01*
X118923909Y-120858740D01*
X119398577Y-120541577D01*
X119634000Y-120189242D01*
X119869423Y-120541577D01*
X120344091Y-120858740D01*
X120762667Y-120942000D01*
X121045333Y-120942000D01*
X121463909Y-120858740D01*
X121938577Y-120541577D01*
X122174000Y-120189242D01*
X122409423Y-120541577D01*
X122884091Y-120858740D01*
X123302667Y-120942000D01*
X123585333Y-120942000D01*
X124003909Y-120858740D01*
X124478577Y-120541577D01*
X124714000Y-120189242D01*
X124949423Y-120541577D01*
X125424091Y-120858740D01*
X125842667Y-120942000D01*
X126125333Y-120942000D01*
X126543909Y-120858740D01*
X127018577Y-120541577D01*
X127254000Y-120189242D01*
X127489423Y-120541577D01*
X127964091Y-120858740D01*
X128382667Y-120942000D01*
X128665333Y-120942000D01*
X129083909Y-120858740D01*
X129558577Y-120541577D01*
X129794000Y-120189242D01*
X130029423Y-120541577D01*
X130504091Y-120858740D01*
X130922667Y-120942000D01*
X131205333Y-120942000D01*
X131623909Y-120858740D01*
X132098577Y-120541577D01*
X132334000Y-120189242D01*
X132569423Y-120541577D01*
X133044091Y-120858740D01*
X133462667Y-120942000D01*
X133745333Y-120942000D01*
X134163909Y-120858740D01*
X134638577Y-120541577D01*
X134874000Y-120189242D01*
X135109423Y-120541577D01*
X135584091Y-120858740D01*
X136002667Y-120942000D01*
X136285333Y-120942000D01*
X136703909Y-120858740D01*
X137178577Y-120541577D01*
X137414000Y-120189242D01*
X137649423Y-120541577D01*
X138124091Y-120858740D01*
X138542667Y-120942000D01*
X138825333Y-120942000D01*
X139243909Y-120858740D01*
X139718577Y-120541577D01*
X139954000Y-120189242D01*
X140189423Y-120541577D01*
X140664091Y-120858740D01*
X141082667Y-120942000D01*
X141365333Y-120942000D01*
X141783909Y-120858740D01*
X142258577Y-120541577D01*
X142494000Y-120189242D01*
X142729423Y-120541577D01*
X143204091Y-120858740D01*
X143622667Y-120942000D01*
X143905333Y-120942000D01*
X144323909Y-120858740D01*
X144798577Y-120541577D01*
X145034000Y-120189242D01*
X145269423Y-120541577D01*
X145744091Y-120858740D01*
X146162667Y-120942000D01*
X146445333Y-120942000D01*
X146863909Y-120858740D01*
X147338577Y-120541577D01*
X147594947Y-120157892D01*
X147691611Y-120362134D01*
X148106577Y-120738041D01*
X148494961Y-120898904D01*
X148717000Y-120776915D01*
X148717000Y-119634000D01*
X148697000Y-119634000D01*
X148697000Y-119380000D01*
X148717000Y-119380000D01*
X148717000Y-118237085D01*
X148971000Y-118237085D01*
X148971000Y-119380000D01*
X148991000Y-119380000D01*
X148991000Y-119634000D01*
X148971000Y-119634000D01*
X148971000Y-120776915D01*
X149193039Y-120898904D01*
X149581423Y-120738041D01*
X149996389Y-120362134D01*
X150093053Y-120157892D01*
X150349423Y-120541577D01*
X150824091Y-120858740D01*
X151242667Y-120942000D01*
X151525333Y-120942000D01*
X151943909Y-120858740D01*
X152418577Y-120541577D01*
X152735740Y-120066909D01*
X152847113Y-119507000D01*
X152735740Y-118947091D01*
X152418577Y-118472423D01*
X151943909Y-118155260D01*
X151525333Y-118072000D01*
X151242667Y-118072000D01*
X150824091Y-118155260D01*
X150349423Y-118472423D01*
X150093053Y-118856108D01*
X149996389Y-118651866D01*
X149581423Y-118275959D01*
X149193039Y-118115096D01*
X148971000Y-118237085D01*
X148717000Y-118237085D01*
X148494961Y-118115096D01*
X148106577Y-118275959D01*
X147691611Y-118651866D01*
X147594947Y-118856108D01*
X147338577Y-118472423D01*
X146863909Y-118155260D01*
X146445333Y-118072000D01*
X146162667Y-118072000D01*
X145744091Y-118155260D01*
X145269423Y-118472423D01*
X145034000Y-118824758D01*
X144798577Y-118472423D01*
X144653000Y-118375152D01*
X144653000Y-116700235D01*
X147180236Y-114173000D01*
X151804445Y-114173000D01*
X151892000Y-114190416D01*
X151979555Y-114173000D01*
X151979556Y-114173000D01*
X152238870Y-114121419D01*
X152532933Y-113924933D01*
X152582531Y-113850704D01*
X153085736Y-113347500D01*
X153122726Y-113347500D01*
X153519488Y-113183156D01*
X153823156Y-112879488D01*
X153987500Y-112482726D01*
X153987500Y-112053274D01*
X153823156Y-111656512D01*
X153519488Y-111352844D01*
X153122726Y-111188500D01*
X152693274Y-111188500D01*
X152296512Y-111352844D01*
X151992844Y-111656512D01*
X151828500Y-112053274D01*
X151828500Y-112090264D01*
X151523765Y-112395000D01*
X146899555Y-112395000D01*
X146812000Y-112377584D01*
X146724445Y-112395000D01*
X146724444Y-112395000D01*
X146465130Y-112446581D01*
X146171067Y-112643067D01*
X146121471Y-112717293D01*
X143197296Y-115641469D01*
X143123067Y-115691067D01*
X142926581Y-115985131D01*
X142904073Y-116098286D01*
X142857584Y-116332000D01*
X142875000Y-116419555D01*
X142875001Y-118375151D01*
X142729423Y-118472423D01*
X142494000Y-118824758D01*
X142258577Y-118472423D01*
X141783909Y-118155260D01*
X141365333Y-118072000D01*
X141082667Y-118072000D01*
X140664091Y-118155260D01*
X140189423Y-118472423D01*
X139954000Y-118824758D01*
X139718577Y-118472423D01*
X139243909Y-118155260D01*
X138825333Y-118072000D01*
X138542667Y-118072000D01*
X138124091Y-118155260D01*
X137649423Y-118472423D01*
X137414000Y-118824758D01*
X137178577Y-118472423D01*
X136703909Y-118155260D01*
X136285333Y-118072000D01*
X136002667Y-118072000D01*
X135584091Y-118155260D01*
X135109423Y-118472423D01*
X134874000Y-118824758D01*
X134638577Y-118472423D01*
X134163909Y-118155260D01*
X133745333Y-118072000D01*
X133462667Y-118072000D01*
X133044091Y-118155260D01*
X132569423Y-118472423D01*
X132334000Y-118824758D01*
X132098577Y-118472423D01*
X131623909Y-118155260D01*
X131205333Y-118072000D01*
X130922667Y-118072000D01*
X130504091Y-118155260D01*
X130029423Y-118472423D01*
X129794000Y-118824758D01*
X129558577Y-118472423D01*
X129083909Y-118155260D01*
X128665333Y-118072000D01*
X128532551Y-118072000D01*
X128977152Y-117627400D01*
X131494449Y-117627400D01*
X131572000Y-117642826D01*
X131649551Y-117627400D01*
X131649552Y-117627400D01*
X131879228Y-117581715D01*
X132139684Y-117407684D01*
X132183616Y-117341935D01*
X140534152Y-108991400D01*
X141500756Y-108991400D01*
X141628512Y-109119156D01*
X142025274Y-109283500D01*
X142454726Y-109283500D01*
X142851488Y-109119156D01*
X143155156Y-108815488D01*
X143319500Y-108418726D01*
X143319500Y-107989274D01*
X143287450Y-107911899D01*
X147813950Y-107911899D01*
X147891501Y-107927325D01*
X147969052Y-107911899D01*
X147969053Y-107911899D01*
X148198729Y-107866214D01*
X148358438Y-107759500D01*
X148550726Y-107759500D01*
X148947488Y-107595156D01*
X149251156Y-107291488D01*
X149360233Y-107028154D01*
X157451638Y-115119560D01*
X156280000Y-115119560D01*
X156032235Y-115168843D01*
X155822191Y-115309191D01*
X155681843Y-115519235D01*
X155632560Y-115767000D01*
X155632560Y-118167000D01*
X155681843Y-118414765D01*
X155822191Y-118624809D01*
X156032235Y-118765157D01*
X156280000Y-118814440D01*
X158680000Y-118814440D01*
X158927765Y-118765157D01*
X159137809Y-118624809D01*
X159278157Y-118414765D01*
X159327440Y-118167000D01*
X159327440Y-117772453D01*
X159424362Y-118006444D01*
X159940556Y-118522638D01*
X160614996Y-118802000D01*
X161345004Y-118802000D01*
X162019444Y-118522638D01*
X162535638Y-118006444D01*
X162730000Y-117537212D01*
X162924362Y-118006444D01*
X163440556Y-118522638D01*
X164114996Y-118802000D01*
X164845004Y-118802000D01*
X165519444Y-118522638D01*
X165777907Y-118264175D01*
X166862430Y-118264175D01*
X166985565Y-118551788D01*
X167667734Y-118811707D01*
X168397443Y-118790786D01*
X168974435Y-118551788D01*
X169097570Y-118264175D01*
X167980000Y-117146605D01*
X166862430Y-118264175D01*
X165777907Y-118264175D01*
X166035638Y-118006444D01*
X166224747Y-117549895D01*
X166395212Y-117961435D01*
X166682825Y-118084570D01*
X167800395Y-116967000D01*
X166682825Y-115849430D01*
X166395212Y-115972565D01*
X166231862Y-116401284D01*
X166035638Y-115927556D01*
X165777907Y-115669825D01*
X166862430Y-115669825D01*
X167980000Y-116787395D01*
X169097570Y-115669825D01*
X168974435Y-115382212D01*
X168292266Y-115122293D01*
X167562557Y-115143214D01*
X166985565Y-115382212D01*
X166862430Y-115669825D01*
X165777907Y-115669825D01*
X165519444Y-115411362D01*
X164845004Y-115132000D01*
X164114996Y-115132000D01*
X163862952Y-115236400D01*
X162323005Y-113696454D01*
X162279073Y-113630705D01*
X162018617Y-113456674D01*
X161788941Y-113410989D01*
X161788940Y-113410989D01*
X161711389Y-113395563D01*
X161633838Y-113410989D01*
X159582661Y-113410989D01*
X157474112Y-111302440D01*
X158280000Y-111302440D01*
X158527765Y-111253157D01*
X158737516Y-111113005D01*
X159263223Y-111301965D01*
X159833454Y-111274778D01*
X160234005Y-111108864D01*
X160308139Y-110862745D01*
X159480000Y-110034605D01*
X159465858Y-110048748D01*
X159286253Y-109869143D01*
X159300395Y-109855000D01*
X159659605Y-109855000D01*
X160487745Y-110683139D01*
X160733864Y-110609005D01*
X160926965Y-110071777D01*
X160899778Y-109501546D01*
X160766666Y-109180185D01*
X161475682Y-109180185D01*
X161494519Y-109283235D01*
X161765264Y-109755894D01*
X162196279Y-110088964D01*
X162721945Y-110231739D01*
X162941000Y-110070868D01*
X162941000Y-108966000D01*
X163195000Y-108966000D01*
X163195000Y-110070868D01*
X163414055Y-110231739D01*
X163939721Y-110088964D01*
X164370736Y-109755894D01*
X164641481Y-109283235D01*
X164660318Y-109180185D01*
X164537656Y-108966000D01*
X163195000Y-108966000D01*
X162941000Y-108966000D01*
X161598344Y-108966000D01*
X161475682Y-109180185D01*
X160766666Y-109180185D01*
X160733864Y-109100995D01*
X160487745Y-109026861D01*
X159659605Y-109855000D01*
X159300395Y-109855000D01*
X159286253Y-109840858D01*
X159465858Y-109661252D01*
X159480000Y-109675395D01*
X160308139Y-108847255D01*
X160234005Y-108601136D01*
X159946555Y-108497815D01*
X161475682Y-108497815D01*
X161598344Y-108712000D01*
X162941000Y-108712000D01*
X162941000Y-107607132D01*
X163195000Y-107607132D01*
X163195000Y-108712000D01*
X164537656Y-108712000D01*
X164660318Y-108497815D01*
X164641481Y-108394765D01*
X164370736Y-107922106D01*
X163939721Y-107589036D01*
X163414055Y-107446261D01*
X163195000Y-107607132D01*
X162941000Y-107607132D01*
X162721945Y-107446261D01*
X162196279Y-107589036D01*
X161765264Y-107922106D01*
X161494519Y-108394765D01*
X161475682Y-108497815D01*
X159946555Y-108497815D01*
X159696777Y-108408035D01*
X159126546Y-108435222D01*
X158736933Y-108596605D01*
X158527765Y-108456843D01*
X158369000Y-108425263D01*
X158369000Y-108079644D01*
X158392512Y-108103156D01*
X158789274Y-108267500D01*
X159218726Y-108267500D01*
X159615488Y-108103156D01*
X159919156Y-107799488D01*
X160083500Y-107402726D01*
X160083500Y-106973274D01*
X159919156Y-106576512D01*
X159893000Y-106550356D01*
X159893000Y-106540235D01*
X163576000Y-102857236D01*
X163576000Y-102909445D01*
X163558584Y-102997000D01*
X163576000Y-103084555D01*
X163627581Y-103343869D01*
X163824067Y-103637933D01*
X163898296Y-103687531D01*
X165260471Y-105049707D01*
X165310068Y-105123934D01*
X165604131Y-105320420D01*
X165679305Y-105335373D01*
X165703044Y-105454720D01*
X165041296Y-106116469D01*
X164967067Y-106166067D01*
X164770581Y-106460131D01*
X164719000Y-106719444D01*
X164701584Y-106807000D01*
X164719000Y-106894555D01*
X164719001Y-110057286D01*
X164609472Y-110130471D01*
X164303359Y-110588600D01*
X164223000Y-110992593D01*
X164223000Y-111765406D01*
X164303359Y-112169399D01*
X164609471Y-112627528D01*
X165067600Y-112933641D01*
X165608000Y-113041133D01*
X166148399Y-112933641D01*
X166606528Y-112627529D01*
X166912641Y-112169400D01*
X166993000Y-111765407D01*
X166993000Y-110992594D01*
X166912641Y-110588601D01*
X166606529Y-110130471D01*
X166497000Y-110057286D01*
X166497000Y-107175235D01*
X166960280Y-106711956D01*
X166990667Y-106718000D01*
X167273333Y-106718000D01*
X167691909Y-106634740D01*
X168166577Y-106317577D01*
X168483740Y-105842909D01*
X168595113Y-105283000D01*
X168483740Y-104723091D01*
X168166577Y-104248423D01*
X167819036Y-104016204D01*
X168247454Y-103995778D01*
X168648005Y-103829864D01*
X168722139Y-103583745D01*
X167894000Y-102755605D01*
X167065861Y-103583745D01*
X167139995Y-103829864D01*
X167190451Y-103848000D01*
X166990667Y-103848000D01*
X166978513Y-103850418D01*
X166972934Y-103842068D01*
X166678871Y-103645582D01*
X166419557Y-103594001D01*
X166419556Y-103594001D01*
X166332001Y-103576585D01*
X166306828Y-103581592D01*
X165354000Y-102628765D01*
X165354000Y-102140737D01*
X165512765Y-102109157D01*
X165722809Y-101968809D01*
X165863157Y-101758765D01*
X165894737Y-101600000D01*
X166804364Y-101600000D01*
X166771378Y-101632986D01*
X166886253Y-101747861D01*
X166640136Y-101821995D01*
X166447035Y-102359223D01*
X166474222Y-102929454D01*
X166640136Y-103330005D01*
X166886255Y-103404139D01*
X167714395Y-102576000D01*
X168073605Y-102576000D01*
X168901745Y-103404139D01*
X169147864Y-103330005D01*
X169340965Y-102792777D01*
X169313778Y-102222546D01*
X169147864Y-101821995D01*
X168901745Y-101747861D01*
X168073605Y-102576000D01*
X167714395Y-102576000D01*
X167700252Y-102561858D01*
X167879858Y-102382252D01*
X167894000Y-102396395D01*
X168722139Y-101568255D01*
X168648005Y-101322136D01*
X168641254Y-101319710D01*
X168706862Y-101292534D01*
X169110534Y-100888862D01*
X169329000Y-100361439D01*
X169329000Y-99790561D01*
X169110534Y-99263138D01*
X168706862Y-98859466D01*
X168179439Y-98641000D01*
X167608561Y-98641000D01*
X167081138Y-98859466D01*
X166677466Y-99263138D01*
X166459000Y-99790561D01*
X166459000Y-99822000D01*
X165894737Y-99822000D01*
X165863157Y-99663235D01*
X165722809Y-99453191D01*
X165512765Y-99312843D01*
X165346921Y-99279855D01*
X165302419Y-99056130D01*
X165105933Y-98762067D01*
X165031704Y-98712469D01*
X164812531Y-98493296D01*
X164762933Y-98419067D01*
X164468870Y-98222581D01*
X164209556Y-98171000D01*
X164209555Y-98171000D01*
X164122000Y-98153584D01*
X164034445Y-98171000D01*
X163638754Y-98171000D01*
X164883355Y-96926400D01*
X166675265Y-96926400D01*
X166840423Y-97173577D01*
X167315091Y-97490740D01*
X167733667Y-97574000D01*
X168816333Y-97574000D01*
X169234909Y-97490740D01*
X169445000Y-97350361D01*
X169445000Y-107523741D01*
X169395765Y-107490843D01*
X169148000Y-107441560D01*
X167148000Y-107441560D01*
X166900235Y-107490843D01*
X166690191Y-107631191D01*
X166549843Y-107841235D01*
X166500560Y-108089000D01*
X166500560Y-109589000D01*
X166549843Y-109836765D01*
X166690191Y-110046809D01*
X166900235Y-110187157D01*
X167148000Y-110236440D01*
X169148000Y-110236440D01*
X169395765Y-110187157D01*
X169445000Y-110154259D01*
X169445000Y-115921281D01*
X169277175Y-115849430D01*
X168159605Y-116967000D01*
X169277175Y-118084570D01*
X169445000Y-118012719D01*
X169445000Y-121185000D01*
X109955000Y-121185000D01*
X109955000Y-97028002D01*
X110090084Y-97028002D01*
X109968096Y-97250039D01*
X109985633Y-97332819D01*
X110255500Y-97825896D01*
X110693517Y-98178166D01*
X111233000Y-98336000D01*
X111633000Y-98336000D01*
X111633000Y-97028000D01*
X111887000Y-97028000D01*
X111887000Y-98336000D01*
X112287000Y-98336000D01*
X112826483Y-98178166D01*
X113264500Y-97825896D01*
X113534367Y-97332819D01*
X113551904Y-97250039D01*
X113429915Y-97028000D01*
X111887000Y-97028000D01*
X111633000Y-97028000D01*
X111613000Y-97028000D01*
X111613000Y-96774000D01*
X111633000Y-96774000D01*
X111633000Y-96754000D01*
X111887000Y-96754000D01*
X111887000Y-96774000D01*
X113429915Y-96774000D01*
X113551904Y-96551961D01*
X113534367Y-96469181D01*
X113264500Y-95976104D01*
X112838501Y-95633499D01*
X113194577Y-95395577D01*
X113511740Y-94920909D01*
X113623113Y-94361000D01*
X113511740Y-93801091D01*
X113194577Y-93326423D01*
X112838501Y-93088501D01*
X113264500Y-92745896D01*
X113534367Y-92252819D01*
X113551904Y-92170039D01*
X113429915Y-91948000D01*
X111887000Y-91948000D01*
X111887000Y-91968000D01*
X111633000Y-91968000D01*
X111633000Y-91948000D01*
X111613000Y-91948000D01*
X111613000Y-91694000D01*
X111633000Y-91694000D01*
X111633000Y-91674000D01*
X111887000Y-91674000D01*
X111887000Y-91694000D01*
X113429915Y-91694000D01*
X113551904Y-91471961D01*
X113534367Y-91389181D01*
X113264500Y-90896104D01*
X112838501Y-90553499D01*
X113194577Y-90315577D01*
X113511740Y-89840909D01*
X113623113Y-89281000D01*
X113511740Y-88721091D01*
X113194577Y-88246423D01*
X112842242Y-88011000D01*
X113194577Y-87775577D01*
X113511740Y-87300909D01*
X113623113Y-86741000D01*
X113511740Y-86181091D01*
X113194577Y-85706423D01*
X112842242Y-85471000D01*
X113194577Y-85235577D01*
X113511740Y-84760909D01*
X113623113Y-84201000D01*
X113511740Y-83641091D01*
X113194577Y-83166423D01*
X112842242Y-82931000D01*
X113194577Y-82695577D01*
X113351369Y-82460921D01*
X114020601Y-83130153D01*
G36*
X131245849Y-116052600D02*
X128728551Y-116052600D01*
X128651000Y-116037174D01*
X128573449Y-116052600D01*
X128573448Y-116052600D01*
X128343772Y-116098285D01*
X128083316Y-116272316D01*
X128039386Y-116338062D01*
X127133064Y-117244385D01*
X127133061Y-117244387D01*
X126275565Y-118101883D01*
X126125333Y-118072000D01*
X125842667Y-118072000D01*
X125424091Y-118155260D01*
X124949423Y-118472423D01*
X124714000Y-118824758D01*
X124478577Y-118472423D01*
X124460924Y-118460627D01*
X133930152Y-108991400D01*
X136420756Y-108991400D01*
X136548512Y-109119156D01*
X136945274Y-109283500D01*
X137374726Y-109283500D01*
X137771488Y-109119156D01*
X138075156Y-108815488D01*
X138239500Y-108418726D01*
X138239500Y-107989274D01*
X138207450Y-107911899D01*
X139386549Y-107911899D01*
X131245849Y-116052600D01*
X131245849Y-116052600D01*
G37*
X131245849Y-116052600D02*
X128728551Y-116052600D01*
X128651000Y-116037174D01*
X128573449Y-116052600D01*
X128573448Y-116052600D01*
X128343772Y-116098285D01*
X128083316Y-116272316D01*
X128039386Y-116338062D01*
X127133064Y-117244385D01*
X127133061Y-117244387D01*
X126275565Y-118101883D01*
X126125333Y-118072000D01*
X125842667Y-118072000D01*
X125424091Y-118155260D01*
X124949423Y-118472423D01*
X124714000Y-118824758D01*
X124478577Y-118472423D01*
X124460924Y-118460627D01*
X133930152Y-108991400D01*
X136420756Y-108991400D01*
X136548512Y-109119156D01*
X136945274Y-109283500D01*
X137374726Y-109283500D01*
X137771488Y-109119156D01*
X138075156Y-108815488D01*
X138239500Y-108418726D01*
X138239500Y-107989274D01*
X138207450Y-107911899D01*
X139386549Y-107911899D01*
X131245849Y-116052600D01*
G36*
X161018035Y-100494223D02*
X161045222Y-101064454D01*
X161211136Y-101465005D01*
X161457255Y-101539139D01*
X162285395Y-100711000D01*
X162271252Y-100696858D01*
X162450858Y-100517253D01*
X162465000Y-100531395D01*
X162479142Y-100517252D01*
X162658748Y-100696858D01*
X162644605Y-100711000D01*
X162658748Y-100725142D01*
X162479142Y-100904748D01*
X162465000Y-100890605D01*
X161636861Y-101718745D01*
X161710995Y-101964864D01*
X161889676Y-102029089D01*
X158437294Y-105481471D01*
X158407000Y-105501713D01*
X158407000Y-104997561D01*
X158188534Y-104470138D01*
X157784862Y-104066466D01*
X157257439Y-103848000D01*
X156686561Y-103848000D01*
X156159138Y-104066466D01*
X155755466Y-104470138D01*
X155537000Y-104997561D01*
X155537000Y-105568439D01*
X155755466Y-106095862D01*
X156159138Y-106499534D01*
X156591001Y-106678418D01*
X156591000Y-108425263D01*
X156432235Y-108456843D01*
X156222191Y-108597191D01*
X156081843Y-108807235D01*
X156032560Y-109055000D01*
X156032560Y-109860888D01*
X154439171Y-108267500D01*
X154646726Y-108267500D01*
X155043488Y-108103156D01*
X155347156Y-107799488D01*
X155511500Y-107402726D01*
X155511500Y-106973274D01*
X155347156Y-106576512D01*
X155219400Y-106448756D01*
X155219400Y-102478493D01*
X156146174Y-101551719D01*
X156445423Y-101999577D01*
X156920091Y-102316740D01*
X157338667Y-102400000D01*
X157621333Y-102400000D01*
X158039909Y-102316740D01*
X158514577Y-101999577D01*
X158611848Y-101854000D01*
X159043445Y-101854000D01*
X159131000Y-101871416D01*
X159218555Y-101854000D01*
X159218556Y-101854000D01*
X159477870Y-101802419D01*
X159771933Y-101605933D01*
X159821531Y-101531704D01*
X161107268Y-100245968D01*
X161018035Y-100494223D01*
X161018035Y-100494223D01*
G37*
X161018035Y-100494223D02*
X161045222Y-101064454D01*
X161211136Y-101465005D01*
X161457255Y-101539139D01*
X162285395Y-100711000D01*
X162271252Y-100696858D01*
X162450858Y-100517253D01*
X162465000Y-100531395D01*
X162479142Y-100517252D01*
X162658748Y-100696858D01*
X162644605Y-100711000D01*
X162658748Y-100725142D01*
X162479142Y-100904748D01*
X162465000Y-100890605D01*
X161636861Y-101718745D01*
X161710995Y-101964864D01*
X161889676Y-102029089D01*
X158437294Y-105481471D01*
X158407000Y-105501713D01*
X158407000Y-104997561D01*
X158188534Y-104470138D01*
X157784862Y-104066466D01*
X157257439Y-103848000D01*
X156686561Y-103848000D01*
X156159138Y-104066466D01*
X155755466Y-104470138D01*
X155537000Y-104997561D01*
X155537000Y-105568439D01*
X155755466Y-106095862D01*
X156159138Y-106499534D01*
X156591001Y-106678418D01*
X156591000Y-108425263D01*
X156432235Y-108456843D01*
X156222191Y-108597191D01*
X156081843Y-108807235D01*
X156032560Y-109055000D01*
X156032560Y-109860888D01*
X154439171Y-108267500D01*
X154646726Y-108267500D01*
X155043488Y-108103156D01*
X155347156Y-107799488D01*
X155511500Y-107402726D01*
X155511500Y-106973274D01*
X155347156Y-106576512D01*
X155219400Y-106448756D01*
X155219400Y-102478493D01*
X156146174Y-101551719D01*
X156445423Y-101999577D01*
X156920091Y-102316740D01*
X157338667Y-102400000D01*
X157621333Y-102400000D01*
X158039909Y-102316740D01*
X158514577Y-101999577D01*
X158611848Y-101854000D01*
X159043445Y-101854000D01*
X159131000Y-101871416D01*
X159218555Y-101854000D01*
X159218556Y-101854000D01*
X159477870Y-101802419D01*
X159771933Y-101605933D01*
X159821531Y-101531704D01*
X161107268Y-100245968D01*
X161018035Y-100494223D01*
G36*
X143891000Y-104140000D02*
X143911000Y-104140000D01*
X143911000Y-104394000D01*
X143891000Y-104394000D01*
X143891000Y-104414000D01*
X143637000Y-104414000D01*
X143637000Y-104394000D01*
X143617000Y-104394000D01*
X143617000Y-104140000D01*
X143637000Y-104140000D01*
X143637000Y-104120000D01*
X143891000Y-104120000D01*
X143891000Y-104140000D01*
X143891000Y-104140000D01*
G37*
X143891000Y-104140000D02*
X143911000Y-104140000D01*
X143911000Y-104394000D01*
X143891000Y-104394000D01*
X143891000Y-104414000D01*
X143637000Y-104414000D01*
X143637000Y-104394000D01*
X143617000Y-104394000D01*
X143617000Y-104140000D01*
X143637000Y-104140000D01*
X143637000Y-104120000D01*
X143891000Y-104120000D01*
X143891000Y-104140000D01*
G36*
X128642448Y-102832000D02*
X128382667Y-102832000D01*
X127964091Y-102915260D01*
X127489423Y-103232423D01*
X127254000Y-103584758D01*
X127018577Y-103232423D01*
X126543909Y-102915260D01*
X126125333Y-102832000D01*
X125842667Y-102832000D01*
X125424091Y-102915260D01*
X124949423Y-103232423D01*
X124714000Y-103584758D01*
X124478577Y-103232423D01*
X124003909Y-102915260D01*
X123585333Y-102832000D01*
X123302667Y-102832000D01*
X122884091Y-102915260D01*
X122409423Y-103232423D01*
X122174000Y-103584758D01*
X121938577Y-103232423D01*
X121463909Y-102915260D01*
X121364066Y-102895400D01*
X121842449Y-102895400D01*
X121920000Y-102910826D01*
X121997551Y-102895400D01*
X121997552Y-102895400D01*
X122227228Y-102849715D01*
X122487684Y-102675684D01*
X122531616Y-102609935D01*
X123945938Y-101195614D01*
X124011684Y-101151684D01*
X124123796Y-100983896D01*
X124185714Y-100891230D01*
X124185714Y-100891229D01*
X124185715Y-100891228D01*
X124231400Y-100661552D01*
X124246826Y-100584001D01*
X124231400Y-100506450D01*
X124231400Y-98420951D01*
X128642448Y-102832000D01*
X128642448Y-102832000D01*
G37*
X128642448Y-102832000D02*
X128382667Y-102832000D01*
X127964091Y-102915260D01*
X127489423Y-103232423D01*
X127254000Y-103584758D01*
X127018577Y-103232423D01*
X126543909Y-102915260D01*
X126125333Y-102832000D01*
X125842667Y-102832000D01*
X125424091Y-102915260D01*
X124949423Y-103232423D01*
X124714000Y-103584758D01*
X124478577Y-103232423D01*
X124003909Y-102915260D01*
X123585333Y-102832000D01*
X123302667Y-102832000D01*
X122884091Y-102915260D01*
X122409423Y-103232423D01*
X122174000Y-103584758D01*
X121938577Y-103232423D01*
X121463909Y-102915260D01*
X121364066Y-102895400D01*
X121842449Y-102895400D01*
X121920000Y-102910826D01*
X121997551Y-102895400D01*
X121997552Y-102895400D01*
X122227228Y-102849715D01*
X122487684Y-102675684D01*
X122531616Y-102609935D01*
X123945938Y-101195614D01*
X124011684Y-101151684D01*
X124123796Y-100983896D01*
X124185714Y-100891230D01*
X124185714Y-100891229D01*
X124185715Y-100891228D01*
X124231400Y-100661552D01*
X124246826Y-100584001D01*
X124231400Y-100506450D01*
X124231400Y-98420951D01*
X128642448Y-102832000D01*
G36*
X140170423Y-92474577D02*
X140645091Y-92791740D01*
X140817600Y-92826054D01*
X140817601Y-95085000D01*
X140684561Y-95085000D01*
X140157138Y-95303466D01*
X139753466Y-95707138D01*
X139535000Y-96234561D01*
X139535000Y-96805439D01*
X139753466Y-97332862D01*
X140157138Y-97736534D01*
X140182601Y-97747081D01*
X140182600Y-99495848D01*
X139157949Y-100520500D01*
X138977274Y-100520500D01*
X138580512Y-100684844D01*
X138276844Y-100988512D01*
X138112500Y-101385274D01*
X138112500Y-101814726D01*
X138276844Y-102211488D01*
X138580512Y-102515156D01*
X138977274Y-102679500D01*
X139157948Y-102679500D01*
X138975565Y-102861883D01*
X138825333Y-102832000D01*
X138542667Y-102832000D01*
X138124091Y-102915260D01*
X137649423Y-103232423D01*
X137414000Y-103584758D01*
X137178577Y-103232423D01*
X136703909Y-102915260D01*
X136285333Y-102832000D01*
X136002667Y-102832000D01*
X135852434Y-102861883D01*
X135498415Y-102507864D01*
X135454483Y-102442115D01*
X135194027Y-102268084D01*
X134964351Y-102222399D01*
X134964350Y-102222399D01*
X134886799Y-102206973D01*
X134828183Y-102218632D01*
X134723616Y-102114065D01*
X134679684Y-102048316D01*
X134650003Y-102028484D01*
X134627640Y-102000658D01*
X134520652Y-101942054D01*
X134419228Y-101874285D01*
X134307525Y-101852066D01*
X132751340Y-101362532D01*
X135552073Y-101362532D01*
X135650736Y-101629387D01*
X136260461Y-101855908D01*
X136910460Y-101831856D01*
X137399264Y-101629387D01*
X137497927Y-101362532D01*
X136525000Y-100389605D01*
X135552073Y-101362532D01*
X132751340Y-101362532D01*
X132527907Y-101292246D01*
X132796740Y-100889909D01*
X132908113Y-100330000D01*
X132850117Y-100038435D01*
X132943091Y-99945461D01*
X134879092Y-99945461D01*
X134903144Y-100595460D01*
X135105613Y-101084264D01*
X135372468Y-101182927D01*
X136345395Y-100210000D01*
X136704605Y-100210000D01*
X137677532Y-101182927D01*
X137944387Y-101084264D01*
X138170908Y-100474539D01*
X138146856Y-99824540D01*
X137944387Y-99335736D01*
X137677532Y-99237073D01*
X136704605Y-100210000D01*
X136345395Y-100210000D01*
X135372468Y-99237073D01*
X135105613Y-99335736D01*
X134879092Y-99945461D01*
X132943091Y-99945461D01*
X133089938Y-99798614D01*
X133155684Y-99754684D01*
X133329715Y-99494228D01*
X133375400Y-99264552D01*
X133375400Y-99264551D01*
X133390826Y-99187001D01*
X133375400Y-99109450D01*
X133375400Y-99057468D01*
X135552073Y-99057468D01*
X136525000Y-100030395D01*
X137497927Y-99057468D01*
X137399264Y-98790613D01*
X136789539Y-98564092D01*
X136139540Y-98588144D01*
X135650736Y-98790613D01*
X135552073Y-99057468D01*
X133375400Y-99057468D01*
X133375400Y-96449735D01*
X133622577Y-96284577D01*
X133939740Y-95809909D01*
X134051113Y-95250000D01*
X133997148Y-94978700D01*
X134516386Y-95497938D01*
X134560316Y-95563684D01*
X134721722Y-95671532D01*
X134820770Y-95737714D01*
X134820771Y-95737714D01*
X134820772Y-95737715D01*
X135050448Y-95783400D01*
X135127999Y-95798826D01*
X135205550Y-95783400D01*
X137082449Y-95783400D01*
X137160000Y-95798826D01*
X137237551Y-95783400D01*
X137237552Y-95783400D01*
X137467228Y-95737715D01*
X137727684Y-95563684D01*
X137771616Y-95497935D01*
X139693938Y-93575614D01*
X139759684Y-93531684D01*
X139933715Y-93271228D01*
X139979400Y-93041552D01*
X139979400Y-93041551D01*
X139994826Y-92964000D01*
X139979400Y-92886449D01*
X139979400Y-92188691D01*
X140170423Y-92474577D01*
X140170423Y-92474577D01*
G37*
X140170423Y-92474577D02*
X140645091Y-92791740D01*
X140817600Y-92826054D01*
X140817601Y-95085000D01*
X140684561Y-95085000D01*
X140157138Y-95303466D01*
X139753466Y-95707138D01*
X139535000Y-96234561D01*
X139535000Y-96805439D01*
X139753466Y-97332862D01*
X140157138Y-97736534D01*
X140182601Y-97747081D01*
X140182600Y-99495848D01*
X139157949Y-100520500D01*
X138977274Y-100520500D01*
X138580512Y-100684844D01*
X138276844Y-100988512D01*
X138112500Y-101385274D01*
X138112500Y-101814726D01*
X138276844Y-102211488D01*
X138580512Y-102515156D01*
X138977274Y-102679500D01*
X139157948Y-102679500D01*
X138975565Y-102861883D01*
X138825333Y-102832000D01*
X138542667Y-102832000D01*
X138124091Y-102915260D01*
X137649423Y-103232423D01*
X137414000Y-103584758D01*
X137178577Y-103232423D01*
X136703909Y-102915260D01*
X136285333Y-102832000D01*
X136002667Y-102832000D01*
X135852434Y-102861883D01*
X135498415Y-102507864D01*
X135454483Y-102442115D01*
X135194027Y-102268084D01*
X134964351Y-102222399D01*
X134964350Y-102222399D01*
X134886799Y-102206973D01*
X134828183Y-102218632D01*
X134723616Y-102114065D01*
X134679684Y-102048316D01*
X134650003Y-102028484D01*
X134627640Y-102000658D01*
X134520652Y-101942054D01*
X134419228Y-101874285D01*
X134307525Y-101852066D01*
X132751340Y-101362532D01*
X135552073Y-101362532D01*
X135650736Y-101629387D01*
X136260461Y-101855908D01*
X136910460Y-101831856D01*
X137399264Y-101629387D01*
X137497927Y-101362532D01*
X136525000Y-100389605D01*
X135552073Y-101362532D01*
X132751340Y-101362532D01*
X132527907Y-101292246D01*
X132796740Y-100889909D01*
X132908113Y-100330000D01*
X132850117Y-100038435D01*
X132943091Y-99945461D01*
X134879092Y-99945461D01*
X134903144Y-100595460D01*
X135105613Y-101084264D01*
X135372468Y-101182927D01*
X136345395Y-100210000D01*
X136704605Y-100210000D01*
X137677532Y-101182927D01*
X137944387Y-101084264D01*
X138170908Y-100474539D01*
X138146856Y-99824540D01*
X137944387Y-99335736D01*
X137677532Y-99237073D01*
X136704605Y-100210000D01*
X136345395Y-100210000D01*
X135372468Y-99237073D01*
X135105613Y-99335736D01*
X134879092Y-99945461D01*
X132943091Y-99945461D01*
X133089938Y-99798614D01*
X133155684Y-99754684D01*
X133329715Y-99494228D01*
X133375400Y-99264552D01*
X133375400Y-99264551D01*
X133390826Y-99187001D01*
X133375400Y-99109450D01*
X133375400Y-99057468D01*
X135552073Y-99057468D01*
X136525000Y-100030395D01*
X137497927Y-99057468D01*
X137399264Y-98790613D01*
X136789539Y-98564092D01*
X136139540Y-98588144D01*
X135650736Y-98790613D01*
X135552073Y-99057468D01*
X133375400Y-99057468D01*
X133375400Y-96449735D01*
X133622577Y-96284577D01*
X133939740Y-95809909D01*
X134051113Y-95250000D01*
X133997148Y-94978700D01*
X134516386Y-95497938D01*
X134560316Y-95563684D01*
X134721722Y-95671532D01*
X134820770Y-95737714D01*
X134820771Y-95737714D01*
X134820772Y-95737715D01*
X135050448Y-95783400D01*
X135127999Y-95798826D01*
X135205550Y-95783400D01*
X137082449Y-95783400D01*
X137160000Y-95798826D01*
X137237551Y-95783400D01*
X137237552Y-95783400D01*
X137467228Y-95737715D01*
X137727684Y-95563684D01*
X137771616Y-95497935D01*
X139693938Y-93575614D01*
X139759684Y-93531684D01*
X139933715Y-93271228D01*
X139979400Y-93041552D01*
X139979400Y-93041551D01*
X139994826Y-92964000D01*
X139979400Y-92886449D01*
X139979400Y-92188691D01*
X140170423Y-92474577D01*
G36*
X146504772Y-87101715D02*
X146812000Y-87162826D01*
X146889552Y-87147400D01*
X147625265Y-87147400D01*
X147790423Y-87394577D01*
X148142758Y-87630000D01*
X147790423Y-87865423D01*
X147473260Y-88340091D01*
X147361887Y-88900000D01*
X147473260Y-89459909D01*
X147790423Y-89934577D01*
X147911106Y-90015215D01*
X147777235Y-90041843D01*
X147567191Y-90182191D01*
X147426843Y-90392235D01*
X147377560Y-90640000D01*
X147377560Y-92240000D01*
X147426843Y-92487765D01*
X147567191Y-92697809D01*
X147777235Y-92838157D01*
X148025000Y-92887440D01*
X150425000Y-92887440D01*
X150672765Y-92838157D01*
X150882809Y-92697809D01*
X151023157Y-92487765D01*
X151072440Y-92240000D01*
X151072440Y-90640000D01*
X151023157Y-90392235D01*
X150882809Y-90182191D01*
X150672765Y-90041843D01*
X150538894Y-90015215D01*
X150659577Y-89934577D01*
X150824735Y-89687400D01*
X153403365Y-89687400D01*
X153357294Y-89733471D01*
X153283068Y-89783067D01*
X153233472Y-89857293D01*
X153233471Y-89857294D01*
X153086582Y-90077130D01*
X153017584Y-90424000D01*
X153035001Y-90511559D01*
X153035000Y-94866356D01*
X153008844Y-94892512D01*
X152844500Y-95289274D01*
X152844500Y-95718726D01*
X153008844Y-96115488D01*
X153312512Y-96419156D01*
X153709274Y-96583500D01*
X154138726Y-96583500D01*
X154535488Y-96419156D01*
X154839156Y-96115488D01*
X155003500Y-95718726D01*
X155003500Y-95289274D01*
X154839156Y-94892512D01*
X154813000Y-94866356D01*
X154813000Y-93291707D01*
X155015091Y-93426740D01*
X155433667Y-93510000D01*
X155716333Y-93510000D01*
X156134909Y-93426740D01*
X156609577Y-93109577D01*
X156926740Y-92634909D01*
X157038113Y-92075000D01*
X156980117Y-91783434D01*
X159216238Y-89547314D01*
X159220423Y-89553577D01*
X159576499Y-89791499D01*
X159150500Y-90134104D01*
X158880633Y-90627181D01*
X158863096Y-90709961D01*
X158985085Y-90932000D01*
X160528000Y-90932000D01*
X160528000Y-90912000D01*
X160782000Y-90912000D01*
X160782000Y-90932000D01*
X162324915Y-90932000D01*
X162446904Y-90709961D01*
X162429367Y-90627181D01*
X162159500Y-90134104D01*
X161733501Y-89791499D01*
X162089577Y-89553577D01*
X162406740Y-89078909D01*
X162518113Y-88519000D01*
X162424662Y-88049190D01*
X165409859Y-88049190D01*
X165487410Y-88064616D01*
X165564961Y-88049190D01*
X165564962Y-88049190D01*
X165794638Y-88003505D01*
X166055094Y-87829474D01*
X166099026Y-87763725D01*
X166845669Y-87017082D01*
X167196499Y-87251499D01*
X166770500Y-87594104D01*
X166500633Y-88087181D01*
X166483096Y-88169961D01*
X166605085Y-88392000D01*
X168148000Y-88392000D01*
X168148000Y-88372000D01*
X168402000Y-88372000D01*
X168402000Y-88392000D01*
X168422000Y-88392000D01*
X168422000Y-88646000D01*
X168402000Y-88646000D01*
X168402000Y-88666000D01*
X168148000Y-88666000D01*
X168148000Y-88646000D01*
X166605085Y-88646000D01*
X166483096Y-88868039D01*
X166500633Y-88950819D01*
X166770500Y-89443896D01*
X167196499Y-89786501D01*
X166840423Y-90024423D01*
X166523260Y-90499091D01*
X166411887Y-91059000D01*
X166469883Y-91350566D01*
X166268264Y-91552185D01*
X166202516Y-91596116D01*
X166082141Y-91776270D01*
X162330985Y-95527427D01*
X162159500Y-95214104D01*
X161733501Y-94871499D01*
X162089577Y-94633577D01*
X162406740Y-94158909D01*
X162518113Y-93599000D01*
X162406740Y-93039091D01*
X162089577Y-92564423D01*
X161733501Y-92326501D01*
X162159500Y-91983896D01*
X162429367Y-91490819D01*
X162446904Y-91408039D01*
X162324915Y-91186000D01*
X160782000Y-91186000D01*
X160782000Y-91206000D01*
X160528000Y-91206000D01*
X160528000Y-91186000D01*
X158985085Y-91186000D01*
X158863096Y-91408039D01*
X158880633Y-91490819D01*
X159150500Y-91983896D01*
X159576499Y-92326501D01*
X159220423Y-92564423D01*
X158903260Y-93039091D01*
X158791887Y-93599000D01*
X158903260Y-94158909D01*
X159220423Y-94633577D01*
X159576499Y-94871499D01*
X159150500Y-95214104D01*
X158880633Y-95707181D01*
X158863096Y-95789961D01*
X158985085Y-96012000D01*
X160528000Y-96012000D01*
X160528000Y-95992000D01*
X160782000Y-95992000D01*
X160782000Y-96012000D01*
X160802000Y-96012000D01*
X160802000Y-96266000D01*
X160782000Y-96266000D01*
X160782000Y-96286000D01*
X160528000Y-96286000D01*
X160528000Y-96266000D01*
X158985085Y-96266000D01*
X158863096Y-96488039D01*
X158880633Y-96570819D01*
X158901427Y-96608812D01*
X155157339Y-96608812D01*
X155079788Y-96593386D01*
X155002237Y-96608812D01*
X155002236Y-96608812D01*
X154772560Y-96654497D01*
X154512104Y-96828528D01*
X154468174Y-96894274D01*
X149533849Y-101828600D01*
X148485796Y-101828600D01*
X148536534Y-101777862D01*
X148755000Y-101250439D01*
X148755000Y-100679561D01*
X148536534Y-100152138D01*
X148132862Y-99748466D01*
X148107400Y-99737919D01*
X148107400Y-99524781D01*
X150088286Y-97543896D01*
X150095423Y-97554577D01*
X150570091Y-97871740D01*
X150988667Y-97955000D01*
X151271333Y-97955000D01*
X151689909Y-97871740D01*
X152164577Y-97554577D01*
X152481740Y-97079909D01*
X152593113Y-96520000D01*
X152481740Y-95960091D01*
X152164577Y-95485423D01*
X151689909Y-95168260D01*
X151271333Y-95085000D01*
X150988667Y-95085000D01*
X150570091Y-95168260D01*
X150095423Y-95485423D01*
X149931673Y-95730493D01*
X149921079Y-95732600D01*
X146819632Y-95732600D01*
X145940838Y-94853806D01*
X146203156Y-94591488D01*
X146367500Y-94194726D01*
X146367500Y-93765274D01*
X146203156Y-93368512D01*
X146075400Y-93240756D01*
X146075400Y-88115244D01*
X146203156Y-87987488D01*
X146367500Y-87590726D01*
X146367500Y-87161274D01*
X146280857Y-86952100D01*
X146504772Y-87101715D01*
X146504772Y-87101715D01*
G37*
X146504772Y-87101715D02*
X146812000Y-87162826D01*
X146889552Y-87147400D01*
X147625265Y-87147400D01*
X147790423Y-87394577D01*
X148142758Y-87630000D01*
X147790423Y-87865423D01*
X147473260Y-88340091D01*
X147361887Y-88900000D01*
X147473260Y-89459909D01*
X147790423Y-89934577D01*
X147911106Y-90015215D01*
X147777235Y-90041843D01*
X147567191Y-90182191D01*
X147426843Y-90392235D01*
X147377560Y-90640000D01*
X147377560Y-92240000D01*
X147426843Y-92487765D01*
X147567191Y-92697809D01*
X147777235Y-92838157D01*
X148025000Y-92887440D01*
X150425000Y-92887440D01*
X150672765Y-92838157D01*
X150882809Y-92697809D01*
X151023157Y-92487765D01*
X151072440Y-92240000D01*
X151072440Y-90640000D01*
X151023157Y-90392235D01*
X150882809Y-90182191D01*
X150672765Y-90041843D01*
X150538894Y-90015215D01*
X150659577Y-89934577D01*
X150824735Y-89687400D01*
X153403365Y-89687400D01*
X153357294Y-89733471D01*
X153283068Y-89783067D01*
X153233472Y-89857293D01*
X153233471Y-89857294D01*
X153086582Y-90077130D01*
X153017584Y-90424000D01*
X153035001Y-90511559D01*
X153035000Y-94866356D01*
X153008844Y-94892512D01*
X152844500Y-95289274D01*
X152844500Y-95718726D01*
X153008844Y-96115488D01*
X153312512Y-96419156D01*
X153709274Y-96583500D01*
X154138726Y-96583500D01*
X154535488Y-96419156D01*
X154839156Y-96115488D01*
X155003500Y-95718726D01*
X155003500Y-95289274D01*
X154839156Y-94892512D01*
X154813000Y-94866356D01*
X154813000Y-93291707D01*
X155015091Y-93426740D01*
X155433667Y-93510000D01*
X155716333Y-93510000D01*
X156134909Y-93426740D01*
X156609577Y-93109577D01*
X156926740Y-92634909D01*
X157038113Y-92075000D01*
X156980117Y-91783434D01*
X159216238Y-89547314D01*
X159220423Y-89553577D01*
X159576499Y-89791499D01*
X159150500Y-90134104D01*
X158880633Y-90627181D01*
X158863096Y-90709961D01*
X158985085Y-90932000D01*
X160528000Y-90932000D01*
X160528000Y-90912000D01*
X160782000Y-90912000D01*
X160782000Y-90932000D01*
X162324915Y-90932000D01*
X162446904Y-90709961D01*
X162429367Y-90627181D01*
X162159500Y-90134104D01*
X161733501Y-89791499D01*
X162089577Y-89553577D01*
X162406740Y-89078909D01*
X162518113Y-88519000D01*
X162424662Y-88049190D01*
X165409859Y-88049190D01*
X165487410Y-88064616D01*
X165564961Y-88049190D01*
X165564962Y-88049190D01*
X165794638Y-88003505D01*
X166055094Y-87829474D01*
X166099026Y-87763725D01*
X166845669Y-87017082D01*
X167196499Y-87251499D01*
X166770500Y-87594104D01*
X166500633Y-88087181D01*
X166483096Y-88169961D01*
X166605085Y-88392000D01*
X168148000Y-88392000D01*
X168148000Y-88372000D01*
X168402000Y-88372000D01*
X168402000Y-88392000D01*
X168422000Y-88392000D01*
X168422000Y-88646000D01*
X168402000Y-88646000D01*
X168402000Y-88666000D01*
X168148000Y-88666000D01*
X168148000Y-88646000D01*
X166605085Y-88646000D01*
X166483096Y-88868039D01*
X166500633Y-88950819D01*
X166770500Y-89443896D01*
X167196499Y-89786501D01*
X166840423Y-90024423D01*
X166523260Y-90499091D01*
X166411887Y-91059000D01*
X166469883Y-91350566D01*
X166268264Y-91552185D01*
X166202516Y-91596116D01*
X166082141Y-91776270D01*
X162330985Y-95527427D01*
X162159500Y-95214104D01*
X161733501Y-94871499D01*
X162089577Y-94633577D01*
X162406740Y-94158909D01*
X162518113Y-93599000D01*
X162406740Y-93039091D01*
X162089577Y-92564423D01*
X161733501Y-92326501D01*
X162159500Y-91983896D01*
X162429367Y-91490819D01*
X162446904Y-91408039D01*
X162324915Y-91186000D01*
X160782000Y-91186000D01*
X160782000Y-91206000D01*
X160528000Y-91206000D01*
X160528000Y-91186000D01*
X158985085Y-91186000D01*
X158863096Y-91408039D01*
X158880633Y-91490819D01*
X159150500Y-91983896D01*
X159576499Y-92326501D01*
X159220423Y-92564423D01*
X158903260Y-93039091D01*
X158791887Y-93599000D01*
X158903260Y-94158909D01*
X159220423Y-94633577D01*
X159576499Y-94871499D01*
X159150500Y-95214104D01*
X158880633Y-95707181D01*
X158863096Y-95789961D01*
X158985085Y-96012000D01*
X160528000Y-96012000D01*
X160528000Y-95992000D01*
X160782000Y-95992000D01*
X160782000Y-96012000D01*
X160802000Y-96012000D01*
X160802000Y-96266000D01*
X160782000Y-96266000D01*
X160782000Y-96286000D01*
X160528000Y-96286000D01*
X160528000Y-96266000D01*
X158985085Y-96266000D01*
X158863096Y-96488039D01*
X158880633Y-96570819D01*
X158901427Y-96608812D01*
X155157339Y-96608812D01*
X155079788Y-96593386D01*
X155002237Y-96608812D01*
X155002236Y-96608812D01*
X154772560Y-96654497D01*
X154512104Y-96828528D01*
X154468174Y-96894274D01*
X149533849Y-101828600D01*
X148485796Y-101828600D01*
X148536534Y-101777862D01*
X148755000Y-101250439D01*
X148755000Y-100679561D01*
X148536534Y-100152138D01*
X148132862Y-99748466D01*
X148107400Y-99737919D01*
X148107400Y-99524781D01*
X150088286Y-97543896D01*
X150095423Y-97554577D01*
X150570091Y-97871740D01*
X150988667Y-97955000D01*
X151271333Y-97955000D01*
X151689909Y-97871740D01*
X152164577Y-97554577D01*
X152481740Y-97079909D01*
X152593113Y-96520000D01*
X152481740Y-95960091D01*
X152164577Y-95485423D01*
X151689909Y-95168260D01*
X151271333Y-95085000D01*
X150988667Y-95085000D01*
X150570091Y-95168260D01*
X150095423Y-95485423D01*
X149931673Y-95730493D01*
X149921079Y-95732600D01*
X146819632Y-95732600D01*
X145940838Y-94853806D01*
X146203156Y-94591488D01*
X146367500Y-94194726D01*
X146367500Y-93765274D01*
X146203156Y-93368512D01*
X146075400Y-93240756D01*
X146075400Y-88115244D01*
X146203156Y-87987488D01*
X146367500Y-87590726D01*
X146367500Y-87161274D01*
X146280857Y-86952100D01*
X146504772Y-87101715D01*
G36*
X142976600Y-93712969D02*
X142961174Y-93790520D01*
X142976600Y-93868071D01*
X143022285Y-94097747D01*
X143196316Y-94358204D01*
X143262065Y-94402136D01*
X145881866Y-97021938D01*
X145925796Y-97087684D01*
X146186252Y-97261715D01*
X146415928Y-97307400D01*
X146415929Y-97307400D01*
X146493480Y-97322826D01*
X146571031Y-97307400D01*
X148097679Y-97307400D01*
X146818065Y-98587014D01*
X146752316Y-98630946D01*
X146578285Y-98891403D01*
X146552870Y-99019174D01*
X146517174Y-99198630D01*
X146532600Y-99276181D01*
X146532600Y-99737919D01*
X146507138Y-99748466D01*
X146103466Y-100152138D01*
X145885000Y-100679561D01*
X145885000Y-101250439D01*
X146103466Y-101777862D01*
X146154204Y-101828600D01*
X140412551Y-101828600D01*
X140335000Y-101813174D01*
X140266499Y-101826800D01*
X140271500Y-101814726D01*
X140271500Y-101634051D01*
X141471938Y-100433614D01*
X141537684Y-100389684D01*
X141711715Y-100129228D01*
X141757400Y-99899552D01*
X141757400Y-99899551D01*
X141772826Y-99822000D01*
X141757400Y-99744449D01*
X141757400Y-97747081D01*
X141782862Y-97736534D01*
X142186534Y-97332862D01*
X142405000Y-96805439D01*
X142405000Y-96234561D01*
X142359935Y-96125765D01*
X142392400Y-95962552D01*
X142392400Y-95962551D01*
X142407826Y-95885000D01*
X142392400Y-95807449D01*
X142392400Y-92826054D01*
X142564909Y-92791740D01*
X142976600Y-92516657D01*
X142976600Y-93712969D01*
X142976600Y-93712969D01*
G37*
X142976600Y-93712969D02*
X142961174Y-93790520D01*
X142976600Y-93868071D01*
X143022285Y-94097747D01*
X143196316Y-94358204D01*
X143262065Y-94402136D01*
X145881866Y-97021938D01*
X145925796Y-97087684D01*
X146186252Y-97261715D01*
X146415928Y-97307400D01*
X146415929Y-97307400D01*
X146493480Y-97322826D01*
X146571031Y-97307400D01*
X148097679Y-97307400D01*
X146818065Y-98587014D01*
X146752316Y-98630946D01*
X146578285Y-98891403D01*
X146552870Y-99019174D01*
X146517174Y-99198630D01*
X146532600Y-99276181D01*
X146532600Y-99737919D01*
X146507138Y-99748466D01*
X146103466Y-100152138D01*
X145885000Y-100679561D01*
X145885000Y-101250439D01*
X146103466Y-101777862D01*
X146154204Y-101828600D01*
X140412551Y-101828600D01*
X140335000Y-101813174D01*
X140266499Y-101826800D01*
X140271500Y-101814726D01*
X140271500Y-101634051D01*
X141471938Y-100433614D01*
X141537684Y-100389684D01*
X141711715Y-100129228D01*
X141757400Y-99899552D01*
X141757400Y-99899551D01*
X141772826Y-99822000D01*
X141757400Y-99744449D01*
X141757400Y-97747081D01*
X141782862Y-97736534D01*
X142186534Y-97332862D01*
X142405000Y-96805439D01*
X142405000Y-96234561D01*
X142359935Y-96125765D01*
X142392400Y-95962552D01*
X142392400Y-95962551D01*
X142407826Y-95885000D01*
X142392400Y-95807449D01*
X142392400Y-92826054D01*
X142564909Y-92791740D01*
X142976600Y-92516657D01*
X142976600Y-93712969D01*
G36*
X121615138Y-96466534D02*
X121644537Y-96478711D01*
X121673977Y-96626715D01*
X121686286Y-96688598D01*
X121860317Y-96949054D01*
X121926063Y-96992984D01*
X122656600Y-97723522D01*
X122656601Y-99891502D01*
X122501534Y-99517138D01*
X122097862Y-99113466D01*
X121570439Y-98895000D01*
X120999561Y-98895000D01*
X120472138Y-99113466D01*
X120261393Y-99324211D01*
X119273182Y-98336000D01*
X119921333Y-98336000D01*
X120339909Y-98252740D01*
X120814577Y-97935577D01*
X121131740Y-97460909D01*
X121243113Y-96901000D01*
X121185117Y-96609435D01*
X121471578Y-96322974D01*
X121615138Y-96466534D01*
X121615138Y-96466534D01*
G37*
X121615138Y-96466534D02*
X121644537Y-96478711D01*
X121673977Y-96626715D01*
X121686286Y-96688598D01*
X121860317Y-96949054D01*
X121926063Y-96992984D01*
X122656600Y-97723522D01*
X122656601Y-99891502D01*
X122501534Y-99517138D01*
X122097862Y-99113466D01*
X121570439Y-98895000D01*
X120999561Y-98895000D01*
X120472138Y-99113466D01*
X120261393Y-99324211D01*
X119273182Y-98336000D01*
X119921333Y-98336000D01*
X120339909Y-98252740D01*
X120814577Y-97935577D01*
X121131740Y-97460909D01*
X121243113Y-96901000D01*
X121185117Y-96609435D01*
X121471578Y-96322974D01*
X121615138Y-96466534D01*
G36*
X127067728Y-95751938D02*
X127111658Y-95817684D01*
X127372114Y-95991715D01*
X127601790Y-96037400D01*
X127601791Y-96037400D01*
X127679342Y-96052826D01*
X127756893Y-96037400D01*
X131388265Y-96037400D01*
X131553423Y-96284577D01*
X131800601Y-96449736D01*
X131800600Y-98860848D01*
X131736565Y-98924883D01*
X131586333Y-98895000D01*
X131303667Y-98895000D01*
X130885091Y-98978260D01*
X130410423Y-99295423D01*
X130111174Y-99743280D01*
X125691821Y-95323927D01*
X125691819Y-94376029D01*
X127067728Y-95751938D01*
X127067728Y-95751938D01*
G37*
X127067728Y-95751938D02*
X127111658Y-95817684D01*
X127372114Y-95991715D01*
X127601790Y-96037400D01*
X127601791Y-96037400D01*
X127679342Y-96052826D01*
X127756893Y-96037400D01*
X131388265Y-96037400D01*
X131553423Y-96284577D01*
X131800601Y-96449736D01*
X131800600Y-98860848D01*
X131736565Y-98924883D01*
X131586333Y-98895000D01*
X131303667Y-98895000D01*
X130885091Y-98978260D01*
X130410423Y-99295423D01*
X130111174Y-99743280D01*
X125691821Y-95323927D01*
X125691819Y-94376029D01*
X127067728Y-95751938D01*
G36*
X116560601Y-86282444D02*
X116545174Y-86360000D01*
X116591046Y-86590613D01*
X116606286Y-86667228D01*
X116780317Y-86927684D01*
X116846063Y-86971614D01*
X117117384Y-87242935D01*
X117161316Y-87308684D01*
X117421772Y-87482715D01*
X117651448Y-87528400D01*
X117728999Y-87543826D01*
X117783348Y-87533015D01*
X117945423Y-87775577D01*
X118297758Y-88011000D01*
X117945423Y-88246423D01*
X117628260Y-88721091D01*
X117516887Y-89281000D01*
X117628260Y-89840909D01*
X117945423Y-90315577D01*
X118297758Y-90551000D01*
X117945423Y-90786423D01*
X117628260Y-91261091D01*
X117516887Y-91821000D01*
X117628260Y-92380909D01*
X117945423Y-92855577D01*
X118297758Y-93091000D01*
X117945423Y-93326423D01*
X117628260Y-93801091D01*
X117516887Y-94361000D01*
X117628260Y-94920909D01*
X117945423Y-95395577D01*
X118297758Y-95631000D01*
X117945423Y-95866423D01*
X117628260Y-96341091D01*
X117570193Y-96633012D01*
X116205011Y-95267830D01*
X116205011Y-85407500D01*
X116546726Y-85407500D01*
X116560601Y-85401753D01*
X116560601Y-86282444D01*
X116560601Y-86282444D01*
G37*
X116560601Y-86282444D02*
X116545174Y-86360000D01*
X116591046Y-86590613D01*
X116606286Y-86667228D01*
X116780317Y-86927684D01*
X116846063Y-86971614D01*
X117117384Y-87242935D01*
X117161316Y-87308684D01*
X117421772Y-87482715D01*
X117651448Y-87528400D01*
X117728999Y-87543826D01*
X117783348Y-87533015D01*
X117945423Y-87775577D01*
X118297758Y-88011000D01*
X117945423Y-88246423D01*
X117628260Y-88721091D01*
X117516887Y-89281000D01*
X117628260Y-89840909D01*
X117945423Y-90315577D01*
X118297758Y-90551000D01*
X117945423Y-90786423D01*
X117628260Y-91261091D01*
X117516887Y-91821000D01*
X117628260Y-92380909D01*
X117945423Y-92855577D01*
X118297758Y-93091000D01*
X117945423Y-93326423D01*
X117628260Y-93801091D01*
X117516887Y-94361000D01*
X117628260Y-94920909D01*
X117945423Y-95395577D01*
X118297758Y-95631000D01*
X117945423Y-95866423D01*
X117628260Y-96341091D01*
X117570193Y-96633012D01*
X116205011Y-95267830D01*
X116205011Y-85407500D01*
X116546726Y-85407500D01*
X116560601Y-85401753D01*
X116560601Y-86282444D01*
G36*
X148142758Y-77470000D02*
X147790423Y-77705423D01*
X147473260Y-78180091D01*
X147361887Y-78740000D01*
X147419883Y-79031565D01*
X145294063Y-81157386D01*
X145228317Y-81201316D01*
X145184387Y-81267062D01*
X145054286Y-81461772D01*
X144993174Y-81769000D01*
X145008601Y-81846556D01*
X145008600Y-85207330D01*
X143386121Y-86829810D01*
X143374662Y-86829810D01*
X143468113Y-86360000D01*
X143356740Y-85800091D01*
X143039577Y-85325423D01*
X142683501Y-85087501D01*
X143109500Y-84744896D01*
X143379367Y-84251819D01*
X143396904Y-84169039D01*
X143274915Y-83947000D01*
X141732000Y-83947000D01*
X141732000Y-83967000D01*
X141478000Y-83967000D01*
X141478000Y-83947000D01*
X139935085Y-83947000D01*
X139813096Y-84169039D01*
X139830633Y-84251819D01*
X140100500Y-84744896D01*
X140526499Y-85087501D01*
X140170423Y-85325423D01*
X140005265Y-85572600D01*
X139142551Y-85572600D01*
X139065000Y-85557174D01*
X138987449Y-85572600D01*
X138987448Y-85572600D01*
X138757772Y-85618285D01*
X138497316Y-85792316D01*
X138453386Y-85858062D01*
X137470902Y-86840547D01*
X137445439Y-86830000D01*
X136874561Y-86830000D01*
X136347138Y-87048466D01*
X135943466Y-87452138D01*
X135932919Y-87477600D01*
X133307081Y-87477600D01*
X133296534Y-87452138D01*
X132892862Y-87048466D01*
X132365439Y-86830000D01*
X131794561Y-86830000D01*
X131267138Y-87048466D01*
X130863466Y-87452138D01*
X130645000Y-87979561D01*
X130645000Y-88550439D01*
X130863466Y-89077862D01*
X131267138Y-89481534D01*
X131794561Y-89700000D01*
X132365439Y-89700000D01*
X132892862Y-89481534D01*
X133296534Y-89077862D01*
X133307081Y-89052400D01*
X135932919Y-89052400D01*
X135943466Y-89077862D01*
X136347138Y-89481534D01*
X136874561Y-89700000D01*
X137445439Y-89700000D01*
X137972862Y-89481534D01*
X138376534Y-89077862D01*
X138404601Y-89010103D01*
X138404600Y-92637848D01*
X138160000Y-92882448D01*
X138160000Y-92384778D01*
X137911086Y-91783847D01*
X137451153Y-91323914D01*
X136850222Y-91075000D01*
X136199778Y-91075000D01*
X135598847Y-91323914D01*
X135138914Y-91783847D01*
X135081441Y-91922600D01*
X131301352Y-91922600D01*
X128896314Y-89517563D01*
X129033157Y-89312765D01*
X129082440Y-89065000D01*
X129082440Y-87465000D01*
X129033157Y-87217235D01*
X128896314Y-87012437D01*
X136511324Y-79397428D01*
X136600091Y-79456740D01*
X137018667Y-79540000D01*
X137301333Y-79540000D01*
X137719909Y-79456740D01*
X138194577Y-79139577D01*
X138359735Y-78892400D01*
X139772201Y-78892400D01*
X139853260Y-79299909D01*
X140170423Y-79774577D01*
X140522758Y-80010000D01*
X140170423Y-80245423D01*
X139853260Y-80720091D01*
X139741887Y-81280000D01*
X139853260Y-81839909D01*
X140170423Y-82314577D01*
X140526499Y-82552499D01*
X140100500Y-82895104D01*
X139830633Y-83388181D01*
X139813096Y-83470961D01*
X139935085Y-83693000D01*
X141478000Y-83693000D01*
X141478000Y-83673000D01*
X141732000Y-83673000D01*
X141732000Y-83693000D01*
X143274915Y-83693000D01*
X143396904Y-83470961D01*
X143379367Y-83388181D01*
X143109500Y-82895104D01*
X142683501Y-82552499D01*
X143039577Y-82314577D01*
X143356740Y-81839909D01*
X143468113Y-81280000D01*
X143410117Y-80988435D01*
X143454952Y-80943600D01*
X143686449Y-80943600D01*
X143764000Y-80959026D01*
X143841551Y-80943600D01*
X143841552Y-80943600D01*
X144071228Y-80897915D01*
X144331684Y-80723884D01*
X144375616Y-80658135D01*
X147795669Y-77238083D01*
X148142758Y-77470000D01*
X148142758Y-77470000D01*
G37*
X148142758Y-77470000D02*
X147790423Y-77705423D01*
X147473260Y-78180091D01*
X147361887Y-78740000D01*
X147419883Y-79031565D01*
X145294063Y-81157386D01*
X145228317Y-81201316D01*
X145184387Y-81267062D01*
X145054286Y-81461772D01*
X144993174Y-81769000D01*
X145008601Y-81846556D01*
X145008600Y-85207330D01*
X143386121Y-86829810D01*
X143374662Y-86829810D01*
X143468113Y-86360000D01*
X143356740Y-85800091D01*
X143039577Y-85325423D01*
X142683501Y-85087501D01*
X143109500Y-84744896D01*
X143379367Y-84251819D01*
X143396904Y-84169039D01*
X143274915Y-83947000D01*
X141732000Y-83947000D01*
X141732000Y-83967000D01*
X141478000Y-83967000D01*
X141478000Y-83947000D01*
X139935085Y-83947000D01*
X139813096Y-84169039D01*
X139830633Y-84251819D01*
X140100500Y-84744896D01*
X140526499Y-85087501D01*
X140170423Y-85325423D01*
X140005265Y-85572600D01*
X139142551Y-85572600D01*
X139065000Y-85557174D01*
X138987449Y-85572600D01*
X138987448Y-85572600D01*
X138757772Y-85618285D01*
X138497316Y-85792316D01*
X138453386Y-85858062D01*
X137470902Y-86840547D01*
X137445439Y-86830000D01*
X136874561Y-86830000D01*
X136347138Y-87048466D01*
X135943466Y-87452138D01*
X135932919Y-87477600D01*
X133307081Y-87477600D01*
X133296534Y-87452138D01*
X132892862Y-87048466D01*
X132365439Y-86830000D01*
X131794561Y-86830000D01*
X131267138Y-87048466D01*
X130863466Y-87452138D01*
X130645000Y-87979561D01*
X130645000Y-88550439D01*
X130863466Y-89077862D01*
X131267138Y-89481534D01*
X131794561Y-89700000D01*
X132365439Y-89700000D01*
X132892862Y-89481534D01*
X133296534Y-89077862D01*
X133307081Y-89052400D01*
X135932919Y-89052400D01*
X135943466Y-89077862D01*
X136347138Y-89481534D01*
X136874561Y-89700000D01*
X137445439Y-89700000D01*
X137972862Y-89481534D01*
X138376534Y-89077862D01*
X138404601Y-89010103D01*
X138404600Y-92637848D01*
X138160000Y-92882448D01*
X138160000Y-92384778D01*
X137911086Y-91783847D01*
X137451153Y-91323914D01*
X136850222Y-91075000D01*
X136199778Y-91075000D01*
X135598847Y-91323914D01*
X135138914Y-91783847D01*
X135081441Y-91922600D01*
X131301352Y-91922600D01*
X128896314Y-89517563D01*
X129033157Y-89312765D01*
X129082440Y-89065000D01*
X129082440Y-87465000D01*
X129033157Y-87217235D01*
X128896314Y-87012437D01*
X136511324Y-79397428D01*
X136600091Y-79456740D01*
X137018667Y-79540000D01*
X137301333Y-79540000D01*
X137719909Y-79456740D01*
X138194577Y-79139577D01*
X138359735Y-78892400D01*
X139772201Y-78892400D01*
X139853260Y-79299909D01*
X140170423Y-79774577D01*
X140522758Y-80010000D01*
X140170423Y-80245423D01*
X139853260Y-80720091D01*
X139741887Y-81280000D01*
X139853260Y-81839909D01*
X140170423Y-82314577D01*
X140526499Y-82552499D01*
X140100500Y-82895104D01*
X139830633Y-83388181D01*
X139813096Y-83470961D01*
X139935085Y-83693000D01*
X141478000Y-83693000D01*
X141478000Y-83673000D01*
X141732000Y-83673000D01*
X141732000Y-83693000D01*
X143274915Y-83693000D01*
X143396904Y-83470961D01*
X143379367Y-83388181D01*
X143109500Y-82895104D01*
X142683501Y-82552499D01*
X143039577Y-82314577D01*
X143356740Y-81839909D01*
X143468113Y-81280000D01*
X143410117Y-80988435D01*
X143454952Y-80943600D01*
X143686449Y-80943600D01*
X143764000Y-80959026D01*
X143841551Y-80943600D01*
X143841552Y-80943600D01*
X144071228Y-80897915D01*
X144331684Y-80723884D01*
X144375616Y-80658135D01*
X147795669Y-77238083D01*
X148142758Y-77470000D01*
G36*
X155866566Y-90669883D02*
X155716333Y-90640000D01*
X155433667Y-90640000D01*
X155015091Y-90723260D01*
X154813000Y-90858293D01*
X154813000Y-90792235D01*
X155625736Y-89979500D01*
X155662726Y-89979500D01*
X156059488Y-89815156D01*
X156363156Y-89511488D01*
X156527500Y-89114726D01*
X156527500Y-88685274D01*
X156363156Y-88288512D01*
X156123834Y-88049190D01*
X158487258Y-88049190D01*
X155866566Y-90669883D01*
X155866566Y-90669883D01*
G37*
X155866566Y-90669883D02*
X155716333Y-90640000D01*
X155433667Y-90640000D01*
X155015091Y-90723260D01*
X154813000Y-90858293D01*
X154813000Y-90792235D01*
X155625736Y-89979500D01*
X155662726Y-89979500D01*
X156059488Y-89815156D01*
X156363156Y-89511488D01*
X156527500Y-89114726D01*
X156527500Y-88685274D01*
X156363156Y-88288512D01*
X156123834Y-88049190D01*
X158487258Y-88049190D01*
X155866566Y-90669883D01*
G36*
X128972316Y-75632316D02*
X128928386Y-75698062D01*
X127926565Y-76699883D01*
X127776333Y-76670000D01*
X127493667Y-76670000D01*
X127075091Y-76753260D01*
X126600423Y-77070423D01*
X126283260Y-77545091D01*
X126171887Y-78105000D01*
X126283260Y-78664909D01*
X126600423Y-79139577D01*
X127075091Y-79456740D01*
X127493667Y-79540000D01*
X127776333Y-79540000D01*
X128194909Y-79456740D01*
X128669577Y-79139577D01*
X128986740Y-78664909D01*
X129028684Y-78454041D01*
X130688086Y-78454041D01*
X130927611Y-78960134D01*
X131342577Y-79336041D01*
X131730961Y-79496904D01*
X131953000Y-79374915D01*
X131953000Y-78232000D01*
X132207000Y-78232000D01*
X132207000Y-79374915D01*
X132429039Y-79496904D01*
X132817423Y-79336041D01*
X133232389Y-78960134D01*
X133471914Y-78454041D01*
X133350629Y-78232000D01*
X132207000Y-78232000D01*
X131953000Y-78232000D01*
X130809371Y-78232000D01*
X130688086Y-78454041D01*
X129028684Y-78454041D01*
X129098113Y-78105000D01*
X129040117Y-77813435D01*
X129866152Y-76987400D01*
X131217349Y-76987400D01*
X130927611Y-77249866D01*
X130688086Y-77755959D01*
X130809371Y-77978000D01*
X131953000Y-77978000D01*
X131953000Y-77958000D01*
X132207000Y-77958000D01*
X132207000Y-77978000D01*
X133350629Y-77978000D01*
X133471914Y-77755959D01*
X133232389Y-77249866D01*
X132942651Y-76987400D01*
X136249676Y-76987400D01*
X136125423Y-77070423D01*
X135808260Y-77545091D01*
X135726743Y-77954905D01*
X127133063Y-86548586D01*
X127067317Y-86592516D01*
X127023387Y-86658262D01*
X126916948Y-86817560D01*
X126835000Y-86817560D01*
X126587235Y-86866843D01*
X126377191Y-87007191D01*
X126236843Y-87217235D01*
X126187560Y-87465000D01*
X126187560Y-88126971D01*
X125247400Y-87186811D01*
X125247400Y-85067244D01*
X125375156Y-84939488D01*
X125539500Y-84542726D01*
X125539500Y-84113274D01*
X125375156Y-83716512D01*
X125071488Y-83412844D01*
X124674726Y-83248500D01*
X124245274Y-83248500D01*
X123848512Y-83412844D01*
X123544844Y-83716512D01*
X123380500Y-84113274D01*
X123380500Y-84542726D01*
X123544844Y-84939488D01*
X123672600Y-85067244D01*
X123672601Y-87354677D01*
X123589577Y-87230423D01*
X123342400Y-87065265D01*
X123342400Y-81479151D01*
X125469939Y-79351613D01*
X125535684Y-79307684D01*
X125709715Y-79047228D01*
X125755400Y-78817552D01*
X125755400Y-78817551D01*
X125770826Y-78740001D01*
X125755400Y-78662448D01*
X125755400Y-77542151D01*
X127834152Y-75463400D01*
X129225117Y-75463400D01*
X128972316Y-75632316D01*
X128972316Y-75632316D01*
G37*
X128972316Y-75632316D02*
X128928386Y-75698062D01*
X127926565Y-76699883D01*
X127776333Y-76670000D01*
X127493667Y-76670000D01*
X127075091Y-76753260D01*
X126600423Y-77070423D01*
X126283260Y-77545091D01*
X126171887Y-78105000D01*
X126283260Y-78664909D01*
X126600423Y-79139577D01*
X127075091Y-79456740D01*
X127493667Y-79540000D01*
X127776333Y-79540000D01*
X128194909Y-79456740D01*
X128669577Y-79139577D01*
X128986740Y-78664909D01*
X129028684Y-78454041D01*
X130688086Y-78454041D01*
X130927611Y-78960134D01*
X131342577Y-79336041D01*
X131730961Y-79496904D01*
X131953000Y-79374915D01*
X131953000Y-78232000D01*
X132207000Y-78232000D01*
X132207000Y-79374915D01*
X132429039Y-79496904D01*
X132817423Y-79336041D01*
X133232389Y-78960134D01*
X133471914Y-78454041D01*
X133350629Y-78232000D01*
X132207000Y-78232000D01*
X131953000Y-78232000D01*
X130809371Y-78232000D01*
X130688086Y-78454041D01*
X129028684Y-78454041D01*
X129098113Y-78105000D01*
X129040117Y-77813435D01*
X129866152Y-76987400D01*
X131217349Y-76987400D01*
X130927611Y-77249866D01*
X130688086Y-77755959D01*
X130809371Y-77978000D01*
X131953000Y-77978000D01*
X131953000Y-77958000D01*
X132207000Y-77958000D01*
X132207000Y-77978000D01*
X133350629Y-77978000D01*
X133471914Y-77755959D01*
X133232389Y-77249866D01*
X132942651Y-76987400D01*
X136249676Y-76987400D01*
X136125423Y-77070423D01*
X135808260Y-77545091D01*
X135726743Y-77954905D01*
X127133063Y-86548586D01*
X127067317Y-86592516D01*
X127023387Y-86658262D01*
X126916948Y-86817560D01*
X126835000Y-86817560D01*
X126587235Y-86866843D01*
X126377191Y-87007191D01*
X126236843Y-87217235D01*
X126187560Y-87465000D01*
X126187560Y-88126971D01*
X125247400Y-87186811D01*
X125247400Y-85067244D01*
X125375156Y-84939488D01*
X125539500Y-84542726D01*
X125539500Y-84113274D01*
X125375156Y-83716512D01*
X125071488Y-83412844D01*
X124674726Y-83248500D01*
X124245274Y-83248500D01*
X123848512Y-83412844D01*
X123544844Y-83716512D01*
X123380500Y-84113274D01*
X123380500Y-84542726D01*
X123544844Y-84939488D01*
X123672600Y-85067244D01*
X123672601Y-87354677D01*
X123589577Y-87230423D01*
X123342400Y-87065265D01*
X123342400Y-81479151D01*
X125469939Y-79351613D01*
X125535684Y-79307684D01*
X125709715Y-79047228D01*
X125755400Y-78817552D01*
X125755400Y-78817551D01*
X125770826Y-78740001D01*
X125755400Y-78662448D01*
X125755400Y-77542151D01*
X127834152Y-75463400D01*
X129225117Y-75463400D01*
X128972316Y-75632316D01*
G36*
X155972838Y-86474390D02*
X155639761Y-86474390D01*
X155562210Y-86458964D01*
X155484659Y-86474390D01*
X155484658Y-86474390D01*
X155254982Y-86520075D01*
X154994526Y-86694106D01*
X154950596Y-86759852D01*
X153597849Y-88112600D01*
X153183001Y-88112600D01*
X153228139Y-87962745D01*
X152400000Y-87134605D01*
X151571861Y-87962745D01*
X151616999Y-88112600D01*
X150824735Y-88112600D01*
X150659577Y-87865423D01*
X150307242Y-87630000D01*
X150659577Y-87394577D01*
X150962699Y-86940923D01*
X150980222Y-87308454D01*
X151146136Y-87709005D01*
X151392255Y-87783139D01*
X152220395Y-86955000D01*
X152579605Y-86955000D01*
X153407745Y-87783139D01*
X153653864Y-87709005D01*
X153846965Y-87171777D01*
X153819778Y-86601546D01*
X153653864Y-86200995D01*
X153407745Y-86126861D01*
X152579605Y-86955000D01*
X152220395Y-86955000D01*
X151392255Y-86126861D01*
X151146136Y-86200995D01*
X151087035Y-86365422D01*
X151088113Y-86360000D01*
X150976740Y-85800091D01*
X150671990Y-85344000D01*
X151259604Y-85344000D01*
X151587138Y-85671534D01*
X151652299Y-85698525D01*
X151645995Y-85701136D01*
X151571861Y-85947255D01*
X152400000Y-86775395D01*
X153228139Y-85947255D01*
X153154005Y-85701136D01*
X153147254Y-85698710D01*
X153212862Y-85671534D01*
X153616534Y-85267862D01*
X153835000Y-84740439D01*
X153835000Y-84336551D01*
X155972838Y-86474390D01*
X155972838Y-86474390D01*
G37*
X155972838Y-86474390D02*
X155639761Y-86474390D01*
X155562210Y-86458964D01*
X155484659Y-86474390D01*
X155484658Y-86474390D01*
X155254982Y-86520075D01*
X154994526Y-86694106D01*
X154950596Y-86759852D01*
X153597849Y-88112600D01*
X153183001Y-88112600D01*
X153228139Y-87962745D01*
X152400000Y-87134605D01*
X151571861Y-87962745D01*
X151616999Y-88112600D01*
X150824735Y-88112600D01*
X150659577Y-87865423D01*
X150307242Y-87630000D01*
X150659577Y-87394577D01*
X150962699Y-86940923D01*
X150980222Y-87308454D01*
X151146136Y-87709005D01*
X151392255Y-87783139D01*
X152220395Y-86955000D01*
X152579605Y-86955000D01*
X153407745Y-87783139D01*
X153653864Y-87709005D01*
X153846965Y-87171777D01*
X153819778Y-86601546D01*
X153653864Y-86200995D01*
X153407745Y-86126861D01*
X152579605Y-86955000D01*
X152220395Y-86955000D01*
X151392255Y-86126861D01*
X151146136Y-86200995D01*
X151087035Y-86365422D01*
X151088113Y-86360000D01*
X150976740Y-85800091D01*
X150671990Y-85344000D01*
X151259604Y-85344000D01*
X151587138Y-85671534D01*
X151652299Y-85698525D01*
X151645995Y-85701136D01*
X151571861Y-85947255D01*
X152400000Y-86775395D01*
X153228139Y-85947255D01*
X153154005Y-85701136D01*
X153147254Y-85698710D01*
X153212862Y-85671534D01*
X153616534Y-85267862D01*
X153835000Y-84740439D01*
X153835000Y-84336551D01*
X155972838Y-86474390D01*
G36*
X166469883Y-83147435D02*
X166411887Y-83439000D01*
X166523260Y-83998909D01*
X166840423Y-84473577D01*
X167192758Y-84709000D01*
X166840423Y-84944423D01*
X166672600Y-85195588D01*
X166462972Y-85237285D01*
X166202516Y-85411316D01*
X166158587Y-85477061D01*
X165161259Y-86474390D01*
X162419574Y-86474390D01*
X162518113Y-85979000D01*
X162406740Y-85419091D01*
X162089577Y-84944423D01*
X161737242Y-84709000D01*
X162089577Y-84473577D01*
X162406740Y-83998909D01*
X162518113Y-83439000D01*
X162406740Y-82879091D01*
X162089577Y-82404423D01*
X161737242Y-82169000D01*
X162089577Y-81933577D01*
X162406740Y-81458909D01*
X162518113Y-80899000D01*
X162406740Y-80339091D01*
X162089577Y-79864423D01*
X161983082Y-79793265D01*
X162214698Y-79697327D01*
X162393327Y-79518699D01*
X162490000Y-79285310D01*
X162490000Y-79167551D01*
X166469883Y-83147435D01*
X166469883Y-83147435D01*
G37*
X166469883Y-83147435D02*
X166411887Y-83439000D01*
X166523260Y-83998909D01*
X166840423Y-84473577D01*
X167192758Y-84709000D01*
X166840423Y-84944423D01*
X166672600Y-85195588D01*
X166462972Y-85237285D01*
X166202516Y-85411316D01*
X166158587Y-85477061D01*
X165161259Y-86474390D01*
X162419574Y-86474390D01*
X162518113Y-85979000D01*
X162406740Y-85419091D01*
X162089577Y-84944423D01*
X161737242Y-84709000D01*
X162089577Y-84473577D01*
X162406740Y-83998909D01*
X162518113Y-83439000D01*
X162406740Y-82879091D01*
X162089577Y-82404423D01*
X161737242Y-82169000D01*
X162089577Y-81933577D01*
X162406740Y-81458909D01*
X162518113Y-80899000D01*
X162406740Y-80339091D01*
X162089577Y-79864423D01*
X161983082Y-79793265D01*
X162214698Y-79697327D01*
X162393327Y-79518699D01*
X162490000Y-79285310D01*
X162490000Y-79167551D01*
X166469883Y-83147435D01*
G36*
X122344223Y-65380085D02*
X121996200Y-66220286D01*
X121996200Y-67129714D01*
X122344223Y-67969915D01*
X122987285Y-68612977D01*
X123494801Y-68823197D01*
X123494800Y-69606803D01*
X122987285Y-69817023D01*
X122344223Y-70460085D01*
X121996200Y-71300286D01*
X121996200Y-72209714D01*
X122206420Y-72717229D01*
X122053063Y-72870586D01*
X121987317Y-72914516D01*
X121943387Y-72980262D01*
X121813286Y-73174972D01*
X121752174Y-73482200D01*
X121767601Y-73559756D01*
X121767600Y-76877919D01*
X121742138Y-76888466D01*
X121338466Y-77292138D01*
X121120000Y-77819561D01*
X121120000Y-78390439D01*
X121130547Y-78415902D01*
X121073107Y-78473341D01*
X120814577Y-78086423D01*
X120339909Y-77769260D01*
X119921333Y-77686000D01*
X119202236Y-77686000D01*
X118157747Y-76641512D01*
X118275000Y-76358439D01*
X118275000Y-75787561D01*
X118056534Y-75260138D01*
X117652862Y-74856466D01*
X117125439Y-74638000D01*
X116554561Y-74638000D01*
X116027138Y-74856466D01*
X115623466Y-75260138D01*
X115596475Y-75325299D01*
X115593864Y-75318995D01*
X115347745Y-75244861D01*
X114519605Y-76073000D01*
X115347745Y-76901139D01*
X115593864Y-76827005D01*
X115596290Y-76820254D01*
X115623466Y-76885862D01*
X116027138Y-77289534D01*
X116478089Y-77476324D01*
X117617409Y-78615644D01*
X117516887Y-79121000D01*
X117628260Y-79680909D01*
X117945423Y-80155577D01*
X118297758Y-80391000D01*
X117945423Y-80626423D01*
X117777600Y-80877588D01*
X117567972Y-80919285D01*
X117307516Y-81093316D01*
X117263586Y-81159063D01*
X117119400Y-81303248D01*
X117119400Y-80849551D01*
X117134826Y-80772000D01*
X117105869Y-80626423D01*
X117073715Y-80464772D01*
X116899684Y-80204316D01*
X116833938Y-80160386D01*
X114190317Y-77516766D01*
X114693454Y-77492778D01*
X115094005Y-77326864D01*
X115168139Y-77080745D01*
X114340000Y-76252605D01*
X114325858Y-76266748D01*
X114146252Y-76087142D01*
X114160395Y-76073000D01*
X114146252Y-76058858D01*
X114325858Y-75879252D01*
X114340000Y-75893395D01*
X115168139Y-75065255D01*
X115094005Y-74819136D01*
X114556777Y-74626035D01*
X114442047Y-74631505D01*
X114880153Y-74193399D01*
X115289250Y-74193399D01*
X115366801Y-74208825D01*
X115444352Y-74193399D01*
X115444353Y-74193399D01*
X115674029Y-74147714D01*
X115934485Y-73973683D01*
X115978417Y-73907934D01*
X116055571Y-73830780D01*
X116563086Y-74041000D01*
X117472514Y-74041000D01*
X118312715Y-73692977D01*
X118955777Y-73049915D01*
X119303800Y-72209714D01*
X119303800Y-71300286D01*
X118955777Y-70460085D01*
X118312715Y-69817023D01*
X117805200Y-69606803D01*
X117805200Y-68823197D01*
X118312715Y-68612977D01*
X118955777Y-67969915D01*
X119303800Y-67129714D01*
X119303800Y-66220286D01*
X118955777Y-65380085D01*
X118929891Y-65354199D01*
X122370109Y-65354199D01*
X122344223Y-65380085D01*
X122344223Y-65380085D01*
G37*
X122344223Y-65380085D02*
X121996200Y-66220286D01*
X121996200Y-67129714D01*
X122344223Y-67969915D01*
X122987285Y-68612977D01*
X123494801Y-68823197D01*
X123494800Y-69606803D01*
X122987285Y-69817023D01*
X122344223Y-70460085D01*
X121996200Y-71300286D01*
X121996200Y-72209714D01*
X122206420Y-72717229D01*
X122053063Y-72870586D01*
X121987317Y-72914516D01*
X121943387Y-72980262D01*
X121813286Y-73174972D01*
X121752174Y-73482200D01*
X121767601Y-73559756D01*
X121767600Y-76877919D01*
X121742138Y-76888466D01*
X121338466Y-77292138D01*
X121120000Y-77819561D01*
X121120000Y-78390439D01*
X121130547Y-78415902D01*
X121073107Y-78473341D01*
X120814577Y-78086423D01*
X120339909Y-77769260D01*
X119921333Y-77686000D01*
X119202236Y-77686000D01*
X118157747Y-76641512D01*
X118275000Y-76358439D01*
X118275000Y-75787561D01*
X118056534Y-75260138D01*
X117652862Y-74856466D01*
X117125439Y-74638000D01*
X116554561Y-74638000D01*
X116027138Y-74856466D01*
X115623466Y-75260138D01*
X115596475Y-75325299D01*
X115593864Y-75318995D01*
X115347745Y-75244861D01*
X114519605Y-76073000D01*
X115347745Y-76901139D01*
X115593864Y-76827005D01*
X115596290Y-76820254D01*
X115623466Y-76885862D01*
X116027138Y-77289534D01*
X116478089Y-77476324D01*
X117617409Y-78615644D01*
X117516887Y-79121000D01*
X117628260Y-79680909D01*
X117945423Y-80155577D01*
X118297758Y-80391000D01*
X117945423Y-80626423D01*
X117777600Y-80877588D01*
X117567972Y-80919285D01*
X117307516Y-81093316D01*
X117263586Y-81159063D01*
X117119400Y-81303248D01*
X117119400Y-80849551D01*
X117134826Y-80772000D01*
X117105869Y-80626423D01*
X117073715Y-80464772D01*
X116899684Y-80204316D01*
X116833938Y-80160386D01*
X114190317Y-77516766D01*
X114693454Y-77492778D01*
X115094005Y-77326864D01*
X115168139Y-77080745D01*
X114340000Y-76252605D01*
X114325858Y-76266748D01*
X114146252Y-76087142D01*
X114160395Y-76073000D01*
X114146252Y-76058858D01*
X114325858Y-75879252D01*
X114340000Y-75893395D01*
X115168139Y-75065255D01*
X115094005Y-74819136D01*
X114556777Y-74626035D01*
X114442047Y-74631505D01*
X114880153Y-74193399D01*
X115289250Y-74193399D01*
X115366801Y-74208825D01*
X115444352Y-74193399D01*
X115444353Y-74193399D01*
X115674029Y-74147714D01*
X115934485Y-73973683D01*
X115978417Y-73907934D01*
X116055571Y-73830780D01*
X116563086Y-74041000D01*
X117472514Y-74041000D01*
X118312715Y-73692977D01*
X118955777Y-73049915D01*
X119303800Y-72209714D01*
X119303800Y-71300286D01*
X118955777Y-70460085D01*
X118312715Y-69817023D01*
X117805200Y-69606803D01*
X117805200Y-68823197D01*
X118312715Y-68612977D01*
X118955777Y-67969915D01*
X119303800Y-67129714D01*
X119303800Y-66220286D01*
X118955777Y-65380085D01*
X118929891Y-65354199D01*
X122370109Y-65354199D01*
X122344223Y-65380085D01*
G36*
X158432500Y-75477274D02*
X158432500Y-75906726D01*
X158596844Y-76303488D01*
X158900512Y-76607156D01*
X159297274Y-76771500D01*
X159726726Y-76771500D01*
X160123488Y-76607156D01*
X160251244Y-76479400D01*
X160313071Y-76479400D01*
X160849210Y-77015540D01*
X160782000Y-77082750D01*
X160782000Y-78232000D01*
X160802000Y-78232000D01*
X160802000Y-78486000D01*
X160782000Y-78486000D01*
X160782000Y-78506000D01*
X160528000Y-78506000D01*
X160528000Y-78486000D01*
X158978750Y-78486000D01*
X158820000Y-78644750D01*
X158820000Y-79285310D01*
X158916673Y-79518699D01*
X159095302Y-79697327D01*
X159326918Y-79793265D01*
X159220423Y-79864423D01*
X158903260Y-80339091D01*
X158797970Y-80868419D01*
X157632400Y-79702849D01*
X157632400Y-79431735D01*
X157879577Y-79266577D01*
X158196740Y-78791909D01*
X158308113Y-78232000D01*
X158196740Y-77672091D01*
X158036778Y-77432690D01*
X158820000Y-77432690D01*
X158820000Y-78073250D01*
X158978750Y-78232000D01*
X160528000Y-78232000D01*
X160528000Y-77082750D01*
X160369250Y-76924000D01*
X159328691Y-76924000D01*
X159095302Y-77020673D01*
X158916673Y-77199301D01*
X158820000Y-77432690D01*
X158036778Y-77432690D01*
X157879577Y-77197423D01*
X157404909Y-76880260D01*
X156986333Y-76797000D01*
X156703667Y-76797000D01*
X156285091Y-76880260D01*
X155810423Y-77197423D01*
X155672787Y-77403410D01*
X155507684Y-77156316D01*
X155247228Y-76982285D01*
X155017552Y-76936600D01*
X154940000Y-76921174D01*
X154862448Y-76936600D01*
X154210152Y-76936600D01*
X153824453Y-76550901D01*
X153835000Y-76525439D01*
X153835000Y-75954561D01*
X153616534Y-75427138D01*
X153284595Y-75095199D01*
X158590760Y-75095199D01*
X158432500Y-75477274D01*
X158432500Y-75477274D01*
G37*
X158432500Y-75477274D02*
X158432500Y-75906726D01*
X158596844Y-76303488D01*
X158900512Y-76607156D01*
X159297274Y-76771500D01*
X159726726Y-76771500D01*
X160123488Y-76607156D01*
X160251244Y-76479400D01*
X160313071Y-76479400D01*
X160849210Y-77015540D01*
X160782000Y-77082750D01*
X160782000Y-78232000D01*
X160802000Y-78232000D01*
X160802000Y-78486000D01*
X160782000Y-78486000D01*
X160782000Y-78506000D01*
X160528000Y-78506000D01*
X160528000Y-78486000D01*
X158978750Y-78486000D01*
X158820000Y-78644750D01*
X158820000Y-79285310D01*
X158916673Y-79518699D01*
X159095302Y-79697327D01*
X159326918Y-79793265D01*
X159220423Y-79864423D01*
X158903260Y-80339091D01*
X158797970Y-80868419D01*
X157632400Y-79702849D01*
X157632400Y-79431735D01*
X157879577Y-79266577D01*
X158196740Y-78791909D01*
X158308113Y-78232000D01*
X158196740Y-77672091D01*
X158036778Y-77432690D01*
X158820000Y-77432690D01*
X158820000Y-78073250D01*
X158978750Y-78232000D01*
X160528000Y-78232000D01*
X160528000Y-77082750D01*
X160369250Y-76924000D01*
X159328691Y-76924000D01*
X159095302Y-77020673D01*
X158916673Y-77199301D01*
X158820000Y-77432690D01*
X158036778Y-77432690D01*
X157879577Y-77197423D01*
X157404909Y-76880260D01*
X156986333Y-76797000D01*
X156703667Y-76797000D01*
X156285091Y-76880260D01*
X155810423Y-77197423D01*
X155672787Y-77403410D01*
X155507684Y-77156316D01*
X155247228Y-76982285D01*
X155017552Y-76936600D01*
X154940000Y-76921174D01*
X154862448Y-76936600D01*
X154210152Y-76936600D01*
X153824453Y-76550901D01*
X153835000Y-76525439D01*
X153835000Y-75954561D01*
X153616534Y-75427138D01*
X153284595Y-75095199D01*
X158590760Y-75095199D01*
X158432500Y-75477274D01*
G36*
X144476519Y-65595765D02*
X144457682Y-65698815D01*
X144580344Y-65913000D01*
X145923000Y-65913000D01*
X145923000Y-65893000D01*
X146177000Y-65893000D01*
X146177000Y-65913000D01*
X147519656Y-65913000D01*
X147642318Y-65698815D01*
X147623481Y-65595765D01*
X147485109Y-65354199D01*
X149482560Y-65354199D01*
X149482560Y-66790000D01*
X149531843Y-67037765D01*
X149672191Y-67247809D01*
X149882235Y-67388157D01*
X150130000Y-67437440D01*
X152130000Y-67437440D01*
X152377765Y-67388157D01*
X152587809Y-67247809D01*
X152676171Y-67115567D01*
X152857138Y-67296534D01*
X152922299Y-67323525D01*
X152915995Y-67326136D01*
X152841861Y-67572255D01*
X153670000Y-68400395D01*
X154498139Y-67572255D01*
X154424005Y-67326136D01*
X154417254Y-67323710D01*
X154482862Y-67296534D01*
X154793557Y-66985839D01*
X154880317Y-67115684D01*
X154946063Y-67159614D01*
X154963384Y-67176935D01*
X155007316Y-67242684D01*
X155267772Y-67416715D01*
X155497448Y-67462400D01*
X155540708Y-67471005D01*
X155410000Y-67786561D01*
X155410000Y-68357439D01*
X155628466Y-68884862D01*
X156032138Y-69288534D01*
X156559561Y-69507000D01*
X157130439Y-69507000D01*
X157657862Y-69288534D01*
X158061534Y-68884862D01*
X158280000Y-68357439D01*
X158280000Y-67786561D01*
X158145728Y-67462400D01*
X160234003Y-67462400D01*
X160444223Y-67969915D01*
X161087285Y-68612977D01*
X161594800Y-68823197D01*
X161594801Y-69606803D01*
X161087285Y-69817023D01*
X160444223Y-70460085D01*
X160096200Y-71300286D01*
X160096200Y-72209714D01*
X160444223Y-73049915D01*
X161087285Y-73692977D01*
X161927486Y-74041000D01*
X162836914Y-74041000D01*
X163677115Y-73692977D01*
X164320177Y-73049915D01*
X164530397Y-72542400D01*
X165669603Y-72542400D01*
X165879823Y-73049915D01*
X166522885Y-73692977D01*
X167363086Y-74041000D01*
X168272514Y-74041000D01*
X169112715Y-73692977D01*
X169445001Y-73360691D01*
X169445001Y-77147639D01*
X169234909Y-77007260D01*
X168816333Y-76924000D01*
X168097236Y-76924000D01*
X167127142Y-75953907D01*
X167170000Y-75850439D01*
X167170000Y-75279561D01*
X166951534Y-74752138D01*
X166547862Y-74348466D01*
X166020439Y-74130000D01*
X165449561Y-74130000D01*
X164922138Y-74348466D01*
X164518466Y-74752138D01*
X164491475Y-74817299D01*
X164488864Y-74810995D01*
X164242745Y-74736861D01*
X163414605Y-75565000D01*
X164242745Y-76393139D01*
X164488864Y-76319005D01*
X164491290Y-76312254D01*
X164518466Y-76377862D01*
X164922138Y-76781534D01*
X165449561Y-77000000D01*
X165658765Y-77000000D01*
X166512409Y-77853644D01*
X166411887Y-78359000D01*
X166523260Y-78918909D01*
X166840423Y-79393577D01*
X167192758Y-79629000D01*
X166845669Y-79860917D01*
X163857915Y-76873163D01*
X163989005Y-76818864D01*
X164063139Y-76572745D01*
X163235000Y-75744605D01*
X163220858Y-75758748D01*
X163041253Y-75579143D01*
X163055395Y-75565000D01*
X162227255Y-74736861D01*
X161981136Y-74810995D01*
X161932118Y-74947367D01*
X161542006Y-74557255D01*
X162406861Y-74557255D01*
X163235000Y-75385395D01*
X164063139Y-74557255D01*
X163989005Y-74311136D01*
X163451777Y-74118035D01*
X162881546Y-74145222D01*
X162480995Y-74311136D01*
X162406861Y-74557255D01*
X161542006Y-74557255D01*
X160790615Y-73805864D01*
X160746683Y-73740115D01*
X160486227Y-73566084D01*
X160256551Y-73520399D01*
X160256550Y-73520399D01*
X160178999Y-73504973D01*
X160101448Y-73520399D01*
X160019847Y-73520399D01*
X160083500Y-73366726D01*
X160083500Y-72937274D01*
X159919156Y-72540512D01*
X159615488Y-72236844D01*
X159218726Y-72072500D01*
X159038051Y-72072500D01*
X158599616Y-71634065D01*
X158555684Y-71568316D01*
X158295228Y-71394285D01*
X158065552Y-71348600D01*
X158065551Y-71348600D01*
X157988000Y-71333174D01*
X157910449Y-71348600D01*
X144852152Y-71348600D01*
X143817527Y-70313975D01*
X143875000Y-70175222D01*
X143875000Y-69524778D01*
X143626086Y-68923847D01*
X143166153Y-68463914D01*
X142565222Y-68215000D01*
X141914778Y-68215000D01*
X141313847Y-68463914D01*
X140853914Y-68923847D01*
X140605000Y-69524778D01*
X140605000Y-70175222D01*
X140853914Y-70776153D01*
X141313847Y-71236086D01*
X141914778Y-71485000D01*
X142565222Y-71485000D01*
X142703975Y-71427527D01*
X143914386Y-72637938D01*
X143958316Y-72703684D01*
X144218772Y-72877715D01*
X144448448Y-72923400D01*
X144525999Y-72938826D01*
X144603550Y-72923400D01*
X157661849Y-72923400D01*
X157924500Y-73186051D01*
X157924500Y-73366726D01*
X157988153Y-73520399D01*
X146514752Y-73520399D01*
X146437201Y-73504973D01*
X146359650Y-73520399D01*
X146359649Y-73520399D01*
X146129973Y-73566084D01*
X145869517Y-73740115D01*
X145825587Y-73805861D01*
X143462030Y-76169419D01*
X143356740Y-75640091D01*
X143039577Y-75165423D01*
X142564909Y-74848260D01*
X142146333Y-74765000D01*
X141063667Y-74765000D01*
X140645091Y-74848260D01*
X140170423Y-75165423D01*
X140005265Y-75412600D01*
X132902883Y-75412600D01*
X133155684Y-75243684D01*
X133199616Y-75177935D01*
X135241938Y-73135614D01*
X135307684Y-73091684D01*
X135433050Y-72904061D01*
X135481715Y-72831229D01*
X135542826Y-72524000D01*
X135527400Y-72446448D01*
X135527400Y-71293559D01*
X135666153Y-71236086D01*
X136126086Y-70776153D01*
X136375000Y-70175222D01*
X136375000Y-69524778D01*
X136126086Y-68923847D01*
X135666153Y-68463914D01*
X135065222Y-68215000D01*
X134414778Y-68215000D01*
X133813847Y-68463914D01*
X133353914Y-68923847D01*
X133105000Y-69524778D01*
X133105000Y-70175222D01*
X133353914Y-70776153D01*
X133813847Y-71236086D01*
X133952600Y-71293560D01*
X133952600Y-72197848D01*
X132261849Y-73888600D01*
X130540440Y-73888600D01*
X131012715Y-73692977D01*
X131655777Y-73049915D01*
X132003800Y-72209714D01*
X132003800Y-71300286D01*
X131655777Y-70460085D01*
X131012715Y-69817023D01*
X130505200Y-69606803D01*
X130505200Y-68823197D01*
X131012715Y-68612977D01*
X131432099Y-68193593D01*
X147205000Y-68193593D01*
X147205000Y-68966406D01*
X147285359Y-69370399D01*
X147591471Y-69828528D01*
X148049600Y-70134641D01*
X148590000Y-70242133D01*
X149130399Y-70134641D01*
X149588528Y-69828529D01*
X149749415Y-69587745D01*
X152841861Y-69587745D01*
X152915995Y-69833864D01*
X153453223Y-70026965D01*
X154023454Y-69999778D01*
X154424005Y-69833864D01*
X154498139Y-69587745D01*
X153670000Y-68759605D01*
X152841861Y-69587745D01*
X149749415Y-69587745D01*
X149894641Y-69370400D01*
X149975000Y-68966407D01*
X149975000Y-68363223D01*
X152223035Y-68363223D01*
X152250222Y-68933454D01*
X152416136Y-69334005D01*
X152662255Y-69408139D01*
X153490395Y-68580000D01*
X153849605Y-68580000D01*
X154677745Y-69408139D01*
X154923864Y-69334005D01*
X155116965Y-68796777D01*
X155089778Y-68226546D01*
X154923864Y-67825995D01*
X154677745Y-67751861D01*
X153849605Y-68580000D01*
X153490395Y-68580000D01*
X152662255Y-67751861D01*
X152416136Y-67825995D01*
X152223035Y-68363223D01*
X149975000Y-68363223D01*
X149975000Y-68193594D01*
X149894641Y-67789601D01*
X149588529Y-67331471D01*
X149130400Y-67025359D01*
X148590000Y-66917867D01*
X148049601Y-67025359D01*
X147591472Y-67331471D01*
X147285359Y-67789600D01*
X147205000Y-68193593D01*
X131432099Y-68193593D01*
X131655777Y-67969915D01*
X132003800Y-67129714D01*
X132003800Y-66381185D01*
X144457682Y-66381185D01*
X144476519Y-66484235D01*
X144747264Y-66956894D01*
X145178279Y-67289964D01*
X145703945Y-67432739D01*
X145923000Y-67271868D01*
X145923000Y-66167000D01*
X146177000Y-66167000D01*
X146177000Y-67271868D01*
X146396055Y-67432739D01*
X146921721Y-67289964D01*
X147352736Y-66956894D01*
X147623481Y-66484235D01*
X147642318Y-66381185D01*
X147519656Y-66167000D01*
X146177000Y-66167000D01*
X145923000Y-66167000D01*
X144580344Y-66167000D01*
X144457682Y-66381185D01*
X132003800Y-66381185D01*
X132003800Y-66220286D01*
X131655777Y-65380085D01*
X131629891Y-65354199D01*
X144614891Y-65354199D01*
X144476519Y-65595765D01*
X144476519Y-65595765D01*
G37*
X144476519Y-65595765D02*
X144457682Y-65698815D01*
X144580344Y-65913000D01*
X145923000Y-65913000D01*
X145923000Y-65893000D01*
X146177000Y-65893000D01*
X146177000Y-65913000D01*
X147519656Y-65913000D01*
X147642318Y-65698815D01*
X147623481Y-65595765D01*
X147485109Y-65354199D01*
X149482560Y-65354199D01*
X149482560Y-66790000D01*
X149531843Y-67037765D01*
X149672191Y-67247809D01*
X149882235Y-67388157D01*
X150130000Y-67437440D01*
X152130000Y-67437440D01*
X152377765Y-67388157D01*
X152587809Y-67247809D01*
X152676171Y-67115567D01*
X152857138Y-67296534D01*
X152922299Y-67323525D01*
X152915995Y-67326136D01*
X152841861Y-67572255D01*
X153670000Y-68400395D01*
X154498139Y-67572255D01*
X154424005Y-67326136D01*
X154417254Y-67323710D01*
X154482862Y-67296534D01*
X154793557Y-66985839D01*
X154880317Y-67115684D01*
X154946063Y-67159614D01*
X154963384Y-67176935D01*
X155007316Y-67242684D01*
X155267772Y-67416715D01*
X155497448Y-67462400D01*
X155540708Y-67471005D01*
X155410000Y-67786561D01*
X155410000Y-68357439D01*
X155628466Y-68884862D01*
X156032138Y-69288534D01*
X156559561Y-69507000D01*
X157130439Y-69507000D01*
X157657862Y-69288534D01*
X158061534Y-68884862D01*
X158280000Y-68357439D01*
X158280000Y-67786561D01*
X158145728Y-67462400D01*
X160234003Y-67462400D01*
X160444223Y-67969915D01*
X161087285Y-68612977D01*
X161594800Y-68823197D01*
X161594801Y-69606803D01*
X161087285Y-69817023D01*
X160444223Y-70460085D01*
X160096200Y-71300286D01*
X160096200Y-72209714D01*
X160444223Y-73049915D01*
X161087285Y-73692977D01*
X161927486Y-74041000D01*
X162836914Y-74041000D01*
X163677115Y-73692977D01*
X164320177Y-73049915D01*
X164530397Y-72542400D01*
X165669603Y-72542400D01*
X165879823Y-73049915D01*
X166522885Y-73692977D01*
X167363086Y-74041000D01*
X168272514Y-74041000D01*
X169112715Y-73692977D01*
X169445001Y-73360691D01*
X169445001Y-77147639D01*
X169234909Y-77007260D01*
X168816333Y-76924000D01*
X168097236Y-76924000D01*
X167127142Y-75953907D01*
X167170000Y-75850439D01*
X167170000Y-75279561D01*
X166951534Y-74752138D01*
X166547862Y-74348466D01*
X166020439Y-74130000D01*
X165449561Y-74130000D01*
X164922138Y-74348466D01*
X164518466Y-74752138D01*
X164491475Y-74817299D01*
X164488864Y-74810995D01*
X164242745Y-74736861D01*
X163414605Y-75565000D01*
X164242745Y-76393139D01*
X164488864Y-76319005D01*
X164491290Y-76312254D01*
X164518466Y-76377862D01*
X164922138Y-76781534D01*
X165449561Y-77000000D01*
X165658765Y-77000000D01*
X166512409Y-77853644D01*
X166411887Y-78359000D01*
X166523260Y-78918909D01*
X166840423Y-79393577D01*
X167192758Y-79629000D01*
X166845669Y-79860917D01*
X163857915Y-76873163D01*
X163989005Y-76818864D01*
X164063139Y-76572745D01*
X163235000Y-75744605D01*
X163220858Y-75758748D01*
X163041253Y-75579143D01*
X163055395Y-75565000D01*
X162227255Y-74736861D01*
X161981136Y-74810995D01*
X161932118Y-74947367D01*
X161542006Y-74557255D01*
X162406861Y-74557255D01*
X163235000Y-75385395D01*
X164063139Y-74557255D01*
X163989005Y-74311136D01*
X163451777Y-74118035D01*
X162881546Y-74145222D01*
X162480995Y-74311136D01*
X162406861Y-74557255D01*
X161542006Y-74557255D01*
X160790615Y-73805864D01*
X160746683Y-73740115D01*
X160486227Y-73566084D01*
X160256551Y-73520399D01*
X160256550Y-73520399D01*
X160178999Y-73504973D01*
X160101448Y-73520399D01*
X160019847Y-73520399D01*
X160083500Y-73366726D01*
X160083500Y-72937274D01*
X159919156Y-72540512D01*
X159615488Y-72236844D01*
X159218726Y-72072500D01*
X159038051Y-72072500D01*
X158599616Y-71634065D01*
X158555684Y-71568316D01*
X158295228Y-71394285D01*
X158065552Y-71348600D01*
X158065551Y-71348600D01*
X157988000Y-71333174D01*
X157910449Y-71348600D01*
X144852152Y-71348600D01*
X143817527Y-70313975D01*
X143875000Y-70175222D01*
X143875000Y-69524778D01*
X143626086Y-68923847D01*
X143166153Y-68463914D01*
X142565222Y-68215000D01*
X141914778Y-68215000D01*
X141313847Y-68463914D01*
X140853914Y-68923847D01*
X140605000Y-69524778D01*
X140605000Y-70175222D01*
X140853914Y-70776153D01*
X141313847Y-71236086D01*
X141914778Y-71485000D01*
X142565222Y-71485000D01*
X142703975Y-71427527D01*
X143914386Y-72637938D01*
X143958316Y-72703684D01*
X144218772Y-72877715D01*
X144448448Y-72923400D01*
X144525999Y-72938826D01*
X144603550Y-72923400D01*
X157661849Y-72923400D01*
X157924500Y-73186051D01*
X157924500Y-73366726D01*
X157988153Y-73520399D01*
X146514752Y-73520399D01*
X146437201Y-73504973D01*
X146359650Y-73520399D01*
X146359649Y-73520399D01*
X146129973Y-73566084D01*
X145869517Y-73740115D01*
X145825587Y-73805861D01*
X143462030Y-76169419D01*
X143356740Y-75640091D01*
X143039577Y-75165423D01*
X142564909Y-74848260D01*
X142146333Y-74765000D01*
X141063667Y-74765000D01*
X140645091Y-74848260D01*
X140170423Y-75165423D01*
X140005265Y-75412600D01*
X132902883Y-75412600D01*
X133155684Y-75243684D01*
X133199616Y-75177935D01*
X135241938Y-73135614D01*
X135307684Y-73091684D01*
X135433050Y-72904061D01*
X135481715Y-72831229D01*
X135542826Y-72524000D01*
X135527400Y-72446448D01*
X135527400Y-71293559D01*
X135666153Y-71236086D01*
X136126086Y-70776153D01*
X136375000Y-70175222D01*
X136375000Y-69524778D01*
X136126086Y-68923847D01*
X135666153Y-68463914D01*
X135065222Y-68215000D01*
X134414778Y-68215000D01*
X133813847Y-68463914D01*
X133353914Y-68923847D01*
X133105000Y-69524778D01*
X133105000Y-70175222D01*
X133353914Y-70776153D01*
X133813847Y-71236086D01*
X133952600Y-71293560D01*
X133952600Y-72197848D01*
X132261849Y-73888600D01*
X130540440Y-73888600D01*
X131012715Y-73692977D01*
X131655777Y-73049915D01*
X132003800Y-72209714D01*
X132003800Y-71300286D01*
X131655777Y-70460085D01*
X131012715Y-69817023D01*
X130505200Y-69606803D01*
X130505200Y-68823197D01*
X131012715Y-68612977D01*
X131432099Y-68193593D01*
X147205000Y-68193593D01*
X147205000Y-68966406D01*
X147285359Y-69370399D01*
X147591471Y-69828528D01*
X148049600Y-70134641D01*
X148590000Y-70242133D01*
X149130399Y-70134641D01*
X149588528Y-69828529D01*
X149749415Y-69587745D01*
X152841861Y-69587745D01*
X152915995Y-69833864D01*
X153453223Y-70026965D01*
X154023454Y-69999778D01*
X154424005Y-69833864D01*
X154498139Y-69587745D01*
X153670000Y-68759605D01*
X152841861Y-69587745D01*
X149749415Y-69587745D01*
X149894641Y-69370400D01*
X149975000Y-68966407D01*
X149975000Y-68363223D01*
X152223035Y-68363223D01*
X152250222Y-68933454D01*
X152416136Y-69334005D01*
X152662255Y-69408139D01*
X153490395Y-68580000D01*
X153849605Y-68580000D01*
X154677745Y-69408139D01*
X154923864Y-69334005D01*
X155116965Y-68796777D01*
X155089778Y-68226546D01*
X154923864Y-67825995D01*
X154677745Y-67751861D01*
X153849605Y-68580000D01*
X153490395Y-68580000D01*
X152662255Y-67751861D01*
X152416136Y-67825995D01*
X152223035Y-68363223D01*
X149975000Y-68363223D01*
X149975000Y-68193594D01*
X149894641Y-67789601D01*
X149588529Y-67331471D01*
X149130400Y-67025359D01*
X148590000Y-66917867D01*
X148049601Y-67025359D01*
X147591472Y-67331471D01*
X147285359Y-67789600D01*
X147205000Y-68193593D01*
X131432099Y-68193593D01*
X131655777Y-67969915D01*
X132003800Y-67129714D01*
X132003800Y-66381185D01*
X144457682Y-66381185D01*
X144476519Y-66484235D01*
X144747264Y-66956894D01*
X145178279Y-67289964D01*
X145703945Y-67432739D01*
X145923000Y-67271868D01*
X145923000Y-66167000D01*
X146177000Y-66167000D01*
X146177000Y-67271868D01*
X146396055Y-67432739D01*
X146921721Y-67289964D01*
X147352736Y-66956894D01*
X147623481Y-66484235D01*
X147642318Y-66381185D01*
X147519656Y-66167000D01*
X146177000Y-66167000D01*
X145923000Y-66167000D01*
X144580344Y-66167000D01*
X144457682Y-66381185D01*
X132003800Y-66381185D01*
X132003800Y-66220286D01*
X131655777Y-65380085D01*
X131629891Y-65354199D01*
X144614891Y-65354199D01*
X144476519Y-65595765D01*
G36*
X127431800Y-71300286D02*
X127431800Y-72209714D01*
X127779823Y-73049915D01*
X128422885Y-73692977D01*
X128895160Y-73888600D01*
X127585550Y-73888600D01*
X127507999Y-73873174D01*
X127430448Y-73888600D01*
X127200772Y-73934285D01*
X127200771Y-73934286D01*
X127200770Y-73934286D01*
X127108104Y-73996204D01*
X126940316Y-74108316D01*
X126896386Y-74174062D01*
X124466063Y-76604386D01*
X124400317Y-76648316D01*
X124293831Y-76807684D01*
X124226286Y-76908772D01*
X124165174Y-77216000D01*
X124180601Y-77293556D01*
X124180600Y-78413848D01*
X123838672Y-78755776D01*
X123990000Y-78390439D01*
X123990000Y-77819561D01*
X123771534Y-77292138D01*
X123367862Y-76888466D01*
X123342400Y-76877919D01*
X123342400Y-73840071D01*
X123827486Y-74041000D01*
X124736914Y-74041000D01*
X125577115Y-73692977D01*
X126220177Y-73049915D01*
X126568200Y-72209714D01*
X126568200Y-71300286D01*
X126398834Y-70891401D01*
X127601166Y-70891401D01*
X127431800Y-71300286D01*
X127431800Y-71300286D01*
G37*
X127431800Y-71300286D02*
X127431800Y-72209714D01*
X127779823Y-73049915D01*
X128422885Y-73692977D01*
X128895160Y-73888600D01*
X127585550Y-73888600D01*
X127507999Y-73873174D01*
X127430448Y-73888600D01*
X127200772Y-73934285D01*
X127200771Y-73934286D01*
X127200770Y-73934286D01*
X127108104Y-73996204D01*
X126940316Y-74108316D01*
X126896386Y-74174062D01*
X124466063Y-76604386D01*
X124400317Y-76648316D01*
X124293831Y-76807684D01*
X124226286Y-76908772D01*
X124165174Y-77216000D01*
X124180601Y-77293556D01*
X124180600Y-78413848D01*
X123838672Y-78755776D01*
X123990000Y-78390439D01*
X123990000Y-77819561D01*
X123771534Y-77292138D01*
X123367862Y-76888466D01*
X123342400Y-76877919D01*
X123342400Y-73840071D01*
X123827486Y-74041000D01*
X124736914Y-74041000D01*
X125577115Y-73692977D01*
X126220177Y-73049915D01*
X126568200Y-72209714D01*
X126568200Y-71300286D01*
X126398834Y-70891401D01*
X127601166Y-70891401D01*
X127431800Y-71300286D01*
G36*
X165879823Y-67969915D02*
X166522885Y-68612977D01*
X167030401Y-68823197D01*
X167030400Y-69606803D01*
X166522885Y-69817023D01*
X165879823Y-70460085D01*
X165669603Y-70967600D01*
X164530397Y-70967600D01*
X164320177Y-70460085D01*
X163677115Y-69817023D01*
X163169600Y-69606803D01*
X163169600Y-68823197D01*
X163677115Y-68612977D01*
X164320177Y-67969915D01*
X164530397Y-67462400D01*
X165669603Y-67462400D01*
X165879823Y-67969915D01*
X165879823Y-67969915D01*
G37*
X165879823Y-67969915D02*
X166522885Y-68612977D01*
X167030401Y-68823197D01*
X167030400Y-69606803D01*
X166522885Y-69817023D01*
X165879823Y-70460085D01*
X165669603Y-70967600D01*
X164530397Y-70967600D01*
X164320177Y-70460085D01*
X163677115Y-69817023D01*
X163169600Y-69606803D01*
X163169600Y-68823197D01*
X163677115Y-68612977D01*
X164320177Y-67969915D01*
X164530397Y-67462400D01*
X165669603Y-67462400D01*
X165879823Y-67969915D01*
G36*
X127779823Y-67969915D02*
X128422885Y-68612977D01*
X128930400Y-68823197D01*
X128930401Y-69606803D01*
X128755571Y-69679220D01*
X128678417Y-69602066D01*
X128634485Y-69536317D01*
X128374029Y-69362286D01*
X128144353Y-69316601D01*
X128144352Y-69316601D01*
X128066801Y-69301175D01*
X127989250Y-69316601D01*
X126010749Y-69316601D01*
X125933198Y-69301175D01*
X125855647Y-69316601D01*
X125625971Y-69362286D01*
X125365515Y-69536317D01*
X125321585Y-69602063D01*
X125244429Y-69679220D01*
X125069600Y-69606803D01*
X125069600Y-68823197D01*
X125577115Y-68612977D01*
X126220177Y-67969915D01*
X126430397Y-67462400D01*
X127569603Y-67462400D01*
X127779823Y-67969915D01*
X127779823Y-67969915D01*
G37*
X127779823Y-67969915D02*
X128422885Y-68612977D01*
X128930400Y-68823197D01*
X128930401Y-69606803D01*
X128755571Y-69679220D01*
X128678417Y-69602066D01*
X128634485Y-69536317D01*
X128374029Y-69362286D01*
X128144353Y-69316601D01*
X128144352Y-69316601D01*
X128066801Y-69301175D01*
X127989250Y-69316601D01*
X126010749Y-69316601D01*
X125933198Y-69301175D01*
X125855647Y-69316601D01*
X125625971Y-69362286D01*
X125365515Y-69536317D01*
X125321585Y-69602063D01*
X125244429Y-69679220D01*
X125069600Y-69606803D01*
X125069600Y-68823197D01*
X125577115Y-68612977D01*
X126220177Y-67969915D01*
X126430397Y-67462400D01*
X127569603Y-67462400D01*
X127779823Y-67969915D01*
G36*
X169445001Y-65069309D02*
X169112715Y-64737023D01*
X168272514Y-64389000D01*
X167363086Y-64389000D01*
X166522885Y-64737023D01*
X165879823Y-65380085D01*
X165669603Y-65887600D01*
X164530397Y-65887600D01*
X164320177Y-65380085D01*
X163677115Y-64737023D01*
X162836914Y-64389000D01*
X161927486Y-64389000D01*
X161087285Y-64737023D01*
X160444223Y-65380085D01*
X160234003Y-65887600D01*
X156235400Y-65887600D01*
X156235400Y-65609550D01*
X156250826Y-65531999D01*
X156206372Y-65308514D01*
X156189715Y-65224772D01*
X156015684Y-64964316D01*
X155949938Y-64920386D01*
X155264551Y-64235000D01*
X169445001Y-64235000D01*
X169445001Y-65069309D01*
X169445001Y-65069309D01*
G37*
X169445001Y-65069309D02*
X169112715Y-64737023D01*
X168272514Y-64389000D01*
X167363086Y-64389000D01*
X166522885Y-64737023D01*
X165879823Y-65380085D01*
X165669603Y-65887600D01*
X164530397Y-65887600D01*
X164320177Y-65380085D01*
X163677115Y-64737023D01*
X162836914Y-64389000D01*
X161927486Y-64389000D01*
X161087285Y-64737023D01*
X160444223Y-65380085D01*
X160234003Y-65887600D01*
X156235400Y-65887600D01*
X156235400Y-65609550D01*
X156250826Y-65531999D01*
X156206372Y-65308514D01*
X156189715Y-65224772D01*
X156015684Y-64964316D01*
X155949938Y-64920386D01*
X155264551Y-64235000D01*
X169445001Y-64235000D01*
X169445001Y-65069309D01*
G36*
X127779823Y-65380085D02*
X127569603Y-65887600D01*
X126430397Y-65887600D01*
X126220177Y-65380085D01*
X126194291Y-65354199D01*
X127805709Y-65354199D01*
X127779823Y-65380085D01*
X127779823Y-65380085D01*
G37*
X127779823Y-65380085D02*
X127569603Y-65887600D01*
X126430397Y-65887600D01*
X126220177Y-65380085D01*
X126194291Y-65354199D01*
X127805709Y-65354199D01*
X127779823Y-65380085D01*
M02*
