G04 #@! TF.GenerationSoftware,KiCad,Pcbnew,(5.0.0-rc2-dev-179-gab3780148)*
G04 #@! TF.CreationDate,2018-03-20T17:07:23-05:00*
G04 #@! TF.ProjectId,conductivity_sensor_vert,636F6E6475637469766974795F73656E,rev?*
G04 #@! TF.SameCoordinates,Original*
G04 #@! TF.FileFunction,Legend,Bot*
G04 #@! TF.FilePolarity,Positive*
%FSLAX46Y46*%
G04 Gerber Fmt 4.6, Leading zero omitted, Abs format (unit mm)*
G04 Created by KiCad (PCBNEW (5.0.0-rc2-dev-179-gab3780148)) date 03/20/18 17:07:23*
%MOMM*%
%LPD*%
G01*
G04 APERTURE LIST*
%ADD10C,0.300000*%
G04 APERTURE END LIST*
D10*
X134424285Y-109817142D02*
X134567142Y-109888571D01*
X134852857Y-109888571D01*
X134995714Y-109817142D01*
X135067142Y-109745714D01*
X135138571Y-109602857D01*
X135138571Y-109174285D01*
X135067142Y-109031428D01*
X134995714Y-108960000D01*
X134852857Y-108888571D01*
X134567142Y-108888571D01*
X134424285Y-108960000D01*
X133567142Y-109888571D02*
X133710000Y-109817142D01*
X133781428Y-109745714D01*
X133852857Y-109602857D01*
X133852857Y-109174285D01*
X133781428Y-109031428D01*
X133710000Y-108960000D01*
X133567142Y-108888571D01*
X133352857Y-108888571D01*
X133210000Y-108960000D01*
X133138571Y-109031428D01*
X133067142Y-109174285D01*
X133067142Y-109602857D01*
X133138571Y-109745714D01*
X133210000Y-109817142D01*
X133352857Y-109888571D01*
X133567142Y-109888571D01*
X132424285Y-108888571D02*
X132424285Y-109888571D01*
X132424285Y-109031428D02*
X132352857Y-108960000D01*
X132210000Y-108888571D01*
X131995714Y-108888571D01*
X131852857Y-108960000D01*
X131781428Y-109102857D01*
X131781428Y-109888571D01*
X130424285Y-109888571D02*
X130424285Y-108388571D01*
X130424285Y-109817142D02*
X130567142Y-109888571D01*
X130852857Y-109888571D01*
X130995714Y-109817142D01*
X131067142Y-109745714D01*
X131138571Y-109602857D01*
X131138571Y-109174285D01*
X131067142Y-109031428D01*
X130995714Y-108960000D01*
X130852857Y-108888571D01*
X130567142Y-108888571D01*
X130424285Y-108960000D01*
X129067142Y-108888571D02*
X129067142Y-109888571D01*
X129710000Y-108888571D02*
X129710000Y-109674285D01*
X129638571Y-109817142D01*
X129495714Y-109888571D01*
X129281428Y-109888571D01*
X129138571Y-109817142D01*
X129067142Y-109745714D01*
X127710000Y-109817142D02*
X127852857Y-109888571D01*
X128138571Y-109888571D01*
X128281428Y-109817142D01*
X128352857Y-109745714D01*
X128424285Y-109602857D01*
X128424285Y-109174285D01*
X128352857Y-109031428D01*
X128281428Y-108960000D01*
X128138571Y-108888571D01*
X127852857Y-108888571D01*
X127710000Y-108960000D01*
X127281428Y-108888571D02*
X126710000Y-108888571D01*
X127067142Y-108388571D02*
X127067142Y-109674285D01*
X126995714Y-109817142D01*
X126852857Y-109888571D01*
X126710000Y-109888571D01*
X126210000Y-109888571D02*
X126210000Y-108888571D01*
X126210000Y-108388571D02*
X126281428Y-108460000D01*
X126210000Y-108531428D01*
X126138571Y-108460000D01*
X126210000Y-108388571D01*
X126210000Y-108531428D01*
X125638571Y-108888571D02*
X125281428Y-109888571D01*
X124924285Y-108888571D01*
X124352857Y-109888571D02*
X124352857Y-108888571D01*
X124352857Y-108388571D02*
X124424285Y-108460000D01*
X124352857Y-108531428D01*
X124281428Y-108460000D01*
X124352857Y-108388571D01*
X124352857Y-108531428D01*
X123852857Y-108888571D02*
X123281428Y-108888571D01*
X123638571Y-108388571D02*
X123638571Y-109674285D01*
X123567142Y-109817142D01*
X123424285Y-109888571D01*
X123281428Y-109888571D01*
X122924285Y-108888571D02*
X122567142Y-109888571D01*
X122210000Y-108888571D02*
X122567142Y-109888571D01*
X122710000Y-110245714D01*
X122781428Y-110317142D01*
X122924285Y-110388571D01*
X120567142Y-109817142D02*
X120424285Y-109888571D01*
X120138571Y-109888571D01*
X119995714Y-109817142D01*
X119924285Y-109674285D01*
X119924285Y-109602857D01*
X119995714Y-109460000D01*
X120138571Y-109388571D01*
X120352857Y-109388571D01*
X120495714Y-109317142D01*
X120567142Y-109174285D01*
X120567142Y-109102857D01*
X120495714Y-108960000D01*
X120352857Y-108888571D01*
X120138571Y-108888571D01*
X119995714Y-108960000D01*
X118710000Y-109817142D02*
X118852857Y-109888571D01*
X119138571Y-109888571D01*
X119281428Y-109817142D01*
X119352857Y-109674285D01*
X119352857Y-109102857D01*
X119281428Y-108960000D01*
X119138571Y-108888571D01*
X118852857Y-108888571D01*
X118710000Y-108960000D01*
X118638571Y-109102857D01*
X118638571Y-109245714D01*
X119352857Y-109388571D01*
X117995714Y-108888571D02*
X117995714Y-109888571D01*
X117995714Y-109031428D02*
X117924285Y-108960000D01*
X117781428Y-108888571D01*
X117567142Y-108888571D01*
X117424285Y-108960000D01*
X117352857Y-109102857D01*
X117352857Y-109888571D01*
X116710000Y-109817142D02*
X116567142Y-109888571D01*
X116281428Y-109888571D01*
X116138571Y-109817142D01*
X116067142Y-109674285D01*
X116067142Y-109602857D01*
X116138571Y-109460000D01*
X116281428Y-109388571D01*
X116495714Y-109388571D01*
X116638571Y-109317142D01*
X116710000Y-109174285D01*
X116710000Y-109102857D01*
X116638571Y-108960000D01*
X116495714Y-108888571D01*
X116281428Y-108888571D01*
X116138571Y-108960000D01*
X115210000Y-109888571D02*
X115352857Y-109817142D01*
X115424285Y-109745714D01*
X115495714Y-109602857D01*
X115495714Y-109174285D01*
X115424285Y-109031428D01*
X115352857Y-108960000D01*
X115210000Y-108888571D01*
X114995714Y-108888571D01*
X114852857Y-108960000D01*
X114781428Y-109031428D01*
X114710000Y-109174285D01*
X114710000Y-109602857D01*
X114781428Y-109745714D01*
X114852857Y-109817142D01*
X114995714Y-109888571D01*
X115210000Y-109888571D01*
X114067142Y-109888571D02*
X114067142Y-108888571D01*
X114067142Y-109174285D02*
X113995714Y-109031428D01*
X113924285Y-108960000D01*
X113781428Y-108888571D01*
X113638571Y-108888571D01*
X132995714Y-111438571D02*
X132995714Y-112438571D01*
X133638571Y-111438571D02*
X133638571Y-112224285D01*
X133567142Y-112367142D01*
X133424285Y-112438571D01*
X133210000Y-112438571D01*
X133067142Y-112367142D01*
X132995714Y-112295714D01*
X132281428Y-112438571D02*
X132281428Y-111438571D01*
X132281428Y-111581428D02*
X132210000Y-111510000D01*
X132067142Y-111438571D01*
X131852857Y-111438571D01*
X131710000Y-111510000D01*
X131638571Y-111652857D01*
X131638571Y-112438571D01*
X131638571Y-111652857D02*
X131567142Y-111510000D01*
X131424285Y-111438571D01*
X131210000Y-111438571D01*
X131067142Y-111510000D01*
X130995714Y-111652857D01*
X130995714Y-112438571D01*
X130281428Y-111438571D02*
X130281428Y-112438571D01*
X130281428Y-111581428D02*
X130210000Y-111510000D01*
X130067142Y-111438571D01*
X129852857Y-111438571D01*
X129710000Y-111510000D01*
X129638571Y-111652857D01*
X129638571Y-112438571D01*
X127781428Y-112438571D02*
X127781428Y-110938571D01*
X127781428Y-111510000D02*
X127638571Y-111438571D01*
X127352857Y-111438571D01*
X127210000Y-111510000D01*
X127138571Y-111581428D01*
X127067142Y-111724285D01*
X127067142Y-112152857D01*
X127138571Y-112295714D01*
X127210000Y-112367142D01*
X127352857Y-112438571D01*
X127638571Y-112438571D01*
X127781428Y-112367142D01*
X126424285Y-112438571D02*
X126424285Y-110938571D01*
X126424285Y-111510000D02*
X126281428Y-111438571D01*
X125995714Y-111438571D01*
X125852857Y-111510000D01*
X125781428Y-111581428D01*
X125710000Y-111724285D01*
X125710000Y-112152857D01*
X125781428Y-112295714D01*
X125852857Y-112367142D01*
X125995714Y-112438571D01*
X126281428Y-112438571D01*
X126424285Y-112367142D01*
X124495714Y-112367142D02*
X124638571Y-112438571D01*
X124924285Y-112438571D01*
X125067142Y-112367142D01*
X125138571Y-112224285D01*
X125138571Y-111652857D01*
X125067142Y-111510000D01*
X124924285Y-111438571D01*
X124638571Y-111438571D01*
X124495714Y-111510000D01*
X124424285Y-111652857D01*
X124424285Y-111795714D01*
X125138571Y-111938571D01*
X121995714Y-112438571D02*
X121995714Y-110938571D01*
X121995714Y-112367142D02*
X122138571Y-112438571D01*
X122424285Y-112438571D01*
X122567142Y-112367142D01*
X122638571Y-112295714D01*
X122710000Y-112152857D01*
X122710000Y-111724285D01*
X122638571Y-111581428D01*
X122567142Y-111510000D01*
X122424285Y-111438571D01*
X122138571Y-111438571D01*
X121995714Y-111510000D01*
X121495714Y-111438571D02*
X120924285Y-111438571D01*
X121281428Y-112438571D02*
X121281428Y-111152857D01*
X121210000Y-111010000D01*
X121067142Y-110938571D01*
X120924285Y-110938571D01*
X119781428Y-111438571D02*
X119781428Y-112438571D01*
X120424285Y-111438571D02*
X120424285Y-112224285D01*
X120352857Y-112367142D01*
X120210000Y-112438571D01*
X119995714Y-112438571D01*
X119852857Y-112367142D01*
X119781428Y-112295714D01*
X119067142Y-112438571D02*
X119067142Y-111438571D01*
X119067142Y-111724285D02*
X118995714Y-111581428D01*
X118924285Y-111510000D01*
X118781428Y-111438571D01*
X118638571Y-111438571D01*
X117495714Y-111438571D02*
X117495714Y-112438571D01*
X118138571Y-111438571D02*
X118138571Y-112224285D01*
X118067142Y-112367142D01*
X117924285Y-112438571D01*
X117710000Y-112438571D01*
X117567142Y-112367142D01*
X117495714Y-112295714D01*
X116995714Y-111438571D02*
X116424285Y-111438571D01*
X116781428Y-110938571D02*
X116781428Y-112224285D01*
X116710000Y-112367142D01*
X116567142Y-112438571D01*
X116424285Y-112438571D01*
X115281428Y-112438571D02*
X115281428Y-111652857D01*
X115352857Y-111510000D01*
X115495714Y-111438571D01*
X115781428Y-111438571D01*
X115924285Y-111510000D01*
X115281428Y-112367142D02*
X115424285Y-112438571D01*
X115781428Y-112438571D01*
X115924285Y-112367142D01*
X115995714Y-112224285D01*
X115995714Y-112081428D01*
X115924285Y-111938571D01*
X115781428Y-111867142D01*
X115424285Y-111867142D01*
X115281428Y-111795714D01*
X134531428Y-114988571D02*
X134531428Y-113988571D01*
X134531428Y-114131428D02*
X134460000Y-114060000D01*
X134317142Y-113988571D01*
X134102857Y-113988571D01*
X133960000Y-114060000D01*
X133888571Y-114202857D01*
X133888571Y-114988571D01*
X133888571Y-114202857D02*
X133817142Y-114060000D01*
X133674285Y-113988571D01*
X133460000Y-113988571D01*
X133317142Y-114060000D01*
X133245714Y-114202857D01*
X133245714Y-114988571D01*
X131888571Y-114988571D02*
X131888571Y-114202857D01*
X131960000Y-114060000D01*
X132102857Y-113988571D01*
X132388571Y-113988571D01*
X132531428Y-114060000D01*
X131888571Y-114917142D02*
X132031428Y-114988571D01*
X132388571Y-114988571D01*
X132531428Y-114917142D01*
X132602857Y-114774285D01*
X132602857Y-114631428D01*
X132531428Y-114488571D01*
X132388571Y-114417142D01*
X132031428Y-114417142D01*
X131888571Y-114345714D01*
X131174285Y-114988571D02*
X131174285Y-113988571D01*
X131174285Y-114274285D02*
X131102857Y-114131428D01*
X131031428Y-114060000D01*
X130888571Y-113988571D01*
X130745714Y-113988571D01*
X129602857Y-114917142D02*
X129745714Y-114988571D01*
X130031428Y-114988571D01*
X130174285Y-114917142D01*
X130245714Y-114845714D01*
X130317142Y-114702857D01*
X130317142Y-114274285D01*
X130245714Y-114131428D01*
X130174285Y-114060000D01*
X130031428Y-113988571D01*
X129745714Y-113988571D01*
X129602857Y-114060000D01*
X128960000Y-114988571D02*
X128960000Y-113488571D01*
X128317142Y-114988571D02*
X128317142Y-114202857D01*
X128388571Y-114060000D01*
X128531428Y-113988571D01*
X128745714Y-113988571D01*
X128888571Y-114060000D01*
X128960000Y-114131428D01*
X126531428Y-113631428D02*
X126460000Y-113560000D01*
X126317142Y-113488571D01*
X125960000Y-113488571D01*
X125817142Y-113560000D01*
X125745714Y-113631428D01*
X125674285Y-113774285D01*
X125674285Y-113917142D01*
X125745714Y-114131428D01*
X126602857Y-114988571D01*
X125674285Y-114988571D01*
X124745714Y-113488571D02*
X124602857Y-113488571D01*
X124460000Y-113560000D01*
X124388571Y-113631428D01*
X124317142Y-113774285D01*
X124245714Y-114060000D01*
X124245714Y-114417142D01*
X124317142Y-114702857D01*
X124388571Y-114845714D01*
X124460000Y-114917142D01*
X124602857Y-114988571D01*
X124745714Y-114988571D01*
X124888571Y-114917142D01*
X124960000Y-114845714D01*
X125031428Y-114702857D01*
X125102857Y-114417142D01*
X125102857Y-114060000D01*
X125031428Y-113774285D01*
X124960000Y-113631428D01*
X124888571Y-113560000D01*
X124745714Y-113488571D01*
X122817142Y-114988571D02*
X123674285Y-114988571D01*
X123245714Y-114988571D02*
X123245714Y-113488571D01*
X123388571Y-113702857D01*
X123531428Y-113845714D01*
X123674285Y-113917142D01*
X121960000Y-114131428D02*
X122102857Y-114060000D01*
X122174285Y-113988571D01*
X122245714Y-113845714D01*
X122245714Y-113774285D01*
X122174285Y-113631428D01*
X122102857Y-113560000D01*
X121960000Y-113488571D01*
X121674285Y-113488571D01*
X121531428Y-113560000D01*
X121460000Y-113631428D01*
X121388571Y-113774285D01*
X121388571Y-113845714D01*
X121460000Y-113988571D01*
X121531428Y-114060000D01*
X121674285Y-114131428D01*
X121960000Y-114131428D01*
X122102857Y-114202857D01*
X122174285Y-114274285D01*
X122245714Y-114417142D01*
X122245714Y-114702857D01*
X122174285Y-114845714D01*
X122102857Y-114917142D01*
X121960000Y-114988571D01*
X121674285Y-114988571D01*
X121531428Y-114917142D01*
X121460000Y-114845714D01*
X121388571Y-114702857D01*
X121388571Y-114417142D01*
X121460000Y-114274285D01*
X121531428Y-114202857D01*
X121674285Y-114131428D01*
X119602857Y-114988571D02*
X119602857Y-113988571D01*
X119602857Y-114274285D02*
X119531428Y-114131428D01*
X119460000Y-114060000D01*
X119317142Y-113988571D01*
X119174285Y-113988571D01*
X118102857Y-114917142D02*
X118245714Y-114988571D01*
X118531428Y-114988571D01*
X118674285Y-114917142D01*
X118745714Y-114774285D01*
X118745714Y-114202857D01*
X118674285Y-114060000D01*
X118531428Y-113988571D01*
X118245714Y-113988571D01*
X118102857Y-114060000D01*
X118031428Y-114202857D01*
X118031428Y-114345714D01*
X118745714Y-114488571D01*
X117531428Y-113988571D02*
X117174285Y-114988571D01*
X116817142Y-113988571D01*
X114317142Y-114988571D02*
X115174285Y-114988571D01*
X114745714Y-114988571D02*
X114745714Y-113488571D01*
X114888571Y-113702857D01*
X115031428Y-113845714D01*
X115174285Y-113917142D01*
M02*
