G04 #@! TF.GenerationSoftware,KiCad,Pcbnew,(5.0.0-rc2-dev-179-gab3780148)*
G04 #@! TF.CreationDate,2018-03-20T17:07:23-05:00*
G04 #@! TF.ProjectId,conductivity_sensor_vert,636F6E6475637469766974795F73656E,rev?*
G04 #@! TF.SameCoordinates,Original*
G04 #@! TF.FileFunction,Soldermask,Bot*
G04 #@! TF.FilePolarity,Negative*
%FSLAX46Y46*%
G04 Gerber Fmt 4.6, Leading zero omitted, Abs format (unit mm)*
G04 Created by KiCad (PCBNEW (5.0.0-rc2-dev-179-gab3780148)) date 03/20/18 17:07:23*
%MOMM*%
%LPD*%
G01*
G04 APERTURE LIST*
%ADD10O,1.900000X2.400000*%
%ADD11R,2.400000X1.900000*%
%ADD12O,2.400000X1.900000*%
%ADD13C,2.000000*%
%ADD14R,2.000000X2.000000*%
%ADD15O,2.000000X2.000000*%
%ADD16R,2.800000X2.000000*%
%ADD17O,2.800000X2.000000*%
%ADD18R,2.800000X2.800000*%
%ADD19C,2.800000*%
%ADD20C,2.400000*%
%ADD21C,3.702000*%
G04 APERTURE END LIST*
D10*
X148590000Y-68580000D03*
D11*
X151130000Y-66040000D03*
D12*
X146050000Y-66040000D03*
D13*
X153670000Y-68580000D03*
X153670000Y-66080000D03*
D14*
X151384000Y-104267000D03*
D15*
X118364000Y-119507000D03*
X148844000Y-104267000D03*
X120904000Y-119507000D03*
X146304000Y-104267000D03*
X123444000Y-119507000D03*
X143764000Y-104267000D03*
X125984000Y-119507000D03*
X141224000Y-104267000D03*
X128524000Y-119507000D03*
X138684000Y-104267000D03*
X131064000Y-119507000D03*
X136144000Y-104267000D03*
X133604000Y-119507000D03*
X133604000Y-104267000D03*
X136144000Y-119507000D03*
X131064000Y-104267000D03*
X138684000Y-119507000D03*
X128524000Y-104267000D03*
X141224000Y-119507000D03*
X125984000Y-104267000D03*
X143764000Y-119507000D03*
X123444000Y-104267000D03*
X146304000Y-119507000D03*
X120904000Y-104267000D03*
X148844000Y-119507000D03*
X118364000Y-104267000D03*
X151384000Y-119507000D03*
X115824000Y-104267000D03*
X115824000Y-119507000D03*
D16*
X160655000Y-78359000D03*
D17*
X168275000Y-96139000D03*
X160655000Y-80899000D03*
X168275000Y-93599000D03*
X160655000Y-83439000D03*
X168275000Y-91059000D03*
X160655000Y-85979000D03*
X168275000Y-88519000D03*
X160655000Y-88519000D03*
X168275000Y-85979000D03*
X160655000Y-91059000D03*
X168275000Y-83439000D03*
X160655000Y-93599000D03*
X168275000Y-80899000D03*
X160655000Y-96139000D03*
X168275000Y-78359000D03*
D16*
X111760000Y-79121000D03*
D17*
X119380000Y-96901000D03*
X111760000Y-81661000D03*
X119380000Y-94361000D03*
X111760000Y-84201000D03*
X119380000Y-91821000D03*
X111760000Y-86741000D03*
X119380000Y-89281000D03*
X111760000Y-89281000D03*
X119380000Y-86741000D03*
X111760000Y-91821000D03*
X119380000Y-84201000D03*
X111760000Y-94361000D03*
X119380000Y-81661000D03*
X111760000Y-96901000D03*
X119380000Y-79121000D03*
D16*
X149225000Y-91440000D03*
D17*
X141605000Y-76200000D03*
X149225000Y-88900000D03*
X141605000Y-78740000D03*
X149225000Y-86360000D03*
X141605000Y-81280000D03*
X149225000Y-83820000D03*
X141605000Y-83820000D03*
X149225000Y-81280000D03*
X141605000Y-86360000D03*
X149225000Y-78740000D03*
X141605000Y-88900000D03*
X149225000Y-76200000D03*
X141605000Y-91440000D03*
D13*
X156845000Y-68072000D03*
D15*
X156845000Y-78232000D03*
D13*
X155575000Y-81915000D03*
D15*
X155575000Y-92075000D03*
D13*
X122428000Y-95250000D03*
D15*
X132588000Y-95250000D03*
D13*
X121285000Y-100330000D03*
D15*
X131445000Y-100330000D03*
D13*
X140970000Y-96520000D03*
D15*
X151130000Y-96520000D03*
D13*
X147320000Y-100965000D03*
D15*
X157480000Y-100965000D03*
D13*
X132080000Y-88265000D03*
D15*
X132080000Y-78105000D03*
D13*
X137160000Y-88265000D03*
D15*
X137160000Y-78105000D03*
D13*
X122555000Y-78105000D03*
D15*
X122555000Y-88265000D03*
D13*
X156972000Y-105283000D03*
D15*
X167132000Y-105283000D03*
D18*
X157480000Y-116967000D03*
D19*
X160980000Y-116967000D03*
X164480000Y-116967000D03*
X167980000Y-116967000D03*
D14*
X127635000Y-88265000D03*
D15*
X127635000Y-78105000D03*
D10*
X165608000Y-111379000D03*
D11*
X168148000Y-108839000D03*
D12*
X163068000Y-108839000D03*
D20*
X136525000Y-92710000D03*
X136525000Y-100210000D03*
D13*
X152400000Y-78740000D03*
X152400000Y-76240000D03*
X165735000Y-75565000D03*
X163235000Y-75565000D03*
D20*
X142240000Y-69850000D03*
X134740000Y-69850000D03*
D13*
X116840000Y-76073000D03*
X114340000Y-76073000D03*
X152400000Y-84455000D03*
X152400000Y-86955000D03*
X167894000Y-100076000D03*
X167894000Y-102576000D03*
D14*
X157480000Y-109855000D03*
D13*
X159480000Y-109855000D03*
D14*
X164465000Y-100711000D03*
D13*
X162465000Y-100711000D03*
D21*
X111582200Y-66675000D03*
X111582200Y-71755000D03*
X117017800Y-71755000D03*
X117017800Y-66675000D03*
X167817800Y-66675000D03*
X167817800Y-71755000D03*
X162382200Y-71755000D03*
X162382200Y-66675000D03*
X129717800Y-66675000D03*
X129717800Y-71755000D03*
X124282200Y-71755000D03*
X124282200Y-66675000D03*
M02*
