M48
;DRILL file {KiCad (5.0.0-rc2-dev-179-gab3780148)} date 03/20/18 17:07:28
;FORMAT={-:-/ absolute / inch / decimal}
FMAT,2
INCH,TZ
T1C0.0118
T2C0.0200
T3C0.0315
T4C0.0394
T5C0.0472
T6C0.0670
%
G90
G05
M72
T1
X5.501Y-4.3937
X5.901Y-2.7937
X4.901Y-4.1937
X6.201Y-4.0937
X4.401Y-4.0937
X5.201Y-3.5937
X5.601Y-3.9937
X5.301Y-3.9937
X4.601Y-3.9937
X6.501Y-3.2937
X5.801Y-3.0937
X5.301Y-3.0937
X6.001Y-2.8937
X4.501Y-3.9937
X4.401Y-3.9937
X5.901Y-3.8937
X5.901Y-2.8937
X6.101Y-2.7937
X5.501Y-3.8937
X6.601Y-4.6937
X6.101Y-4.6937
X5.801Y-4.5937
X4.601Y-3.5937
X6.201Y-3.4937
X5.601Y-4.5937
X4.701Y-4.5937
X6.001Y-4.5937
X6.101Y-4.5937
X4.401Y-4.6937
X6.101Y-2.8937
X4.501Y-4.6937
X4.701Y-4.2937
X5.501Y-2.7937
X4.601Y-4.4937
X6.401Y-4.3937
X5.001Y-2.6937
X6.501Y-3.3937
X5.301Y-2.5937
X5.501Y-2.5937
X6.301Y-2.5937
X4.401Y-4.4937
X5.201Y-4.3937
X5.401Y-3.2937
X6.501Y-2.5937
X5.101Y-3.1937
X5.201Y-2.5937
X5.201Y-2.6937
X5.101Y-3.0937
X4.601Y-3.0937
X5.401Y-2.6937
X5.501Y-2.6937
X4.901Y-4.3937
X5.601Y-2.8937
X6.301Y-4.6937
X4.401Y-4.2937
X6.401Y-4.1937
X6.501Y-2.7937
X4.701Y-2.8937
X4.501Y-4.4937
X4.901Y-4.2937
X5.201Y-2.8937
X5.501Y-4.4937
X4.401Y-4.5937
X5.301Y-3.7937
X4.601Y-4.1937
X5.901Y-4.4937
X4.501Y-4.5937
X5.001Y-4.5937
X4.401Y-4.1937
X5.801Y-2.8937
X4.601Y-4.3937
X5.901Y-4.3937
X6.601Y-4.3937
X5.601Y-3.8937
X5.301Y-3.8937
X5.701Y-4.2937
X4.801Y-3.8937
X4.401Y-3.8937
X5.001Y-4.3937
X5.301Y-4.3937
X5.601Y-4.3937
X5.001Y-2.5937
X5.401Y-3.7937
X5.001Y-2.8937
X4.801Y-2.5937
X4.701Y-2.5937
X5.401Y-2.8937
X6.201Y-2.9937
X6.501Y-4.4937
X5.001Y-3.3937
X4.901Y-3.8937
X5.401Y-3.3937
X5.301Y-3.5937
X5.001Y-3.7937
X5.401Y-4.4937
X4.701Y-4.3937
X4.501Y-4.3937
X5.901Y-4.2937
X5.801Y-4.2937
X6.501Y-3.4937
X5.501Y-2.8937
X4.801Y-4.1937
X4.701Y-4.1937
X5.101Y-3.8937
X4.501Y-3.8937
X5.101Y-3.7937
X5.101Y-3.4937
X6.201Y-3.6937
X4.601Y-3.6937
X5.301Y-3.2937
X6.501Y-2.8937
X6.501Y-3.5937
X5.801Y-3.5937
X6.301Y-2.7937
X4.801Y-4.3937
X5.401Y-2.5937
X6.601Y-4.4937
X6.101Y-4.4937
X6.001Y-4.4937
X6.201Y-4.6937
X4.801Y-4.4937
X6.401Y-4.6937
X5.501Y-3.1937
X5.201Y-3.1937
X6.301Y-2.6937
X4.901Y-3.1937
X4.701Y-2.6937
X5.601Y-2.5937
X4.701Y-2.7937
X4.801Y-2.6937
X4.801Y-2.7937
X5.301Y-3.3937
X5.401Y-3.1937
X6.601Y-2.9937
X5.001Y-2.7937
X5.201Y-2.7937
X5.401Y-2.7937
X5.801Y-2.7937
X6.001Y-2.7937
X4.901Y-3.9937
X5.701Y-4.3937
X6.501Y-4.6937
X5.901Y-4.5937
X5.501Y-4.5937
X5.401Y-4.5937
X5.301Y-4.5937
X4.601Y-4.5937
X5.601Y-4.4937
X4.701Y-4.4937
X5.801Y-3.4937
X4.401Y-4.3937
X5.301Y-4.2937
X5.101Y-4.2937
X5.001Y-4.2937
X4.801Y-4.2937
X4.601Y-4.2937
X4.501Y-4.2937
X4.501Y-4.1937
X5.001Y-3.2937
X6.501Y-2.6937
X4.501Y-4.0937
X5.001Y-3.9937
X5.501Y-3.2937
X5.701Y-2.6937
T2
X4.58Y-3.32
X4.9Y-3.32
X5.4Y-4.26
X5.48Y-4.
X5.6Y-4.26
X5.72Y-3.44
X5.72Y-3.7
X5.72Y-4.18
X5.84Y-4.2
X6.02Y-4.42
X6.04Y-4.18
X6.06Y-3.76
X6.08Y-4.22
X6.12Y-3.5
X6.26Y-2.88
X6.26Y-4.22
X6.28Y-2.98
T3
X6.2Y-4.325
X6.2787Y-4.325
X5.85Y-2.7
X4.825Y-3.075
X5.75Y-2.6
X5.95Y-2.6
X5.575Y-3.
X5.575Y-3.2
X5.575Y-3.3
X5.575Y-3.4
X5.875Y-3.2
X5.875Y-3.3
X5.875Y-3.4
X5.875Y-3.5
X5.875Y-3.6
X4.56Y-4.105
X4.56Y-4.705
X4.66Y-4.105
X4.825Y-3.475
X6.325Y-3.385
X6.325Y-3.485
X6.325Y-3.585
X6.325Y-3.685
X6.325Y-3.785
X6.625Y-3.085
X6.625Y-3.185
X6.625Y-3.285
X6.625Y-3.385
X6.625Y-3.485
X5.025Y-3.475
X4.66Y-4.705
X5.025Y-3.075
X4.76Y-4.105
X4.76Y-4.705
X4.86Y-4.105
X4.86Y-4.705
X4.96Y-4.105
X5.06Y-4.105
X6.125Y-3.225
X5.06Y-4.705
X6.125Y-3.625
X4.96Y-4.705
X5.22Y-3.75
X6.325Y-3.285
X4.82Y-3.75
X6.325Y-3.085
X6.325Y-3.185
X4.775Y-3.95
X6.625Y-3.585
X6.625Y-3.685
X6.625Y-3.785
X5.2Y-3.075
X5.2Y-3.475
X5.575Y-3.1
X5.16Y-4.105
X5.36Y-4.705
X5.46Y-4.705
X5.56Y-4.705
X5.66Y-4.105
X5.66Y-4.705
X6.2Y-3.975
X5.26Y-4.105
X5.8Y-3.975
X5.16Y-4.705
X5.26Y-4.705
X5.36Y-4.105
X5.56Y-4.105
X5.175Y-3.95
X5.46Y-4.105
X5.76Y-4.705
X5.86Y-4.705
X5.96Y-4.105
X5.96Y-4.705
X6.62Y-4.285
X6.3963Y-3.965
X6.475Y-3.965
X4.5016Y-2.995
X4.6Y-2.995
X6.42Y-4.285
X6.52Y-4.385
X6.Y-3.1
X6.175Y-3.08
X5.875Y-3.1
X6.175Y-2.68
X5.55Y-3.8
X5.575Y-3.6
X5.875Y-3.
X5.95Y-3.8
X5.4Y-3.475
X6.05Y-2.6016
X6.05Y-2.7
X4.4Y-3.215
X4.4Y-3.315
X4.7Y-3.715
X4.7Y-3.815
X5.76Y-4.105
X4.7Y-3.615
X5.86Y-4.105
X4.4Y-3.115
X4.4Y-3.415
X4.4Y-3.515
X4.4Y-3.615
X4.4Y-3.715
X4.4Y-3.815
X4.7Y-3.115
X4.7Y-3.215
X4.7Y-3.315
X4.7Y-3.415
X4.7Y-3.515
X6.Y-3.0016
X5.4Y-3.075
X5.575Y-3.5
X6.18Y-4.145
X6.58Y-4.145
X6.4266Y-2.975
X6.525Y-2.975
X6.Y-3.325
X6.61Y-3.94
X6.61Y-4.0384
X6.Y-3.4234
T4
X5.3047Y-2.75
X5.6Y-2.75
X5.375Y-3.65
X5.375Y-3.9453
T5
X6.2Y-4.605
X6.3378Y-4.605
X6.4756Y-4.605
X6.6134Y-4.605
T6
X4.893Y-2.625
X4.393Y-2.625
X4.893Y-2.825
X4.393Y-2.825
X4.607Y-2.825
X5.107Y-2.625
X5.107Y-2.825
X6.607Y-2.825
X4.607Y-2.625
X6.393Y-2.625
X6.393Y-2.825
X6.607Y-2.625
T0
M30
