M48
;DRILL file {KiCad (5.0.0-rc2-dev-179-gab3780148)} date 03/20/18 14:48:06
;FORMAT={-:-/ absolute / inch / decimal}
FMAT,2
INCH,TZ
T1C0.0200
T2C0.0315
T3C0.0394
T4C0.0472
T5C0.1181
%
G90
G05
M72
T1
X4.51Y-5.35
X4.74Y-5.24
X4.86Y-4.74
X4.93Y-5.03
X5.1Y-4.3
X5.22Y-4.33
X5.49Y-4.66
X5.7Y-4.13
X5.83Y-3.28
X5.95Y-3.61
T2
X5.675Y-4.45
X5.675Y-4.85
X5.525Y-3.875
X5.525Y-4.275
X5.325Y-4.275
X5.6Y-5.2
X5.325Y-3.875
X4.735Y-3.94
X5.135Y-3.94
X5.31Y-5.5
X5.71Y-5.5
X4.8Y-4.07
X4.8984Y-4.07
X5.16Y-3.54
X5.16Y-3.6384
X6.275Y-4.25
X6.275Y-4.3484
X5.87Y-5.14
X5.9684Y-5.14
X6.275Y-3.9266
X6.275Y-4.025
X4.7413Y-5.12
X4.82Y-5.12
X3.875Y-3.75
X3.875Y-3.85
X3.875Y-3.95
X3.875Y-4.05
X3.875Y-4.15
X3.875Y-4.25
X3.875Y-4.35
X3.875Y-4.45
X3.875Y-4.55
X3.875Y-4.65
X3.875Y-4.75
X3.875Y-4.85
X3.875Y-4.95
X3.875Y-5.05
X3.875Y-5.15
X4.475Y-3.75
X4.475Y-3.85
X4.475Y-3.95
X4.475Y-4.05
X4.475Y-4.15
X4.475Y-4.25
X4.475Y-4.35
X4.475Y-4.45
X4.475Y-4.55
X4.475Y-4.65
X4.475Y-4.75
X4.475Y-4.85
X4.475Y-4.95
X4.475Y-5.05
X4.475Y-5.15
X5.85Y-3.925
X5.85Y-4.025
X5.85Y-4.125
X5.85Y-4.225
X4.66Y-3.76
X5.06Y-3.76
X5.85Y-4.325
X4.64Y-3.54
X6.15Y-4.025
X5.8Y-5.275
X6.Y-5.275
X5.85Y-4.425
X5.9Y-5.375
X5.85Y-4.525
X6.15Y-3.925
X5.02Y-5.22
X5.7Y-3.925
X5.04Y-3.54
X5.7Y-4.325
X5.15Y-4.4
X5.55Y-4.4
X4.325Y-5.375
X5.6Y-5.2787
X4.225Y-5.475
X4.425Y-5.475
X5.655Y-5.
X6.055Y-5.
X5.42Y-5.22
X6.15Y-4.225
X6.15Y-4.325
X6.15Y-4.425
X6.15Y-4.525
X4.705Y-4.295
X5.48Y-3.44
X5.58Y-3.44
X5.58Y-3.74
X5.68Y-3.44
X5.68Y-3.74
X5.78Y-3.44
X5.78Y-3.74
X5.88Y-3.74
X4.705Y-4.195
X5.48Y-3.74
X4.705Y-4.795
X5.88Y-3.44
X4.705Y-4.395
X5.38Y-3.74
X4.705Y-4.495
X5.98Y-3.44
X4.705Y-4.595
X5.28Y-3.74
X4.705Y-4.695
X6.15Y-4.125
X4.3766Y-5.6
X4.475Y-5.6
X4.705Y-4.895
X5.005Y-4.195
X5.005Y-4.295
X5.005Y-4.395
X5.005Y-4.495
X5.005Y-4.595
X5.005Y-4.695
X5.005Y-4.795
X5.005Y-4.895
X5.28Y-3.44
X5.38Y-3.44
X5.98Y-3.74
T3
X5.3797Y-3.26
X5.675Y-3.26
X5.85Y-4.77
X6.1453Y-4.77
T4
X4.6244Y-5.48
X4.7622Y-5.48
X4.9Y-5.48
X5.0378Y-5.48
T5
X5.025Y-3.225
X5.325Y-4.775
X4.5Y-3.25
T0
M30
