G04 #@! TF.GenerationSoftware,KiCad,Pcbnew,(5.0.0-rc2-dev-179-gab3780148)*
G04 #@! TF.CreationDate,2018-03-20T14:47:54-05:00*
G04 #@! TF.ProjectId,conductivity_sensor,636F6E6475637469766974795F73656E,rev?*
G04 #@! TF.SameCoordinates,Original*
G04 #@! TF.FileFunction,Copper,L1,Top,Signal*
G04 #@! TF.FilePolarity,Positive*
%FSLAX46Y46*%
G04 Gerber Fmt 4.6, Leading zero omitted, Abs format (unit mm)*
G04 Created by KiCad (PCBNEW (5.0.0-rc2-dev-179-gab3780148)) date 03/20/18 14:47:54*
%MOMM*%
%LPD*%
G01*
G04 APERTURE LIST*
%ADD10O,1.500000X2.000000*%
%ADD11R,2.000000X1.500000*%
%ADD12O,2.000000X1.500000*%
%ADD13C,1.600000*%
%ADD14R,1.600000X1.600000*%
%ADD15O,1.600000X1.600000*%
%ADD16R,1.600000X2.400000*%
%ADD17O,1.600000X2.400000*%
%ADD18R,2.400000X1.600000*%
%ADD19O,2.400000X1.600000*%
%ADD20C,6.000000*%
%ADD21R,2.400000X2.400000*%
%ADD22C,2.400000*%
%ADD23C,2.000000*%
%ADD24C,0.889000*%
%ADD25C,0.304800*%
%ADD26C,0.508000*%
%ADD27C,0.254000*%
G04 APERTURE END LIST*
D10*
X109855000Y-136525000D03*
D11*
X112395000Y-139065000D03*
D12*
X107315000Y-139065000D03*
D13*
X113665000Y-142240000D03*
X111165000Y-142240000D03*
D14*
X113665000Y-130810000D03*
D15*
X98425000Y-97790000D03*
X113665000Y-128270000D03*
X98425000Y-100330000D03*
X113665000Y-125730000D03*
X98425000Y-102870000D03*
X113665000Y-123190000D03*
X98425000Y-105410000D03*
X113665000Y-120650000D03*
X98425000Y-107950000D03*
X113665000Y-118110000D03*
X98425000Y-110490000D03*
X113665000Y-115570000D03*
X98425000Y-113030000D03*
X113665000Y-113030000D03*
X98425000Y-115570000D03*
X113665000Y-110490000D03*
X98425000Y-118110000D03*
X113665000Y-107950000D03*
X98425000Y-120650000D03*
X113665000Y-105410000D03*
X98425000Y-123190000D03*
X113665000Y-102870000D03*
X98425000Y-125730000D03*
X113665000Y-100330000D03*
X98425000Y-128270000D03*
X113665000Y-97790000D03*
X98425000Y-130810000D03*
X113665000Y-95250000D03*
X98425000Y-95250000D03*
D16*
X134112000Y-94996000D03*
D17*
X151892000Y-87376000D03*
X136652000Y-94996000D03*
X149352000Y-87376000D03*
X139192000Y-94996000D03*
X146812000Y-87376000D03*
X141732000Y-94996000D03*
X144272000Y-87376000D03*
X144272000Y-94996000D03*
X141732000Y-87376000D03*
X146812000Y-94996000D03*
X139192000Y-87376000D03*
X149352000Y-94996000D03*
X136652000Y-87376000D03*
X151892000Y-94996000D03*
X134112000Y-87376000D03*
D18*
X119507000Y-106553000D03*
D19*
X127127000Y-124333000D03*
X119507000Y-109093000D03*
X127127000Y-121793000D03*
X119507000Y-111633000D03*
X127127000Y-119253000D03*
X119507000Y-114173000D03*
X127127000Y-116713000D03*
X119507000Y-116713000D03*
X127127000Y-114173000D03*
X119507000Y-119253000D03*
X127127000Y-111633000D03*
X119507000Y-121793000D03*
X127127000Y-109093000D03*
X119507000Y-124333000D03*
X127127000Y-106553000D03*
D18*
X156210000Y-114935000D03*
D19*
X148590000Y-99695000D03*
X156210000Y-112395000D03*
X148590000Y-102235000D03*
X156210000Y-109855000D03*
X148590000Y-104775000D03*
X156210000Y-107315000D03*
X148590000Y-107315000D03*
X156210000Y-104775000D03*
X148590000Y-109855000D03*
X156210000Y-102235000D03*
X148590000Y-112395000D03*
X156210000Y-99695000D03*
X148590000Y-114935000D03*
D13*
X135255000Y-108585000D03*
D15*
X135255000Y-98425000D03*
D13*
X140335000Y-108585000D03*
D15*
X140335000Y-98425000D03*
D13*
X118364000Y-95504000D03*
D15*
X128524000Y-95504000D03*
D13*
X120269000Y-100076000D03*
D15*
X130429000Y-100076000D03*
D13*
X127508000Y-132588000D03*
D15*
X137668000Y-132588000D03*
D13*
X143637000Y-127000000D03*
D15*
X153797000Y-127000000D03*
D13*
X140970000Y-111760000D03*
D15*
X130810000Y-111760000D03*
D13*
X144780000Y-109855000D03*
D15*
X144780000Y-99695000D03*
D13*
X117856000Y-89916000D03*
D15*
X128016000Y-89916000D03*
D13*
X134874000Y-139700000D03*
D15*
X145034000Y-139700000D03*
D20*
X127635000Y-81915000D03*
X135255000Y-121285000D03*
X114300000Y-82550000D03*
D21*
X127960000Y-139192000D03*
D22*
X124460000Y-139192000D03*
X120960000Y-139192000D03*
X117460000Y-139192000D03*
D14*
X144145000Y-123190000D03*
D15*
X144145000Y-113030000D03*
D10*
X149860000Y-136525000D03*
D11*
X152400000Y-133985000D03*
D12*
X147320000Y-133985000D03*
D23*
X148590000Y-121158000D03*
X156090000Y-121158000D03*
D13*
X159385000Y-102235000D03*
X159385000Y-99735000D03*
X131064000Y-89916000D03*
X131064000Y-92416000D03*
D23*
X144145000Y-82804000D03*
X136645000Y-82804000D03*
D13*
X124420000Y-103378000D03*
X121920000Y-103378000D03*
X159385000Y-107950000D03*
X159385000Y-110450000D03*
X151598000Y-130556000D03*
X149098000Y-130556000D03*
D14*
X122428000Y-130048000D03*
D13*
X120428000Y-130048000D03*
D14*
X142240000Y-134080000D03*
D13*
X142240000Y-132080000D03*
D24*
X148082000Y-83312000D03*
X139446000Y-118364000D03*
X129540000Y-109220000D03*
X132588000Y-109982000D03*
X120396000Y-133096000D03*
X114554000Y-135890000D03*
X151130000Y-91694000D03*
X144780000Y-104902000D03*
X123444000Y-120396000D03*
X125222000Y-127762000D03*
D25*
X148082000Y-83312000D02*
X147453383Y-83312000D01*
X147453383Y-83312000D02*
X146812000Y-83953383D01*
X146812000Y-83953383D02*
X146812000Y-87376000D01*
D26*
X159004000Y-118364000D02*
X139446000Y-118364000D01*
X161290000Y-116078000D02*
X159004000Y-118364000D01*
X161290000Y-109728000D02*
X161290000Y-116078000D01*
X160311999Y-108749999D02*
X161290000Y-109728000D01*
X159385000Y-107950000D02*
X160184999Y-108749999D01*
X160184999Y-108749999D02*
X160311999Y-108749999D01*
X130302000Y-109982000D02*
X129540000Y-109220000D01*
X132588000Y-109982000D02*
X130302000Y-109982000D01*
X134874000Y-139700000D02*
X128468000Y-139700000D01*
X128468000Y-139700000D02*
X127960000Y-139192000D01*
X117348000Y-133096000D02*
X120396000Y-133096000D01*
X114554000Y-135890000D02*
X117348000Y-133096000D01*
D25*
X151130000Y-91694000D02*
X144634000Y-91694000D01*
X144634000Y-91694000D02*
X141732000Y-94596000D01*
X141732000Y-94596000D02*
X141732000Y-94996000D01*
X144780000Y-104902000D02*
X148463000Y-104902000D01*
X148463000Y-104902000D02*
X148590000Y-104775000D01*
X148990000Y-104775000D02*
X154070000Y-99695000D01*
X148590000Y-104775000D02*
X148990000Y-104775000D01*
X154070000Y-99695000D02*
X156210000Y-99695000D01*
X123444000Y-125730000D02*
X123444000Y-120396000D01*
X124777501Y-127063501D02*
X123444000Y-125730000D01*
X125222000Y-127762000D02*
X124777501Y-127317501D01*
X124777501Y-127317501D02*
X124777501Y-127063501D01*
D27*
G36*
X130516993Y-75864891D02*
X133999277Y-76381439D01*
X137414172Y-77236826D01*
X140728773Y-78422809D01*
X143911179Y-79927975D01*
X146930725Y-81737821D01*
X147694318Y-82304141D01*
X147470512Y-82396844D01*
X147334544Y-82532812D01*
X147146154Y-82570285D01*
X147044743Y-82638046D01*
X146885699Y-82744316D01*
X146841769Y-82810063D01*
X146310065Y-83341767D01*
X146244316Y-83385699D01*
X146070285Y-83646156D01*
X146036911Y-83813939D01*
X146009174Y-83953383D01*
X146024600Y-84030934D01*
X146024601Y-85776265D01*
X145777423Y-85941424D01*
X145539501Y-86297499D01*
X145196896Y-85871500D01*
X144703819Y-85601633D01*
X144621039Y-85584096D01*
X144399000Y-85706085D01*
X144399000Y-87249000D01*
X144419000Y-87249000D01*
X144419000Y-87503000D01*
X144399000Y-87503000D01*
X144399000Y-89045915D01*
X144621039Y-89167904D01*
X144703819Y-89150367D01*
X145196896Y-88880500D01*
X145539501Y-88454501D01*
X145777424Y-88810577D01*
X146252092Y-89127740D01*
X146812000Y-89239113D01*
X147371909Y-89127740D01*
X147846577Y-88810577D01*
X148082000Y-88458241D01*
X148317424Y-88810577D01*
X148792092Y-89127740D01*
X149352000Y-89239113D01*
X149911909Y-89127740D01*
X150386577Y-88810577D01*
X150622000Y-88458241D01*
X150857424Y-88810577D01*
X151332092Y-89127740D01*
X151892000Y-89239113D01*
X152451909Y-89127740D01*
X152926577Y-88810577D01*
X153243740Y-88335909D01*
X153327000Y-87917332D01*
X153327000Y-87258520D01*
X154730922Y-88807510D01*
X156828014Y-91635110D01*
X158637860Y-94654656D01*
X160143026Y-97837062D01*
X160492125Y-98812729D01*
X160197862Y-98518466D01*
X159670439Y-98300000D01*
X159099561Y-98300000D01*
X158572138Y-98518466D01*
X158168466Y-98922138D01*
X158000190Y-99328392D01*
X157961740Y-99135091D01*
X157644577Y-98660423D01*
X157169909Y-98343260D01*
X156751333Y-98260000D01*
X155668667Y-98260000D01*
X155250091Y-98343260D01*
X154775423Y-98660423D01*
X154610265Y-98907600D01*
X154147551Y-98907600D01*
X154070000Y-98892174D01*
X153992449Y-98907600D01*
X153992448Y-98907600D01*
X153762772Y-98953285D01*
X153502316Y-99127316D01*
X153458386Y-99193062D01*
X150447030Y-102204419D01*
X150341740Y-101675091D01*
X150024577Y-101200423D01*
X149672242Y-100965000D01*
X150024577Y-100729577D01*
X150341740Y-100254909D01*
X150453113Y-99695000D01*
X150341740Y-99135091D01*
X150024577Y-98660423D01*
X149549909Y-98343260D01*
X149131333Y-98260000D01*
X148048667Y-98260000D01*
X147630091Y-98343260D01*
X147155423Y-98660423D01*
X146838260Y-99135091D01*
X146726887Y-99695000D01*
X146838260Y-100254909D01*
X147155423Y-100729577D01*
X147507758Y-100965000D01*
X147155423Y-101200423D01*
X146838260Y-101675091D01*
X146726887Y-102235000D01*
X146838260Y-102794909D01*
X147155423Y-103269577D01*
X147507758Y-103505000D01*
X147155423Y-103740423D01*
X146905406Y-104114600D01*
X145519244Y-104114600D01*
X145391488Y-103986844D01*
X144994726Y-103822500D01*
X144565274Y-103822500D01*
X144168512Y-103986844D01*
X143864844Y-104290512D01*
X143700500Y-104687274D01*
X143700500Y-105116726D01*
X143864844Y-105513488D01*
X144168512Y-105817156D01*
X144565274Y-105981500D01*
X144994726Y-105981500D01*
X145391488Y-105817156D01*
X145519244Y-105689400D01*
X147075123Y-105689400D01*
X147155423Y-105809577D01*
X147511499Y-106047499D01*
X147085500Y-106390104D01*
X146815633Y-106883181D01*
X146798096Y-106965961D01*
X146920085Y-107188000D01*
X148463000Y-107188000D01*
X148463000Y-107168000D01*
X148717000Y-107168000D01*
X148717000Y-107188000D01*
X150259915Y-107188000D01*
X150381904Y-106965961D01*
X150364367Y-106883181D01*
X150094500Y-106390104D01*
X149668501Y-106047499D01*
X150024577Y-105809577D01*
X150341740Y-105334909D01*
X150453113Y-104775000D01*
X150395117Y-104483434D01*
X154396152Y-100482400D01*
X154610265Y-100482400D01*
X154775423Y-100729577D01*
X155127758Y-100965000D01*
X154775423Y-101200423D01*
X154458260Y-101675091D01*
X154346887Y-102235000D01*
X154458260Y-102794909D01*
X154775423Y-103269577D01*
X155127758Y-103505000D01*
X154775423Y-103740423D01*
X154458260Y-104215091D01*
X154346887Y-104775000D01*
X154458260Y-105334909D01*
X154775423Y-105809577D01*
X155127758Y-106045000D01*
X154775423Y-106280423D01*
X154458260Y-106755091D01*
X154346887Y-107315000D01*
X154458260Y-107874909D01*
X154775423Y-108349577D01*
X155127758Y-108585000D01*
X154775423Y-108820423D01*
X154458260Y-109295091D01*
X154346887Y-109855000D01*
X154458260Y-110414909D01*
X154775423Y-110889577D01*
X155127758Y-111125000D01*
X154775423Y-111360423D01*
X154458260Y-111835091D01*
X154346887Y-112395000D01*
X154458260Y-112954909D01*
X154775423Y-113429577D01*
X154896106Y-113510215D01*
X154762235Y-113536843D01*
X154552191Y-113677191D01*
X154411843Y-113887235D01*
X154362560Y-114135000D01*
X154362560Y-115735000D01*
X154411843Y-115982765D01*
X154552191Y-116192809D01*
X154762235Y-116333157D01*
X155010000Y-116382440D01*
X157410000Y-116382440D01*
X157657765Y-116333157D01*
X157867809Y-116192809D01*
X158008157Y-115982765D01*
X158057440Y-115735000D01*
X158057440Y-114135000D01*
X158008157Y-113887235D01*
X157867809Y-113677191D01*
X157657765Y-113536843D01*
X157523894Y-113510215D01*
X157644577Y-113429577D01*
X157961740Y-112954909D01*
X158073113Y-112395000D01*
X157961740Y-111835091D01*
X157644577Y-111360423D01*
X157292242Y-111125000D01*
X157644577Y-110889577D01*
X157947699Y-110435923D01*
X157965222Y-110803454D01*
X158131136Y-111204005D01*
X158377255Y-111278139D01*
X159205395Y-110450000D01*
X158377255Y-109621861D01*
X158131136Y-109695995D01*
X158072035Y-109860422D01*
X158073113Y-109855000D01*
X157961740Y-109295091D01*
X157644577Y-108820423D01*
X157292242Y-108585000D01*
X157644577Y-108349577D01*
X157950000Y-107892479D01*
X157950000Y-108235439D01*
X158168466Y-108762862D01*
X158572138Y-109166534D01*
X158637299Y-109193525D01*
X158630995Y-109196136D01*
X158556861Y-109442255D01*
X159385000Y-110270395D01*
X159399142Y-110256252D01*
X159578748Y-110435858D01*
X159564605Y-110450000D01*
X159578748Y-110464142D01*
X159399142Y-110643748D01*
X159385000Y-110629605D01*
X158556861Y-111457745D01*
X158630995Y-111703864D01*
X159168223Y-111896965D01*
X159738454Y-111869778D01*
X160139005Y-111703864D01*
X160213139Y-111457747D01*
X160328014Y-111572622D01*
X160401000Y-111499636D01*
X160401001Y-115709763D01*
X158635765Y-117475000D01*
X140083644Y-117475000D01*
X140057488Y-117448844D01*
X139660726Y-117284500D01*
X139231274Y-117284500D01*
X138834512Y-117448844D01*
X138530844Y-117752512D01*
X138366500Y-118149274D01*
X138366500Y-118578726D01*
X138530844Y-118975488D01*
X138834512Y-119279156D01*
X139231274Y-119443500D01*
X139660726Y-119443500D01*
X140057488Y-119279156D01*
X140083644Y-119253000D01*
X158916445Y-119253000D01*
X159004000Y-119270416D01*
X159091555Y-119253000D01*
X159091556Y-119253000D01*
X159350870Y-119201419D01*
X159644933Y-119004933D01*
X159694531Y-118930704D01*
X161856707Y-116768529D01*
X161930933Y-116718933D01*
X162127419Y-116424870D01*
X162179000Y-116165556D01*
X162179000Y-116165552D01*
X162196415Y-116078001D01*
X162179000Y-115990450D01*
X162179000Y-109815550D01*
X162196415Y-109727999D01*
X162179000Y-109640448D01*
X162179000Y-109640444D01*
X162127419Y-109381130D01*
X161930933Y-109087067D01*
X161856707Y-109037471D01*
X161002530Y-108183295D01*
X160952932Y-108109066D01*
X160820000Y-108020244D01*
X160820000Y-107664561D01*
X160601534Y-107137138D01*
X160197862Y-106733466D01*
X159670439Y-106515000D01*
X159099561Y-106515000D01*
X158572138Y-106733466D01*
X158168466Y-107137138D01*
X158053083Y-107415696D01*
X158073113Y-107315000D01*
X157961740Y-106755091D01*
X157644577Y-106280423D01*
X157292242Y-106045000D01*
X157644577Y-105809577D01*
X157961740Y-105334909D01*
X158073113Y-104775000D01*
X157961740Y-104215091D01*
X157644577Y-103740423D01*
X157292242Y-103505000D01*
X157644577Y-103269577D01*
X157961740Y-102794909D01*
X157994815Y-102628631D01*
X158168466Y-103047862D01*
X158572138Y-103451534D01*
X159099561Y-103670000D01*
X159670439Y-103670000D01*
X160197862Y-103451534D01*
X160601534Y-103047862D01*
X160820000Y-102520439D01*
X160820000Y-101949561D01*
X160601534Y-101422138D01*
X160197862Y-101018466D01*
X160117068Y-100985000D01*
X160197862Y-100951534D01*
X160601534Y-100547862D01*
X160820000Y-100020439D01*
X160820000Y-99729078D01*
X161329009Y-101151663D01*
X162184396Y-104566558D01*
X162700944Y-108048842D01*
X162873682Y-111565000D01*
X162700944Y-115081158D01*
X162184396Y-118563442D01*
X161329009Y-121978337D01*
X160143026Y-125292938D01*
X158637860Y-128475344D01*
X156828014Y-131494890D01*
X154730922Y-134322490D01*
X152366768Y-136930933D01*
X149758325Y-139295087D01*
X146930725Y-141392179D01*
X143911179Y-143202025D01*
X140728773Y-144707191D01*
X137414172Y-145893174D01*
X133999277Y-146748561D01*
X130516993Y-147265109D01*
X127000835Y-147437847D01*
X123484677Y-147265109D01*
X120002393Y-146748561D01*
X116587498Y-145893174D01*
X113272897Y-144707191D01*
X111090513Y-143675000D01*
X111450439Y-143675000D01*
X111977862Y-143456534D01*
X112186651Y-143247745D01*
X112836861Y-143247745D01*
X112910995Y-143493864D01*
X113448223Y-143686965D01*
X114018454Y-143659778D01*
X114419005Y-143493864D01*
X114493139Y-143247745D01*
X113665000Y-142419605D01*
X112836861Y-143247745D01*
X112186651Y-143247745D01*
X112381534Y-143052862D01*
X112408525Y-142987701D01*
X112411136Y-142994005D01*
X112657255Y-143068139D01*
X113485395Y-142240000D01*
X113844605Y-142240000D01*
X114672745Y-143068139D01*
X114918864Y-142994005D01*
X115111965Y-142456777D01*
X115084778Y-141886546D01*
X114918864Y-141485995D01*
X114672745Y-141411861D01*
X113844605Y-142240000D01*
X113485395Y-142240000D01*
X112657255Y-141411861D01*
X112411136Y-141485995D01*
X112408710Y-141492746D01*
X112381534Y-141427138D01*
X112186651Y-141232255D01*
X112836861Y-141232255D01*
X113665000Y-142060395D01*
X114493139Y-141232255D01*
X114419005Y-140986136D01*
X113881777Y-140793035D01*
X113311546Y-140820222D01*
X112910995Y-140986136D01*
X112836861Y-141232255D01*
X112186651Y-141232255D01*
X111977862Y-141023466D01*
X111450439Y-140805000D01*
X110879561Y-140805000D01*
X110352138Y-141023466D01*
X109948466Y-141427138D01*
X109730000Y-141954561D01*
X109730000Y-142525439D01*
X109948466Y-143052862D01*
X110104035Y-143208431D01*
X110090491Y-143202025D01*
X107070945Y-141392179D01*
X105853386Y-140489175D01*
X116342430Y-140489175D01*
X116465565Y-140776788D01*
X117147734Y-141036707D01*
X117877443Y-141015786D01*
X118454435Y-140776788D01*
X118577570Y-140489175D01*
X117460000Y-139371605D01*
X116342430Y-140489175D01*
X105853386Y-140489175D01*
X104393144Y-139406185D01*
X105722682Y-139406185D01*
X105741519Y-139509235D01*
X106012264Y-139981894D01*
X106443279Y-140314964D01*
X106968945Y-140457739D01*
X107188000Y-140296868D01*
X107188000Y-139192000D01*
X107442000Y-139192000D01*
X107442000Y-140296868D01*
X107661055Y-140457739D01*
X108186721Y-140314964D01*
X108617736Y-139981894D01*
X108888481Y-139509235D01*
X108907318Y-139406185D01*
X108784656Y-139192000D01*
X107442000Y-139192000D01*
X107188000Y-139192000D01*
X105845344Y-139192000D01*
X105722682Y-139406185D01*
X104393144Y-139406185D01*
X104243345Y-139295087D01*
X103613044Y-138723815D01*
X105722682Y-138723815D01*
X105845344Y-138938000D01*
X107188000Y-138938000D01*
X107188000Y-137833132D01*
X107442000Y-137833132D01*
X107442000Y-138938000D01*
X108784656Y-138938000D01*
X108907318Y-138723815D01*
X108888481Y-138620765D01*
X108713335Y-138315000D01*
X110747560Y-138315000D01*
X110747560Y-139815000D01*
X110796843Y-140062765D01*
X110937191Y-140272809D01*
X111147235Y-140413157D01*
X111395000Y-140462440D01*
X113395000Y-140462440D01*
X113642765Y-140413157D01*
X113852809Y-140272809D01*
X113993157Y-140062765D01*
X114042440Y-139815000D01*
X114042440Y-138879734D01*
X115615293Y-138879734D01*
X115636214Y-139609443D01*
X115875212Y-140186435D01*
X116162825Y-140309570D01*
X117280395Y-139192000D01*
X117639605Y-139192000D01*
X118757175Y-140309570D01*
X119044788Y-140186435D01*
X119208138Y-139757716D01*
X119404362Y-140231444D01*
X119920556Y-140747638D01*
X120594996Y-141027000D01*
X121325004Y-141027000D01*
X121999444Y-140747638D01*
X122515638Y-140231444D01*
X122710000Y-139762212D01*
X122904362Y-140231444D01*
X123420556Y-140747638D01*
X124094996Y-141027000D01*
X124825004Y-141027000D01*
X125499444Y-140747638D01*
X126015638Y-140231444D01*
X126112560Y-139997453D01*
X126112560Y-140392000D01*
X126161843Y-140639765D01*
X126302191Y-140849809D01*
X126512235Y-140990157D01*
X126760000Y-141039440D01*
X129160000Y-141039440D01*
X129407765Y-140990157D01*
X129617809Y-140849809D01*
X129758157Y-140639765D01*
X129768255Y-140589000D01*
X133733604Y-140589000D01*
X134061138Y-140916534D01*
X134588561Y-141135000D01*
X135159439Y-141135000D01*
X135686862Y-140916534D01*
X136090534Y-140512862D01*
X136309000Y-139985439D01*
X136309000Y-139700000D01*
X143570887Y-139700000D01*
X143682260Y-140259909D01*
X143999423Y-140734577D01*
X144474091Y-141051740D01*
X144892667Y-141135000D01*
X145175333Y-141135000D01*
X145593909Y-141051740D01*
X146068577Y-140734577D01*
X146385740Y-140259909D01*
X146497113Y-139700000D01*
X146385740Y-139140091D01*
X146068577Y-138665423D01*
X145593909Y-138348260D01*
X145175333Y-138265000D01*
X144892667Y-138265000D01*
X144474091Y-138348260D01*
X143999423Y-138665423D01*
X143682260Y-139140091D01*
X143570887Y-139700000D01*
X136309000Y-139700000D01*
X136309000Y-139414561D01*
X136090534Y-138887138D01*
X135686862Y-138483466D01*
X135159439Y-138265000D01*
X134588561Y-138265000D01*
X134061138Y-138483466D01*
X133733604Y-138811000D01*
X129807440Y-138811000D01*
X129807440Y-137992000D01*
X129758157Y-137744235D01*
X129617809Y-137534191D01*
X129407765Y-137393843D01*
X129160000Y-137344560D01*
X126760000Y-137344560D01*
X126512235Y-137393843D01*
X126302191Y-137534191D01*
X126161843Y-137744235D01*
X126112560Y-137992000D01*
X126112560Y-138386547D01*
X126015638Y-138152556D01*
X125499444Y-137636362D01*
X124825004Y-137357000D01*
X124094996Y-137357000D01*
X123420556Y-137636362D01*
X122904362Y-138152556D01*
X122710000Y-138621788D01*
X122515638Y-138152556D01*
X121999444Y-137636362D01*
X121325004Y-137357000D01*
X120594996Y-137357000D01*
X119920556Y-137636362D01*
X119404362Y-138152556D01*
X119215253Y-138609105D01*
X119044788Y-138197565D01*
X118757175Y-138074430D01*
X117639605Y-139192000D01*
X117280395Y-139192000D01*
X116162825Y-138074430D01*
X115875212Y-138197565D01*
X115615293Y-138879734D01*
X114042440Y-138879734D01*
X114042440Y-138315000D01*
X113993157Y-138067235D01*
X113877956Y-137894825D01*
X116342430Y-137894825D01*
X117460000Y-139012395D01*
X118577570Y-137894825D01*
X118454435Y-137607212D01*
X117772266Y-137347293D01*
X117042557Y-137368214D01*
X116465565Y-137607212D01*
X116342430Y-137894825D01*
X113877956Y-137894825D01*
X113852809Y-137857191D01*
X113642765Y-137716843D01*
X113395000Y-137667560D01*
X111395000Y-137667560D01*
X111147235Y-137716843D01*
X110937191Y-137857191D01*
X110796843Y-138067235D01*
X110747560Y-138315000D01*
X108713335Y-138315000D01*
X108617736Y-138148106D01*
X108186721Y-137815036D01*
X107661055Y-137672261D01*
X107442000Y-137833132D01*
X107188000Y-137833132D01*
X106968945Y-137672261D01*
X106443279Y-137815036D01*
X106012264Y-138148106D01*
X105741519Y-138620765D01*
X105722682Y-138723815D01*
X103613044Y-138723815D01*
X101634902Y-136930933D01*
X100916769Y-136138594D01*
X108470000Y-136138594D01*
X108470000Y-136911407D01*
X108550359Y-137315400D01*
X108856472Y-137773529D01*
X109314601Y-138079641D01*
X109855000Y-138187133D01*
X110395400Y-138079641D01*
X110853529Y-137773529D01*
X111159641Y-137315399D01*
X111240000Y-136911406D01*
X111240000Y-136138593D01*
X111159641Y-135734600D01*
X111120001Y-135675274D01*
X113474500Y-135675274D01*
X113474500Y-136104726D01*
X113638844Y-136501488D01*
X113942512Y-136805156D01*
X114339274Y-136969500D01*
X114768726Y-136969500D01*
X115165488Y-136805156D01*
X115469156Y-136501488D01*
X115619471Y-136138593D01*
X148475000Y-136138593D01*
X148475000Y-136911406D01*
X148555359Y-137315399D01*
X148861471Y-137773528D01*
X149319600Y-138079641D01*
X149860000Y-138187133D01*
X150400399Y-138079641D01*
X150858528Y-137773529D01*
X151164641Y-137315400D01*
X151245000Y-136911407D01*
X151245000Y-136138594D01*
X151164641Y-135734601D01*
X150858529Y-135276471D01*
X150400400Y-134970359D01*
X149860000Y-134862867D01*
X149319601Y-134970359D01*
X148861472Y-135276471D01*
X148555359Y-135734600D01*
X148475000Y-136138593D01*
X115619471Y-136138593D01*
X115633500Y-136104726D01*
X115633500Y-136067735D01*
X117716236Y-133985000D01*
X119758356Y-133985000D01*
X119784512Y-134011156D01*
X120181274Y-134175500D01*
X120610726Y-134175500D01*
X121007488Y-134011156D01*
X121311156Y-133707488D01*
X121475500Y-133310726D01*
X121475500Y-132881274D01*
X121311156Y-132484512D01*
X121129205Y-132302561D01*
X126073000Y-132302561D01*
X126073000Y-132873439D01*
X126291466Y-133400862D01*
X126695138Y-133804534D01*
X127222561Y-134023000D01*
X127793439Y-134023000D01*
X128320862Y-133804534D01*
X128724534Y-133400862D01*
X128943000Y-132873439D01*
X128943000Y-132588000D01*
X136204887Y-132588000D01*
X136316260Y-133147909D01*
X136633423Y-133622577D01*
X137108091Y-133939740D01*
X137526667Y-134023000D01*
X137809333Y-134023000D01*
X138227909Y-133939740D01*
X138702577Y-133622577D01*
X138931479Y-133280000D01*
X140792560Y-133280000D01*
X140792560Y-134880000D01*
X140841843Y-135127765D01*
X140982191Y-135337809D01*
X141192235Y-135478157D01*
X141440000Y-135527440D01*
X143040000Y-135527440D01*
X143287765Y-135478157D01*
X143497809Y-135337809D01*
X143638157Y-135127765D01*
X143687440Y-134880000D01*
X143687440Y-134326185D01*
X145727682Y-134326185D01*
X145746519Y-134429235D01*
X146017264Y-134901894D01*
X146448279Y-135234964D01*
X146973945Y-135377739D01*
X147193000Y-135216868D01*
X147193000Y-134112000D01*
X147447000Y-134112000D01*
X147447000Y-135216868D01*
X147666055Y-135377739D01*
X148191721Y-135234964D01*
X148622736Y-134901894D01*
X148893481Y-134429235D01*
X148912318Y-134326185D01*
X148789656Y-134112000D01*
X147447000Y-134112000D01*
X147193000Y-134112000D01*
X145850344Y-134112000D01*
X145727682Y-134326185D01*
X143687440Y-134326185D01*
X143687440Y-133643815D01*
X145727682Y-133643815D01*
X145850344Y-133858000D01*
X147193000Y-133858000D01*
X147193000Y-132753132D01*
X147447000Y-132753132D01*
X147447000Y-133858000D01*
X148789656Y-133858000D01*
X148912318Y-133643815D01*
X148893481Y-133540765D01*
X148718335Y-133235000D01*
X150752560Y-133235000D01*
X150752560Y-134735000D01*
X150801843Y-134982765D01*
X150942191Y-135192809D01*
X151152235Y-135333157D01*
X151400000Y-135382440D01*
X153400000Y-135382440D01*
X153647765Y-135333157D01*
X153857809Y-135192809D01*
X153998157Y-134982765D01*
X154047440Y-134735000D01*
X154047440Y-133235000D01*
X153998157Y-132987235D01*
X153857809Y-132777191D01*
X153647765Y-132636843D01*
X153400000Y-132587560D01*
X151400000Y-132587560D01*
X151152235Y-132636843D01*
X150942191Y-132777191D01*
X150801843Y-132987235D01*
X150752560Y-133235000D01*
X148718335Y-133235000D01*
X148622736Y-133068106D01*
X148191721Y-132735036D01*
X147666055Y-132592261D01*
X147447000Y-132753132D01*
X147193000Y-132753132D01*
X146973945Y-132592261D01*
X146448279Y-132735036D01*
X146017264Y-133068106D01*
X145746519Y-133540765D01*
X145727682Y-133643815D01*
X143687440Y-133643815D01*
X143687440Y-133280000D01*
X143638157Y-133032235D01*
X143498005Y-132822484D01*
X143686965Y-132296777D01*
X143659778Y-131726546D01*
X143592344Y-131563745D01*
X148269861Y-131563745D01*
X148343995Y-131809864D01*
X148881223Y-132002965D01*
X149451454Y-131975778D01*
X149852005Y-131809864D01*
X149926139Y-131563745D01*
X149098000Y-130735605D01*
X148269861Y-131563745D01*
X143592344Y-131563745D01*
X143493864Y-131325995D01*
X143247745Y-131251861D01*
X142419605Y-132080000D01*
X142433748Y-132094142D01*
X142254143Y-132273748D01*
X142240000Y-132259605D01*
X142225858Y-132273748D01*
X142046252Y-132094142D01*
X142060395Y-132080000D01*
X141232255Y-131251861D01*
X140986136Y-131325995D01*
X140793035Y-131863223D01*
X140820222Y-132433454D01*
X140981605Y-132823067D01*
X140841843Y-133032235D01*
X140792560Y-133280000D01*
X138931479Y-133280000D01*
X139019740Y-133147909D01*
X139131113Y-132588000D01*
X139019740Y-132028091D01*
X138702577Y-131553423D01*
X138227909Y-131236260D01*
X137809333Y-131153000D01*
X137526667Y-131153000D01*
X137108091Y-131236260D01*
X136633423Y-131553423D01*
X136316260Y-132028091D01*
X136204887Y-132588000D01*
X128943000Y-132588000D01*
X128943000Y-132302561D01*
X128724534Y-131775138D01*
X128320862Y-131371466D01*
X127793439Y-131153000D01*
X127222561Y-131153000D01*
X126695138Y-131371466D01*
X126291466Y-131775138D01*
X126073000Y-132302561D01*
X121129205Y-132302561D01*
X121007488Y-132180844D01*
X120610726Y-132016500D01*
X120181274Y-132016500D01*
X119784512Y-132180844D01*
X119758356Y-132207000D01*
X117435555Y-132207000D01*
X117348000Y-132189584D01*
X117260445Y-132207000D01*
X117260444Y-132207000D01*
X117001130Y-132258581D01*
X116707067Y-132455067D01*
X116657471Y-132529293D01*
X114376265Y-134810500D01*
X114339274Y-134810500D01*
X113942512Y-134974844D01*
X113638844Y-135278512D01*
X113474500Y-135675274D01*
X111120001Y-135675274D01*
X110853528Y-135276471D01*
X110395399Y-134970359D01*
X109855000Y-134862867D01*
X109314600Y-134970359D01*
X108856471Y-135276472D01*
X108550359Y-135734601D01*
X108470000Y-136138594D01*
X100916769Y-136138594D01*
X99270748Y-134322490D01*
X97474830Y-131900976D01*
X97865091Y-132161740D01*
X98283667Y-132245000D01*
X98566333Y-132245000D01*
X98984909Y-132161740D01*
X99459577Y-131844577D01*
X99776740Y-131369909D01*
X99888113Y-130810000D01*
X99776740Y-130250091D01*
X99459577Y-129775423D01*
X99075892Y-129519053D01*
X99280134Y-129422389D01*
X99656041Y-129007423D01*
X99816904Y-128619039D01*
X99694915Y-128397000D01*
X98552000Y-128397000D01*
X98552000Y-128417000D01*
X98298000Y-128417000D01*
X98298000Y-128397000D01*
X97155085Y-128397000D01*
X97033096Y-128619039D01*
X97193959Y-129007423D01*
X97569866Y-129422389D01*
X97774108Y-129519053D01*
X97390423Y-129775423D01*
X97073260Y-130250091D01*
X96961887Y-130810000D01*
X97060601Y-131306270D01*
X95363810Y-128475344D01*
X93858644Y-125292938D01*
X92672661Y-121978337D01*
X91817274Y-118563442D01*
X91300726Y-115081158D01*
X91127988Y-111565000D01*
X91300726Y-108048842D01*
X91817274Y-104566558D01*
X92672661Y-101151663D01*
X93858644Y-97837062D01*
X95082233Y-95250000D01*
X96961887Y-95250000D01*
X97073260Y-95809909D01*
X97390423Y-96284577D01*
X97742758Y-96520000D01*
X97390423Y-96755423D01*
X97073260Y-97230091D01*
X96961887Y-97790000D01*
X97073260Y-98349909D01*
X97390423Y-98824577D01*
X97742758Y-99060000D01*
X97390423Y-99295423D01*
X97073260Y-99770091D01*
X96961887Y-100330000D01*
X97073260Y-100889909D01*
X97390423Y-101364577D01*
X97742758Y-101600000D01*
X97390423Y-101835423D01*
X97073260Y-102310091D01*
X96961887Y-102870000D01*
X97073260Y-103429909D01*
X97390423Y-103904577D01*
X97742758Y-104140000D01*
X97390423Y-104375423D01*
X97073260Y-104850091D01*
X96961887Y-105410000D01*
X97073260Y-105969909D01*
X97390423Y-106444577D01*
X97742758Y-106680000D01*
X97390423Y-106915423D01*
X97073260Y-107390091D01*
X96961887Y-107950000D01*
X97073260Y-108509909D01*
X97390423Y-108984577D01*
X97742758Y-109220000D01*
X97390423Y-109455423D01*
X97073260Y-109930091D01*
X96961887Y-110490000D01*
X97073260Y-111049909D01*
X97390423Y-111524577D01*
X97742758Y-111760000D01*
X97390423Y-111995423D01*
X97073260Y-112470091D01*
X96961887Y-113030000D01*
X97073260Y-113589909D01*
X97390423Y-114064577D01*
X97742758Y-114300000D01*
X97390423Y-114535423D01*
X97073260Y-115010091D01*
X96961887Y-115570000D01*
X97073260Y-116129909D01*
X97390423Y-116604577D01*
X97742758Y-116840000D01*
X97390423Y-117075423D01*
X97073260Y-117550091D01*
X96961887Y-118110000D01*
X97073260Y-118669909D01*
X97390423Y-119144577D01*
X97742758Y-119380000D01*
X97390423Y-119615423D01*
X97073260Y-120090091D01*
X96961887Y-120650000D01*
X97073260Y-121209909D01*
X97390423Y-121684577D01*
X97742758Y-121920000D01*
X97390423Y-122155423D01*
X97073260Y-122630091D01*
X96961887Y-123190000D01*
X97073260Y-123749909D01*
X97390423Y-124224577D01*
X97742758Y-124460000D01*
X97390423Y-124695423D01*
X97073260Y-125170091D01*
X96961887Y-125730000D01*
X97073260Y-126289909D01*
X97390423Y-126764577D01*
X97774108Y-127020947D01*
X97569866Y-127117611D01*
X97193959Y-127532577D01*
X97033096Y-127920961D01*
X97155085Y-128143000D01*
X98298000Y-128143000D01*
X98298000Y-128123000D01*
X98552000Y-128123000D01*
X98552000Y-128143000D01*
X99694915Y-128143000D01*
X99816904Y-127920961D01*
X99656041Y-127532577D01*
X99280134Y-127117611D01*
X99075892Y-127020947D01*
X99459577Y-126764577D01*
X99776740Y-126289909D01*
X99888113Y-125730000D01*
X112201887Y-125730000D01*
X112313260Y-126289909D01*
X112630423Y-126764577D01*
X112982758Y-127000000D01*
X112630423Y-127235423D01*
X112313260Y-127710091D01*
X112201887Y-128270000D01*
X112313260Y-128829909D01*
X112630423Y-129304577D01*
X112751106Y-129385215D01*
X112617235Y-129411843D01*
X112407191Y-129552191D01*
X112266843Y-129762235D01*
X112217560Y-130010000D01*
X112217560Y-131610000D01*
X112266843Y-131857765D01*
X112407191Y-132067809D01*
X112617235Y-132208157D01*
X112865000Y-132257440D01*
X114465000Y-132257440D01*
X114712765Y-132208157D01*
X114922809Y-132067809D01*
X115063157Y-131857765D01*
X115112440Y-131610000D01*
X115112440Y-130010000D01*
X115076880Y-129831223D01*
X118981035Y-129831223D01*
X119008222Y-130401454D01*
X119174136Y-130802005D01*
X119420255Y-130876139D01*
X120248395Y-130048000D01*
X119420255Y-129219861D01*
X119174136Y-129293995D01*
X118981035Y-129831223D01*
X115076880Y-129831223D01*
X115063157Y-129762235D01*
X114922809Y-129552191D01*
X114712765Y-129411843D01*
X114578894Y-129385215D01*
X114699577Y-129304577D01*
X114876191Y-129040255D01*
X119599861Y-129040255D01*
X120428000Y-129868395D01*
X120442142Y-129854252D01*
X120621748Y-130033858D01*
X120607605Y-130048000D01*
X120621748Y-130062143D01*
X120442142Y-130241748D01*
X120428000Y-130227605D01*
X119599861Y-131055745D01*
X119673995Y-131301864D01*
X120211223Y-131494965D01*
X120781454Y-131467778D01*
X121171067Y-131306395D01*
X121380235Y-131446157D01*
X121628000Y-131495440D01*
X123228000Y-131495440D01*
X123475765Y-131446157D01*
X123685809Y-131305809D01*
X123826157Y-131095765D01*
X123830833Y-131072255D01*
X141411861Y-131072255D01*
X142240000Y-131900395D01*
X143068139Y-131072255D01*
X142994005Y-130826136D01*
X142456777Y-130633035D01*
X141886546Y-130660222D01*
X141485995Y-130826136D01*
X141411861Y-131072255D01*
X123830833Y-131072255D01*
X123875440Y-130848000D01*
X123875440Y-130339223D01*
X147651035Y-130339223D01*
X147678222Y-130909454D01*
X147844136Y-131310005D01*
X148090255Y-131384139D01*
X148918395Y-130556000D01*
X149277605Y-130556000D01*
X150105745Y-131384139D01*
X150351864Y-131310005D01*
X150354290Y-131303254D01*
X150381466Y-131368862D01*
X150785138Y-131772534D01*
X151312561Y-131991000D01*
X151883439Y-131991000D01*
X152410862Y-131772534D01*
X152814534Y-131368862D01*
X153033000Y-130841439D01*
X153033000Y-130270561D01*
X152814534Y-129743138D01*
X152410862Y-129339466D01*
X151883439Y-129121000D01*
X151312561Y-129121000D01*
X150785138Y-129339466D01*
X150381466Y-129743138D01*
X150354475Y-129808299D01*
X150351864Y-129801995D01*
X150105745Y-129727861D01*
X149277605Y-130556000D01*
X148918395Y-130556000D01*
X148090255Y-129727861D01*
X147844136Y-129801995D01*
X147651035Y-130339223D01*
X123875440Y-130339223D01*
X123875440Y-129548255D01*
X148269861Y-129548255D01*
X149098000Y-130376395D01*
X149926139Y-129548255D01*
X149852005Y-129302136D01*
X149314777Y-129109035D01*
X148744546Y-129136222D01*
X148343995Y-129302136D01*
X148269861Y-129548255D01*
X123875440Y-129548255D01*
X123875440Y-129248000D01*
X123826157Y-129000235D01*
X123685809Y-128790191D01*
X123475765Y-128649843D01*
X123228000Y-128600560D01*
X121628000Y-128600560D01*
X121380235Y-128649843D01*
X121170484Y-128789995D01*
X120644777Y-128601035D01*
X120074546Y-128628222D01*
X119673995Y-128794136D01*
X119599861Y-129040255D01*
X114876191Y-129040255D01*
X115016740Y-128829909D01*
X115128113Y-128270000D01*
X115016740Y-127710091D01*
X114699577Y-127235423D01*
X114347242Y-127000000D01*
X114699577Y-126764577D01*
X115016740Y-126289909D01*
X115128113Y-125730000D01*
X115016740Y-125170091D01*
X114699577Y-124695423D01*
X114679547Y-124682039D01*
X117715096Y-124682039D01*
X117732633Y-124764819D01*
X118002500Y-125257896D01*
X118440517Y-125610166D01*
X118980000Y-125768000D01*
X119380000Y-125768000D01*
X119380000Y-124460000D01*
X119634000Y-124460000D01*
X119634000Y-125768000D01*
X120034000Y-125768000D01*
X120573483Y-125610166D01*
X121011500Y-125257896D01*
X121281367Y-124764819D01*
X121298904Y-124682039D01*
X121176915Y-124460000D01*
X119634000Y-124460000D01*
X119380000Y-124460000D01*
X117837085Y-124460000D01*
X117715096Y-124682039D01*
X114679547Y-124682039D01*
X114315892Y-124439053D01*
X114520134Y-124342389D01*
X114896041Y-123927423D01*
X115056904Y-123539039D01*
X114934915Y-123317000D01*
X113792000Y-123317000D01*
X113792000Y-123337000D01*
X113538000Y-123337000D01*
X113538000Y-123317000D01*
X112395085Y-123317000D01*
X112273096Y-123539039D01*
X112433959Y-123927423D01*
X112809866Y-124342389D01*
X113014108Y-124439053D01*
X112630423Y-124695423D01*
X112313260Y-125170091D01*
X112201887Y-125730000D01*
X99888113Y-125730000D01*
X99776740Y-125170091D01*
X99459577Y-124695423D01*
X99107242Y-124460000D01*
X99459577Y-124224577D01*
X99776740Y-123749909D01*
X99888113Y-123190000D01*
X99776740Y-122630091D01*
X99459577Y-122155423D01*
X99107242Y-121920000D01*
X99459577Y-121684577D01*
X99776740Y-121209909D01*
X99888113Y-120650000D01*
X99776740Y-120090091D01*
X99459577Y-119615423D01*
X99107242Y-119380000D01*
X99459577Y-119144577D01*
X99776740Y-118669909D01*
X99888113Y-118110000D01*
X99776740Y-117550091D01*
X99459577Y-117075423D01*
X99107242Y-116840000D01*
X99459577Y-116604577D01*
X99776740Y-116129909D01*
X99888113Y-115570000D01*
X99776740Y-115010091D01*
X99459577Y-114535423D01*
X99107242Y-114300000D01*
X99459577Y-114064577D01*
X99776740Y-113589909D01*
X99888113Y-113030000D01*
X99776740Y-112470091D01*
X99459577Y-111995423D01*
X99107242Y-111760000D01*
X99459577Y-111524577D01*
X99776740Y-111049909D01*
X99888113Y-110490000D01*
X99776740Y-109930091D01*
X99459577Y-109455423D01*
X99107242Y-109220000D01*
X99459577Y-108984577D01*
X99776740Y-108509909D01*
X99888113Y-107950000D01*
X99776740Y-107390091D01*
X99459577Y-106915423D01*
X99107242Y-106680000D01*
X99459577Y-106444577D01*
X99776740Y-105969909D01*
X99888113Y-105410000D01*
X99776740Y-104850091D01*
X99459577Y-104375423D01*
X99107242Y-104140000D01*
X99459577Y-103904577D01*
X99776740Y-103429909D01*
X99888113Y-102870000D01*
X99776740Y-102310091D01*
X99459577Y-101835423D01*
X99107242Y-101600000D01*
X99459577Y-101364577D01*
X99776740Y-100889909D01*
X99888113Y-100330000D01*
X99776740Y-99770091D01*
X99459577Y-99295423D01*
X99107242Y-99060000D01*
X99459577Y-98824577D01*
X99776740Y-98349909D01*
X99888113Y-97790000D01*
X99776740Y-97230091D01*
X99459577Y-96755423D01*
X99107242Y-96520000D01*
X99459577Y-96284577D01*
X99776740Y-95809909D01*
X99888113Y-95250000D01*
X112201887Y-95250000D01*
X112313260Y-95809909D01*
X112630423Y-96284577D01*
X112982758Y-96520000D01*
X112630423Y-96755423D01*
X112313260Y-97230091D01*
X112201887Y-97790000D01*
X112313260Y-98349909D01*
X112630423Y-98824577D01*
X112982758Y-99060000D01*
X112630423Y-99295423D01*
X112313260Y-99770091D01*
X112201887Y-100330000D01*
X112313260Y-100889909D01*
X112630423Y-101364577D01*
X112982758Y-101600000D01*
X112630423Y-101835423D01*
X112313260Y-102310091D01*
X112201887Y-102870000D01*
X112313260Y-103429909D01*
X112630423Y-103904577D01*
X112982758Y-104140000D01*
X112630423Y-104375423D01*
X112313260Y-104850091D01*
X112201887Y-105410000D01*
X112313260Y-105969909D01*
X112630423Y-106444577D01*
X112982758Y-106680000D01*
X112630423Y-106915423D01*
X112313260Y-107390091D01*
X112201887Y-107950000D01*
X112313260Y-108509909D01*
X112630423Y-108984577D01*
X112982758Y-109220000D01*
X112630423Y-109455423D01*
X112313260Y-109930091D01*
X112201887Y-110490000D01*
X112313260Y-111049909D01*
X112630423Y-111524577D01*
X112982758Y-111760000D01*
X112630423Y-111995423D01*
X112313260Y-112470091D01*
X112201887Y-113030000D01*
X112313260Y-113589909D01*
X112630423Y-114064577D01*
X112982758Y-114300000D01*
X112630423Y-114535423D01*
X112313260Y-115010091D01*
X112201887Y-115570000D01*
X112313260Y-116129909D01*
X112630423Y-116604577D01*
X112982758Y-116840000D01*
X112630423Y-117075423D01*
X112313260Y-117550091D01*
X112201887Y-118110000D01*
X112313260Y-118669909D01*
X112630423Y-119144577D01*
X112982758Y-119380000D01*
X112630423Y-119615423D01*
X112313260Y-120090091D01*
X112201887Y-120650000D01*
X112313260Y-121209909D01*
X112630423Y-121684577D01*
X113014108Y-121940947D01*
X112809866Y-122037611D01*
X112433959Y-122452577D01*
X112273096Y-122840961D01*
X112395085Y-123063000D01*
X113538000Y-123063000D01*
X113538000Y-123043000D01*
X113792000Y-123043000D01*
X113792000Y-123063000D01*
X114934915Y-123063000D01*
X115056904Y-122840961D01*
X114896041Y-122452577D01*
X114520134Y-122037611D01*
X114315892Y-121940947D01*
X114537310Y-121793000D01*
X117643887Y-121793000D01*
X117755260Y-122352909D01*
X118072423Y-122827577D01*
X118428499Y-123065499D01*
X118002500Y-123408104D01*
X117732633Y-123901181D01*
X117715096Y-123983961D01*
X117837085Y-124206000D01*
X119380000Y-124206000D01*
X119380000Y-124186000D01*
X119634000Y-124186000D01*
X119634000Y-124206000D01*
X121176915Y-124206000D01*
X121298904Y-123983961D01*
X121281367Y-123901181D01*
X121011500Y-123408104D01*
X120585501Y-123065499D01*
X120941577Y-122827577D01*
X121258740Y-122352909D01*
X121370113Y-121793000D01*
X121258740Y-121233091D01*
X120941577Y-120758423D01*
X120585501Y-120520501D01*
X121007299Y-120181274D01*
X122364500Y-120181274D01*
X122364500Y-120610726D01*
X122528844Y-121007488D01*
X122656601Y-121135245D01*
X122656600Y-125652449D01*
X122641174Y-125730000D01*
X122656600Y-125807551D01*
X122702285Y-126037227D01*
X122876316Y-126297684D01*
X122942065Y-126341616D01*
X123988760Y-127388312D01*
X123990101Y-127395052D01*
X124035786Y-127624728D01*
X124142500Y-127784438D01*
X124142500Y-127976726D01*
X124306844Y-128373488D01*
X124610512Y-128677156D01*
X125007274Y-128841500D01*
X125436726Y-128841500D01*
X125833488Y-128677156D01*
X126137156Y-128373488D01*
X126301500Y-127976726D01*
X126301500Y-127547274D01*
X126137156Y-127150512D01*
X125833488Y-126846844D01*
X125514130Y-126714561D01*
X142202000Y-126714561D01*
X142202000Y-127285439D01*
X142420466Y-127812862D01*
X142824138Y-128216534D01*
X143351561Y-128435000D01*
X143922439Y-128435000D01*
X144449862Y-128216534D01*
X144853534Y-127812862D01*
X145072000Y-127285439D01*
X145072000Y-127000000D01*
X152333887Y-127000000D01*
X152445260Y-127559909D01*
X152762423Y-128034577D01*
X153237091Y-128351740D01*
X153655667Y-128435000D01*
X153938333Y-128435000D01*
X154356909Y-128351740D01*
X154831577Y-128034577D01*
X155148740Y-127559909D01*
X155260113Y-127000000D01*
X155148740Y-126440091D01*
X154831577Y-125965423D01*
X154356909Y-125648260D01*
X153938333Y-125565000D01*
X153655667Y-125565000D01*
X153237091Y-125648260D01*
X152762423Y-125965423D01*
X152445260Y-126440091D01*
X152333887Y-127000000D01*
X145072000Y-127000000D01*
X145072000Y-126714561D01*
X144853534Y-126187138D01*
X144449862Y-125783466D01*
X143922439Y-125565000D01*
X143351561Y-125565000D01*
X142824138Y-125783466D01*
X142420466Y-126187138D01*
X142202000Y-126714561D01*
X125514130Y-126714561D01*
X125482626Y-126701512D01*
X125345185Y-126495817D01*
X125279439Y-126451887D01*
X124231400Y-125403849D01*
X124231400Y-121135244D01*
X124359156Y-121007488D01*
X124523500Y-120610726D01*
X124523500Y-120181274D01*
X124359156Y-119784512D01*
X124055488Y-119480844D01*
X123658726Y-119316500D01*
X123229274Y-119316500D01*
X122832512Y-119480844D01*
X122528844Y-119784512D01*
X122364500Y-120181274D01*
X121007299Y-120181274D01*
X121011500Y-120177896D01*
X121281367Y-119684819D01*
X121298904Y-119602039D01*
X121176915Y-119380000D01*
X119634000Y-119380000D01*
X119634000Y-119400000D01*
X119380000Y-119400000D01*
X119380000Y-119380000D01*
X117837085Y-119380000D01*
X117715096Y-119602039D01*
X117732633Y-119684819D01*
X118002500Y-120177896D01*
X118428499Y-120520501D01*
X118072423Y-120758423D01*
X117755260Y-121233091D01*
X117643887Y-121793000D01*
X114537310Y-121793000D01*
X114699577Y-121684577D01*
X115016740Y-121209909D01*
X115128113Y-120650000D01*
X115016740Y-120090091D01*
X114699577Y-119615423D01*
X114347242Y-119380000D01*
X114699577Y-119144577D01*
X115016740Y-118669909D01*
X115128113Y-118110000D01*
X115016740Y-117550091D01*
X114699577Y-117075423D01*
X114347242Y-116840000D01*
X114699577Y-116604577D01*
X115016740Y-116129909D01*
X115128113Y-115570000D01*
X115016740Y-115010091D01*
X114699577Y-114535423D01*
X114347242Y-114300000D01*
X114699577Y-114064577D01*
X115016740Y-113589909D01*
X115128113Y-113030000D01*
X115016740Y-112470091D01*
X114699577Y-111995423D01*
X114347242Y-111760000D01*
X114699577Y-111524577D01*
X115016740Y-111049909D01*
X115128113Y-110490000D01*
X115016740Y-109930091D01*
X114699577Y-109455423D01*
X114347242Y-109220000D01*
X114537310Y-109093000D01*
X117643887Y-109093000D01*
X117755260Y-109652909D01*
X118072423Y-110127577D01*
X118424758Y-110363000D01*
X118072423Y-110598423D01*
X117755260Y-111073091D01*
X117643887Y-111633000D01*
X117755260Y-112192909D01*
X118072423Y-112667577D01*
X118424758Y-112903000D01*
X118072423Y-113138423D01*
X117755260Y-113613091D01*
X117643887Y-114173000D01*
X117755260Y-114732909D01*
X118072423Y-115207577D01*
X118424758Y-115443000D01*
X118072423Y-115678423D01*
X117755260Y-116153091D01*
X117643887Y-116713000D01*
X117755260Y-117272909D01*
X118072423Y-117747577D01*
X118428499Y-117985499D01*
X118002500Y-118328104D01*
X117732633Y-118821181D01*
X117715096Y-118903961D01*
X117837085Y-119126000D01*
X119380000Y-119126000D01*
X119380000Y-119106000D01*
X119634000Y-119106000D01*
X119634000Y-119126000D01*
X121176915Y-119126000D01*
X121298904Y-118903961D01*
X121281367Y-118821181D01*
X121011500Y-118328104D01*
X120585501Y-117985499D01*
X120941577Y-117747577D01*
X121258740Y-117272909D01*
X121370113Y-116713000D01*
X121258740Y-116153091D01*
X120941577Y-115678423D01*
X120589242Y-115443000D01*
X120941577Y-115207577D01*
X121258740Y-114732909D01*
X121370113Y-114173000D01*
X121258740Y-113613091D01*
X120941577Y-113138423D01*
X120589242Y-112903000D01*
X120941577Y-112667577D01*
X121258740Y-112192909D01*
X121370113Y-111633000D01*
X121258740Y-111073091D01*
X120941577Y-110598423D01*
X120589242Y-110363000D01*
X120941577Y-110127577D01*
X121258740Y-109652909D01*
X121370113Y-109093000D01*
X121258740Y-108533091D01*
X120941577Y-108058423D01*
X120820894Y-107977785D01*
X120954765Y-107951157D01*
X121164809Y-107810809D01*
X121305157Y-107600765D01*
X121354440Y-107353000D01*
X121354440Y-106553000D01*
X125263887Y-106553000D01*
X125375260Y-107112909D01*
X125692423Y-107587577D01*
X126044758Y-107823000D01*
X125692423Y-108058423D01*
X125375260Y-108533091D01*
X125263887Y-109093000D01*
X125375260Y-109652909D01*
X125692423Y-110127577D01*
X126044758Y-110363000D01*
X125692423Y-110598423D01*
X125375260Y-111073091D01*
X125263887Y-111633000D01*
X125375260Y-112192909D01*
X125692423Y-112667577D01*
X126044758Y-112903000D01*
X125692423Y-113138423D01*
X125375260Y-113613091D01*
X125263887Y-114173000D01*
X125375260Y-114732909D01*
X125692423Y-115207577D01*
X126044758Y-115443000D01*
X125692423Y-115678423D01*
X125375260Y-116153091D01*
X125263887Y-116713000D01*
X125375260Y-117272909D01*
X125692423Y-117747577D01*
X126044758Y-117983000D01*
X125692423Y-118218423D01*
X125375260Y-118693091D01*
X125263887Y-119253000D01*
X125375260Y-119812909D01*
X125692423Y-120287577D01*
X126044758Y-120523000D01*
X125692423Y-120758423D01*
X125375260Y-121233091D01*
X125263887Y-121793000D01*
X125375260Y-122352909D01*
X125692423Y-122827577D01*
X126044758Y-123063000D01*
X125692423Y-123298423D01*
X125375260Y-123773091D01*
X125263887Y-124333000D01*
X125375260Y-124892909D01*
X125692423Y-125367577D01*
X126167091Y-125684740D01*
X126585667Y-125768000D01*
X127668333Y-125768000D01*
X128086909Y-125684740D01*
X128561577Y-125367577D01*
X128878740Y-124892909D01*
X128990113Y-124333000D01*
X128878740Y-123773091D01*
X128561577Y-123298423D01*
X128209242Y-123063000D01*
X128561577Y-122827577D01*
X128878740Y-122352909D01*
X128990113Y-121793000D01*
X128878740Y-121233091D01*
X128561577Y-120758423D01*
X128267541Y-120561954D01*
X131620000Y-120561954D01*
X131620000Y-122008046D01*
X132173396Y-123344062D01*
X133195938Y-124366604D01*
X134531954Y-124920000D01*
X135978046Y-124920000D01*
X137314062Y-124366604D01*
X138336604Y-123344062D01*
X138731789Y-122390000D01*
X142697560Y-122390000D01*
X142697560Y-123990000D01*
X142746843Y-124237765D01*
X142887191Y-124447809D01*
X143097235Y-124588157D01*
X143345000Y-124637440D01*
X144945000Y-124637440D01*
X145192765Y-124588157D01*
X145402809Y-124447809D01*
X145543157Y-124237765D01*
X145592440Y-123990000D01*
X145592440Y-122390000D01*
X145543157Y-122142235D01*
X145402809Y-121932191D01*
X145192765Y-121791843D01*
X144945000Y-121742560D01*
X143345000Y-121742560D01*
X143097235Y-121791843D01*
X142887191Y-121932191D01*
X142746843Y-122142235D01*
X142697560Y-122390000D01*
X138731789Y-122390000D01*
X138890000Y-122008046D01*
X138890000Y-120832778D01*
X146955000Y-120832778D01*
X146955000Y-121483222D01*
X147203914Y-122084153D01*
X147663847Y-122544086D01*
X148264778Y-122793000D01*
X148915222Y-122793000D01*
X149516153Y-122544086D01*
X149749707Y-122310532D01*
X155117073Y-122310532D01*
X155215736Y-122577387D01*
X155825461Y-122803908D01*
X156475460Y-122779856D01*
X156964264Y-122577387D01*
X157062927Y-122310532D01*
X156090000Y-121337605D01*
X155117073Y-122310532D01*
X149749707Y-122310532D01*
X149976086Y-122084153D01*
X150225000Y-121483222D01*
X150225000Y-120893461D01*
X154444092Y-120893461D01*
X154468144Y-121543460D01*
X154670613Y-122032264D01*
X154937468Y-122130927D01*
X155910395Y-121158000D01*
X156269605Y-121158000D01*
X157242532Y-122130927D01*
X157509387Y-122032264D01*
X157735908Y-121422539D01*
X157711856Y-120772540D01*
X157509387Y-120283736D01*
X157242532Y-120185073D01*
X156269605Y-121158000D01*
X155910395Y-121158000D01*
X154937468Y-120185073D01*
X154670613Y-120283736D01*
X154444092Y-120893461D01*
X150225000Y-120893461D01*
X150225000Y-120832778D01*
X149976086Y-120231847D01*
X149749707Y-120005468D01*
X155117073Y-120005468D01*
X156090000Y-120978395D01*
X157062927Y-120005468D01*
X156964264Y-119738613D01*
X156354539Y-119512092D01*
X155704540Y-119536144D01*
X155215736Y-119738613D01*
X155117073Y-120005468D01*
X149749707Y-120005468D01*
X149516153Y-119771914D01*
X148915222Y-119523000D01*
X148264778Y-119523000D01*
X147663847Y-119771914D01*
X147203914Y-120231847D01*
X146955000Y-120832778D01*
X138890000Y-120832778D01*
X138890000Y-120561954D01*
X138336604Y-119225938D01*
X137314062Y-118203396D01*
X135978046Y-117650000D01*
X134531954Y-117650000D01*
X133195938Y-118203396D01*
X132173396Y-119225938D01*
X131620000Y-120561954D01*
X128267541Y-120561954D01*
X128209242Y-120523000D01*
X128561577Y-120287577D01*
X128878740Y-119812909D01*
X128990113Y-119253000D01*
X128878740Y-118693091D01*
X128561577Y-118218423D01*
X128209242Y-117983000D01*
X128561577Y-117747577D01*
X128878740Y-117272909D01*
X128990113Y-116713000D01*
X128878740Y-116153091D01*
X128561577Y-115678423D01*
X128209242Y-115443000D01*
X128561577Y-115207577D01*
X128878740Y-114732909D01*
X128990113Y-114173000D01*
X128878740Y-113613091D01*
X128561577Y-113138423D01*
X128209242Y-112903000D01*
X128561577Y-112667577D01*
X128878740Y-112192909D01*
X128895422Y-112109039D01*
X129418096Y-112109039D01*
X129578959Y-112497423D01*
X129954866Y-112912389D01*
X130460959Y-113151914D01*
X130683000Y-113030629D01*
X130683000Y-111887000D01*
X130937000Y-111887000D01*
X130937000Y-113030629D01*
X131159041Y-113151914D01*
X131665134Y-112912389D01*
X132041041Y-112497423D01*
X132201904Y-112109039D01*
X132079915Y-111887000D01*
X130937000Y-111887000D01*
X130683000Y-111887000D01*
X129540085Y-111887000D01*
X129418096Y-112109039D01*
X128895422Y-112109039D01*
X128990113Y-111633000D01*
X128878740Y-111073091D01*
X128561577Y-110598423D01*
X128209242Y-110363000D01*
X128561577Y-110127577D01*
X128705515Y-109912159D01*
X128928512Y-110135156D01*
X129325274Y-110299500D01*
X129362264Y-110299500D01*
X129611471Y-110548706D01*
X129661067Y-110622933D01*
X129835441Y-110739445D01*
X129578959Y-111022577D01*
X129418096Y-111410961D01*
X129540085Y-111633000D01*
X130683000Y-111633000D01*
X130683000Y-111613000D01*
X130937000Y-111613000D01*
X130937000Y-111633000D01*
X132079915Y-111633000D01*
X132166961Y-111474561D01*
X139535000Y-111474561D01*
X139535000Y-112045439D01*
X139753466Y-112572862D01*
X140157138Y-112976534D01*
X140684561Y-113195000D01*
X141255439Y-113195000D01*
X141653783Y-113030000D01*
X142681887Y-113030000D01*
X142793260Y-113589909D01*
X143110423Y-114064577D01*
X143585091Y-114381740D01*
X144003667Y-114465000D01*
X144286333Y-114465000D01*
X144704909Y-114381740D01*
X145179577Y-114064577D01*
X145496740Y-113589909D01*
X145608113Y-113030000D01*
X145496740Y-112470091D01*
X145179577Y-111995423D01*
X144704909Y-111678260D01*
X144286333Y-111595000D01*
X144003667Y-111595000D01*
X143585091Y-111678260D01*
X143110423Y-111995423D01*
X142793260Y-112470091D01*
X142681887Y-113030000D01*
X141653783Y-113030000D01*
X141782862Y-112976534D01*
X142186534Y-112572862D01*
X142405000Y-112045439D01*
X142405000Y-111474561D01*
X142186534Y-110947138D01*
X141782862Y-110543466D01*
X141255439Y-110325000D01*
X140684561Y-110325000D01*
X140157138Y-110543466D01*
X139753466Y-110947138D01*
X139535000Y-111474561D01*
X132166961Y-111474561D01*
X132201904Y-111410961D01*
X132041041Y-111022577D01*
X131903731Y-110871000D01*
X131950356Y-110871000D01*
X131976512Y-110897156D01*
X132373274Y-111061500D01*
X132802726Y-111061500D01*
X133199488Y-110897156D01*
X133503156Y-110593488D01*
X133667500Y-110196726D01*
X133667500Y-109767274D01*
X133503156Y-109370512D01*
X133199488Y-109066844D01*
X132802726Y-108902500D01*
X132373274Y-108902500D01*
X131976512Y-109066844D01*
X131950356Y-109093000D01*
X130670236Y-109093000D01*
X130619500Y-109042264D01*
X130619500Y-109005274D01*
X130455156Y-108608512D01*
X130151488Y-108304844D01*
X130138734Y-108299561D01*
X133820000Y-108299561D01*
X133820000Y-108870439D01*
X134038466Y-109397862D01*
X134442138Y-109801534D01*
X134969561Y-110020000D01*
X135540439Y-110020000D01*
X136067862Y-109801534D01*
X136471534Y-109397862D01*
X136690000Y-108870439D01*
X136690000Y-108299561D01*
X138900000Y-108299561D01*
X138900000Y-108870439D01*
X139118466Y-109397862D01*
X139522138Y-109801534D01*
X140049561Y-110020000D01*
X140620439Y-110020000D01*
X141147862Y-109801534D01*
X141379835Y-109569561D01*
X143345000Y-109569561D01*
X143345000Y-110140439D01*
X143563466Y-110667862D01*
X143967138Y-111071534D01*
X144494561Y-111290000D01*
X145065439Y-111290000D01*
X145592862Y-111071534D01*
X145996534Y-110667862D01*
X146215000Y-110140439D01*
X146215000Y-109855000D01*
X146726887Y-109855000D01*
X146838260Y-110414909D01*
X147155423Y-110889577D01*
X147507758Y-111125000D01*
X147155423Y-111360423D01*
X146838260Y-111835091D01*
X146726887Y-112395000D01*
X146838260Y-112954909D01*
X147155423Y-113429577D01*
X147507758Y-113665000D01*
X147155423Y-113900423D01*
X146838260Y-114375091D01*
X146726887Y-114935000D01*
X146838260Y-115494909D01*
X147155423Y-115969577D01*
X147630091Y-116286740D01*
X148048667Y-116370000D01*
X149131333Y-116370000D01*
X149549909Y-116286740D01*
X150024577Y-115969577D01*
X150341740Y-115494909D01*
X150453113Y-114935000D01*
X150341740Y-114375091D01*
X150024577Y-113900423D01*
X149672242Y-113665000D01*
X150024577Y-113429577D01*
X150341740Y-112954909D01*
X150453113Y-112395000D01*
X150341740Y-111835091D01*
X150024577Y-111360423D01*
X149672242Y-111125000D01*
X150024577Y-110889577D01*
X150341740Y-110414909D01*
X150453113Y-109855000D01*
X150341740Y-109295091D01*
X150024577Y-108820423D01*
X149668501Y-108582501D01*
X150094500Y-108239896D01*
X150364367Y-107746819D01*
X150381904Y-107664039D01*
X150259915Y-107442000D01*
X148717000Y-107442000D01*
X148717000Y-107462000D01*
X148463000Y-107462000D01*
X148463000Y-107442000D01*
X146920085Y-107442000D01*
X146798096Y-107664039D01*
X146815633Y-107746819D01*
X147085500Y-108239896D01*
X147511499Y-108582501D01*
X147155423Y-108820423D01*
X146838260Y-109295091D01*
X146726887Y-109855000D01*
X146215000Y-109855000D01*
X146215000Y-109569561D01*
X145996534Y-109042138D01*
X145592862Y-108638466D01*
X145065439Y-108420000D01*
X144494561Y-108420000D01*
X143967138Y-108638466D01*
X143563466Y-109042138D01*
X143345000Y-109569561D01*
X141379835Y-109569561D01*
X141551534Y-109397862D01*
X141770000Y-108870439D01*
X141770000Y-108299561D01*
X141551534Y-107772138D01*
X141147862Y-107368466D01*
X140620439Y-107150000D01*
X140049561Y-107150000D01*
X139522138Y-107368466D01*
X139118466Y-107772138D01*
X138900000Y-108299561D01*
X136690000Y-108299561D01*
X136471534Y-107772138D01*
X136067862Y-107368466D01*
X135540439Y-107150000D01*
X134969561Y-107150000D01*
X134442138Y-107368466D01*
X134038466Y-107772138D01*
X133820000Y-108299561D01*
X130138734Y-108299561D01*
X129754726Y-108140500D01*
X129325274Y-108140500D01*
X128928512Y-108304844D01*
X128807253Y-108426103D01*
X128561577Y-108058423D01*
X128209242Y-107823000D01*
X128561577Y-107587577D01*
X128878740Y-107112909D01*
X128990113Y-106553000D01*
X128878740Y-105993091D01*
X128561577Y-105518423D01*
X128086909Y-105201260D01*
X127668333Y-105118000D01*
X126585667Y-105118000D01*
X126167091Y-105201260D01*
X125692423Y-105518423D01*
X125375260Y-105993091D01*
X125263887Y-106553000D01*
X121354440Y-106553000D01*
X121354440Y-105753000D01*
X121305157Y-105505235D01*
X121164809Y-105295191D01*
X120954765Y-105154843D01*
X120707000Y-105105560D01*
X118307000Y-105105560D01*
X118059235Y-105154843D01*
X117849191Y-105295191D01*
X117708843Y-105505235D01*
X117659560Y-105753000D01*
X117659560Y-107353000D01*
X117708843Y-107600765D01*
X117849191Y-107810809D01*
X118059235Y-107951157D01*
X118193106Y-107977785D01*
X118072423Y-108058423D01*
X117755260Y-108533091D01*
X117643887Y-109093000D01*
X114537310Y-109093000D01*
X114699577Y-108984577D01*
X115016740Y-108509909D01*
X115128113Y-107950000D01*
X115016740Y-107390091D01*
X114699577Y-106915423D01*
X114347242Y-106680000D01*
X114699577Y-106444577D01*
X115016740Y-105969909D01*
X115128113Y-105410000D01*
X115016740Y-104850091D01*
X114706474Y-104385745D01*
X121091861Y-104385745D01*
X121165995Y-104631864D01*
X121703223Y-104824965D01*
X122273454Y-104797778D01*
X122674005Y-104631864D01*
X122748139Y-104385745D01*
X121920000Y-103557605D01*
X121091861Y-104385745D01*
X114706474Y-104385745D01*
X114699577Y-104375423D01*
X114347242Y-104140000D01*
X114699577Y-103904577D01*
X115016740Y-103429909D01*
X115070185Y-103161223D01*
X120473035Y-103161223D01*
X120500222Y-103731454D01*
X120666136Y-104132005D01*
X120912255Y-104206139D01*
X121740395Y-103378000D01*
X122099605Y-103378000D01*
X122927745Y-104206139D01*
X123173864Y-104132005D01*
X123176290Y-104125254D01*
X123203466Y-104190862D01*
X123607138Y-104594534D01*
X124134561Y-104813000D01*
X124705439Y-104813000D01*
X125232862Y-104594534D01*
X125636534Y-104190862D01*
X125855000Y-103663439D01*
X125855000Y-103092561D01*
X125636534Y-102565138D01*
X125232862Y-102161466D01*
X124705439Y-101943000D01*
X124134561Y-101943000D01*
X123607138Y-102161466D01*
X123203466Y-102565138D01*
X123176475Y-102630299D01*
X123173864Y-102623995D01*
X122927745Y-102549861D01*
X122099605Y-103378000D01*
X121740395Y-103378000D01*
X120912255Y-102549861D01*
X120666136Y-102623995D01*
X120473035Y-103161223D01*
X115070185Y-103161223D01*
X115128113Y-102870000D01*
X115028708Y-102370255D01*
X121091861Y-102370255D01*
X121920000Y-103198395D01*
X122748139Y-102370255D01*
X122674005Y-102124136D01*
X122136777Y-101931035D01*
X121566546Y-101958222D01*
X121165995Y-102124136D01*
X121091861Y-102370255D01*
X115028708Y-102370255D01*
X115016740Y-102310091D01*
X114699577Y-101835423D01*
X114347242Y-101600000D01*
X114699577Y-101364577D01*
X115016740Y-100889909D01*
X115128113Y-100330000D01*
X115020812Y-99790561D01*
X118834000Y-99790561D01*
X118834000Y-100361439D01*
X119052466Y-100888862D01*
X119456138Y-101292534D01*
X119983561Y-101511000D01*
X120554439Y-101511000D01*
X121081862Y-101292534D01*
X121485534Y-100888862D01*
X121704000Y-100361439D01*
X121704000Y-100076000D01*
X128965887Y-100076000D01*
X129077260Y-100635909D01*
X129394423Y-101110577D01*
X129869091Y-101427740D01*
X130287667Y-101511000D01*
X130570333Y-101511000D01*
X130988909Y-101427740D01*
X131463577Y-101110577D01*
X131780740Y-100635909D01*
X131892113Y-100076000D01*
X131780740Y-99516091D01*
X131463577Y-99041423D01*
X130988909Y-98724260D01*
X130570333Y-98641000D01*
X130287667Y-98641000D01*
X129869091Y-98724260D01*
X129394423Y-99041423D01*
X129077260Y-99516091D01*
X128965887Y-100076000D01*
X121704000Y-100076000D01*
X121704000Y-99790561D01*
X121485534Y-99263138D01*
X121081862Y-98859466D01*
X120554439Y-98641000D01*
X119983561Y-98641000D01*
X119456138Y-98859466D01*
X119052466Y-99263138D01*
X118834000Y-99790561D01*
X115020812Y-99790561D01*
X115016740Y-99770091D01*
X114699577Y-99295423D01*
X114347242Y-99060000D01*
X114699577Y-98824577D01*
X114966565Y-98425000D01*
X133791887Y-98425000D01*
X133903260Y-98984909D01*
X134220423Y-99459577D01*
X134695091Y-99776740D01*
X135113667Y-99860000D01*
X135396333Y-99860000D01*
X135814909Y-99776740D01*
X136289577Y-99459577D01*
X136606740Y-98984909D01*
X136718113Y-98425000D01*
X138871887Y-98425000D01*
X138983260Y-98984909D01*
X139300423Y-99459577D01*
X139775091Y-99776740D01*
X140193667Y-99860000D01*
X140476333Y-99860000D01*
X140894909Y-99776740D01*
X141017241Y-99695000D01*
X143316887Y-99695000D01*
X143428260Y-100254909D01*
X143745423Y-100729577D01*
X144220091Y-101046740D01*
X144638667Y-101130000D01*
X144921333Y-101130000D01*
X145339909Y-101046740D01*
X145814577Y-100729577D01*
X146131740Y-100254909D01*
X146243113Y-99695000D01*
X146131740Y-99135091D01*
X145814577Y-98660423D01*
X145339909Y-98343260D01*
X144921333Y-98260000D01*
X144638667Y-98260000D01*
X144220091Y-98343260D01*
X143745423Y-98660423D01*
X143428260Y-99135091D01*
X143316887Y-99695000D01*
X141017241Y-99695000D01*
X141369577Y-99459577D01*
X141686740Y-98984909D01*
X141798113Y-98425000D01*
X141686740Y-97865091D01*
X141369577Y-97390423D01*
X140894909Y-97073260D01*
X140476333Y-96990000D01*
X140193667Y-96990000D01*
X139775091Y-97073260D01*
X139300423Y-97390423D01*
X138983260Y-97865091D01*
X138871887Y-98425000D01*
X136718113Y-98425000D01*
X136606740Y-97865091D01*
X136289577Y-97390423D01*
X135814909Y-97073260D01*
X135396333Y-96990000D01*
X135113667Y-96990000D01*
X134695091Y-97073260D01*
X134220423Y-97390423D01*
X133903260Y-97865091D01*
X133791887Y-98425000D01*
X114966565Y-98425000D01*
X115016740Y-98349909D01*
X115128113Y-97790000D01*
X115016740Y-97230091D01*
X114699577Y-96755423D01*
X114347242Y-96520000D01*
X114699577Y-96284577D01*
X115016740Y-95809909D01*
X115128113Y-95250000D01*
X115121860Y-95218561D01*
X116929000Y-95218561D01*
X116929000Y-95789439D01*
X117147466Y-96316862D01*
X117551138Y-96720534D01*
X118078561Y-96939000D01*
X118649439Y-96939000D01*
X119176862Y-96720534D01*
X119580534Y-96316862D01*
X119799000Y-95789439D01*
X119799000Y-95504000D01*
X127060887Y-95504000D01*
X127172260Y-96063909D01*
X127489423Y-96538577D01*
X127964091Y-96855740D01*
X128382667Y-96939000D01*
X128665333Y-96939000D01*
X129083909Y-96855740D01*
X129558577Y-96538577D01*
X129875740Y-96063909D01*
X129987113Y-95504000D01*
X129942905Y-95281750D01*
X132677000Y-95281750D01*
X132677000Y-96322309D01*
X132773673Y-96555698D01*
X132952301Y-96734327D01*
X133185690Y-96831000D01*
X133826250Y-96831000D01*
X133985000Y-96672250D01*
X133985000Y-95123000D01*
X132835750Y-95123000D01*
X132677000Y-95281750D01*
X129942905Y-95281750D01*
X129875740Y-94944091D01*
X129558577Y-94469423D01*
X129083909Y-94152260D01*
X128665333Y-94069000D01*
X128382667Y-94069000D01*
X127964091Y-94152260D01*
X127489423Y-94469423D01*
X127172260Y-94944091D01*
X127060887Y-95504000D01*
X119799000Y-95504000D01*
X119799000Y-95218561D01*
X119580534Y-94691138D01*
X119176862Y-94287466D01*
X118649439Y-94069000D01*
X118078561Y-94069000D01*
X117551138Y-94287466D01*
X117147466Y-94691138D01*
X116929000Y-95218561D01*
X115121860Y-95218561D01*
X115016740Y-94690091D01*
X114699577Y-94215423D01*
X114224909Y-93898260D01*
X113806333Y-93815000D01*
X113523667Y-93815000D01*
X113105091Y-93898260D01*
X112630423Y-94215423D01*
X112313260Y-94690091D01*
X112201887Y-95250000D01*
X99888113Y-95250000D01*
X99776740Y-94690091D01*
X99459577Y-94215423D01*
X98984909Y-93898260D01*
X98566333Y-93815000D01*
X98283667Y-93815000D01*
X97865091Y-93898260D01*
X97390423Y-94215423D01*
X97073260Y-94690091D01*
X96961887Y-95250000D01*
X95082233Y-95250000D01*
X95363810Y-94654656D01*
X96101589Y-93423745D01*
X130235861Y-93423745D01*
X130309995Y-93669864D01*
X130847223Y-93862965D01*
X131417454Y-93835778D01*
X131818005Y-93669864D01*
X131818057Y-93669691D01*
X132677000Y-93669691D01*
X132677000Y-94710250D01*
X132835750Y-94869000D01*
X133985000Y-94869000D01*
X133985000Y-93319750D01*
X134239000Y-93319750D01*
X134239000Y-94869000D01*
X134259000Y-94869000D01*
X134259000Y-95123000D01*
X134239000Y-95123000D01*
X134239000Y-96672250D01*
X134397750Y-96831000D01*
X135038310Y-96831000D01*
X135271699Y-96734327D01*
X135450327Y-96555698D01*
X135546266Y-96324082D01*
X135617424Y-96430577D01*
X136092092Y-96747740D01*
X136652000Y-96859113D01*
X137211909Y-96747740D01*
X137686577Y-96430577D01*
X137922000Y-96078241D01*
X138157424Y-96430577D01*
X138632092Y-96747740D01*
X139192000Y-96859113D01*
X139751909Y-96747740D01*
X140226577Y-96430577D01*
X140462000Y-96078241D01*
X140697424Y-96430577D01*
X141172092Y-96747740D01*
X141732000Y-96859113D01*
X142291909Y-96747740D01*
X142766577Y-96430577D01*
X143002000Y-96078241D01*
X143237424Y-96430577D01*
X143712092Y-96747740D01*
X144272000Y-96859113D01*
X144831909Y-96747740D01*
X145306577Y-96430577D01*
X145544499Y-96074501D01*
X145887104Y-96500500D01*
X146380181Y-96770367D01*
X146462961Y-96787904D01*
X146685000Y-96665915D01*
X146685000Y-95123000D01*
X146665000Y-95123000D01*
X146665000Y-94869000D01*
X146685000Y-94869000D01*
X146685000Y-93326085D01*
X146939000Y-93326085D01*
X146939000Y-94869000D01*
X146959000Y-94869000D01*
X146959000Y-95123000D01*
X146939000Y-95123000D01*
X146939000Y-96665915D01*
X147161039Y-96787904D01*
X147243819Y-96770367D01*
X147736896Y-96500500D01*
X148079501Y-96074501D01*
X148317424Y-96430577D01*
X148792092Y-96747740D01*
X149352000Y-96859113D01*
X149911909Y-96747740D01*
X150386577Y-96430577D01*
X150624499Y-96074501D01*
X150967104Y-96500500D01*
X151460181Y-96770367D01*
X151542961Y-96787904D01*
X151765000Y-96665915D01*
X151765000Y-95123000D01*
X152019000Y-95123000D01*
X152019000Y-96665915D01*
X152241039Y-96787904D01*
X152323819Y-96770367D01*
X152816896Y-96500500D01*
X153169166Y-96062483D01*
X153327000Y-95523000D01*
X153327000Y-95123000D01*
X152019000Y-95123000D01*
X151765000Y-95123000D01*
X151745000Y-95123000D01*
X151745000Y-94869000D01*
X151765000Y-94869000D01*
X151765000Y-93326085D01*
X152019000Y-93326085D01*
X152019000Y-94869000D01*
X153327000Y-94869000D01*
X153327000Y-94469000D01*
X153169166Y-93929517D01*
X152816896Y-93491500D01*
X152323819Y-93221633D01*
X152241039Y-93204096D01*
X152019000Y-93326085D01*
X151765000Y-93326085D01*
X151542961Y-93204096D01*
X151460181Y-93221633D01*
X150967104Y-93491500D01*
X150624499Y-93917499D01*
X150386576Y-93561423D01*
X149911908Y-93244260D01*
X149352000Y-93132887D01*
X148792091Y-93244260D01*
X148317423Y-93561424D01*
X148079501Y-93917499D01*
X147736896Y-93491500D01*
X147243819Y-93221633D01*
X147161039Y-93204096D01*
X146939000Y-93326085D01*
X146685000Y-93326085D01*
X146462961Y-93204096D01*
X146380181Y-93221633D01*
X145887104Y-93491500D01*
X145544499Y-93917499D01*
X145306576Y-93561423D01*
X144831908Y-93244260D01*
X144302582Y-93138970D01*
X144960152Y-92481400D01*
X150390756Y-92481400D01*
X150518512Y-92609156D01*
X150915274Y-92773500D01*
X151344726Y-92773500D01*
X151741488Y-92609156D01*
X152045156Y-92305488D01*
X152209500Y-91908726D01*
X152209500Y-91479274D01*
X152045156Y-91082512D01*
X151741488Y-90778844D01*
X151344726Y-90614500D01*
X150915274Y-90614500D01*
X150518512Y-90778844D01*
X150390756Y-90906600D01*
X144711551Y-90906600D01*
X144634000Y-90891174D01*
X144556449Y-90906600D01*
X144556448Y-90906600D01*
X144326772Y-90952285D01*
X144066316Y-91126316D01*
X144022386Y-91192062D01*
X142023566Y-93190883D01*
X141732000Y-93132887D01*
X141172091Y-93244260D01*
X140697423Y-93561424D01*
X140462000Y-93913759D01*
X140226576Y-93561423D01*
X139751908Y-93244260D01*
X139192000Y-93132887D01*
X138632091Y-93244260D01*
X138157423Y-93561424D01*
X137922000Y-93913759D01*
X137686576Y-93561423D01*
X137211908Y-93244260D01*
X136652000Y-93132887D01*
X136092091Y-93244260D01*
X135617423Y-93561424D01*
X135546266Y-93667918D01*
X135450327Y-93436302D01*
X135271699Y-93257673D01*
X135038310Y-93161000D01*
X134397750Y-93161000D01*
X134239000Y-93319750D01*
X133985000Y-93319750D01*
X133826250Y-93161000D01*
X133185690Y-93161000D01*
X132952301Y-93257673D01*
X132773673Y-93436302D01*
X132677000Y-93669691D01*
X131818057Y-93669691D01*
X131892139Y-93423745D01*
X131064000Y-92595605D01*
X130235861Y-93423745D01*
X96101589Y-93423745D01*
X96835539Y-92199223D01*
X129617035Y-92199223D01*
X129644222Y-92769454D01*
X129810136Y-93170005D01*
X130056255Y-93244139D01*
X130884395Y-92416000D01*
X131243605Y-92416000D01*
X132071745Y-93244139D01*
X132317864Y-93170005D01*
X132510965Y-92632777D01*
X132483778Y-92062546D01*
X132317864Y-91661995D01*
X132071745Y-91587861D01*
X131243605Y-92416000D01*
X130884395Y-92416000D01*
X130056255Y-91587861D01*
X129810136Y-91661995D01*
X129617035Y-92199223D01*
X96835539Y-92199223D01*
X97173656Y-91635110D01*
X98660331Y-89630561D01*
X116421000Y-89630561D01*
X116421000Y-90201439D01*
X116639466Y-90728862D01*
X117043138Y-91132534D01*
X117570561Y-91351000D01*
X118141439Y-91351000D01*
X118668862Y-91132534D01*
X119072534Y-90728862D01*
X119291000Y-90201439D01*
X119291000Y-89916000D01*
X126552887Y-89916000D01*
X126664260Y-90475909D01*
X126981423Y-90950577D01*
X127456091Y-91267740D01*
X127874667Y-91351000D01*
X128157333Y-91351000D01*
X128575909Y-91267740D01*
X129050577Y-90950577D01*
X129367740Y-90475909D01*
X129479113Y-89916000D01*
X129422336Y-89630561D01*
X129629000Y-89630561D01*
X129629000Y-90201439D01*
X129847466Y-90728862D01*
X130251138Y-91132534D01*
X130316299Y-91159525D01*
X130309995Y-91162136D01*
X130235861Y-91408255D01*
X131064000Y-92236395D01*
X131892139Y-91408255D01*
X131818005Y-91162136D01*
X131811254Y-91159710D01*
X131876862Y-91132534D01*
X132280534Y-90728862D01*
X132499000Y-90201439D01*
X132499000Y-89630561D01*
X132280534Y-89103138D01*
X131876862Y-88699466D01*
X131349439Y-88481000D01*
X130778561Y-88481000D01*
X130251138Y-88699466D01*
X129847466Y-89103138D01*
X129629000Y-89630561D01*
X129422336Y-89630561D01*
X129367740Y-89356091D01*
X129050577Y-88881423D01*
X128575909Y-88564260D01*
X128157333Y-88481000D01*
X127874667Y-88481000D01*
X127456091Y-88564260D01*
X126981423Y-88881423D01*
X126664260Y-89356091D01*
X126552887Y-89916000D01*
X119291000Y-89916000D01*
X119291000Y-89630561D01*
X119072534Y-89103138D01*
X118668862Y-88699466D01*
X118141439Y-88481000D01*
X117570561Y-88481000D01*
X117043138Y-88699466D01*
X116639466Y-89103138D01*
X116421000Y-89630561D01*
X98660331Y-89630561D01*
X99270748Y-88807510D01*
X101058827Y-86834668D01*
X132677000Y-86834668D01*
X132677000Y-87917333D01*
X132760260Y-88335909D01*
X133077424Y-88810577D01*
X133552092Y-89127740D01*
X134112000Y-89239113D01*
X134671909Y-89127740D01*
X135146577Y-88810577D01*
X135382000Y-88458241D01*
X135617424Y-88810577D01*
X136092092Y-89127740D01*
X136652000Y-89239113D01*
X137211909Y-89127740D01*
X137686577Y-88810577D01*
X137922000Y-88458241D01*
X138157424Y-88810577D01*
X138632092Y-89127740D01*
X139192000Y-89239113D01*
X139751909Y-89127740D01*
X140226577Y-88810577D01*
X140462000Y-88458241D01*
X140697424Y-88810577D01*
X141172092Y-89127740D01*
X141732000Y-89239113D01*
X142291909Y-89127740D01*
X142766577Y-88810577D01*
X143004499Y-88454501D01*
X143347104Y-88880500D01*
X143840181Y-89150367D01*
X143922961Y-89167904D01*
X144145000Y-89045915D01*
X144145000Y-87503000D01*
X144125000Y-87503000D01*
X144125000Y-87249000D01*
X144145000Y-87249000D01*
X144145000Y-85706085D01*
X143922961Y-85584096D01*
X143840181Y-85601633D01*
X143347104Y-85871500D01*
X143004499Y-86297499D01*
X142766576Y-85941423D01*
X142291908Y-85624260D01*
X141732000Y-85512887D01*
X141172091Y-85624260D01*
X140697423Y-85941424D01*
X140462000Y-86293759D01*
X140226576Y-85941423D01*
X139751908Y-85624260D01*
X139192000Y-85512887D01*
X138632091Y-85624260D01*
X138157423Y-85941424D01*
X137922000Y-86293759D01*
X137686576Y-85941423D01*
X137211908Y-85624260D01*
X136652000Y-85512887D01*
X136092091Y-85624260D01*
X135617423Y-85941424D01*
X135382000Y-86293759D01*
X135146576Y-85941423D01*
X134671908Y-85624260D01*
X134112000Y-85512887D01*
X133552091Y-85624260D01*
X133077423Y-85941424D01*
X132760260Y-86416092D01*
X132677000Y-86834668D01*
X101058827Y-86834668D01*
X101634902Y-86199067D01*
X104243345Y-83834913D01*
X106950763Y-81826954D01*
X110665000Y-81826954D01*
X110665000Y-83273046D01*
X111218396Y-84609062D01*
X112240938Y-85631604D01*
X113576954Y-86185000D01*
X115023046Y-86185000D01*
X116359062Y-85631604D01*
X117381604Y-84609062D01*
X117935000Y-83273046D01*
X117935000Y-81826954D01*
X117671975Y-81191954D01*
X124000000Y-81191954D01*
X124000000Y-82638046D01*
X124553396Y-83974062D01*
X125575938Y-84996604D01*
X126911954Y-85550000D01*
X128358046Y-85550000D01*
X129694062Y-84996604D01*
X130716604Y-83974062D01*
X131270000Y-82638046D01*
X131270000Y-82478778D01*
X135010000Y-82478778D01*
X135010000Y-83129222D01*
X135258914Y-83730153D01*
X135718847Y-84190086D01*
X136319778Y-84439000D01*
X136970222Y-84439000D01*
X137571153Y-84190086D01*
X138031086Y-83730153D01*
X138280000Y-83129222D01*
X138280000Y-82478778D01*
X142510000Y-82478778D01*
X142510000Y-83129222D01*
X142758914Y-83730153D01*
X143218847Y-84190086D01*
X143819778Y-84439000D01*
X144470222Y-84439000D01*
X145071153Y-84190086D01*
X145531086Y-83730153D01*
X145780000Y-83129222D01*
X145780000Y-82478778D01*
X145531086Y-81877847D01*
X145071153Y-81417914D01*
X144470222Y-81169000D01*
X143819778Y-81169000D01*
X143218847Y-81417914D01*
X142758914Y-81877847D01*
X142510000Y-82478778D01*
X138280000Y-82478778D01*
X138031086Y-81877847D01*
X137571153Y-81417914D01*
X136970222Y-81169000D01*
X136319778Y-81169000D01*
X135718847Y-81417914D01*
X135258914Y-81877847D01*
X135010000Y-82478778D01*
X131270000Y-82478778D01*
X131270000Y-81191954D01*
X130716604Y-79855938D01*
X129694062Y-78833396D01*
X128358046Y-78280000D01*
X126911954Y-78280000D01*
X125575938Y-78833396D01*
X124553396Y-79855938D01*
X124000000Y-81191954D01*
X117671975Y-81191954D01*
X117381604Y-80490938D01*
X116359062Y-79468396D01*
X115023046Y-78915000D01*
X113576954Y-78915000D01*
X112240938Y-79468396D01*
X111218396Y-80490938D01*
X110665000Y-81826954D01*
X106950763Y-81826954D01*
X107070945Y-81737821D01*
X110090491Y-79927975D01*
X113272897Y-78422809D01*
X116587498Y-77236826D01*
X120002393Y-76381439D01*
X123484677Y-75864891D01*
X127000835Y-75692153D01*
X130516993Y-75864891D01*
X130516993Y-75864891D01*
G37*
X130516993Y-75864891D02*
X133999277Y-76381439D01*
X137414172Y-77236826D01*
X140728773Y-78422809D01*
X143911179Y-79927975D01*
X146930725Y-81737821D01*
X147694318Y-82304141D01*
X147470512Y-82396844D01*
X147334544Y-82532812D01*
X147146154Y-82570285D01*
X147044743Y-82638046D01*
X146885699Y-82744316D01*
X146841769Y-82810063D01*
X146310065Y-83341767D01*
X146244316Y-83385699D01*
X146070285Y-83646156D01*
X146036911Y-83813939D01*
X146009174Y-83953383D01*
X146024600Y-84030934D01*
X146024601Y-85776265D01*
X145777423Y-85941424D01*
X145539501Y-86297499D01*
X145196896Y-85871500D01*
X144703819Y-85601633D01*
X144621039Y-85584096D01*
X144399000Y-85706085D01*
X144399000Y-87249000D01*
X144419000Y-87249000D01*
X144419000Y-87503000D01*
X144399000Y-87503000D01*
X144399000Y-89045915D01*
X144621039Y-89167904D01*
X144703819Y-89150367D01*
X145196896Y-88880500D01*
X145539501Y-88454501D01*
X145777424Y-88810577D01*
X146252092Y-89127740D01*
X146812000Y-89239113D01*
X147371909Y-89127740D01*
X147846577Y-88810577D01*
X148082000Y-88458241D01*
X148317424Y-88810577D01*
X148792092Y-89127740D01*
X149352000Y-89239113D01*
X149911909Y-89127740D01*
X150386577Y-88810577D01*
X150622000Y-88458241D01*
X150857424Y-88810577D01*
X151332092Y-89127740D01*
X151892000Y-89239113D01*
X152451909Y-89127740D01*
X152926577Y-88810577D01*
X153243740Y-88335909D01*
X153327000Y-87917332D01*
X153327000Y-87258520D01*
X154730922Y-88807510D01*
X156828014Y-91635110D01*
X158637860Y-94654656D01*
X160143026Y-97837062D01*
X160492125Y-98812729D01*
X160197862Y-98518466D01*
X159670439Y-98300000D01*
X159099561Y-98300000D01*
X158572138Y-98518466D01*
X158168466Y-98922138D01*
X158000190Y-99328392D01*
X157961740Y-99135091D01*
X157644577Y-98660423D01*
X157169909Y-98343260D01*
X156751333Y-98260000D01*
X155668667Y-98260000D01*
X155250091Y-98343260D01*
X154775423Y-98660423D01*
X154610265Y-98907600D01*
X154147551Y-98907600D01*
X154070000Y-98892174D01*
X153992449Y-98907600D01*
X153992448Y-98907600D01*
X153762772Y-98953285D01*
X153502316Y-99127316D01*
X153458386Y-99193062D01*
X150447030Y-102204419D01*
X150341740Y-101675091D01*
X150024577Y-101200423D01*
X149672242Y-100965000D01*
X150024577Y-100729577D01*
X150341740Y-100254909D01*
X150453113Y-99695000D01*
X150341740Y-99135091D01*
X150024577Y-98660423D01*
X149549909Y-98343260D01*
X149131333Y-98260000D01*
X148048667Y-98260000D01*
X147630091Y-98343260D01*
X147155423Y-98660423D01*
X146838260Y-99135091D01*
X146726887Y-99695000D01*
X146838260Y-100254909D01*
X147155423Y-100729577D01*
X147507758Y-100965000D01*
X147155423Y-101200423D01*
X146838260Y-101675091D01*
X146726887Y-102235000D01*
X146838260Y-102794909D01*
X147155423Y-103269577D01*
X147507758Y-103505000D01*
X147155423Y-103740423D01*
X146905406Y-104114600D01*
X145519244Y-104114600D01*
X145391488Y-103986844D01*
X144994726Y-103822500D01*
X144565274Y-103822500D01*
X144168512Y-103986844D01*
X143864844Y-104290512D01*
X143700500Y-104687274D01*
X143700500Y-105116726D01*
X143864844Y-105513488D01*
X144168512Y-105817156D01*
X144565274Y-105981500D01*
X144994726Y-105981500D01*
X145391488Y-105817156D01*
X145519244Y-105689400D01*
X147075123Y-105689400D01*
X147155423Y-105809577D01*
X147511499Y-106047499D01*
X147085500Y-106390104D01*
X146815633Y-106883181D01*
X146798096Y-106965961D01*
X146920085Y-107188000D01*
X148463000Y-107188000D01*
X148463000Y-107168000D01*
X148717000Y-107168000D01*
X148717000Y-107188000D01*
X150259915Y-107188000D01*
X150381904Y-106965961D01*
X150364367Y-106883181D01*
X150094500Y-106390104D01*
X149668501Y-106047499D01*
X150024577Y-105809577D01*
X150341740Y-105334909D01*
X150453113Y-104775000D01*
X150395117Y-104483434D01*
X154396152Y-100482400D01*
X154610265Y-100482400D01*
X154775423Y-100729577D01*
X155127758Y-100965000D01*
X154775423Y-101200423D01*
X154458260Y-101675091D01*
X154346887Y-102235000D01*
X154458260Y-102794909D01*
X154775423Y-103269577D01*
X155127758Y-103505000D01*
X154775423Y-103740423D01*
X154458260Y-104215091D01*
X154346887Y-104775000D01*
X154458260Y-105334909D01*
X154775423Y-105809577D01*
X155127758Y-106045000D01*
X154775423Y-106280423D01*
X154458260Y-106755091D01*
X154346887Y-107315000D01*
X154458260Y-107874909D01*
X154775423Y-108349577D01*
X155127758Y-108585000D01*
X154775423Y-108820423D01*
X154458260Y-109295091D01*
X154346887Y-109855000D01*
X154458260Y-110414909D01*
X154775423Y-110889577D01*
X155127758Y-111125000D01*
X154775423Y-111360423D01*
X154458260Y-111835091D01*
X154346887Y-112395000D01*
X154458260Y-112954909D01*
X154775423Y-113429577D01*
X154896106Y-113510215D01*
X154762235Y-113536843D01*
X154552191Y-113677191D01*
X154411843Y-113887235D01*
X154362560Y-114135000D01*
X154362560Y-115735000D01*
X154411843Y-115982765D01*
X154552191Y-116192809D01*
X154762235Y-116333157D01*
X155010000Y-116382440D01*
X157410000Y-116382440D01*
X157657765Y-116333157D01*
X157867809Y-116192809D01*
X158008157Y-115982765D01*
X158057440Y-115735000D01*
X158057440Y-114135000D01*
X158008157Y-113887235D01*
X157867809Y-113677191D01*
X157657765Y-113536843D01*
X157523894Y-113510215D01*
X157644577Y-113429577D01*
X157961740Y-112954909D01*
X158073113Y-112395000D01*
X157961740Y-111835091D01*
X157644577Y-111360423D01*
X157292242Y-111125000D01*
X157644577Y-110889577D01*
X157947699Y-110435923D01*
X157965222Y-110803454D01*
X158131136Y-111204005D01*
X158377255Y-111278139D01*
X159205395Y-110450000D01*
X158377255Y-109621861D01*
X158131136Y-109695995D01*
X158072035Y-109860422D01*
X158073113Y-109855000D01*
X157961740Y-109295091D01*
X157644577Y-108820423D01*
X157292242Y-108585000D01*
X157644577Y-108349577D01*
X157950000Y-107892479D01*
X157950000Y-108235439D01*
X158168466Y-108762862D01*
X158572138Y-109166534D01*
X158637299Y-109193525D01*
X158630995Y-109196136D01*
X158556861Y-109442255D01*
X159385000Y-110270395D01*
X159399142Y-110256252D01*
X159578748Y-110435858D01*
X159564605Y-110450000D01*
X159578748Y-110464142D01*
X159399142Y-110643748D01*
X159385000Y-110629605D01*
X158556861Y-111457745D01*
X158630995Y-111703864D01*
X159168223Y-111896965D01*
X159738454Y-111869778D01*
X160139005Y-111703864D01*
X160213139Y-111457747D01*
X160328014Y-111572622D01*
X160401000Y-111499636D01*
X160401001Y-115709763D01*
X158635765Y-117475000D01*
X140083644Y-117475000D01*
X140057488Y-117448844D01*
X139660726Y-117284500D01*
X139231274Y-117284500D01*
X138834512Y-117448844D01*
X138530844Y-117752512D01*
X138366500Y-118149274D01*
X138366500Y-118578726D01*
X138530844Y-118975488D01*
X138834512Y-119279156D01*
X139231274Y-119443500D01*
X139660726Y-119443500D01*
X140057488Y-119279156D01*
X140083644Y-119253000D01*
X158916445Y-119253000D01*
X159004000Y-119270416D01*
X159091555Y-119253000D01*
X159091556Y-119253000D01*
X159350870Y-119201419D01*
X159644933Y-119004933D01*
X159694531Y-118930704D01*
X161856707Y-116768529D01*
X161930933Y-116718933D01*
X162127419Y-116424870D01*
X162179000Y-116165556D01*
X162179000Y-116165552D01*
X162196415Y-116078001D01*
X162179000Y-115990450D01*
X162179000Y-109815550D01*
X162196415Y-109727999D01*
X162179000Y-109640448D01*
X162179000Y-109640444D01*
X162127419Y-109381130D01*
X161930933Y-109087067D01*
X161856707Y-109037471D01*
X161002530Y-108183295D01*
X160952932Y-108109066D01*
X160820000Y-108020244D01*
X160820000Y-107664561D01*
X160601534Y-107137138D01*
X160197862Y-106733466D01*
X159670439Y-106515000D01*
X159099561Y-106515000D01*
X158572138Y-106733466D01*
X158168466Y-107137138D01*
X158053083Y-107415696D01*
X158073113Y-107315000D01*
X157961740Y-106755091D01*
X157644577Y-106280423D01*
X157292242Y-106045000D01*
X157644577Y-105809577D01*
X157961740Y-105334909D01*
X158073113Y-104775000D01*
X157961740Y-104215091D01*
X157644577Y-103740423D01*
X157292242Y-103505000D01*
X157644577Y-103269577D01*
X157961740Y-102794909D01*
X157994815Y-102628631D01*
X158168466Y-103047862D01*
X158572138Y-103451534D01*
X159099561Y-103670000D01*
X159670439Y-103670000D01*
X160197862Y-103451534D01*
X160601534Y-103047862D01*
X160820000Y-102520439D01*
X160820000Y-101949561D01*
X160601534Y-101422138D01*
X160197862Y-101018466D01*
X160117068Y-100985000D01*
X160197862Y-100951534D01*
X160601534Y-100547862D01*
X160820000Y-100020439D01*
X160820000Y-99729078D01*
X161329009Y-101151663D01*
X162184396Y-104566558D01*
X162700944Y-108048842D01*
X162873682Y-111565000D01*
X162700944Y-115081158D01*
X162184396Y-118563442D01*
X161329009Y-121978337D01*
X160143026Y-125292938D01*
X158637860Y-128475344D01*
X156828014Y-131494890D01*
X154730922Y-134322490D01*
X152366768Y-136930933D01*
X149758325Y-139295087D01*
X146930725Y-141392179D01*
X143911179Y-143202025D01*
X140728773Y-144707191D01*
X137414172Y-145893174D01*
X133999277Y-146748561D01*
X130516993Y-147265109D01*
X127000835Y-147437847D01*
X123484677Y-147265109D01*
X120002393Y-146748561D01*
X116587498Y-145893174D01*
X113272897Y-144707191D01*
X111090513Y-143675000D01*
X111450439Y-143675000D01*
X111977862Y-143456534D01*
X112186651Y-143247745D01*
X112836861Y-143247745D01*
X112910995Y-143493864D01*
X113448223Y-143686965D01*
X114018454Y-143659778D01*
X114419005Y-143493864D01*
X114493139Y-143247745D01*
X113665000Y-142419605D01*
X112836861Y-143247745D01*
X112186651Y-143247745D01*
X112381534Y-143052862D01*
X112408525Y-142987701D01*
X112411136Y-142994005D01*
X112657255Y-143068139D01*
X113485395Y-142240000D01*
X113844605Y-142240000D01*
X114672745Y-143068139D01*
X114918864Y-142994005D01*
X115111965Y-142456777D01*
X115084778Y-141886546D01*
X114918864Y-141485995D01*
X114672745Y-141411861D01*
X113844605Y-142240000D01*
X113485395Y-142240000D01*
X112657255Y-141411861D01*
X112411136Y-141485995D01*
X112408710Y-141492746D01*
X112381534Y-141427138D01*
X112186651Y-141232255D01*
X112836861Y-141232255D01*
X113665000Y-142060395D01*
X114493139Y-141232255D01*
X114419005Y-140986136D01*
X113881777Y-140793035D01*
X113311546Y-140820222D01*
X112910995Y-140986136D01*
X112836861Y-141232255D01*
X112186651Y-141232255D01*
X111977862Y-141023466D01*
X111450439Y-140805000D01*
X110879561Y-140805000D01*
X110352138Y-141023466D01*
X109948466Y-141427138D01*
X109730000Y-141954561D01*
X109730000Y-142525439D01*
X109948466Y-143052862D01*
X110104035Y-143208431D01*
X110090491Y-143202025D01*
X107070945Y-141392179D01*
X105853386Y-140489175D01*
X116342430Y-140489175D01*
X116465565Y-140776788D01*
X117147734Y-141036707D01*
X117877443Y-141015786D01*
X118454435Y-140776788D01*
X118577570Y-140489175D01*
X117460000Y-139371605D01*
X116342430Y-140489175D01*
X105853386Y-140489175D01*
X104393144Y-139406185D01*
X105722682Y-139406185D01*
X105741519Y-139509235D01*
X106012264Y-139981894D01*
X106443279Y-140314964D01*
X106968945Y-140457739D01*
X107188000Y-140296868D01*
X107188000Y-139192000D01*
X107442000Y-139192000D01*
X107442000Y-140296868D01*
X107661055Y-140457739D01*
X108186721Y-140314964D01*
X108617736Y-139981894D01*
X108888481Y-139509235D01*
X108907318Y-139406185D01*
X108784656Y-139192000D01*
X107442000Y-139192000D01*
X107188000Y-139192000D01*
X105845344Y-139192000D01*
X105722682Y-139406185D01*
X104393144Y-139406185D01*
X104243345Y-139295087D01*
X103613044Y-138723815D01*
X105722682Y-138723815D01*
X105845344Y-138938000D01*
X107188000Y-138938000D01*
X107188000Y-137833132D01*
X107442000Y-137833132D01*
X107442000Y-138938000D01*
X108784656Y-138938000D01*
X108907318Y-138723815D01*
X108888481Y-138620765D01*
X108713335Y-138315000D01*
X110747560Y-138315000D01*
X110747560Y-139815000D01*
X110796843Y-140062765D01*
X110937191Y-140272809D01*
X111147235Y-140413157D01*
X111395000Y-140462440D01*
X113395000Y-140462440D01*
X113642765Y-140413157D01*
X113852809Y-140272809D01*
X113993157Y-140062765D01*
X114042440Y-139815000D01*
X114042440Y-138879734D01*
X115615293Y-138879734D01*
X115636214Y-139609443D01*
X115875212Y-140186435D01*
X116162825Y-140309570D01*
X117280395Y-139192000D01*
X117639605Y-139192000D01*
X118757175Y-140309570D01*
X119044788Y-140186435D01*
X119208138Y-139757716D01*
X119404362Y-140231444D01*
X119920556Y-140747638D01*
X120594996Y-141027000D01*
X121325004Y-141027000D01*
X121999444Y-140747638D01*
X122515638Y-140231444D01*
X122710000Y-139762212D01*
X122904362Y-140231444D01*
X123420556Y-140747638D01*
X124094996Y-141027000D01*
X124825004Y-141027000D01*
X125499444Y-140747638D01*
X126015638Y-140231444D01*
X126112560Y-139997453D01*
X126112560Y-140392000D01*
X126161843Y-140639765D01*
X126302191Y-140849809D01*
X126512235Y-140990157D01*
X126760000Y-141039440D01*
X129160000Y-141039440D01*
X129407765Y-140990157D01*
X129617809Y-140849809D01*
X129758157Y-140639765D01*
X129768255Y-140589000D01*
X133733604Y-140589000D01*
X134061138Y-140916534D01*
X134588561Y-141135000D01*
X135159439Y-141135000D01*
X135686862Y-140916534D01*
X136090534Y-140512862D01*
X136309000Y-139985439D01*
X136309000Y-139700000D01*
X143570887Y-139700000D01*
X143682260Y-140259909D01*
X143999423Y-140734577D01*
X144474091Y-141051740D01*
X144892667Y-141135000D01*
X145175333Y-141135000D01*
X145593909Y-141051740D01*
X146068577Y-140734577D01*
X146385740Y-140259909D01*
X146497113Y-139700000D01*
X146385740Y-139140091D01*
X146068577Y-138665423D01*
X145593909Y-138348260D01*
X145175333Y-138265000D01*
X144892667Y-138265000D01*
X144474091Y-138348260D01*
X143999423Y-138665423D01*
X143682260Y-139140091D01*
X143570887Y-139700000D01*
X136309000Y-139700000D01*
X136309000Y-139414561D01*
X136090534Y-138887138D01*
X135686862Y-138483466D01*
X135159439Y-138265000D01*
X134588561Y-138265000D01*
X134061138Y-138483466D01*
X133733604Y-138811000D01*
X129807440Y-138811000D01*
X129807440Y-137992000D01*
X129758157Y-137744235D01*
X129617809Y-137534191D01*
X129407765Y-137393843D01*
X129160000Y-137344560D01*
X126760000Y-137344560D01*
X126512235Y-137393843D01*
X126302191Y-137534191D01*
X126161843Y-137744235D01*
X126112560Y-137992000D01*
X126112560Y-138386547D01*
X126015638Y-138152556D01*
X125499444Y-137636362D01*
X124825004Y-137357000D01*
X124094996Y-137357000D01*
X123420556Y-137636362D01*
X122904362Y-138152556D01*
X122710000Y-138621788D01*
X122515638Y-138152556D01*
X121999444Y-137636362D01*
X121325004Y-137357000D01*
X120594996Y-137357000D01*
X119920556Y-137636362D01*
X119404362Y-138152556D01*
X119215253Y-138609105D01*
X119044788Y-138197565D01*
X118757175Y-138074430D01*
X117639605Y-139192000D01*
X117280395Y-139192000D01*
X116162825Y-138074430D01*
X115875212Y-138197565D01*
X115615293Y-138879734D01*
X114042440Y-138879734D01*
X114042440Y-138315000D01*
X113993157Y-138067235D01*
X113877956Y-137894825D01*
X116342430Y-137894825D01*
X117460000Y-139012395D01*
X118577570Y-137894825D01*
X118454435Y-137607212D01*
X117772266Y-137347293D01*
X117042557Y-137368214D01*
X116465565Y-137607212D01*
X116342430Y-137894825D01*
X113877956Y-137894825D01*
X113852809Y-137857191D01*
X113642765Y-137716843D01*
X113395000Y-137667560D01*
X111395000Y-137667560D01*
X111147235Y-137716843D01*
X110937191Y-137857191D01*
X110796843Y-138067235D01*
X110747560Y-138315000D01*
X108713335Y-138315000D01*
X108617736Y-138148106D01*
X108186721Y-137815036D01*
X107661055Y-137672261D01*
X107442000Y-137833132D01*
X107188000Y-137833132D01*
X106968945Y-137672261D01*
X106443279Y-137815036D01*
X106012264Y-138148106D01*
X105741519Y-138620765D01*
X105722682Y-138723815D01*
X103613044Y-138723815D01*
X101634902Y-136930933D01*
X100916769Y-136138594D01*
X108470000Y-136138594D01*
X108470000Y-136911407D01*
X108550359Y-137315400D01*
X108856472Y-137773529D01*
X109314601Y-138079641D01*
X109855000Y-138187133D01*
X110395400Y-138079641D01*
X110853529Y-137773529D01*
X111159641Y-137315399D01*
X111240000Y-136911406D01*
X111240000Y-136138593D01*
X111159641Y-135734600D01*
X111120001Y-135675274D01*
X113474500Y-135675274D01*
X113474500Y-136104726D01*
X113638844Y-136501488D01*
X113942512Y-136805156D01*
X114339274Y-136969500D01*
X114768726Y-136969500D01*
X115165488Y-136805156D01*
X115469156Y-136501488D01*
X115619471Y-136138593D01*
X148475000Y-136138593D01*
X148475000Y-136911406D01*
X148555359Y-137315399D01*
X148861471Y-137773528D01*
X149319600Y-138079641D01*
X149860000Y-138187133D01*
X150400399Y-138079641D01*
X150858528Y-137773529D01*
X151164641Y-137315400D01*
X151245000Y-136911407D01*
X151245000Y-136138594D01*
X151164641Y-135734601D01*
X150858529Y-135276471D01*
X150400400Y-134970359D01*
X149860000Y-134862867D01*
X149319601Y-134970359D01*
X148861472Y-135276471D01*
X148555359Y-135734600D01*
X148475000Y-136138593D01*
X115619471Y-136138593D01*
X115633500Y-136104726D01*
X115633500Y-136067735D01*
X117716236Y-133985000D01*
X119758356Y-133985000D01*
X119784512Y-134011156D01*
X120181274Y-134175500D01*
X120610726Y-134175500D01*
X121007488Y-134011156D01*
X121311156Y-133707488D01*
X121475500Y-133310726D01*
X121475500Y-132881274D01*
X121311156Y-132484512D01*
X121129205Y-132302561D01*
X126073000Y-132302561D01*
X126073000Y-132873439D01*
X126291466Y-133400862D01*
X126695138Y-133804534D01*
X127222561Y-134023000D01*
X127793439Y-134023000D01*
X128320862Y-133804534D01*
X128724534Y-133400862D01*
X128943000Y-132873439D01*
X128943000Y-132588000D01*
X136204887Y-132588000D01*
X136316260Y-133147909D01*
X136633423Y-133622577D01*
X137108091Y-133939740D01*
X137526667Y-134023000D01*
X137809333Y-134023000D01*
X138227909Y-133939740D01*
X138702577Y-133622577D01*
X138931479Y-133280000D01*
X140792560Y-133280000D01*
X140792560Y-134880000D01*
X140841843Y-135127765D01*
X140982191Y-135337809D01*
X141192235Y-135478157D01*
X141440000Y-135527440D01*
X143040000Y-135527440D01*
X143287765Y-135478157D01*
X143497809Y-135337809D01*
X143638157Y-135127765D01*
X143687440Y-134880000D01*
X143687440Y-134326185D01*
X145727682Y-134326185D01*
X145746519Y-134429235D01*
X146017264Y-134901894D01*
X146448279Y-135234964D01*
X146973945Y-135377739D01*
X147193000Y-135216868D01*
X147193000Y-134112000D01*
X147447000Y-134112000D01*
X147447000Y-135216868D01*
X147666055Y-135377739D01*
X148191721Y-135234964D01*
X148622736Y-134901894D01*
X148893481Y-134429235D01*
X148912318Y-134326185D01*
X148789656Y-134112000D01*
X147447000Y-134112000D01*
X147193000Y-134112000D01*
X145850344Y-134112000D01*
X145727682Y-134326185D01*
X143687440Y-134326185D01*
X143687440Y-133643815D01*
X145727682Y-133643815D01*
X145850344Y-133858000D01*
X147193000Y-133858000D01*
X147193000Y-132753132D01*
X147447000Y-132753132D01*
X147447000Y-133858000D01*
X148789656Y-133858000D01*
X148912318Y-133643815D01*
X148893481Y-133540765D01*
X148718335Y-133235000D01*
X150752560Y-133235000D01*
X150752560Y-134735000D01*
X150801843Y-134982765D01*
X150942191Y-135192809D01*
X151152235Y-135333157D01*
X151400000Y-135382440D01*
X153400000Y-135382440D01*
X153647765Y-135333157D01*
X153857809Y-135192809D01*
X153998157Y-134982765D01*
X154047440Y-134735000D01*
X154047440Y-133235000D01*
X153998157Y-132987235D01*
X153857809Y-132777191D01*
X153647765Y-132636843D01*
X153400000Y-132587560D01*
X151400000Y-132587560D01*
X151152235Y-132636843D01*
X150942191Y-132777191D01*
X150801843Y-132987235D01*
X150752560Y-133235000D01*
X148718335Y-133235000D01*
X148622736Y-133068106D01*
X148191721Y-132735036D01*
X147666055Y-132592261D01*
X147447000Y-132753132D01*
X147193000Y-132753132D01*
X146973945Y-132592261D01*
X146448279Y-132735036D01*
X146017264Y-133068106D01*
X145746519Y-133540765D01*
X145727682Y-133643815D01*
X143687440Y-133643815D01*
X143687440Y-133280000D01*
X143638157Y-133032235D01*
X143498005Y-132822484D01*
X143686965Y-132296777D01*
X143659778Y-131726546D01*
X143592344Y-131563745D01*
X148269861Y-131563745D01*
X148343995Y-131809864D01*
X148881223Y-132002965D01*
X149451454Y-131975778D01*
X149852005Y-131809864D01*
X149926139Y-131563745D01*
X149098000Y-130735605D01*
X148269861Y-131563745D01*
X143592344Y-131563745D01*
X143493864Y-131325995D01*
X143247745Y-131251861D01*
X142419605Y-132080000D01*
X142433748Y-132094142D01*
X142254143Y-132273748D01*
X142240000Y-132259605D01*
X142225858Y-132273748D01*
X142046252Y-132094142D01*
X142060395Y-132080000D01*
X141232255Y-131251861D01*
X140986136Y-131325995D01*
X140793035Y-131863223D01*
X140820222Y-132433454D01*
X140981605Y-132823067D01*
X140841843Y-133032235D01*
X140792560Y-133280000D01*
X138931479Y-133280000D01*
X139019740Y-133147909D01*
X139131113Y-132588000D01*
X139019740Y-132028091D01*
X138702577Y-131553423D01*
X138227909Y-131236260D01*
X137809333Y-131153000D01*
X137526667Y-131153000D01*
X137108091Y-131236260D01*
X136633423Y-131553423D01*
X136316260Y-132028091D01*
X136204887Y-132588000D01*
X128943000Y-132588000D01*
X128943000Y-132302561D01*
X128724534Y-131775138D01*
X128320862Y-131371466D01*
X127793439Y-131153000D01*
X127222561Y-131153000D01*
X126695138Y-131371466D01*
X126291466Y-131775138D01*
X126073000Y-132302561D01*
X121129205Y-132302561D01*
X121007488Y-132180844D01*
X120610726Y-132016500D01*
X120181274Y-132016500D01*
X119784512Y-132180844D01*
X119758356Y-132207000D01*
X117435555Y-132207000D01*
X117348000Y-132189584D01*
X117260445Y-132207000D01*
X117260444Y-132207000D01*
X117001130Y-132258581D01*
X116707067Y-132455067D01*
X116657471Y-132529293D01*
X114376265Y-134810500D01*
X114339274Y-134810500D01*
X113942512Y-134974844D01*
X113638844Y-135278512D01*
X113474500Y-135675274D01*
X111120001Y-135675274D01*
X110853528Y-135276471D01*
X110395399Y-134970359D01*
X109855000Y-134862867D01*
X109314600Y-134970359D01*
X108856471Y-135276472D01*
X108550359Y-135734601D01*
X108470000Y-136138594D01*
X100916769Y-136138594D01*
X99270748Y-134322490D01*
X97474830Y-131900976D01*
X97865091Y-132161740D01*
X98283667Y-132245000D01*
X98566333Y-132245000D01*
X98984909Y-132161740D01*
X99459577Y-131844577D01*
X99776740Y-131369909D01*
X99888113Y-130810000D01*
X99776740Y-130250091D01*
X99459577Y-129775423D01*
X99075892Y-129519053D01*
X99280134Y-129422389D01*
X99656041Y-129007423D01*
X99816904Y-128619039D01*
X99694915Y-128397000D01*
X98552000Y-128397000D01*
X98552000Y-128417000D01*
X98298000Y-128417000D01*
X98298000Y-128397000D01*
X97155085Y-128397000D01*
X97033096Y-128619039D01*
X97193959Y-129007423D01*
X97569866Y-129422389D01*
X97774108Y-129519053D01*
X97390423Y-129775423D01*
X97073260Y-130250091D01*
X96961887Y-130810000D01*
X97060601Y-131306270D01*
X95363810Y-128475344D01*
X93858644Y-125292938D01*
X92672661Y-121978337D01*
X91817274Y-118563442D01*
X91300726Y-115081158D01*
X91127988Y-111565000D01*
X91300726Y-108048842D01*
X91817274Y-104566558D01*
X92672661Y-101151663D01*
X93858644Y-97837062D01*
X95082233Y-95250000D01*
X96961887Y-95250000D01*
X97073260Y-95809909D01*
X97390423Y-96284577D01*
X97742758Y-96520000D01*
X97390423Y-96755423D01*
X97073260Y-97230091D01*
X96961887Y-97790000D01*
X97073260Y-98349909D01*
X97390423Y-98824577D01*
X97742758Y-99060000D01*
X97390423Y-99295423D01*
X97073260Y-99770091D01*
X96961887Y-100330000D01*
X97073260Y-100889909D01*
X97390423Y-101364577D01*
X97742758Y-101600000D01*
X97390423Y-101835423D01*
X97073260Y-102310091D01*
X96961887Y-102870000D01*
X97073260Y-103429909D01*
X97390423Y-103904577D01*
X97742758Y-104140000D01*
X97390423Y-104375423D01*
X97073260Y-104850091D01*
X96961887Y-105410000D01*
X97073260Y-105969909D01*
X97390423Y-106444577D01*
X97742758Y-106680000D01*
X97390423Y-106915423D01*
X97073260Y-107390091D01*
X96961887Y-107950000D01*
X97073260Y-108509909D01*
X97390423Y-108984577D01*
X97742758Y-109220000D01*
X97390423Y-109455423D01*
X97073260Y-109930091D01*
X96961887Y-110490000D01*
X97073260Y-111049909D01*
X97390423Y-111524577D01*
X97742758Y-111760000D01*
X97390423Y-111995423D01*
X97073260Y-112470091D01*
X96961887Y-113030000D01*
X97073260Y-113589909D01*
X97390423Y-114064577D01*
X97742758Y-114300000D01*
X97390423Y-114535423D01*
X97073260Y-115010091D01*
X96961887Y-115570000D01*
X97073260Y-116129909D01*
X97390423Y-116604577D01*
X97742758Y-116840000D01*
X97390423Y-117075423D01*
X97073260Y-117550091D01*
X96961887Y-118110000D01*
X97073260Y-118669909D01*
X97390423Y-119144577D01*
X97742758Y-119380000D01*
X97390423Y-119615423D01*
X97073260Y-120090091D01*
X96961887Y-120650000D01*
X97073260Y-121209909D01*
X97390423Y-121684577D01*
X97742758Y-121920000D01*
X97390423Y-122155423D01*
X97073260Y-122630091D01*
X96961887Y-123190000D01*
X97073260Y-123749909D01*
X97390423Y-124224577D01*
X97742758Y-124460000D01*
X97390423Y-124695423D01*
X97073260Y-125170091D01*
X96961887Y-125730000D01*
X97073260Y-126289909D01*
X97390423Y-126764577D01*
X97774108Y-127020947D01*
X97569866Y-127117611D01*
X97193959Y-127532577D01*
X97033096Y-127920961D01*
X97155085Y-128143000D01*
X98298000Y-128143000D01*
X98298000Y-128123000D01*
X98552000Y-128123000D01*
X98552000Y-128143000D01*
X99694915Y-128143000D01*
X99816904Y-127920961D01*
X99656041Y-127532577D01*
X99280134Y-127117611D01*
X99075892Y-127020947D01*
X99459577Y-126764577D01*
X99776740Y-126289909D01*
X99888113Y-125730000D01*
X112201887Y-125730000D01*
X112313260Y-126289909D01*
X112630423Y-126764577D01*
X112982758Y-127000000D01*
X112630423Y-127235423D01*
X112313260Y-127710091D01*
X112201887Y-128270000D01*
X112313260Y-128829909D01*
X112630423Y-129304577D01*
X112751106Y-129385215D01*
X112617235Y-129411843D01*
X112407191Y-129552191D01*
X112266843Y-129762235D01*
X112217560Y-130010000D01*
X112217560Y-131610000D01*
X112266843Y-131857765D01*
X112407191Y-132067809D01*
X112617235Y-132208157D01*
X112865000Y-132257440D01*
X114465000Y-132257440D01*
X114712765Y-132208157D01*
X114922809Y-132067809D01*
X115063157Y-131857765D01*
X115112440Y-131610000D01*
X115112440Y-130010000D01*
X115076880Y-129831223D01*
X118981035Y-129831223D01*
X119008222Y-130401454D01*
X119174136Y-130802005D01*
X119420255Y-130876139D01*
X120248395Y-130048000D01*
X119420255Y-129219861D01*
X119174136Y-129293995D01*
X118981035Y-129831223D01*
X115076880Y-129831223D01*
X115063157Y-129762235D01*
X114922809Y-129552191D01*
X114712765Y-129411843D01*
X114578894Y-129385215D01*
X114699577Y-129304577D01*
X114876191Y-129040255D01*
X119599861Y-129040255D01*
X120428000Y-129868395D01*
X120442142Y-129854252D01*
X120621748Y-130033858D01*
X120607605Y-130048000D01*
X120621748Y-130062143D01*
X120442142Y-130241748D01*
X120428000Y-130227605D01*
X119599861Y-131055745D01*
X119673995Y-131301864D01*
X120211223Y-131494965D01*
X120781454Y-131467778D01*
X121171067Y-131306395D01*
X121380235Y-131446157D01*
X121628000Y-131495440D01*
X123228000Y-131495440D01*
X123475765Y-131446157D01*
X123685809Y-131305809D01*
X123826157Y-131095765D01*
X123830833Y-131072255D01*
X141411861Y-131072255D01*
X142240000Y-131900395D01*
X143068139Y-131072255D01*
X142994005Y-130826136D01*
X142456777Y-130633035D01*
X141886546Y-130660222D01*
X141485995Y-130826136D01*
X141411861Y-131072255D01*
X123830833Y-131072255D01*
X123875440Y-130848000D01*
X123875440Y-130339223D01*
X147651035Y-130339223D01*
X147678222Y-130909454D01*
X147844136Y-131310005D01*
X148090255Y-131384139D01*
X148918395Y-130556000D01*
X149277605Y-130556000D01*
X150105745Y-131384139D01*
X150351864Y-131310005D01*
X150354290Y-131303254D01*
X150381466Y-131368862D01*
X150785138Y-131772534D01*
X151312561Y-131991000D01*
X151883439Y-131991000D01*
X152410862Y-131772534D01*
X152814534Y-131368862D01*
X153033000Y-130841439D01*
X153033000Y-130270561D01*
X152814534Y-129743138D01*
X152410862Y-129339466D01*
X151883439Y-129121000D01*
X151312561Y-129121000D01*
X150785138Y-129339466D01*
X150381466Y-129743138D01*
X150354475Y-129808299D01*
X150351864Y-129801995D01*
X150105745Y-129727861D01*
X149277605Y-130556000D01*
X148918395Y-130556000D01*
X148090255Y-129727861D01*
X147844136Y-129801995D01*
X147651035Y-130339223D01*
X123875440Y-130339223D01*
X123875440Y-129548255D01*
X148269861Y-129548255D01*
X149098000Y-130376395D01*
X149926139Y-129548255D01*
X149852005Y-129302136D01*
X149314777Y-129109035D01*
X148744546Y-129136222D01*
X148343995Y-129302136D01*
X148269861Y-129548255D01*
X123875440Y-129548255D01*
X123875440Y-129248000D01*
X123826157Y-129000235D01*
X123685809Y-128790191D01*
X123475765Y-128649843D01*
X123228000Y-128600560D01*
X121628000Y-128600560D01*
X121380235Y-128649843D01*
X121170484Y-128789995D01*
X120644777Y-128601035D01*
X120074546Y-128628222D01*
X119673995Y-128794136D01*
X119599861Y-129040255D01*
X114876191Y-129040255D01*
X115016740Y-128829909D01*
X115128113Y-128270000D01*
X115016740Y-127710091D01*
X114699577Y-127235423D01*
X114347242Y-127000000D01*
X114699577Y-126764577D01*
X115016740Y-126289909D01*
X115128113Y-125730000D01*
X115016740Y-125170091D01*
X114699577Y-124695423D01*
X114679547Y-124682039D01*
X117715096Y-124682039D01*
X117732633Y-124764819D01*
X118002500Y-125257896D01*
X118440517Y-125610166D01*
X118980000Y-125768000D01*
X119380000Y-125768000D01*
X119380000Y-124460000D01*
X119634000Y-124460000D01*
X119634000Y-125768000D01*
X120034000Y-125768000D01*
X120573483Y-125610166D01*
X121011500Y-125257896D01*
X121281367Y-124764819D01*
X121298904Y-124682039D01*
X121176915Y-124460000D01*
X119634000Y-124460000D01*
X119380000Y-124460000D01*
X117837085Y-124460000D01*
X117715096Y-124682039D01*
X114679547Y-124682039D01*
X114315892Y-124439053D01*
X114520134Y-124342389D01*
X114896041Y-123927423D01*
X115056904Y-123539039D01*
X114934915Y-123317000D01*
X113792000Y-123317000D01*
X113792000Y-123337000D01*
X113538000Y-123337000D01*
X113538000Y-123317000D01*
X112395085Y-123317000D01*
X112273096Y-123539039D01*
X112433959Y-123927423D01*
X112809866Y-124342389D01*
X113014108Y-124439053D01*
X112630423Y-124695423D01*
X112313260Y-125170091D01*
X112201887Y-125730000D01*
X99888113Y-125730000D01*
X99776740Y-125170091D01*
X99459577Y-124695423D01*
X99107242Y-124460000D01*
X99459577Y-124224577D01*
X99776740Y-123749909D01*
X99888113Y-123190000D01*
X99776740Y-122630091D01*
X99459577Y-122155423D01*
X99107242Y-121920000D01*
X99459577Y-121684577D01*
X99776740Y-121209909D01*
X99888113Y-120650000D01*
X99776740Y-120090091D01*
X99459577Y-119615423D01*
X99107242Y-119380000D01*
X99459577Y-119144577D01*
X99776740Y-118669909D01*
X99888113Y-118110000D01*
X99776740Y-117550091D01*
X99459577Y-117075423D01*
X99107242Y-116840000D01*
X99459577Y-116604577D01*
X99776740Y-116129909D01*
X99888113Y-115570000D01*
X99776740Y-115010091D01*
X99459577Y-114535423D01*
X99107242Y-114300000D01*
X99459577Y-114064577D01*
X99776740Y-113589909D01*
X99888113Y-113030000D01*
X99776740Y-112470091D01*
X99459577Y-111995423D01*
X99107242Y-111760000D01*
X99459577Y-111524577D01*
X99776740Y-111049909D01*
X99888113Y-110490000D01*
X99776740Y-109930091D01*
X99459577Y-109455423D01*
X99107242Y-109220000D01*
X99459577Y-108984577D01*
X99776740Y-108509909D01*
X99888113Y-107950000D01*
X99776740Y-107390091D01*
X99459577Y-106915423D01*
X99107242Y-106680000D01*
X99459577Y-106444577D01*
X99776740Y-105969909D01*
X99888113Y-105410000D01*
X99776740Y-104850091D01*
X99459577Y-104375423D01*
X99107242Y-104140000D01*
X99459577Y-103904577D01*
X99776740Y-103429909D01*
X99888113Y-102870000D01*
X99776740Y-102310091D01*
X99459577Y-101835423D01*
X99107242Y-101600000D01*
X99459577Y-101364577D01*
X99776740Y-100889909D01*
X99888113Y-100330000D01*
X99776740Y-99770091D01*
X99459577Y-99295423D01*
X99107242Y-99060000D01*
X99459577Y-98824577D01*
X99776740Y-98349909D01*
X99888113Y-97790000D01*
X99776740Y-97230091D01*
X99459577Y-96755423D01*
X99107242Y-96520000D01*
X99459577Y-96284577D01*
X99776740Y-95809909D01*
X99888113Y-95250000D01*
X112201887Y-95250000D01*
X112313260Y-95809909D01*
X112630423Y-96284577D01*
X112982758Y-96520000D01*
X112630423Y-96755423D01*
X112313260Y-97230091D01*
X112201887Y-97790000D01*
X112313260Y-98349909D01*
X112630423Y-98824577D01*
X112982758Y-99060000D01*
X112630423Y-99295423D01*
X112313260Y-99770091D01*
X112201887Y-100330000D01*
X112313260Y-100889909D01*
X112630423Y-101364577D01*
X112982758Y-101600000D01*
X112630423Y-101835423D01*
X112313260Y-102310091D01*
X112201887Y-102870000D01*
X112313260Y-103429909D01*
X112630423Y-103904577D01*
X112982758Y-104140000D01*
X112630423Y-104375423D01*
X112313260Y-104850091D01*
X112201887Y-105410000D01*
X112313260Y-105969909D01*
X112630423Y-106444577D01*
X112982758Y-106680000D01*
X112630423Y-106915423D01*
X112313260Y-107390091D01*
X112201887Y-107950000D01*
X112313260Y-108509909D01*
X112630423Y-108984577D01*
X112982758Y-109220000D01*
X112630423Y-109455423D01*
X112313260Y-109930091D01*
X112201887Y-110490000D01*
X112313260Y-111049909D01*
X112630423Y-111524577D01*
X112982758Y-111760000D01*
X112630423Y-111995423D01*
X112313260Y-112470091D01*
X112201887Y-113030000D01*
X112313260Y-113589909D01*
X112630423Y-114064577D01*
X112982758Y-114300000D01*
X112630423Y-114535423D01*
X112313260Y-115010091D01*
X112201887Y-115570000D01*
X112313260Y-116129909D01*
X112630423Y-116604577D01*
X112982758Y-116840000D01*
X112630423Y-117075423D01*
X112313260Y-117550091D01*
X112201887Y-118110000D01*
X112313260Y-118669909D01*
X112630423Y-119144577D01*
X112982758Y-119380000D01*
X112630423Y-119615423D01*
X112313260Y-120090091D01*
X112201887Y-120650000D01*
X112313260Y-121209909D01*
X112630423Y-121684577D01*
X113014108Y-121940947D01*
X112809866Y-122037611D01*
X112433959Y-122452577D01*
X112273096Y-122840961D01*
X112395085Y-123063000D01*
X113538000Y-123063000D01*
X113538000Y-123043000D01*
X113792000Y-123043000D01*
X113792000Y-123063000D01*
X114934915Y-123063000D01*
X115056904Y-122840961D01*
X114896041Y-122452577D01*
X114520134Y-122037611D01*
X114315892Y-121940947D01*
X114537310Y-121793000D01*
X117643887Y-121793000D01*
X117755260Y-122352909D01*
X118072423Y-122827577D01*
X118428499Y-123065499D01*
X118002500Y-123408104D01*
X117732633Y-123901181D01*
X117715096Y-123983961D01*
X117837085Y-124206000D01*
X119380000Y-124206000D01*
X119380000Y-124186000D01*
X119634000Y-124186000D01*
X119634000Y-124206000D01*
X121176915Y-124206000D01*
X121298904Y-123983961D01*
X121281367Y-123901181D01*
X121011500Y-123408104D01*
X120585501Y-123065499D01*
X120941577Y-122827577D01*
X121258740Y-122352909D01*
X121370113Y-121793000D01*
X121258740Y-121233091D01*
X120941577Y-120758423D01*
X120585501Y-120520501D01*
X121007299Y-120181274D01*
X122364500Y-120181274D01*
X122364500Y-120610726D01*
X122528844Y-121007488D01*
X122656601Y-121135245D01*
X122656600Y-125652449D01*
X122641174Y-125730000D01*
X122656600Y-125807551D01*
X122702285Y-126037227D01*
X122876316Y-126297684D01*
X122942065Y-126341616D01*
X123988760Y-127388312D01*
X123990101Y-127395052D01*
X124035786Y-127624728D01*
X124142500Y-127784438D01*
X124142500Y-127976726D01*
X124306844Y-128373488D01*
X124610512Y-128677156D01*
X125007274Y-128841500D01*
X125436726Y-128841500D01*
X125833488Y-128677156D01*
X126137156Y-128373488D01*
X126301500Y-127976726D01*
X126301500Y-127547274D01*
X126137156Y-127150512D01*
X125833488Y-126846844D01*
X125514130Y-126714561D01*
X142202000Y-126714561D01*
X142202000Y-127285439D01*
X142420466Y-127812862D01*
X142824138Y-128216534D01*
X143351561Y-128435000D01*
X143922439Y-128435000D01*
X144449862Y-128216534D01*
X144853534Y-127812862D01*
X145072000Y-127285439D01*
X145072000Y-127000000D01*
X152333887Y-127000000D01*
X152445260Y-127559909D01*
X152762423Y-128034577D01*
X153237091Y-128351740D01*
X153655667Y-128435000D01*
X153938333Y-128435000D01*
X154356909Y-128351740D01*
X154831577Y-128034577D01*
X155148740Y-127559909D01*
X155260113Y-127000000D01*
X155148740Y-126440091D01*
X154831577Y-125965423D01*
X154356909Y-125648260D01*
X153938333Y-125565000D01*
X153655667Y-125565000D01*
X153237091Y-125648260D01*
X152762423Y-125965423D01*
X152445260Y-126440091D01*
X152333887Y-127000000D01*
X145072000Y-127000000D01*
X145072000Y-126714561D01*
X144853534Y-126187138D01*
X144449862Y-125783466D01*
X143922439Y-125565000D01*
X143351561Y-125565000D01*
X142824138Y-125783466D01*
X142420466Y-126187138D01*
X142202000Y-126714561D01*
X125514130Y-126714561D01*
X125482626Y-126701512D01*
X125345185Y-126495817D01*
X125279439Y-126451887D01*
X124231400Y-125403849D01*
X124231400Y-121135244D01*
X124359156Y-121007488D01*
X124523500Y-120610726D01*
X124523500Y-120181274D01*
X124359156Y-119784512D01*
X124055488Y-119480844D01*
X123658726Y-119316500D01*
X123229274Y-119316500D01*
X122832512Y-119480844D01*
X122528844Y-119784512D01*
X122364500Y-120181274D01*
X121007299Y-120181274D01*
X121011500Y-120177896D01*
X121281367Y-119684819D01*
X121298904Y-119602039D01*
X121176915Y-119380000D01*
X119634000Y-119380000D01*
X119634000Y-119400000D01*
X119380000Y-119400000D01*
X119380000Y-119380000D01*
X117837085Y-119380000D01*
X117715096Y-119602039D01*
X117732633Y-119684819D01*
X118002500Y-120177896D01*
X118428499Y-120520501D01*
X118072423Y-120758423D01*
X117755260Y-121233091D01*
X117643887Y-121793000D01*
X114537310Y-121793000D01*
X114699577Y-121684577D01*
X115016740Y-121209909D01*
X115128113Y-120650000D01*
X115016740Y-120090091D01*
X114699577Y-119615423D01*
X114347242Y-119380000D01*
X114699577Y-119144577D01*
X115016740Y-118669909D01*
X115128113Y-118110000D01*
X115016740Y-117550091D01*
X114699577Y-117075423D01*
X114347242Y-116840000D01*
X114699577Y-116604577D01*
X115016740Y-116129909D01*
X115128113Y-115570000D01*
X115016740Y-115010091D01*
X114699577Y-114535423D01*
X114347242Y-114300000D01*
X114699577Y-114064577D01*
X115016740Y-113589909D01*
X115128113Y-113030000D01*
X115016740Y-112470091D01*
X114699577Y-111995423D01*
X114347242Y-111760000D01*
X114699577Y-111524577D01*
X115016740Y-111049909D01*
X115128113Y-110490000D01*
X115016740Y-109930091D01*
X114699577Y-109455423D01*
X114347242Y-109220000D01*
X114537310Y-109093000D01*
X117643887Y-109093000D01*
X117755260Y-109652909D01*
X118072423Y-110127577D01*
X118424758Y-110363000D01*
X118072423Y-110598423D01*
X117755260Y-111073091D01*
X117643887Y-111633000D01*
X117755260Y-112192909D01*
X118072423Y-112667577D01*
X118424758Y-112903000D01*
X118072423Y-113138423D01*
X117755260Y-113613091D01*
X117643887Y-114173000D01*
X117755260Y-114732909D01*
X118072423Y-115207577D01*
X118424758Y-115443000D01*
X118072423Y-115678423D01*
X117755260Y-116153091D01*
X117643887Y-116713000D01*
X117755260Y-117272909D01*
X118072423Y-117747577D01*
X118428499Y-117985499D01*
X118002500Y-118328104D01*
X117732633Y-118821181D01*
X117715096Y-118903961D01*
X117837085Y-119126000D01*
X119380000Y-119126000D01*
X119380000Y-119106000D01*
X119634000Y-119106000D01*
X119634000Y-119126000D01*
X121176915Y-119126000D01*
X121298904Y-118903961D01*
X121281367Y-118821181D01*
X121011500Y-118328104D01*
X120585501Y-117985499D01*
X120941577Y-117747577D01*
X121258740Y-117272909D01*
X121370113Y-116713000D01*
X121258740Y-116153091D01*
X120941577Y-115678423D01*
X120589242Y-115443000D01*
X120941577Y-115207577D01*
X121258740Y-114732909D01*
X121370113Y-114173000D01*
X121258740Y-113613091D01*
X120941577Y-113138423D01*
X120589242Y-112903000D01*
X120941577Y-112667577D01*
X121258740Y-112192909D01*
X121370113Y-111633000D01*
X121258740Y-111073091D01*
X120941577Y-110598423D01*
X120589242Y-110363000D01*
X120941577Y-110127577D01*
X121258740Y-109652909D01*
X121370113Y-109093000D01*
X121258740Y-108533091D01*
X120941577Y-108058423D01*
X120820894Y-107977785D01*
X120954765Y-107951157D01*
X121164809Y-107810809D01*
X121305157Y-107600765D01*
X121354440Y-107353000D01*
X121354440Y-106553000D01*
X125263887Y-106553000D01*
X125375260Y-107112909D01*
X125692423Y-107587577D01*
X126044758Y-107823000D01*
X125692423Y-108058423D01*
X125375260Y-108533091D01*
X125263887Y-109093000D01*
X125375260Y-109652909D01*
X125692423Y-110127577D01*
X126044758Y-110363000D01*
X125692423Y-110598423D01*
X125375260Y-111073091D01*
X125263887Y-111633000D01*
X125375260Y-112192909D01*
X125692423Y-112667577D01*
X126044758Y-112903000D01*
X125692423Y-113138423D01*
X125375260Y-113613091D01*
X125263887Y-114173000D01*
X125375260Y-114732909D01*
X125692423Y-115207577D01*
X126044758Y-115443000D01*
X125692423Y-115678423D01*
X125375260Y-116153091D01*
X125263887Y-116713000D01*
X125375260Y-117272909D01*
X125692423Y-117747577D01*
X126044758Y-117983000D01*
X125692423Y-118218423D01*
X125375260Y-118693091D01*
X125263887Y-119253000D01*
X125375260Y-119812909D01*
X125692423Y-120287577D01*
X126044758Y-120523000D01*
X125692423Y-120758423D01*
X125375260Y-121233091D01*
X125263887Y-121793000D01*
X125375260Y-122352909D01*
X125692423Y-122827577D01*
X126044758Y-123063000D01*
X125692423Y-123298423D01*
X125375260Y-123773091D01*
X125263887Y-124333000D01*
X125375260Y-124892909D01*
X125692423Y-125367577D01*
X126167091Y-125684740D01*
X126585667Y-125768000D01*
X127668333Y-125768000D01*
X128086909Y-125684740D01*
X128561577Y-125367577D01*
X128878740Y-124892909D01*
X128990113Y-124333000D01*
X128878740Y-123773091D01*
X128561577Y-123298423D01*
X128209242Y-123063000D01*
X128561577Y-122827577D01*
X128878740Y-122352909D01*
X128990113Y-121793000D01*
X128878740Y-121233091D01*
X128561577Y-120758423D01*
X128267541Y-120561954D01*
X131620000Y-120561954D01*
X131620000Y-122008046D01*
X132173396Y-123344062D01*
X133195938Y-124366604D01*
X134531954Y-124920000D01*
X135978046Y-124920000D01*
X137314062Y-124366604D01*
X138336604Y-123344062D01*
X138731789Y-122390000D01*
X142697560Y-122390000D01*
X142697560Y-123990000D01*
X142746843Y-124237765D01*
X142887191Y-124447809D01*
X143097235Y-124588157D01*
X143345000Y-124637440D01*
X144945000Y-124637440D01*
X145192765Y-124588157D01*
X145402809Y-124447809D01*
X145543157Y-124237765D01*
X145592440Y-123990000D01*
X145592440Y-122390000D01*
X145543157Y-122142235D01*
X145402809Y-121932191D01*
X145192765Y-121791843D01*
X144945000Y-121742560D01*
X143345000Y-121742560D01*
X143097235Y-121791843D01*
X142887191Y-121932191D01*
X142746843Y-122142235D01*
X142697560Y-122390000D01*
X138731789Y-122390000D01*
X138890000Y-122008046D01*
X138890000Y-120832778D01*
X146955000Y-120832778D01*
X146955000Y-121483222D01*
X147203914Y-122084153D01*
X147663847Y-122544086D01*
X148264778Y-122793000D01*
X148915222Y-122793000D01*
X149516153Y-122544086D01*
X149749707Y-122310532D01*
X155117073Y-122310532D01*
X155215736Y-122577387D01*
X155825461Y-122803908D01*
X156475460Y-122779856D01*
X156964264Y-122577387D01*
X157062927Y-122310532D01*
X156090000Y-121337605D01*
X155117073Y-122310532D01*
X149749707Y-122310532D01*
X149976086Y-122084153D01*
X150225000Y-121483222D01*
X150225000Y-120893461D01*
X154444092Y-120893461D01*
X154468144Y-121543460D01*
X154670613Y-122032264D01*
X154937468Y-122130927D01*
X155910395Y-121158000D01*
X156269605Y-121158000D01*
X157242532Y-122130927D01*
X157509387Y-122032264D01*
X157735908Y-121422539D01*
X157711856Y-120772540D01*
X157509387Y-120283736D01*
X157242532Y-120185073D01*
X156269605Y-121158000D01*
X155910395Y-121158000D01*
X154937468Y-120185073D01*
X154670613Y-120283736D01*
X154444092Y-120893461D01*
X150225000Y-120893461D01*
X150225000Y-120832778D01*
X149976086Y-120231847D01*
X149749707Y-120005468D01*
X155117073Y-120005468D01*
X156090000Y-120978395D01*
X157062927Y-120005468D01*
X156964264Y-119738613D01*
X156354539Y-119512092D01*
X155704540Y-119536144D01*
X155215736Y-119738613D01*
X155117073Y-120005468D01*
X149749707Y-120005468D01*
X149516153Y-119771914D01*
X148915222Y-119523000D01*
X148264778Y-119523000D01*
X147663847Y-119771914D01*
X147203914Y-120231847D01*
X146955000Y-120832778D01*
X138890000Y-120832778D01*
X138890000Y-120561954D01*
X138336604Y-119225938D01*
X137314062Y-118203396D01*
X135978046Y-117650000D01*
X134531954Y-117650000D01*
X133195938Y-118203396D01*
X132173396Y-119225938D01*
X131620000Y-120561954D01*
X128267541Y-120561954D01*
X128209242Y-120523000D01*
X128561577Y-120287577D01*
X128878740Y-119812909D01*
X128990113Y-119253000D01*
X128878740Y-118693091D01*
X128561577Y-118218423D01*
X128209242Y-117983000D01*
X128561577Y-117747577D01*
X128878740Y-117272909D01*
X128990113Y-116713000D01*
X128878740Y-116153091D01*
X128561577Y-115678423D01*
X128209242Y-115443000D01*
X128561577Y-115207577D01*
X128878740Y-114732909D01*
X128990113Y-114173000D01*
X128878740Y-113613091D01*
X128561577Y-113138423D01*
X128209242Y-112903000D01*
X128561577Y-112667577D01*
X128878740Y-112192909D01*
X128895422Y-112109039D01*
X129418096Y-112109039D01*
X129578959Y-112497423D01*
X129954866Y-112912389D01*
X130460959Y-113151914D01*
X130683000Y-113030629D01*
X130683000Y-111887000D01*
X130937000Y-111887000D01*
X130937000Y-113030629D01*
X131159041Y-113151914D01*
X131665134Y-112912389D01*
X132041041Y-112497423D01*
X132201904Y-112109039D01*
X132079915Y-111887000D01*
X130937000Y-111887000D01*
X130683000Y-111887000D01*
X129540085Y-111887000D01*
X129418096Y-112109039D01*
X128895422Y-112109039D01*
X128990113Y-111633000D01*
X128878740Y-111073091D01*
X128561577Y-110598423D01*
X128209242Y-110363000D01*
X128561577Y-110127577D01*
X128705515Y-109912159D01*
X128928512Y-110135156D01*
X129325274Y-110299500D01*
X129362264Y-110299500D01*
X129611471Y-110548706D01*
X129661067Y-110622933D01*
X129835441Y-110739445D01*
X129578959Y-111022577D01*
X129418096Y-111410961D01*
X129540085Y-111633000D01*
X130683000Y-111633000D01*
X130683000Y-111613000D01*
X130937000Y-111613000D01*
X130937000Y-111633000D01*
X132079915Y-111633000D01*
X132166961Y-111474561D01*
X139535000Y-111474561D01*
X139535000Y-112045439D01*
X139753466Y-112572862D01*
X140157138Y-112976534D01*
X140684561Y-113195000D01*
X141255439Y-113195000D01*
X141653783Y-113030000D01*
X142681887Y-113030000D01*
X142793260Y-113589909D01*
X143110423Y-114064577D01*
X143585091Y-114381740D01*
X144003667Y-114465000D01*
X144286333Y-114465000D01*
X144704909Y-114381740D01*
X145179577Y-114064577D01*
X145496740Y-113589909D01*
X145608113Y-113030000D01*
X145496740Y-112470091D01*
X145179577Y-111995423D01*
X144704909Y-111678260D01*
X144286333Y-111595000D01*
X144003667Y-111595000D01*
X143585091Y-111678260D01*
X143110423Y-111995423D01*
X142793260Y-112470091D01*
X142681887Y-113030000D01*
X141653783Y-113030000D01*
X141782862Y-112976534D01*
X142186534Y-112572862D01*
X142405000Y-112045439D01*
X142405000Y-111474561D01*
X142186534Y-110947138D01*
X141782862Y-110543466D01*
X141255439Y-110325000D01*
X140684561Y-110325000D01*
X140157138Y-110543466D01*
X139753466Y-110947138D01*
X139535000Y-111474561D01*
X132166961Y-111474561D01*
X132201904Y-111410961D01*
X132041041Y-111022577D01*
X131903731Y-110871000D01*
X131950356Y-110871000D01*
X131976512Y-110897156D01*
X132373274Y-111061500D01*
X132802726Y-111061500D01*
X133199488Y-110897156D01*
X133503156Y-110593488D01*
X133667500Y-110196726D01*
X133667500Y-109767274D01*
X133503156Y-109370512D01*
X133199488Y-109066844D01*
X132802726Y-108902500D01*
X132373274Y-108902500D01*
X131976512Y-109066844D01*
X131950356Y-109093000D01*
X130670236Y-109093000D01*
X130619500Y-109042264D01*
X130619500Y-109005274D01*
X130455156Y-108608512D01*
X130151488Y-108304844D01*
X130138734Y-108299561D01*
X133820000Y-108299561D01*
X133820000Y-108870439D01*
X134038466Y-109397862D01*
X134442138Y-109801534D01*
X134969561Y-110020000D01*
X135540439Y-110020000D01*
X136067862Y-109801534D01*
X136471534Y-109397862D01*
X136690000Y-108870439D01*
X136690000Y-108299561D01*
X138900000Y-108299561D01*
X138900000Y-108870439D01*
X139118466Y-109397862D01*
X139522138Y-109801534D01*
X140049561Y-110020000D01*
X140620439Y-110020000D01*
X141147862Y-109801534D01*
X141379835Y-109569561D01*
X143345000Y-109569561D01*
X143345000Y-110140439D01*
X143563466Y-110667862D01*
X143967138Y-111071534D01*
X144494561Y-111290000D01*
X145065439Y-111290000D01*
X145592862Y-111071534D01*
X145996534Y-110667862D01*
X146215000Y-110140439D01*
X146215000Y-109855000D01*
X146726887Y-109855000D01*
X146838260Y-110414909D01*
X147155423Y-110889577D01*
X147507758Y-111125000D01*
X147155423Y-111360423D01*
X146838260Y-111835091D01*
X146726887Y-112395000D01*
X146838260Y-112954909D01*
X147155423Y-113429577D01*
X147507758Y-113665000D01*
X147155423Y-113900423D01*
X146838260Y-114375091D01*
X146726887Y-114935000D01*
X146838260Y-115494909D01*
X147155423Y-115969577D01*
X147630091Y-116286740D01*
X148048667Y-116370000D01*
X149131333Y-116370000D01*
X149549909Y-116286740D01*
X150024577Y-115969577D01*
X150341740Y-115494909D01*
X150453113Y-114935000D01*
X150341740Y-114375091D01*
X150024577Y-113900423D01*
X149672242Y-113665000D01*
X150024577Y-113429577D01*
X150341740Y-112954909D01*
X150453113Y-112395000D01*
X150341740Y-111835091D01*
X150024577Y-111360423D01*
X149672242Y-111125000D01*
X150024577Y-110889577D01*
X150341740Y-110414909D01*
X150453113Y-109855000D01*
X150341740Y-109295091D01*
X150024577Y-108820423D01*
X149668501Y-108582501D01*
X150094500Y-108239896D01*
X150364367Y-107746819D01*
X150381904Y-107664039D01*
X150259915Y-107442000D01*
X148717000Y-107442000D01*
X148717000Y-107462000D01*
X148463000Y-107462000D01*
X148463000Y-107442000D01*
X146920085Y-107442000D01*
X146798096Y-107664039D01*
X146815633Y-107746819D01*
X147085500Y-108239896D01*
X147511499Y-108582501D01*
X147155423Y-108820423D01*
X146838260Y-109295091D01*
X146726887Y-109855000D01*
X146215000Y-109855000D01*
X146215000Y-109569561D01*
X145996534Y-109042138D01*
X145592862Y-108638466D01*
X145065439Y-108420000D01*
X144494561Y-108420000D01*
X143967138Y-108638466D01*
X143563466Y-109042138D01*
X143345000Y-109569561D01*
X141379835Y-109569561D01*
X141551534Y-109397862D01*
X141770000Y-108870439D01*
X141770000Y-108299561D01*
X141551534Y-107772138D01*
X141147862Y-107368466D01*
X140620439Y-107150000D01*
X140049561Y-107150000D01*
X139522138Y-107368466D01*
X139118466Y-107772138D01*
X138900000Y-108299561D01*
X136690000Y-108299561D01*
X136471534Y-107772138D01*
X136067862Y-107368466D01*
X135540439Y-107150000D01*
X134969561Y-107150000D01*
X134442138Y-107368466D01*
X134038466Y-107772138D01*
X133820000Y-108299561D01*
X130138734Y-108299561D01*
X129754726Y-108140500D01*
X129325274Y-108140500D01*
X128928512Y-108304844D01*
X128807253Y-108426103D01*
X128561577Y-108058423D01*
X128209242Y-107823000D01*
X128561577Y-107587577D01*
X128878740Y-107112909D01*
X128990113Y-106553000D01*
X128878740Y-105993091D01*
X128561577Y-105518423D01*
X128086909Y-105201260D01*
X127668333Y-105118000D01*
X126585667Y-105118000D01*
X126167091Y-105201260D01*
X125692423Y-105518423D01*
X125375260Y-105993091D01*
X125263887Y-106553000D01*
X121354440Y-106553000D01*
X121354440Y-105753000D01*
X121305157Y-105505235D01*
X121164809Y-105295191D01*
X120954765Y-105154843D01*
X120707000Y-105105560D01*
X118307000Y-105105560D01*
X118059235Y-105154843D01*
X117849191Y-105295191D01*
X117708843Y-105505235D01*
X117659560Y-105753000D01*
X117659560Y-107353000D01*
X117708843Y-107600765D01*
X117849191Y-107810809D01*
X118059235Y-107951157D01*
X118193106Y-107977785D01*
X118072423Y-108058423D01*
X117755260Y-108533091D01*
X117643887Y-109093000D01*
X114537310Y-109093000D01*
X114699577Y-108984577D01*
X115016740Y-108509909D01*
X115128113Y-107950000D01*
X115016740Y-107390091D01*
X114699577Y-106915423D01*
X114347242Y-106680000D01*
X114699577Y-106444577D01*
X115016740Y-105969909D01*
X115128113Y-105410000D01*
X115016740Y-104850091D01*
X114706474Y-104385745D01*
X121091861Y-104385745D01*
X121165995Y-104631864D01*
X121703223Y-104824965D01*
X122273454Y-104797778D01*
X122674005Y-104631864D01*
X122748139Y-104385745D01*
X121920000Y-103557605D01*
X121091861Y-104385745D01*
X114706474Y-104385745D01*
X114699577Y-104375423D01*
X114347242Y-104140000D01*
X114699577Y-103904577D01*
X115016740Y-103429909D01*
X115070185Y-103161223D01*
X120473035Y-103161223D01*
X120500222Y-103731454D01*
X120666136Y-104132005D01*
X120912255Y-104206139D01*
X121740395Y-103378000D01*
X122099605Y-103378000D01*
X122927745Y-104206139D01*
X123173864Y-104132005D01*
X123176290Y-104125254D01*
X123203466Y-104190862D01*
X123607138Y-104594534D01*
X124134561Y-104813000D01*
X124705439Y-104813000D01*
X125232862Y-104594534D01*
X125636534Y-104190862D01*
X125855000Y-103663439D01*
X125855000Y-103092561D01*
X125636534Y-102565138D01*
X125232862Y-102161466D01*
X124705439Y-101943000D01*
X124134561Y-101943000D01*
X123607138Y-102161466D01*
X123203466Y-102565138D01*
X123176475Y-102630299D01*
X123173864Y-102623995D01*
X122927745Y-102549861D01*
X122099605Y-103378000D01*
X121740395Y-103378000D01*
X120912255Y-102549861D01*
X120666136Y-102623995D01*
X120473035Y-103161223D01*
X115070185Y-103161223D01*
X115128113Y-102870000D01*
X115028708Y-102370255D01*
X121091861Y-102370255D01*
X121920000Y-103198395D01*
X122748139Y-102370255D01*
X122674005Y-102124136D01*
X122136777Y-101931035D01*
X121566546Y-101958222D01*
X121165995Y-102124136D01*
X121091861Y-102370255D01*
X115028708Y-102370255D01*
X115016740Y-102310091D01*
X114699577Y-101835423D01*
X114347242Y-101600000D01*
X114699577Y-101364577D01*
X115016740Y-100889909D01*
X115128113Y-100330000D01*
X115020812Y-99790561D01*
X118834000Y-99790561D01*
X118834000Y-100361439D01*
X119052466Y-100888862D01*
X119456138Y-101292534D01*
X119983561Y-101511000D01*
X120554439Y-101511000D01*
X121081862Y-101292534D01*
X121485534Y-100888862D01*
X121704000Y-100361439D01*
X121704000Y-100076000D01*
X128965887Y-100076000D01*
X129077260Y-100635909D01*
X129394423Y-101110577D01*
X129869091Y-101427740D01*
X130287667Y-101511000D01*
X130570333Y-101511000D01*
X130988909Y-101427740D01*
X131463577Y-101110577D01*
X131780740Y-100635909D01*
X131892113Y-100076000D01*
X131780740Y-99516091D01*
X131463577Y-99041423D01*
X130988909Y-98724260D01*
X130570333Y-98641000D01*
X130287667Y-98641000D01*
X129869091Y-98724260D01*
X129394423Y-99041423D01*
X129077260Y-99516091D01*
X128965887Y-100076000D01*
X121704000Y-100076000D01*
X121704000Y-99790561D01*
X121485534Y-99263138D01*
X121081862Y-98859466D01*
X120554439Y-98641000D01*
X119983561Y-98641000D01*
X119456138Y-98859466D01*
X119052466Y-99263138D01*
X118834000Y-99790561D01*
X115020812Y-99790561D01*
X115016740Y-99770091D01*
X114699577Y-99295423D01*
X114347242Y-99060000D01*
X114699577Y-98824577D01*
X114966565Y-98425000D01*
X133791887Y-98425000D01*
X133903260Y-98984909D01*
X134220423Y-99459577D01*
X134695091Y-99776740D01*
X135113667Y-99860000D01*
X135396333Y-99860000D01*
X135814909Y-99776740D01*
X136289577Y-99459577D01*
X136606740Y-98984909D01*
X136718113Y-98425000D01*
X138871887Y-98425000D01*
X138983260Y-98984909D01*
X139300423Y-99459577D01*
X139775091Y-99776740D01*
X140193667Y-99860000D01*
X140476333Y-99860000D01*
X140894909Y-99776740D01*
X141017241Y-99695000D01*
X143316887Y-99695000D01*
X143428260Y-100254909D01*
X143745423Y-100729577D01*
X144220091Y-101046740D01*
X144638667Y-101130000D01*
X144921333Y-101130000D01*
X145339909Y-101046740D01*
X145814577Y-100729577D01*
X146131740Y-100254909D01*
X146243113Y-99695000D01*
X146131740Y-99135091D01*
X145814577Y-98660423D01*
X145339909Y-98343260D01*
X144921333Y-98260000D01*
X144638667Y-98260000D01*
X144220091Y-98343260D01*
X143745423Y-98660423D01*
X143428260Y-99135091D01*
X143316887Y-99695000D01*
X141017241Y-99695000D01*
X141369577Y-99459577D01*
X141686740Y-98984909D01*
X141798113Y-98425000D01*
X141686740Y-97865091D01*
X141369577Y-97390423D01*
X140894909Y-97073260D01*
X140476333Y-96990000D01*
X140193667Y-96990000D01*
X139775091Y-97073260D01*
X139300423Y-97390423D01*
X138983260Y-97865091D01*
X138871887Y-98425000D01*
X136718113Y-98425000D01*
X136606740Y-97865091D01*
X136289577Y-97390423D01*
X135814909Y-97073260D01*
X135396333Y-96990000D01*
X135113667Y-96990000D01*
X134695091Y-97073260D01*
X134220423Y-97390423D01*
X133903260Y-97865091D01*
X133791887Y-98425000D01*
X114966565Y-98425000D01*
X115016740Y-98349909D01*
X115128113Y-97790000D01*
X115016740Y-97230091D01*
X114699577Y-96755423D01*
X114347242Y-96520000D01*
X114699577Y-96284577D01*
X115016740Y-95809909D01*
X115128113Y-95250000D01*
X115121860Y-95218561D01*
X116929000Y-95218561D01*
X116929000Y-95789439D01*
X117147466Y-96316862D01*
X117551138Y-96720534D01*
X118078561Y-96939000D01*
X118649439Y-96939000D01*
X119176862Y-96720534D01*
X119580534Y-96316862D01*
X119799000Y-95789439D01*
X119799000Y-95504000D01*
X127060887Y-95504000D01*
X127172260Y-96063909D01*
X127489423Y-96538577D01*
X127964091Y-96855740D01*
X128382667Y-96939000D01*
X128665333Y-96939000D01*
X129083909Y-96855740D01*
X129558577Y-96538577D01*
X129875740Y-96063909D01*
X129987113Y-95504000D01*
X129942905Y-95281750D01*
X132677000Y-95281750D01*
X132677000Y-96322309D01*
X132773673Y-96555698D01*
X132952301Y-96734327D01*
X133185690Y-96831000D01*
X133826250Y-96831000D01*
X133985000Y-96672250D01*
X133985000Y-95123000D01*
X132835750Y-95123000D01*
X132677000Y-95281750D01*
X129942905Y-95281750D01*
X129875740Y-94944091D01*
X129558577Y-94469423D01*
X129083909Y-94152260D01*
X128665333Y-94069000D01*
X128382667Y-94069000D01*
X127964091Y-94152260D01*
X127489423Y-94469423D01*
X127172260Y-94944091D01*
X127060887Y-95504000D01*
X119799000Y-95504000D01*
X119799000Y-95218561D01*
X119580534Y-94691138D01*
X119176862Y-94287466D01*
X118649439Y-94069000D01*
X118078561Y-94069000D01*
X117551138Y-94287466D01*
X117147466Y-94691138D01*
X116929000Y-95218561D01*
X115121860Y-95218561D01*
X115016740Y-94690091D01*
X114699577Y-94215423D01*
X114224909Y-93898260D01*
X113806333Y-93815000D01*
X113523667Y-93815000D01*
X113105091Y-93898260D01*
X112630423Y-94215423D01*
X112313260Y-94690091D01*
X112201887Y-95250000D01*
X99888113Y-95250000D01*
X99776740Y-94690091D01*
X99459577Y-94215423D01*
X98984909Y-93898260D01*
X98566333Y-93815000D01*
X98283667Y-93815000D01*
X97865091Y-93898260D01*
X97390423Y-94215423D01*
X97073260Y-94690091D01*
X96961887Y-95250000D01*
X95082233Y-95250000D01*
X95363810Y-94654656D01*
X96101589Y-93423745D01*
X130235861Y-93423745D01*
X130309995Y-93669864D01*
X130847223Y-93862965D01*
X131417454Y-93835778D01*
X131818005Y-93669864D01*
X131818057Y-93669691D01*
X132677000Y-93669691D01*
X132677000Y-94710250D01*
X132835750Y-94869000D01*
X133985000Y-94869000D01*
X133985000Y-93319750D01*
X134239000Y-93319750D01*
X134239000Y-94869000D01*
X134259000Y-94869000D01*
X134259000Y-95123000D01*
X134239000Y-95123000D01*
X134239000Y-96672250D01*
X134397750Y-96831000D01*
X135038310Y-96831000D01*
X135271699Y-96734327D01*
X135450327Y-96555698D01*
X135546266Y-96324082D01*
X135617424Y-96430577D01*
X136092092Y-96747740D01*
X136652000Y-96859113D01*
X137211909Y-96747740D01*
X137686577Y-96430577D01*
X137922000Y-96078241D01*
X138157424Y-96430577D01*
X138632092Y-96747740D01*
X139192000Y-96859113D01*
X139751909Y-96747740D01*
X140226577Y-96430577D01*
X140462000Y-96078241D01*
X140697424Y-96430577D01*
X141172092Y-96747740D01*
X141732000Y-96859113D01*
X142291909Y-96747740D01*
X142766577Y-96430577D01*
X143002000Y-96078241D01*
X143237424Y-96430577D01*
X143712092Y-96747740D01*
X144272000Y-96859113D01*
X144831909Y-96747740D01*
X145306577Y-96430577D01*
X145544499Y-96074501D01*
X145887104Y-96500500D01*
X146380181Y-96770367D01*
X146462961Y-96787904D01*
X146685000Y-96665915D01*
X146685000Y-95123000D01*
X146665000Y-95123000D01*
X146665000Y-94869000D01*
X146685000Y-94869000D01*
X146685000Y-93326085D01*
X146939000Y-93326085D01*
X146939000Y-94869000D01*
X146959000Y-94869000D01*
X146959000Y-95123000D01*
X146939000Y-95123000D01*
X146939000Y-96665915D01*
X147161039Y-96787904D01*
X147243819Y-96770367D01*
X147736896Y-96500500D01*
X148079501Y-96074501D01*
X148317424Y-96430577D01*
X148792092Y-96747740D01*
X149352000Y-96859113D01*
X149911909Y-96747740D01*
X150386577Y-96430577D01*
X150624499Y-96074501D01*
X150967104Y-96500500D01*
X151460181Y-96770367D01*
X151542961Y-96787904D01*
X151765000Y-96665915D01*
X151765000Y-95123000D01*
X152019000Y-95123000D01*
X152019000Y-96665915D01*
X152241039Y-96787904D01*
X152323819Y-96770367D01*
X152816896Y-96500500D01*
X153169166Y-96062483D01*
X153327000Y-95523000D01*
X153327000Y-95123000D01*
X152019000Y-95123000D01*
X151765000Y-95123000D01*
X151745000Y-95123000D01*
X151745000Y-94869000D01*
X151765000Y-94869000D01*
X151765000Y-93326085D01*
X152019000Y-93326085D01*
X152019000Y-94869000D01*
X153327000Y-94869000D01*
X153327000Y-94469000D01*
X153169166Y-93929517D01*
X152816896Y-93491500D01*
X152323819Y-93221633D01*
X152241039Y-93204096D01*
X152019000Y-93326085D01*
X151765000Y-93326085D01*
X151542961Y-93204096D01*
X151460181Y-93221633D01*
X150967104Y-93491500D01*
X150624499Y-93917499D01*
X150386576Y-93561423D01*
X149911908Y-93244260D01*
X149352000Y-93132887D01*
X148792091Y-93244260D01*
X148317423Y-93561424D01*
X148079501Y-93917499D01*
X147736896Y-93491500D01*
X147243819Y-93221633D01*
X147161039Y-93204096D01*
X146939000Y-93326085D01*
X146685000Y-93326085D01*
X146462961Y-93204096D01*
X146380181Y-93221633D01*
X145887104Y-93491500D01*
X145544499Y-93917499D01*
X145306576Y-93561423D01*
X144831908Y-93244260D01*
X144302582Y-93138970D01*
X144960152Y-92481400D01*
X150390756Y-92481400D01*
X150518512Y-92609156D01*
X150915274Y-92773500D01*
X151344726Y-92773500D01*
X151741488Y-92609156D01*
X152045156Y-92305488D01*
X152209500Y-91908726D01*
X152209500Y-91479274D01*
X152045156Y-91082512D01*
X151741488Y-90778844D01*
X151344726Y-90614500D01*
X150915274Y-90614500D01*
X150518512Y-90778844D01*
X150390756Y-90906600D01*
X144711551Y-90906600D01*
X144634000Y-90891174D01*
X144556449Y-90906600D01*
X144556448Y-90906600D01*
X144326772Y-90952285D01*
X144066316Y-91126316D01*
X144022386Y-91192062D01*
X142023566Y-93190883D01*
X141732000Y-93132887D01*
X141172091Y-93244260D01*
X140697423Y-93561424D01*
X140462000Y-93913759D01*
X140226576Y-93561423D01*
X139751908Y-93244260D01*
X139192000Y-93132887D01*
X138632091Y-93244260D01*
X138157423Y-93561424D01*
X137922000Y-93913759D01*
X137686576Y-93561423D01*
X137211908Y-93244260D01*
X136652000Y-93132887D01*
X136092091Y-93244260D01*
X135617423Y-93561424D01*
X135546266Y-93667918D01*
X135450327Y-93436302D01*
X135271699Y-93257673D01*
X135038310Y-93161000D01*
X134397750Y-93161000D01*
X134239000Y-93319750D01*
X133985000Y-93319750D01*
X133826250Y-93161000D01*
X133185690Y-93161000D01*
X132952301Y-93257673D01*
X132773673Y-93436302D01*
X132677000Y-93669691D01*
X131818057Y-93669691D01*
X131892139Y-93423745D01*
X131064000Y-92595605D01*
X130235861Y-93423745D01*
X96101589Y-93423745D01*
X96835539Y-92199223D01*
X129617035Y-92199223D01*
X129644222Y-92769454D01*
X129810136Y-93170005D01*
X130056255Y-93244139D01*
X130884395Y-92416000D01*
X131243605Y-92416000D01*
X132071745Y-93244139D01*
X132317864Y-93170005D01*
X132510965Y-92632777D01*
X132483778Y-92062546D01*
X132317864Y-91661995D01*
X132071745Y-91587861D01*
X131243605Y-92416000D01*
X130884395Y-92416000D01*
X130056255Y-91587861D01*
X129810136Y-91661995D01*
X129617035Y-92199223D01*
X96835539Y-92199223D01*
X97173656Y-91635110D01*
X98660331Y-89630561D01*
X116421000Y-89630561D01*
X116421000Y-90201439D01*
X116639466Y-90728862D01*
X117043138Y-91132534D01*
X117570561Y-91351000D01*
X118141439Y-91351000D01*
X118668862Y-91132534D01*
X119072534Y-90728862D01*
X119291000Y-90201439D01*
X119291000Y-89916000D01*
X126552887Y-89916000D01*
X126664260Y-90475909D01*
X126981423Y-90950577D01*
X127456091Y-91267740D01*
X127874667Y-91351000D01*
X128157333Y-91351000D01*
X128575909Y-91267740D01*
X129050577Y-90950577D01*
X129367740Y-90475909D01*
X129479113Y-89916000D01*
X129422336Y-89630561D01*
X129629000Y-89630561D01*
X129629000Y-90201439D01*
X129847466Y-90728862D01*
X130251138Y-91132534D01*
X130316299Y-91159525D01*
X130309995Y-91162136D01*
X130235861Y-91408255D01*
X131064000Y-92236395D01*
X131892139Y-91408255D01*
X131818005Y-91162136D01*
X131811254Y-91159710D01*
X131876862Y-91132534D01*
X132280534Y-90728862D01*
X132499000Y-90201439D01*
X132499000Y-89630561D01*
X132280534Y-89103138D01*
X131876862Y-88699466D01*
X131349439Y-88481000D01*
X130778561Y-88481000D01*
X130251138Y-88699466D01*
X129847466Y-89103138D01*
X129629000Y-89630561D01*
X129422336Y-89630561D01*
X129367740Y-89356091D01*
X129050577Y-88881423D01*
X128575909Y-88564260D01*
X128157333Y-88481000D01*
X127874667Y-88481000D01*
X127456091Y-88564260D01*
X126981423Y-88881423D01*
X126664260Y-89356091D01*
X126552887Y-89916000D01*
X119291000Y-89916000D01*
X119291000Y-89630561D01*
X119072534Y-89103138D01*
X118668862Y-88699466D01*
X118141439Y-88481000D01*
X117570561Y-88481000D01*
X117043138Y-88699466D01*
X116639466Y-89103138D01*
X116421000Y-89630561D01*
X98660331Y-89630561D01*
X99270748Y-88807510D01*
X101058827Y-86834668D01*
X132677000Y-86834668D01*
X132677000Y-87917333D01*
X132760260Y-88335909D01*
X133077424Y-88810577D01*
X133552092Y-89127740D01*
X134112000Y-89239113D01*
X134671909Y-89127740D01*
X135146577Y-88810577D01*
X135382000Y-88458241D01*
X135617424Y-88810577D01*
X136092092Y-89127740D01*
X136652000Y-89239113D01*
X137211909Y-89127740D01*
X137686577Y-88810577D01*
X137922000Y-88458241D01*
X138157424Y-88810577D01*
X138632092Y-89127740D01*
X139192000Y-89239113D01*
X139751909Y-89127740D01*
X140226577Y-88810577D01*
X140462000Y-88458241D01*
X140697424Y-88810577D01*
X141172092Y-89127740D01*
X141732000Y-89239113D01*
X142291909Y-89127740D01*
X142766577Y-88810577D01*
X143004499Y-88454501D01*
X143347104Y-88880500D01*
X143840181Y-89150367D01*
X143922961Y-89167904D01*
X144145000Y-89045915D01*
X144145000Y-87503000D01*
X144125000Y-87503000D01*
X144125000Y-87249000D01*
X144145000Y-87249000D01*
X144145000Y-85706085D01*
X143922961Y-85584096D01*
X143840181Y-85601633D01*
X143347104Y-85871500D01*
X143004499Y-86297499D01*
X142766576Y-85941423D01*
X142291908Y-85624260D01*
X141732000Y-85512887D01*
X141172091Y-85624260D01*
X140697423Y-85941424D01*
X140462000Y-86293759D01*
X140226576Y-85941423D01*
X139751908Y-85624260D01*
X139192000Y-85512887D01*
X138632091Y-85624260D01*
X138157423Y-85941424D01*
X137922000Y-86293759D01*
X137686576Y-85941423D01*
X137211908Y-85624260D01*
X136652000Y-85512887D01*
X136092091Y-85624260D01*
X135617423Y-85941424D01*
X135382000Y-86293759D01*
X135146576Y-85941423D01*
X134671908Y-85624260D01*
X134112000Y-85512887D01*
X133552091Y-85624260D01*
X133077423Y-85941424D01*
X132760260Y-86416092D01*
X132677000Y-86834668D01*
X101058827Y-86834668D01*
X101634902Y-86199067D01*
X104243345Y-83834913D01*
X106950763Y-81826954D01*
X110665000Y-81826954D01*
X110665000Y-83273046D01*
X111218396Y-84609062D01*
X112240938Y-85631604D01*
X113576954Y-86185000D01*
X115023046Y-86185000D01*
X116359062Y-85631604D01*
X117381604Y-84609062D01*
X117935000Y-83273046D01*
X117935000Y-81826954D01*
X117671975Y-81191954D01*
X124000000Y-81191954D01*
X124000000Y-82638046D01*
X124553396Y-83974062D01*
X125575938Y-84996604D01*
X126911954Y-85550000D01*
X128358046Y-85550000D01*
X129694062Y-84996604D01*
X130716604Y-83974062D01*
X131270000Y-82638046D01*
X131270000Y-82478778D01*
X135010000Y-82478778D01*
X135010000Y-83129222D01*
X135258914Y-83730153D01*
X135718847Y-84190086D01*
X136319778Y-84439000D01*
X136970222Y-84439000D01*
X137571153Y-84190086D01*
X138031086Y-83730153D01*
X138280000Y-83129222D01*
X138280000Y-82478778D01*
X142510000Y-82478778D01*
X142510000Y-83129222D01*
X142758914Y-83730153D01*
X143218847Y-84190086D01*
X143819778Y-84439000D01*
X144470222Y-84439000D01*
X145071153Y-84190086D01*
X145531086Y-83730153D01*
X145780000Y-83129222D01*
X145780000Y-82478778D01*
X145531086Y-81877847D01*
X145071153Y-81417914D01*
X144470222Y-81169000D01*
X143819778Y-81169000D01*
X143218847Y-81417914D01*
X142758914Y-81877847D01*
X142510000Y-82478778D01*
X138280000Y-82478778D01*
X138031086Y-81877847D01*
X137571153Y-81417914D01*
X136970222Y-81169000D01*
X136319778Y-81169000D01*
X135718847Y-81417914D01*
X135258914Y-81877847D01*
X135010000Y-82478778D01*
X131270000Y-82478778D01*
X131270000Y-81191954D01*
X130716604Y-79855938D01*
X129694062Y-78833396D01*
X128358046Y-78280000D01*
X126911954Y-78280000D01*
X125575938Y-78833396D01*
X124553396Y-79855938D01*
X124000000Y-81191954D01*
X117671975Y-81191954D01*
X117381604Y-80490938D01*
X116359062Y-79468396D01*
X115023046Y-78915000D01*
X113576954Y-78915000D01*
X112240938Y-79468396D01*
X111218396Y-80490938D01*
X110665000Y-81826954D01*
X106950763Y-81826954D01*
X107070945Y-81737821D01*
X110090491Y-79927975D01*
X113272897Y-78422809D01*
X116587498Y-77236826D01*
X120002393Y-76381439D01*
X123484677Y-75864891D01*
X127000835Y-75692153D01*
X130516993Y-75864891D01*
M02*
