G04 #@! TF.GenerationSoftware,KiCad,Pcbnew,(5.0.0-rc2-dev-179-gab3780148)*
G04 #@! TF.CreationDate,2018-03-20T14:47:54-05:00*
G04 #@! TF.ProjectId,conductivity_sensor,636F6E6475637469766974795F73656E,rev?*
G04 #@! TF.SameCoordinates,Original*
G04 #@! TF.FileFunction,Legend,Top*
G04 #@! TF.FilePolarity,Positive*
%FSLAX46Y46*%
G04 Gerber Fmt 4.6, Leading zero omitted, Abs format (unit mm)*
G04 Created by KiCad (PCBNEW (5.0.0-rc2-dev-179-gab3780148)) date 03/20/18 14:47:54*
%MOMM*%
%LPD*%
G01*
G04 APERTURE LIST*
%ADD10C,0.300000*%
%ADD11C,0.254000*%
%ADD12C,0.120000*%
%ADD13C,0.150000*%
G04 APERTURE END LIST*
D10*
X116900285Y-144125142D02*
X118043142Y-144125142D01*
X119686000Y-143696571D02*
X120257428Y-143696571D01*
X119900285Y-143196571D02*
X119900285Y-144482285D01*
X119971714Y-144625142D01*
X120114571Y-144696571D01*
X120257428Y-144696571D01*
X120614571Y-144696571D02*
X121400285Y-143696571D01*
X120614571Y-143696571D02*
X121400285Y-144696571D01*
X123114571Y-144696571D02*
X123114571Y-143696571D01*
X123114571Y-143982285D02*
X123186000Y-143839428D01*
X123257428Y-143768000D01*
X123400285Y-143696571D01*
X123543142Y-143696571D01*
X123900285Y-144696571D02*
X124686000Y-143696571D01*
X123900285Y-143696571D02*
X124686000Y-144696571D01*
X126400285Y-144125142D02*
X127543142Y-144125142D01*
X126971714Y-144696571D02*
X126971714Y-143553714D01*
X128971714Y-143196571D02*
X128257428Y-143196571D01*
X128186000Y-143910857D01*
X128257428Y-143839428D01*
X128400285Y-143768000D01*
X128757428Y-143768000D01*
X128900285Y-143839428D01*
X128971714Y-143910857D01*
X129043142Y-144053714D01*
X129043142Y-144410857D01*
X128971714Y-144553714D01*
X128900285Y-144625142D01*
X128757428Y-144696571D01*
X128400285Y-144696571D01*
X128257428Y-144625142D01*
X128186000Y-144553714D01*
D11*
X125584857Y-126903238D02*
X125488095Y-126951619D01*
X125294571Y-126951619D01*
X125197809Y-126903238D01*
X125149428Y-126854857D01*
X125101047Y-126758095D01*
X125101047Y-126467809D01*
X125149428Y-126371047D01*
X125197809Y-126322666D01*
X125294571Y-126274285D01*
X125488095Y-126274285D01*
X125584857Y-126322666D01*
X126165428Y-126951619D02*
X126068666Y-126903238D01*
X126020285Y-126854857D01*
X125971904Y-126758095D01*
X125971904Y-126467809D01*
X126020285Y-126371047D01*
X126068666Y-126322666D01*
X126165428Y-126274285D01*
X126310571Y-126274285D01*
X126407333Y-126322666D01*
X126455714Y-126371047D01*
X126504095Y-126467809D01*
X126504095Y-126758095D01*
X126455714Y-126854857D01*
X126407333Y-126903238D01*
X126310571Y-126951619D01*
X126165428Y-126951619D01*
X126939523Y-126274285D02*
X126939523Y-126951619D01*
X126939523Y-126371047D02*
X126987904Y-126322666D01*
X127084666Y-126274285D01*
X127229809Y-126274285D01*
X127326571Y-126322666D01*
X127374952Y-126419428D01*
X127374952Y-126951619D01*
X128294190Y-126951619D02*
X128294190Y-125935619D01*
X128294190Y-126903238D02*
X128197428Y-126951619D01*
X128003904Y-126951619D01*
X127907142Y-126903238D01*
X127858761Y-126854857D01*
X127810380Y-126758095D01*
X127810380Y-126467809D01*
X127858761Y-126371047D01*
X127907142Y-126322666D01*
X128003904Y-126274285D01*
X128197428Y-126274285D01*
X128294190Y-126322666D01*
X129213428Y-126274285D02*
X129213428Y-126951619D01*
X128778000Y-126274285D02*
X128778000Y-126806476D01*
X128826380Y-126903238D01*
X128923142Y-126951619D01*
X129068285Y-126951619D01*
X129165047Y-126903238D01*
X129213428Y-126854857D01*
X130132666Y-126903238D02*
X130035904Y-126951619D01*
X129842380Y-126951619D01*
X129745619Y-126903238D01*
X129697238Y-126854857D01*
X129648857Y-126758095D01*
X129648857Y-126467809D01*
X129697238Y-126371047D01*
X129745619Y-126322666D01*
X129842380Y-126274285D01*
X130035904Y-126274285D01*
X130132666Y-126322666D01*
X130422952Y-126274285D02*
X130810000Y-126274285D01*
X130568095Y-125935619D02*
X130568095Y-126806476D01*
X130616476Y-126903238D01*
X130713238Y-126951619D01*
X130810000Y-126951619D01*
X131148666Y-126951619D02*
X131148666Y-126274285D01*
X131148666Y-125935619D02*
X131100285Y-125984000D01*
X131148666Y-126032380D01*
X131197047Y-125984000D01*
X131148666Y-125935619D01*
X131148666Y-126032380D01*
X131535714Y-126274285D02*
X131777619Y-126951619D01*
X132019523Y-126274285D01*
X132406571Y-126951619D02*
X132406571Y-126274285D01*
X132406571Y-125935619D02*
X132358190Y-125984000D01*
X132406571Y-126032380D01*
X132454952Y-125984000D01*
X132406571Y-125935619D01*
X132406571Y-126032380D01*
X132745238Y-126274285D02*
X133132285Y-126274285D01*
X132890380Y-125935619D02*
X132890380Y-126806476D01*
X132938761Y-126903238D01*
X133035523Y-126951619D01*
X133132285Y-126951619D01*
X133374190Y-126274285D02*
X133616095Y-126951619D01*
X133858000Y-126274285D02*
X133616095Y-126951619D01*
X133519333Y-127193523D01*
X133470952Y-127241904D01*
X133374190Y-127290285D01*
X134970761Y-126903238D02*
X135067523Y-126951619D01*
X135261047Y-126951619D01*
X135357809Y-126903238D01*
X135406190Y-126806476D01*
X135406190Y-126758095D01*
X135357809Y-126661333D01*
X135261047Y-126612952D01*
X135115904Y-126612952D01*
X135019142Y-126564571D01*
X134970761Y-126467809D01*
X134970761Y-126419428D01*
X135019142Y-126322666D01*
X135115904Y-126274285D01*
X135261047Y-126274285D01*
X135357809Y-126322666D01*
X136228666Y-126903238D02*
X136131904Y-126951619D01*
X135938380Y-126951619D01*
X135841619Y-126903238D01*
X135793238Y-126806476D01*
X135793238Y-126419428D01*
X135841619Y-126322666D01*
X135938380Y-126274285D01*
X136131904Y-126274285D01*
X136228666Y-126322666D01*
X136277047Y-126419428D01*
X136277047Y-126516190D01*
X135793238Y-126612952D01*
X136712476Y-126274285D02*
X136712476Y-126951619D01*
X136712476Y-126371047D02*
X136760857Y-126322666D01*
X136857619Y-126274285D01*
X137002761Y-126274285D01*
X137099523Y-126322666D01*
X137147904Y-126419428D01*
X137147904Y-126951619D01*
X137583333Y-126903238D02*
X137680095Y-126951619D01*
X137873619Y-126951619D01*
X137970380Y-126903238D01*
X138018761Y-126806476D01*
X138018761Y-126758095D01*
X137970380Y-126661333D01*
X137873619Y-126612952D01*
X137728476Y-126612952D01*
X137631714Y-126564571D01*
X137583333Y-126467809D01*
X137583333Y-126419428D01*
X137631714Y-126322666D01*
X137728476Y-126274285D01*
X137873619Y-126274285D01*
X137970380Y-126322666D01*
X138599333Y-126951619D02*
X138502571Y-126903238D01*
X138454190Y-126854857D01*
X138405809Y-126758095D01*
X138405809Y-126467809D01*
X138454190Y-126371047D01*
X138502571Y-126322666D01*
X138599333Y-126274285D01*
X138744476Y-126274285D01*
X138841238Y-126322666D01*
X138889619Y-126371047D01*
X138938000Y-126467809D01*
X138938000Y-126758095D01*
X138889619Y-126854857D01*
X138841238Y-126903238D01*
X138744476Y-126951619D01*
X138599333Y-126951619D01*
X139373428Y-126951619D02*
X139373428Y-126274285D01*
X139373428Y-126467809D02*
X139421809Y-126371047D01*
X139470190Y-126322666D01*
X139566952Y-126274285D01*
X139663714Y-126274285D01*
X125536476Y-128052285D02*
X125536476Y-128729619D01*
X125101047Y-128052285D02*
X125101047Y-128584476D01*
X125149428Y-128681238D01*
X125246190Y-128729619D01*
X125391333Y-128729619D01*
X125488095Y-128681238D01*
X125536476Y-128632857D01*
X126020285Y-128729619D02*
X126020285Y-128052285D01*
X126020285Y-128149047D02*
X126068666Y-128100666D01*
X126165428Y-128052285D01*
X126310571Y-128052285D01*
X126407333Y-128100666D01*
X126455714Y-128197428D01*
X126455714Y-128729619D01*
X126455714Y-128197428D02*
X126504095Y-128100666D01*
X126600857Y-128052285D01*
X126746000Y-128052285D01*
X126842761Y-128100666D01*
X126891142Y-128197428D01*
X126891142Y-128729619D01*
X127374952Y-128052285D02*
X127374952Y-128729619D01*
X127374952Y-128149047D02*
X127423333Y-128100666D01*
X127520095Y-128052285D01*
X127665238Y-128052285D01*
X127762000Y-128100666D01*
X127810380Y-128197428D01*
X127810380Y-128729619D01*
X129068285Y-128729619D02*
X129068285Y-127713619D01*
X129068285Y-128100666D02*
X129165047Y-128052285D01*
X129358571Y-128052285D01*
X129455333Y-128100666D01*
X129503714Y-128149047D01*
X129552095Y-128245809D01*
X129552095Y-128536095D01*
X129503714Y-128632857D01*
X129455333Y-128681238D01*
X129358571Y-128729619D01*
X129165047Y-128729619D01*
X129068285Y-128681238D01*
X129987523Y-128729619D02*
X129987523Y-127713619D01*
X129987523Y-128100666D02*
X130084285Y-128052285D01*
X130277809Y-128052285D01*
X130374571Y-128100666D01*
X130422952Y-128149047D01*
X130471333Y-128245809D01*
X130471333Y-128536095D01*
X130422952Y-128632857D01*
X130374571Y-128681238D01*
X130277809Y-128729619D01*
X130084285Y-128729619D01*
X129987523Y-128681238D01*
X131293809Y-128681238D02*
X131197047Y-128729619D01*
X131003523Y-128729619D01*
X130906761Y-128681238D01*
X130858380Y-128584476D01*
X130858380Y-128197428D01*
X130906761Y-128100666D01*
X131003523Y-128052285D01*
X131197047Y-128052285D01*
X131293809Y-128100666D01*
X131342190Y-128197428D01*
X131342190Y-128294190D01*
X130858380Y-128390952D01*
X132551714Y-128342571D02*
X133325809Y-128342571D01*
X135019142Y-128729619D02*
X135019142Y-127713619D01*
X135019142Y-128681238D02*
X134922380Y-128729619D01*
X134728857Y-128729619D01*
X134632095Y-128681238D01*
X134583714Y-128632857D01*
X134535333Y-128536095D01*
X134535333Y-128245809D01*
X134583714Y-128149047D01*
X134632095Y-128100666D01*
X134728857Y-128052285D01*
X134922380Y-128052285D01*
X135019142Y-128100666D01*
X135357809Y-128052285D02*
X135744857Y-128052285D01*
X135502952Y-128729619D02*
X135502952Y-127858761D01*
X135551333Y-127762000D01*
X135648095Y-127713619D01*
X135744857Y-127713619D01*
X136518952Y-128052285D02*
X136518952Y-128729619D01*
X136083523Y-128052285D02*
X136083523Y-128584476D01*
X136131904Y-128681238D01*
X136228666Y-128729619D01*
X136373809Y-128729619D01*
X136470571Y-128681238D01*
X136518952Y-128632857D01*
X137002761Y-128729619D02*
X137002761Y-128052285D01*
X137002761Y-128245809D02*
X137051142Y-128149047D01*
X137099523Y-128100666D01*
X137196285Y-128052285D01*
X137293047Y-128052285D01*
X138067142Y-128052285D02*
X138067142Y-128729619D01*
X137631714Y-128052285D02*
X137631714Y-128584476D01*
X137680095Y-128681238D01*
X137776857Y-128729619D01*
X137922000Y-128729619D01*
X138018761Y-128681238D01*
X138067142Y-128632857D01*
X138405809Y-128052285D02*
X138792857Y-128052285D01*
X138550952Y-127713619D02*
X138550952Y-128584476D01*
X138599333Y-128681238D01*
X138696095Y-128729619D01*
X138792857Y-128729619D01*
X139566952Y-128729619D02*
X139566952Y-128197428D01*
X139518571Y-128100666D01*
X139421809Y-128052285D01*
X139228285Y-128052285D01*
X139131523Y-128100666D01*
X139566952Y-128681238D02*
X139470190Y-128729619D01*
X139228285Y-128729619D01*
X139131523Y-128681238D01*
X139083142Y-128584476D01*
X139083142Y-128487714D01*
X139131523Y-128390952D01*
X139228285Y-128342571D01*
X139470190Y-128342571D01*
X139566952Y-128294190D01*
X125512285Y-130507619D02*
X125512285Y-129830285D01*
X125512285Y-130023809D02*
X125560666Y-129927047D01*
X125609047Y-129878666D01*
X125705809Y-129830285D01*
X125802571Y-129830285D01*
X126528285Y-130459238D02*
X126431523Y-130507619D01*
X126238000Y-130507619D01*
X126141238Y-130459238D01*
X126092857Y-130362476D01*
X126092857Y-129975428D01*
X126141238Y-129878666D01*
X126238000Y-129830285D01*
X126431523Y-129830285D01*
X126528285Y-129878666D01*
X126576666Y-129975428D01*
X126576666Y-130072190D01*
X126092857Y-130168952D01*
X126915333Y-129830285D02*
X127157238Y-130507619D01*
X127399142Y-129830285D01*
X129092476Y-130507619D02*
X128511904Y-130507619D01*
X128802190Y-130507619D02*
X128802190Y-129491619D01*
X128705428Y-129636761D01*
X128608666Y-129733523D01*
X128511904Y-129781904D01*
X130302000Y-130507619D02*
X130302000Y-129830285D01*
X130302000Y-129927047D02*
X130350380Y-129878666D01*
X130447142Y-129830285D01*
X130592285Y-129830285D01*
X130689047Y-129878666D01*
X130737428Y-129975428D01*
X130737428Y-130507619D01*
X130737428Y-129975428D02*
X130785809Y-129878666D01*
X130882571Y-129830285D01*
X131027714Y-129830285D01*
X131124476Y-129878666D01*
X131172857Y-129975428D01*
X131172857Y-130507619D01*
X132092095Y-130507619D02*
X132092095Y-129975428D01*
X132043714Y-129878666D01*
X131946952Y-129830285D01*
X131753428Y-129830285D01*
X131656666Y-129878666D01*
X132092095Y-130459238D02*
X131995333Y-130507619D01*
X131753428Y-130507619D01*
X131656666Y-130459238D01*
X131608285Y-130362476D01*
X131608285Y-130265714D01*
X131656666Y-130168952D01*
X131753428Y-130120571D01*
X131995333Y-130120571D01*
X132092095Y-130072190D01*
X132575904Y-130507619D02*
X132575904Y-129830285D01*
X132575904Y-130023809D02*
X132624285Y-129927047D01*
X132672666Y-129878666D01*
X132769428Y-129830285D01*
X132866190Y-129830285D01*
X133640285Y-130459238D02*
X133543523Y-130507619D01*
X133350000Y-130507619D01*
X133253238Y-130459238D01*
X133204857Y-130410857D01*
X133156476Y-130314095D01*
X133156476Y-130023809D01*
X133204857Y-129927047D01*
X133253238Y-129878666D01*
X133350000Y-129830285D01*
X133543523Y-129830285D01*
X133640285Y-129878666D01*
X134075714Y-130507619D02*
X134075714Y-129491619D01*
X134511142Y-130507619D02*
X134511142Y-129975428D01*
X134462761Y-129878666D01*
X134366000Y-129830285D01*
X134220857Y-129830285D01*
X134124095Y-129878666D01*
X134075714Y-129927047D01*
X135720666Y-129588380D02*
X135769047Y-129540000D01*
X135865809Y-129491619D01*
X136107714Y-129491619D01*
X136204476Y-129540000D01*
X136252857Y-129588380D01*
X136301238Y-129685142D01*
X136301238Y-129781904D01*
X136252857Y-129927047D01*
X135672285Y-130507619D01*
X136301238Y-130507619D01*
X136930190Y-129491619D02*
X137026952Y-129491619D01*
X137123714Y-129540000D01*
X137172095Y-129588380D01*
X137220476Y-129685142D01*
X137268857Y-129878666D01*
X137268857Y-130120571D01*
X137220476Y-130314095D01*
X137172095Y-130410857D01*
X137123714Y-130459238D01*
X137026952Y-130507619D01*
X136930190Y-130507619D01*
X136833428Y-130459238D01*
X136785047Y-130410857D01*
X136736666Y-130314095D01*
X136688285Y-130120571D01*
X136688285Y-129878666D01*
X136736666Y-129685142D01*
X136785047Y-129588380D01*
X136833428Y-129540000D01*
X136930190Y-129491619D01*
X138236476Y-130507619D02*
X137655904Y-130507619D01*
X137946190Y-130507619D02*
X137946190Y-129491619D01*
X137849428Y-129636761D01*
X137752666Y-129733523D01*
X137655904Y-129781904D01*
X138817047Y-129927047D02*
X138720285Y-129878666D01*
X138671904Y-129830285D01*
X138623523Y-129733523D01*
X138623523Y-129685142D01*
X138671904Y-129588380D01*
X138720285Y-129540000D01*
X138817047Y-129491619D01*
X139010571Y-129491619D01*
X139107333Y-129540000D01*
X139155714Y-129588380D01*
X139204095Y-129685142D01*
X139204095Y-129733523D01*
X139155714Y-129830285D01*
X139107333Y-129878666D01*
X139010571Y-129927047D01*
X138817047Y-129927047D01*
X138720285Y-129975428D01*
X138671904Y-130023809D01*
X138623523Y-130120571D01*
X138623523Y-130314095D01*
X138671904Y-130410857D01*
X138720285Y-130459238D01*
X138817047Y-130507619D01*
X139010571Y-130507619D01*
X139107333Y-130459238D01*
X139155714Y-130410857D01*
X139204095Y-130314095D01*
X139204095Y-130120571D01*
X139155714Y-130023809D01*
X139107333Y-129975428D01*
X139010571Y-129927047D01*
D12*
X113002000Y-143101000D02*
X111828000Y-143101000D01*
X113002000Y-141379000D02*
X111828000Y-141379000D01*
X112395000Y-129540000D02*
X112395000Y-132080000D01*
X112395000Y-132080000D02*
X115065000Y-132080000D01*
X115065000Y-129540000D02*
X115065000Y-91310000D01*
X115065000Y-134750000D02*
X115065000Y-132080000D01*
X99695000Y-132080000D02*
X97025000Y-132080000D01*
X99695000Y-132080000D02*
X99695000Y-93980000D01*
X99695000Y-93980000D02*
X97025000Y-93980000D01*
X112395000Y-129540000D02*
X115065000Y-129540000D01*
X112395000Y-129540000D02*
X112395000Y-93980000D01*
X112395000Y-93980000D02*
X115065000Y-93980000D01*
X115065000Y-91310000D02*
X97025000Y-91310000D01*
X97025000Y-91310000D02*
X97025000Y-134750000D01*
X97025000Y-134750000D02*
X115065000Y-134750000D01*
X132722000Y-92186000D02*
X132722000Y-93556000D01*
X132722000Y-93556000D02*
X153282000Y-93556000D01*
X153282000Y-93556000D02*
X153282000Y-88816000D01*
X153282000Y-88816000D02*
X132722000Y-88816000D01*
X132722000Y-88816000D02*
X132722000Y-90186000D01*
X132722000Y-90186000D02*
G75*
G02X132722000Y-92186000I0J-1000000D01*
G01*
X122317000Y-105163000D02*
X120947000Y-105163000D01*
X120947000Y-105163000D02*
X120947000Y-125723000D01*
X120947000Y-125723000D02*
X125687000Y-125723000D01*
X125687000Y-125723000D02*
X125687000Y-105163000D01*
X125687000Y-105163000D02*
X124317000Y-105163000D01*
X124317000Y-105163000D02*
G75*
G02X122317000Y-105163000I-1000000J0D01*
G01*
X153400000Y-116325000D02*
X154770000Y-116325000D01*
X154770000Y-116325000D02*
X154770000Y-98305000D01*
X154770000Y-98305000D02*
X150030000Y-98305000D01*
X150030000Y-98305000D02*
X150030000Y-116325000D01*
X150030000Y-116325000D02*
X151400000Y-116325000D01*
X151400000Y-116325000D02*
G75*
G02X153400000Y-116325000I1000000J0D01*
G01*
X133945000Y-106715000D02*
X136565000Y-106715000D01*
X136565000Y-106715000D02*
X136565000Y-100295000D01*
X136565000Y-100295000D02*
X133945000Y-100295000D01*
X133945000Y-100295000D02*
X133945000Y-106715000D01*
X135255000Y-107605000D02*
X135255000Y-106715000D01*
X135255000Y-99405000D02*
X135255000Y-100295000D01*
X139025000Y-106715000D02*
X141645000Y-106715000D01*
X141645000Y-106715000D02*
X141645000Y-100295000D01*
X141645000Y-100295000D02*
X139025000Y-100295000D01*
X139025000Y-100295000D02*
X139025000Y-106715000D01*
X140335000Y-107605000D02*
X140335000Y-106715000D01*
X140335000Y-99405000D02*
X140335000Y-100295000D01*
X120234000Y-94194000D02*
X120234000Y-96814000D01*
X120234000Y-96814000D02*
X126654000Y-96814000D01*
X126654000Y-96814000D02*
X126654000Y-94194000D01*
X126654000Y-94194000D02*
X120234000Y-94194000D01*
X119344000Y-95504000D02*
X120234000Y-95504000D01*
X127544000Y-95504000D02*
X126654000Y-95504000D01*
X122139000Y-98766000D02*
X122139000Y-101386000D01*
X122139000Y-101386000D02*
X128559000Y-101386000D01*
X128559000Y-101386000D02*
X128559000Y-98766000D01*
X128559000Y-98766000D02*
X122139000Y-98766000D01*
X121249000Y-100076000D02*
X122139000Y-100076000D01*
X129449000Y-100076000D02*
X128559000Y-100076000D01*
X129378000Y-131278000D02*
X129378000Y-133898000D01*
X129378000Y-133898000D02*
X135798000Y-133898000D01*
X135798000Y-133898000D02*
X135798000Y-131278000D01*
X135798000Y-131278000D02*
X129378000Y-131278000D01*
X128488000Y-132588000D02*
X129378000Y-132588000D01*
X136688000Y-132588000D02*
X135798000Y-132588000D01*
X145507000Y-125690000D02*
X145507000Y-128310000D01*
X145507000Y-128310000D02*
X151927000Y-128310000D01*
X151927000Y-128310000D02*
X151927000Y-125690000D01*
X151927000Y-125690000D02*
X145507000Y-125690000D01*
X144617000Y-127000000D02*
X145507000Y-127000000D01*
X152817000Y-127000000D02*
X151927000Y-127000000D01*
X139100000Y-113070000D02*
X139100000Y-110450000D01*
X139100000Y-110450000D02*
X132680000Y-110450000D01*
X132680000Y-110450000D02*
X132680000Y-113070000D01*
X132680000Y-113070000D02*
X139100000Y-113070000D01*
X139990000Y-111760000D02*
X139100000Y-111760000D01*
X131790000Y-111760000D02*
X132680000Y-111760000D01*
X143470000Y-107985000D02*
X146090000Y-107985000D01*
X146090000Y-107985000D02*
X146090000Y-101565000D01*
X146090000Y-101565000D02*
X143470000Y-101565000D01*
X143470000Y-101565000D02*
X143470000Y-107985000D01*
X144780000Y-108875000D02*
X144780000Y-107985000D01*
X144780000Y-100675000D02*
X144780000Y-101565000D01*
X119726000Y-88606000D02*
X119726000Y-91226000D01*
X119726000Y-91226000D02*
X126146000Y-91226000D01*
X126146000Y-91226000D02*
X126146000Y-88606000D01*
X126146000Y-88606000D02*
X119726000Y-88606000D01*
X118836000Y-89916000D02*
X119726000Y-89916000D01*
X127036000Y-89916000D02*
X126146000Y-89916000D01*
X136744000Y-138390000D02*
X136744000Y-141010000D01*
X136744000Y-141010000D02*
X143164000Y-141010000D01*
X143164000Y-141010000D02*
X143164000Y-138390000D01*
X143164000Y-138390000D02*
X136744000Y-138390000D01*
X135854000Y-139700000D02*
X136744000Y-139700000D01*
X144054000Y-139700000D02*
X143164000Y-139700000D01*
X129810000Y-137092000D02*
X115610000Y-137092000D01*
X129810000Y-135992000D02*
X115610000Y-135992000D01*
X129810000Y-135492000D02*
X129810000Y-142692000D01*
X129810000Y-142692000D02*
X115610000Y-142692000D01*
X115610000Y-142692000D02*
X115610000Y-135492000D01*
X126210000Y-135992000D02*
X126210000Y-135592000D01*
X122710000Y-135992000D02*
X122710000Y-135592000D01*
X119210000Y-135992000D02*
X119210000Y-135592000D01*
X130050000Y-137342000D02*
X130050000Y-135252000D01*
X130050000Y-135252000D02*
X127960000Y-135252000D01*
X143085000Y-120170000D02*
X145205000Y-120170000D01*
X145205000Y-120170000D02*
X145205000Y-116050000D01*
X145205000Y-116050000D02*
X143085000Y-116050000D01*
X143085000Y-116050000D02*
X143085000Y-120170000D01*
X144145000Y-122210000D02*
X144145000Y-120170000D01*
X144145000Y-114010000D02*
X144145000Y-116050000D01*
X143085000Y-119510000D02*
X145205000Y-119510000D01*
X151660000Y-132135000D02*
X148060000Y-132135000D01*
X152184184Y-132862205D02*
G75*
G03X151660000Y-132135000I-2324184J-1122795D01*
G01*
X152216400Y-135083807D02*
G75*
G02X149860000Y-136585000I-2356400J1098807D01*
G01*
X147503600Y-135083807D02*
G75*
G03X149860000Y-136585000I2356400J1098807D01*
G01*
X147535816Y-132862205D02*
G75*
G02X148060000Y-132135000I2324184J-1122795D01*
G01*
X147130000Y-118598000D02*
X157550000Y-118598000D01*
X147130000Y-123718000D02*
X157550000Y-123718000D01*
X147130000Y-118598000D02*
X147130000Y-123718000D01*
X157550000Y-118598000D02*
X157550000Y-123718000D01*
X158524000Y-101572000D02*
X158524000Y-100398000D01*
X160246000Y-101572000D02*
X160246000Y-100398000D01*
X131925000Y-90579000D02*
X131925000Y-91753000D01*
X130203000Y-90579000D02*
X130203000Y-91753000D01*
X145605000Y-85364000D02*
X135185000Y-85364000D01*
X145605000Y-80244000D02*
X135185000Y-80244000D01*
X145605000Y-85364000D02*
X145605000Y-80244000D01*
X135185000Y-85364000D02*
X135185000Y-80244000D01*
X123757000Y-104239000D02*
X122583000Y-104239000D01*
X123757000Y-102517000D02*
X122583000Y-102517000D01*
X160246000Y-108613000D02*
X160246000Y-109787000D01*
X158524000Y-108613000D02*
X158524000Y-109787000D01*
X150935000Y-131417000D02*
X149761000Y-131417000D01*
X150935000Y-129695000D02*
X149761000Y-129695000D01*
X119122278Y-131227723D02*
G75*
G03X123733580Y-131228000I2305722J1179723D01*
G01*
X119122278Y-128868277D02*
G75*
G02X123733580Y-128868000I2305722J-1179723D01*
G01*
X119122278Y-128868277D02*
G75*
G03X119122420Y-131228000I2305722J-1179723D01*
G01*
X121428000Y-132598000D02*
X121428000Y-127498000D01*
X121388000Y-132598000D02*
X121388000Y-131028000D01*
X121388000Y-129068000D02*
X121388000Y-127498000D01*
X121348000Y-132597000D02*
X121348000Y-131028000D01*
X121348000Y-129068000D02*
X121348000Y-127499000D01*
X121308000Y-132596000D02*
X121308000Y-131028000D01*
X121308000Y-129068000D02*
X121308000Y-127500000D01*
X121268000Y-132594000D02*
X121268000Y-131028000D01*
X121268000Y-129068000D02*
X121268000Y-127502000D01*
X121228000Y-132591000D02*
X121228000Y-131028000D01*
X121228000Y-129068000D02*
X121228000Y-127505000D01*
X121188000Y-132587000D02*
X121188000Y-131028000D01*
X121188000Y-129068000D02*
X121188000Y-127509000D01*
X121148000Y-132583000D02*
X121148000Y-131028000D01*
X121148000Y-129068000D02*
X121148000Y-127513000D01*
X121108000Y-132579000D02*
X121108000Y-131028000D01*
X121108000Y-129068000D02*
X121108000Y-127517000D01*
X121068000Y-132573000D02*
X121068000Y-131028000D01*
X121068000Y-129068000D02*
X121068000Y-127523000D01*
X121028000Y-132567000D02*
X121028000Y-131028000D01*
X121028000Y-129068000D02*
X121028000Y-127529000D01*
X120988000Y-132561000D02*
X120988000Y-131028000D01*
X120988000Y-129068000D02*
X120988000Y-127535000D01*
X120948000Y-132554000D02*
X120948000Y-131028000D01*
X120948000Y-129068000D02*
X120948000Y-127542000D01*
X120908000Y-132546000D02*
X120908000Y-131028000D01*
X120908000Y-129068000D02*
X120908000Y-127550000D01*
X120868000Y-132537000D02*
X120868000Y-131028000D01*
X120868000Y-129068000D02*
X120868000Y-127559000D01*
X120828000Y-132528000D02*
X120828000Y-131028000D01*
X120828000Y-129068000D02*
X120828000Y-127568000D01*
X120788000Y-132518000D02*
X120788000Y-131028000D01*
X120788000Y-129068000D02*
X120788000Y-127578000D01*
X120748000Y-132508000D02*
X120748000Y-131028000D01*
X120748000Y-129068000D02*
X120748000Y-127588000D01*
X120707000Y-132496000D02*
X120707000Y-131028000D01*
X120707000Y-129068000D02*
X120707000Y-127600000D01*
X120667000Y-132484000D02*
X120667000Y-131028000D01*
X120667000Y-129068000D02*
X120667000Y-127612000D01*
X120627000Y-132472000D02*
X120627000Y-131028000D01*
X120627000Y-129068000D02*
X120627000Y-127624000D01*
X120587000Y-132458000D02*
X120587000Y-131028000D01*
X120587000Y-129068000D02*
X120587000Y-127638000D01*
X120547000Y-132444000D02*
X120547000Y-131028000D01*
X120547000Y-129068000D02*
X120547000Y-127652000D01*
X120507000Y-132430000D02*
X120507000Y-131028000D01*
X120507000Y-129068000D02*
X120507000Y-127666000D01*
X120467000Y-132414000D02*
X120467000Y-131028000D01*
X120467000Y-129068000D02*
X120467000Y-127682000D01*
X120427000Y-132398000D02*
X120427000Y-131028000D01*
X120427000Y-129068000D02*
X120427000Y-127698000D01*
X120387000Y-132381000D02*
X120387000Y-131028000D01*
X120387000Y-129068000D02*
X120387000Y-127715000D01*
X120347000Y-132363000D02*
X120347000Y-131028000D01*
X120347000Y-129068000D02*
X120347000Y-127733000D01*
X120307000Y-132344000D02*
X120307000Y-131028000D01*
X120307000Y-129068000D02*
X120307000Y-127752000D01*
X120267000Y-132324000D02*
X120267000Y-131028000D01*
X120267000Y-129068000D02*
X120267000Y-127772000D01*
X120227000Y-132304000D02*
X120227000Y-131028000D01*
X120227000Y-129068000D02*
X120227000Y-127792000D01*
X120187000Y-132282000D02*
X120187000Y-131028000D01*
X120187000Y-129068000D02*
X120187000Y-127814000D01*
X120147000Y-132260000D02*
X120147000Y-131028000D01*
X120147000Y-129068000D02*
X120147000Y-127836000D01*
X120107000Y-132237000D02*
X120107000Y-131028000D01*
X120107000Y-129068000D02*
X120107000Y-127859000D01*
X120067000Y-132213000D02*
X120067000Y-131028000D01*
X120067000Y-129068000D02*
X120067000Y-127883000D01*
X120027000Y-132188000D02*
X120027000Y-131028000D01*
X120027000Y-129068000D02*
X120027000Y-127908000D01*
X119987000Y-132161000D02*
X119987000Y-131028000D01*
X119987000Y-129068000D02*
X119987000Y-127935000D01*
X119947000Y-132134000D02*
X119947000Y-131028000D01*
X119947000Y-129068000D02*
X119947000Y-127962000D01*
X119907000Y-132106000D02*
X119907000Y-131028000D01*
X119907000Y-129068000D02*
X119907000Y-127990000D01*
X119867000Y-132076000D02*
X119867000Y-131028000D01*
X119867000Y-129068000D02*
X119867000Y-128020000D01*
X119827000Y-132045000D02*
X119827000Y-131028000D01*
X119827000Y-129068000D02*
X119827000Y-128051000D01*
X119787000Y-132013000D02*
X119787000Y-131028000D01*
X119787000Y-129068000D02*
X119787000Y-128083000D01*
X119747000Y-131980000D02*
X119747000Y-131028000D01*
X119747000Y-129068000D02*
X119747000Y-128116000D01*
X119707000Y-131945000D02*
X119707000Y-131028000D01*
X119707000Y-129068000D02*
X119707000Y-128151000D01*
X119667000Y-131909000D02*
X119667000Y-131028000D01*
X119667000Y-129068000D02*
X119667000Y-128187000D01*
X119627000Y-131871000D02*
X119627000Y-131028000D01*
X119627000Y-129068000D02*
X119627000Y-128225000D01*
X119587000Y-131831000D02*
X119587000Y-131028000D01*
X119587000Y-129068000D02*
X119587000Y-128265000D01*
X119547000Y-131790000D02*
X119547000Y-131028000D01*
X119547000Y-129068000D02*
X119547000Y-128306000D01*
X119507000Y-131747000D02*
X119507000Y-131028000D01*
X119507000Y-129068000D02*
X119507000Y-128349000D01*
X119467000Y-131702000D02*
X119467000Y-131028000D01*
X119467000Y-129068000D02*
X119467000Y-128394000D01*
X119427000Y-131654000D02*
X119427000Y-128442000D01*
X119387000Y-131604000D02*
X119387000Y-128492000D01*
X119347000Y-131552000D02*
X119347000Y-128544000D01*
X119307000Y-131496000D02*
X119307000Y-128600000D01*
X119267000Y-131438000D02*
X119267000Y-128658000D01*
X119227000Y-131375000D02*
X119227000Y-128721000D01*
X119187000Y-131309000D02*
X119187000Y-128787000D01*
X119147000Y-131237000D02*
X119147000Y-128859000D01*
X119107000Y-131160000D02*
X119107000Y-128936000D01*
X119067000Y-131076000D02*
X119067000Y-129020000D01*
X119027000Y-130982000D02*
X119027000Y-129114000D01*
X118987000Y-130877000D02*
X118987000Y-129219000D01*
X118947000Y-130755000D02*
X118947000Y-129341000D01*
X118907000Y-130607000D02*
X118907000Y-129489000D01*
X118867000Y-130402000D02*
X118867000Y-129694000D01*
X124628000Y-130048000D02*
X123428000Y-130048000D01*
X124028000Y-130698000D02*
X124028000Y-129398000D01*
X141060277Y-130774278D02*
G75*
G03X141060000Y-135385580I1179723J-2305722D01*
G01*
X143419723Y-130774278D02*
G75*
G02X143420000Y-135385580I-1179723J-2305722D01*
G01*
X143419723Y-130774278D02*
G75*
G03X141060000Y-130774420I-1179723J-2305722D01*
G01*
X139690000Y-133080000D02*
X144790000Y-133080000D01*
X139690000Y-133040000D02*
X141260000Y-133040000D01*
X143220000Y-133040000D02*
X144790000Y-133040000D01*
X139691000Y-133000000D02*
X141260000Y-133000000D01*
X143220000Y-133000000D02*
X144789000Y-133000000D01*
X139692000Y-132960000D02*
X141260000Y-132960000D01*
X143220000Y-132960000D02*
X144788000Y-132960000D01*
X139694000Y-132920000D02*
X141260000Y-132920000D01*
X143220000Y-132920000D02*
X144786000Y-132920000D01*
X139697000Y-132880000D02*
X141260000Y-132880000D01*
X143220000Y-132880000D02*
X144783000Y-132880000D01*
X139701000Y-132840000D02*
X141260000Y-132840000D01*
X143220000Y-132840000D02*
X144779000Y-132840000D01*
X139705000Y-132800000D02*
X141260000Y-132800000D01*
X143220000Y-132800000D02*
X144775000Y-132800000D01*
X139709000Y-132760000D02*
X141260000Y-132760000D01*
X143220000Y-132760000D02*
X144771000Y-132760000D01*
X139715000Y-132720000D02*
X141260000Y-132720000D01*
X143220000Y-132720000D02*
X144765000Y-132720000D01*
X139721000Y-132680000D02*
X141260000Y-132680000D01*
X143220000Y-132680000D02*
X144759000Y-132680000D01*
X139727000Y-132640000D02*
X141260000Y-132640000D01*
X143220000Y-132640000D02*
X144753000Y-132640000D01*
X139734000Y-132600000D02*
X141260000Y-132600000D01*
X143220000Y-132600000D02*
X144746000Y-132600000D01*
X139742000Y-132560000D02*
X141260000Y-132560000D01*
X143220000Y-132560000D02*
X144738000Y-132560000D01*
X139751000Y-132520000D02*
X141260000Y-132520000D01*
X143220000Y-132520000D02*
X144729000Y-132520000D01*
X139760000Y-132480000D02*
X141260000Y-132480000D01*
X143220000Y-132480000D02*
X144720000Y-132480000D01*
X139770000Y-132440000D02*
X141260000Y-132440000D01*
X143220000Y-132440000D02*
X144710000Y-132440000D01*
X139780000Y-132400000D02*
X141260000Y-132400000D01*
X143220000Y-132400000D02*
X144700000Y-132400000D01*
X139792000Y-132359000D02*
X141260000Y-132359000D01*
X143220000Y-132359000D02*
X144688000Y-132359000D01*
X139804000Y-132319000D02*
X141260000Y-132319000D01*
X143220000Y-132319000D02*
X144676000Y-132319000D01*
X139816000Y-132279000D02*
X141260000Y-132279000D01*
X143220000Y-132279000D02*
X144664000Y-132279000D01*
X139830000Y-132239000D02*
X141260000Y-132239000D01*
X143220000Y-132239000D02*
X144650000Y-132239000D01*
X139844000Y-132199000D02*
X141260000Y-132199000D01*
X143220000Y-132199000D02*
X144636000Y-132199000D01*
X139858000Y-132159000D02*
X141260000Y-132159000D01*
X143220000Y-132159000D02*
X144622000Y-132159000D01*
X139874000Y-132119000D02*
X141260000Y-132119000D01*
X143220000Y-132119000D02*
X144606000Y-132119000D01*
X139890000Y-132079000D02*
X141260000Y-132079000D01*
X143220000Y-132079000D02*
X144590000Y-132079000D01*
X139907000Y-132039000D02*
X141260000Y-132039000D01*
X143220000Y-132039000D02*
X144573000Y-132039000D01*
X139925000Y-131999000D02*
X141260000Y-131999000D01*
X143220000Y-131999000D02*
X144555000Y-131999000D01*
X139944000Y-131959000D02*
X141260000Y-131959000D01*
X143220000Y-131959000D02*
X144536000Y-131959000D01*
X139964000Y-131919000D02*
X141260000Y-131919000D01*
X143220000Y-131919000D02*
X144516000Y-131919000D01*
X139984000Y-131879000D02*
X141260000Y-131879000D01*
X143220000Y-131879000D02*
X144496000Y-131879000D01*
X140006000Y-131839000D02*
X141260000Y-131839000D01*
X143220000Y-131839000D02*
X144474000Y-131839000D01*
X140028000Y-131799000D02*
X141260000Y-131799000D01*
X143220000Y-131799000D02*
X144452000Y-131799000D01*
X140051000Y-131759000D02*
X141260000Y-131759000D01*
X143220000Y-131759000D02*
X144429000Y-131759000D01*
X140075000Y-131719000D02*
X141260000Y-131719000D01*
X143220000Y-131719000D02*
X144405000Y-131719000D01*
X140100000Y-131679000D02*
X141260000Y-131679000D01*
X143220000Y-131679000D02*
X144380000Y-131679000D01*
X140127000Y-131639000D02*
X141260000Y-131639000D01*
X143220000Y-131639000D02*
X144353000Y-131639000D01*
X140154000Y-131599000D02*
X141260000Y-131599000D01*
X143220000Y-131599000D02*
X144326000Y-131599000D01*
X140182000Y-131559000D02*
X141260000Y-131559000D01*
X143220000Y-131559000D02*
X144298000Y-131559000D01*
X140212000Y-131519000D02*
X141260000Y-131519000D01*
X143220000Y-131519000D02*
X144268000Y-131519000D01*
X140243000Y-131479000D02*
X141260000Y-131479000D01*
X143220000Y-131479000D02*
X144237000Y-131479000D01*
X140275000Y-131439000D02*
X141260000Y-131439000D01*
X143220000Y-131439000D02*
X144205000Y-131439000D01*
X140308000Y-131399000D02*
X141260000Y-131399000D01*
X143220000Y-131399000D02*
X144172000Y-131399000D01*
X140343000Y-131359000D02*
X141260000Y-131359000D01*
X143220000Y-131359000D02*
X144137000Y-131359000D01*
X140379000Y-131319000D02*
X141260000Y-131319000D01*
X143220000Y-131319000D02*
X144101000Y-131319000D01*
X140417000Y-131279000D02*
X141260000Y-131279000D01*
X143220000Y-131279000D02*
X144063000Y-131279000D01*
X140457000Y-131239000D02*
X141260000Y-131239000D01*
X143220000Y-131239000D02*
X144023000Y-131239000D01*
X140498000Y-131199000D02*
X141260000Y-131199000D01*
X143220000Y-131199000D02*
X143982000Y-131199000D01*
X140541000Y-131159000D02*
X141260000Y-131159000D01*
X143220000Y-131159000D02*
X143939000Y-131159000D01*
X140586000Y-131119000D02*
X141260000Y-131119000D01*
X143220000Y-131119000D02*
X143894000Y-131119000D01*
X140634000Y-131079000D02*
X143846000Y-131079000D01*
X140684000Y-131039000D02*
X143796000Y-131039000D01*
X140736000Y-130999000D02*
X143744000Y-130999000D01*
X140792000Y-130959000D02*
X143688000Y-130959000D01*
X140850000Y-130919000D02*
X143630000Y-130919000D01*
X140913000Y-130879000D02*
X143567000Y-130879000D01*
X140979000Y-130839000D02*
X143501000Y-130839000D01*
X141051000Y-130799000D02*
X143429000Y-130799000D01*
X141128000Y-130759000D02*
X143352000Y-130759000D01*
X141212000Y-130719000D02*
X143268000Y-130719000D01*
X141306000Y-130679000D02*
X143174000Y-130679000D01*
X141411000Y-130639000D02*
X143069000Y-130639000D01*
X141533000Y-130599000D02*
X142947000Y-130599000D01*
X141681000Y-130559000D02*
X142799000Y-130559000D01*
X141886000Y-130519000D02*
X142594000Y-130519000D01*
X142240000Y-136280000D02*
X142240000Y-135080000D01*
X141590000Y-135680000D02*
X142890000Y-135680000D01*
D13*
X111772142Y-144707142D02*
X111724523Y-144754761D01*
X111581666Y-144802380D01*
X111486428Y-144802380D01*
X111343571Y-144754761D01*
X111248333Y-144659523D01*
X111200714Y-144564285D01*
X111153095Y-144373809D01*
X111153095Y-144230952D01*
X111200714Y-144040476D01*
X111248333Y-143945238D01*
X111343571Y-143850000D01*
X111486428Y-143802380D01*
X111581666Y-143802380D01*
X111724523Y-143850000D01*
X111772142Y-143897619D01*
X112724523Y-144802380D02*
X112153095Y-144802380D01*
X112438809Y-144802380D02*
X112438809Y-143802380D01*
X112343571Y-143945238D01*
X112248333Y-144040476D01*
X112153095Y-144088095D01*
X113343571Y-143802380D02*
X113438809Y-143802380D01*
X113534047Y-143850000D01*
X113581666Y-143897619D01*
X113629285Y-143992857D01*
X113676904Y-144183333D01*
X113676904Y-144421428D01*
X113629285Y-144611904D01*
X113581666Y-144707142D01*
X113534047Y-144754761D01*
X113438809Y-144802380D01*
X113343571Y-144802380D01*
X113248333Y-144754761D01*
X113200714Y-144707142D01*
X113153095Y-144611904D01*
X113105476Y-144421428D01*
X113105476Y-144183333D01*
X113153095Y-143992857D01*
X113200714Y-143897619D01*
X113248333Y-143850000D01*
X113343571Y-143802380D01*
X105330714Y-136056666D02*
X105806904Y-136056666D01*
X105235476Y-136342380D02*
X105568809Y-135342380D01*
X105902142Y-136342380D01*
X106759285Y-136342380D02*
X106187857Y-136342380D01*
X106473571Y-136342380D02*
X106473571Y-135342380D01*
X106378333Y-135485238D01*
X106283095Y-135580476D01*
X106187857Y-135628095D01*
X131024380Y-95757904D02*
X131833904Y-95757904D01*
X131929142Y-95710285D01*
X131976761Y-95662666D01*
X132024380Y-95567428D01*
X132024380Y-95376952D01*
X131976761Y-95281714D01*
X131929142Y-95234095D01*
X131833904Y-95186476D01*
X131024380Y-95186476D01*
X131024380Y-94805523D02*
X131024380Y-94186476D01*
X131405333Y-94519809D01*
X131405333Y-94376952D01*
X131452952Y-94281714D01*
X131500571Y-94234095D01*
X131595809Y-94186476D01*
X131833904Y-94186476D01*
X131929142Y-94234095D01*
X131976761Y-94281714D01*
X132024380Y-94376952D01*
X132024380Y-94662666D01*
X131976761Y-94757904D01*
X131929142Y-94805523D01*
X126365095Y-103465380D02*
X126365095Y-104274904D01*
X126412714Y-104370142D01*
X126460333Y-104417761D01*
X126555571Y-104465380D01*
X126746047Y-104465380D01*
X126841285Y-104417761D01*
X126888904Y-104370142D01*
X126936523Y-104274904D01*
X126936523Y-103465380D01*
X127365095Y-103560619D02*
X127412714Y-103513000D01*
X127507952Y-103465380D01*
X127746047Y-103465380D01*
X127841285Y-103513000D01*
X127888904Y-103560619D01*
X127936523Y-103655857D01*
X127936523Y-103751095D01*
X127888904Y-103893952D01*
X127317476Y-104465380D01*
X127936523Y-104465380D01*
X147828095Y-116927380D02*
X147828095Y-117736904D01*
X147875714Y-117832142D01*
X147923333Y-117879761D01*
X148018571Y-117927380D01*
X148209047Y-117927380D01*
X148304285Y-117879761D01*
X148351904Y-117832142D01*
X148399523Y-117736904D01*
X148399523Y-116927380D01*
X149399523Y-117927380D02*
X148828095Y-117927380D01*
X149113809Y-117927380D02*
X149113809Y-116927380D01*
X149018571Y-117070238D01*
X148923333Y-117165476D01*
X148828095Y-117213095D01*
X133397380Y-105743095D02*
X132921190Y-106076428D01*
X133397380Y-106314523D02*
X132397380Y-106314523D01*
X132397380Y-105933571D01*
X132445000Y-105838333D01*
X132492619Y-105790714D01*
X132587857Y-105743095D01*
X132730714Y-105743095D01*
X132825952Y-105790714D01*
X132873571Y-105838333D01*
X132921190Y-105933571D01*
X132921190Y-106314523D01*
X133492619Y-105552619D02*
X133492619Y-104790714D01*
X132445000Y-104028809D02*
X132397380Y-104124047D01*
X132397380Y-104266904D01*
X132445000Y-104409761D01*
X132540238Y-104505000D01*
X132635476Y-104552619D01*
X132825952Y-104600238D01*
X132968809Y-104600238D01*
X133159285Y-104552619D01*
X133254523Y-104505000D01*
X133349761Y-104409761D01*
X133397380Y-104266904D01*
X133397380Y-104171666D01*
X133349761Y-104028809D01*
X133302142Y-103981190D01*
X132968809Y-103981190D01*
X132968809Y-104171666D01*
X133111666Y-103600238D02*
X133111666Y-103124047D01*
X133397380Y-103695476D02*
X132397380Y-103362142D01*
X133397380Y-103028809D01*
X133397380Y-102695476D02*
X132397380Y-102695476D01*
X133397380Y-102219285D02*
X132397380Y-102219285D01*
X133397380Y-101647857D01*
X132397380Y-101647857D01*
X132492619Y-101219285D02*
X132445000Y-101171666D01*
X132397380Y-101076428D01*
X132397380Y-100838333D01*
X132445000Y-100743095D01*
X132492619Y-100695476D01*
X132587857Y-100647857D01*
X132683095Y-100647857D01*
X132825952Y-100695476D01*
X133397380Y-101266904D01*
X133397380Y-100647857D01*
X138477380Y-105743095D02*
X138001190Y-106076428D01*
X138477380Y-106314523D02*
X137477380Y-106314523D01*
X137477380Y-105933571D01*
X137525000Y-105838333D01*
X137572619Y-105790714D01*
X137667857Y-105743095D01*
X137810714Y-105743095D01*
X137905952Y-105790714D01*
X137953571Y-105838333D01*
X138001190Y-105933571D01*
X138001190Y-106314523D01*
X138572619Y-105552619D02*
X138572619Y-104790714D01*
X137525000Y-104028809D02*
X137477380Y-104124047D01*
X137477380Y-104266904D01*
X137525000Y-104409761D01*
X137620238Y-104505000D01*
X137715476Y-104552619D01*
X137905952Y-104600238D01*
X138048809Y-104600238D01*
X138239285Y-104552619D01*
X138334523Y-104505000D01*
X138429761Y-104409761D01*
X138477380Y-104266904D01*
X138477380Y-104171666D01*
X138429761Y-104028809D01*
X138382142Y-103981190D01*
X138048809Y-103981190D01*
X138048809Y-104171666D01*
X138191666Y-103600238D02*
X138191666Y-103124047D01*
X138477380Y-103695476D02*
X137477380Y-103362142D01*
X138477380Y-103028809D01*
X138477380Y-102695476D02*
X137477380Y-102695476D01*
X138477380Y-102219285D02*
X137477380Y-102219285D01*
X138477380Y-101647857D01*
X137477380Y-101647857D01*
X138477380Y-100647857D02*
X138477380Y-101219285D01*
X138477380Y-100933571D02*
X137477380Y-100933571D01*
X137620238Y-101028809D01*
X137715476Y-101124047D01*
X137763095Y-101219285D01*
X121563047Y-93646380D02*
X121229714Y-93170190D01*
X120991619Y-93646380D02*
X120991619Y-92646380D01*
X121372571Y-92646380D01*
X121467809Y-92694000D01*
X121515428Y-92741619D01*
X121563047Y-92836857D01*
X121563047Y-92979714D01*
X121515428Y-93074952D01*
X121467809Y-93122571D01*
X121372571Y-93170190D01*
X120991619Y-93170190D01*
X121753523Y-93741619D02*
X122515428Y-93741619D01*
X123324952Y-93551142D02*
X123277333Y-93598761D01*
X123134476Y-93646380D01*
X123039238Y-93646380D01*
X122896380Y-93598761D01*
X122801142Y-93503523D01*
X122753523Y-93408285D01*
X122705904Y-93217809D01*
X122705904Y-93074952D01*
X122753523Y-92884476D01*
X122801142Y-92789238D01*
X122896380Y-92694000D01*
X123039238Y-92646380D01*
X123134476Y-92646380D01*
X123277333Y-92694000D01*
X123324952Y-92741619D01*
X123705904Y-93360666D02*
X124182095Y-93360666D01*
X123610666Y-93646380D02*
X123944000Y-92646380D01*
X124277333Y-93646380D01*
X125086857Y-93646380D02*
X124610666Y-93646380D01*
X124610666Y-92646380D01*
X125372571Y-92741619D02*
X125420190Y-92694000D01*
X125515428Y-92646380D01*
X125753523Y-92646380D01*
X125848761Y-92694000D01*
X125896380Y-92741619D01*
X125944000Y-92836857D01*
X125944000Y-92932095D01*
X125896380Y-93074952D01*
X125324952Y-93646380D01*
X125944000Y-93646380D01*
X123468047Y-98218380D02*
X123134714Y-97742190D01*
X122896619Y-98218380D02*
X122896619Y-97218380D01*
X123277571Y-97218380D01*
X123372809Y-97266000D01*
X123420428Y-97313619D01*
X123468047Y-97408857D01*
X123468047Y-97551714D01*
X123420428Y-97646952D01*
X123372809Y-97694571D01*
X123277571Y-97742190D01*
X122896619Y-97742190D01*
X123658523Y-98313619D02*
X124420428Y-98313619D01*
X125229952Y-98123142D02*
X125182333Y-98170761D01*
X125039476Y-98218380D01*
X124944238Y-98218380D01*
X124801380Y-98170761D01*
X124706142Y-98075523D01*
X124658523Y-97980285D01*
X124610904Y-97789809D01*
X124610904Y-97646952D01*
X124658523Y-97456476D01*
X124706142Y-97361238D01*
X124801380Y-97266000D01*
X124944238Y-97218380D01*
X125039476Y-97218380D01*
X125182333Y-97266000D01*
X125229952Y-97313619D01*
X125610904Y-97932666D02*
X126087095Y-97932666D01*
X125515666Y-98218380D02*
X125849000Y-97218380D01*
X126182333Y-98218380D01*
X126991857Y-98218380D02*
X126515666Y-98218380D01*
X126515666Y-97218380D01*
X127849000Y-98218380D02*
X127277571Y-98218380D01*
X127563285Y-98218380D02*
X127563285Y-97218380D01*
X127468047Y-97361238D01*
X127372809Y-97456476D01*
X127277571Y-97504095D01*
X132929333Y-135580380D02*
X132596000Y-135104190D01*
X132357904Y-135580380D02*
X132357904Y-134580380D01*
X132738857Y-134580380D01*
X132834095Y-134628000D01*
X132881714Y-134675619D01*
X132929333Y-134770857D01*
X132929333Y-134913714D01*
X132881714Y-135008952D01*
X132834095Y-135056571D01*
X132738857Y-135104190D01*
X132357904Y-135104190D01*
X133786476Y-134580380D02*
X133596000Y-134580380D01*
X133500761Y-134628000D01*
X133453142Y-134675619D01*
X133357904Y-134818476D01*
X133310285Y-135008952D01*
X133310285Y-135389904D01*
X133357904Y-135485142D01*
X133405523Y-135532761D01*
X133500761Y-135580380D01*
X133691238Y-135580380D01*
X133786476Y-135532761D01*
X133834095Y-135485142D01*
X133881714Y-135389904D01*
X133881714Y-135151809D01*
X133834095Y-135056571D01*
X133786476Y-135008952D01*
X133691238Y-134961333D01*
X133500761Y-134961333D01*
X133405523Y-135008952D01*
X133357904Y-135056571D01*
X133310285Y-135151809D01*
X148550333Y-125142380D02*
X148217000Y-124666190D01*
X147978904Y-125142380D02*
X147978904Y-124142380D01*
X148359857Y-124142380D01*
X148455095Y-124190000D01*
X148502714Y-124237619D01*
X148550333Y-124332857D01*
X148550333Y-124475714D01*
X148502714Y-124570952D01*
X148455095Y-124618571D01*
X148359857Y-124666190D01*
X147978904Y-124666190D01*
X149455095Y-124142380D02*
X148978904Y-124142380D01*
X148931285Y-124618571D01*
X148978904Y-124570952D01*
X149074142Y-124523333D01*
X149312238Y-124523333D01*
X149407476Y-124570952D01*
X149455095Y-124618571D01*
X149502714Y-124713809D01*
X149502714Y-124951904D01*
X149455095Y-125047142D01*
X149407476Y-125094761D01*
X149312238Y-125142380D01*
X149074142Y-125142380D01*
X148978904Y-125094761D01*
X148931285Y-125047142D01*
X135723333Y-114522380D02*
X135390000Y-114046190D01*
X135151904Y-114522380D02*
X135151904Y-113522380D01*
X135532857Y-113522380D01*
X135628095Y-113570000D01*
X135675714Y-113617619D01*
X135723333Y-113712857D01*
X135723333Y-113855714D01*
X135675714Y-113950952D01*
X135628095Y-113998571D01*
X135532857Y-114046190D01*
X135151904Y-114046190D01*
X136580476Y-113855714D02*
X136580476Y-114522380D01*
X136342380Y-113474761D02*
X136104285Y-114189047D01*
X136723333Y-114189047D01*
X142922380Y-104941666D02*
X142446190Y-105275000D01*
X142922380Y-105513095D02*
X141922380Y-105513095D01*
X141922380Y-105132142D01*
X141970000Y-105036904D01*
X142017619Y-104989285D01*
X142112857Y-104941666D01*
X142255714Y-104941666D01*
X142350952Y-104989285D01*
X142398571Y-105036904D01*
X142446190Y-105132142D01*
X142446190Y-105513095D01*
X141922380Y-104608333D02*
X141922380Y-103989285D01*
X142303333Y-104322619D01*
X142303333Y-104179761D01*
X142350952Y-104084523D01*
X142398571Y-104036904D01*
X142493809Y-103989285D01*
X142731904Y-103989285D01*
X142827142Y-104036904D01*
X142874761Y-104084523D01*
X142922380Y-104179761D01*
X142922380Y-104465476D01*
X142874761Y-104560714D01*
X142827142Y-104608333D01*
X122769333Y-88058380D02*
X122436000Y-87582190D01*
X122197904Y-88058380D02*
X122197904Y-87058380D01*
X122578857Y-87058380D01*
X122674095Y-87106000D01*
X122721714Y-87153619D01*
X122769333Y-87248857D01*
X122769333Y-87391714D01*
X122721714Y-87486952D01*
X122674095Y-87534571D01*
X122578857Y-87582190D01*
X122197904Y-87582190D01*
X123150285Y-87153619D02*
X123197904Y-87106000D01*
X123293142Y-87058380D01*
X123531238Y-87058380D01*
X123626476Y-87106000D01*
X123674095Y-87153619D01*
X123721714Y-87248857D01*
X123721714Y-87344095D01*
X123674095Y-87486952D01*
X123102666Y-88058380D01*
X123721714Y-88058380D01*
X139787333Y-137842380D02*
X139454000Y-137366190D01*
X139215904Y-137842380D02*
X139215904Y-136842380D01*
X139596857Y-136842380D01*
X139692095Y-136890000D01*
X139739714Y-136937619D01*
X139787333Y-137032857D01*
X139787333Y-137175714D01*
X139739714Y-137270952D01*
X139692095Y-137318571D01*
X139596857Y-137366190D01*
X139215904Y-137366190D01*
X140739714Y-137842380D02*
X140168285Y-137842380D01*
X140454000Y-137842380D02*
X140454000Y-136842380D01*
X140358761Y-136985238D01*
X140263523Y-137080476D01*
X140168285Y-137128095D01*
X126254285Y-78367380D02*
X126254285Y-77367380D01*
X126587619Y-78081666D01*
X126920952Y-77367380D01*
X126920952Y-78367380D01*
X127397142Y-78367380D02*
X127397142Y-77367380D01*
X127968571Y-78367380D02*
X127540000Y-77795952D01*
X127968571Y-77367380D02*
X127397142Y-77938809D01*
X128159047Y-78462619D02*
X128920952Y-78462619D01*
X129730476Y-78272142D02*
X129682857Y-78319761D01*
X129540000Y-78367380D01*
X129444761Y-78367380D01*
X129301904Y-78319761D01*
X129206666Y-78224523D01*
X129159047Y-78129285D01*
X129111428Y-77938809D01*
X129111428Y-77795952D01*
X129159047Y-77605476D01*
X129206666Y-77510238D01*
X129301904Y-77415000D01*
X129444761Y-77367380D01*
X129540000Y-77367380D01*
X129682857Y-77415000D01*
X129730476Y-77462619D01*
X130349523Y-77367380D02*
X130540000Y-77367380D01*
X130635238Y-77415000D01*
X130730476Y-77510238D01*
X130778095Y-77700714D01*
X130778095Y-78034047D01*
X130730476Y-78224523D01*
X130635238Y-78319761D01*
X130540000Y-78367380D01*
X130349523Y-78367380D01*
X130254285Y-78319761D01*
X130159047Y-78224523D01*
X130111428Y-78034047D01*
X130111428Y-77700714D01*
X130159047Y-77510238D01*
X130254285Y-77415000D01*
X130349523Y-77367380D01*
X131206666Y-78367380D02*
X131206666Y-77367380D01*
X131540000Y-78081666D01*
X131873333Y-77367380D01*
X131873333Y-78367380D01*
X132873333Y-78367380D02*
X132301904Y-78367380D01*
X132587619Y-78367380D02*
X132587619Y-77367380D01*
X132492380Y-77510238D01*
X132397142Y-77605476D01*
X132301904Y-77653095D01*
X133564523Y-117737380D02*
X133564523Y-116737380D01*
X133897857Y-117451666D01*
X134231190Y-116737380D01*
X134231190Y-117737380D01*
X134707380Y-117737380D02*
X134707380Y-116737380D01*
X135278809Y-117737380D02*
X134850238Y-117165952D01*
X135278809Y-116737380D02*
X134707380Y-117308809D01*
X135469285Y-117832619D02*
X136231190Y-117832619D01*
X136421666Y-116832619D02*
X136469285Y-116785000D01*
X136564523Y-116737380D01*
X136802619Y-116737380D01*
X136897857Y-116785000D01*
X136945476Y-116832619D01*
X136993095Y-116927857D01*
X136993095Y-117023095D01*
X136945476Y-117165952D01*
X136374047Y-117737380D01*
X136993095Y-117737380D01*
X112609523Y-79002380D02*
X112609523Y-78002380D01*
X112942857Y-78716666D01*
X113276190Y-78002380D01*
X113276190Y-79002380D01*
X113752380Y-79002380D02*
X113752380Y-78002380D01*
X114323809Y-79002380D02*
X113895238Y-78430952D01*
X114323809Y-78002380D02*
X113752380Y-78573809D01*
X114514285Y-79097619D02*
X115276190Y-79097619D01*
X116038095Y-79002380D02*
X115466666Y-79002380D01*
X115752380Y-79002380D02*
X115752380Y-78002380D01*
X115657142Y-78145238D01*
X115561904Y-78240476D01*
X115466666Y-78288095D01*
X130730666Y-137882380D02*
X130730666Y-138596666D01*
X130683047Y-138739523D01*
X130587809Y-138834761D01*
X130444952Y-138882380D01*
X130349714Y-138882380D01*
X131730666Y-138882380D02*
X131159238Y-138882380D01*
X131444952Y-138882380D02*
X131444952Y-137882380D01*
X131349714Y-138025238D01*
X131254476Y-138120476D01*
X131159238Y-138168095D01*
X142537380Y-118848095D02*
X141537380Y-118848095D01*
X141537380Y-118610000D01*
X141585000Y-118467142D01*
X141680238Y-118371904D01*
X141775476Y-118324285D01*
X141965952Y-118276666D01*
X142108809Y-118276666D01*
X142299285Y-118324285D01*
X142394523Y-118371904D01*
X142489761Y-118467142D01*
X142537380Y-118610000D01*
X142537380Y-118848095D01*
X141632619Y-117895714D02*
X141585000Y-117848095D01*
X141537380Y-117752857D01*
X141537380Y-117514761D01*
X141585000Y-117419523D01*
X141632619Y-117371904D01*
X141727857Y-117324285D01*
X141823095Y-117324285D01*
X141965952Y-117371904D01*
X142537380Y-117943333D01*
X142537380Y-117324285D01*
X149121904Y-139007380D02*
X149121904Y-138007380D01*
X149360000Y-138007380D01*
X149502857Y-138055000D01*
X149598095Y-138150238D01*
X149645714Y-138245476D01*
X149693333Y-138435952D01*
X149693333Y-138578809D01*
X149645714Y-138769285D01*
X149598095Y-138864523D01*
X149502857Y-138959761D01*
X149360000Y-139007380D01*
X149121904Y-139007380D01*
X150645714Y-139007380D02*
X150074285Y-139007380D01*
X150360000Y-139007380D02*
X150360000Y-138007380D01*
X150264761Y-138150238D01*
X150169523Y-138245476D01*
X150074285Y-138293095D01*
X146661142Y-120308666D02*
X146708761Y-120356285D01*
X146756380Y-120499142D01*
X146756380Y-120594380D01*
X146708761Y-120737238D01*
X146613523Y-120832476D01*
X146518285Y-120880095D01*
X146327809Y-120927714D01*
X146184952Y-120927714D01*
X145994476Y-120880095D01*
X145899238Y-120832476D01*
X145804000Y-120737238D01*
X145756380Y-120594380D01*
X145756380Y-120499142D01*
X145804000Y-120356285D01*
X145851619Y-120308666D01*
X146756380Y-119832476D02*
X146756380Y-119642000D01*
X146708761Y-119546761D01*
X146661142Y-119499142D01*
X146518285Y-119403904D01*
X146327809Y-119356285D01*
X145946857Y-119356285D01*
X145851619Y-119403904D01*
X145804000Y-119451523D01*
X145756380Y-119546761D01*
X145756380Y-119737238D01*
X145804000Y-119832476D01*
X145851619Y-119880095D01*
X145946857Y-119927714D01*
X146184952Y-119927714D01*
X146280190Y-119880095D01*
X146327809Y-119832476D01*
X146375428Y-119737238D01*
X146375428Y-119546761D01*
X146327809Y-119451523D01*
X146280190Y-119403904D01*
X146184952Y-119356285D01*
X161647142Y-103036666D02*
X161694761Y-103084285D01*
X161742380Y-103227142D01*
X161742380Y-103322380D01*
X161694761Y-103465238D01*
X161599523Y-103560476D01*
X161504285Y-103608095D01*
X161313809Y-103655714D01*
X161170952Y-103655714D01*
X160980476Y-103608095D01*
X160885238Y-103560476D01*
X160790000Y-103465238D01*
X160742380Y-103322380D01*
X160742380Y-103227142D01*
X160790000Y-103084285D01*
X160837619Y-103036666D01*
X161170952Y-102465238D02*
X161123333Y-102560476D01*
X161075714Y-102608095D01*
X160980476Y-102655714D01*
X160932857Y-102655714D01*
X160837619Y-102608095D01*
X160790000Y-102560476D01*
X160742380Y-102465238D01*
X160742380Y-102274761D01*
X160790000Y-102179523D01*
X160837619Y-102131904D01*
X160932857Y-102084285D01*
X160980476Y-102084285D01*
X161075714Y-102131904D01*
X161123333Y-102179523D01*
X161170952Y-102274761D01*
X161170952Y-102465238D01*
X161218571Y-102560476D01*
X161266190Y-102608095D01*
X161361428Y-102655714D01*
X161551904Y-102655714D01*
X161647142Y-102608095D01*
X161694761Y-102560476D01*
X161742380Y-102465238D01*
X161742380Y-102274761D01*
X161694761Y-102179523D01*
X161647142Y-102131904D01*
X161551904Y-102084285D01*
X161361428Y-102084285D01*
X161266190Y-102131904D01*
X161218571Y-102179523D01*
X161170952Y-102274761D01*
X132056142Y-87502666D02*
X132103761Y-87550285D01*
X132151380Y-87693142D01*
X132151380Y-87788380D01*
X132103761Y-87931238D01*
X132008523Y-88026476D01*
X131913285Y-88074095D01*
X131722809Y-88121714D01*
X131579952Y-88121714D01*
X131389476Y-88074095D01*
X131294238Y-88026476D01*
X131199000Y-87931238D01*
X131151380Y-87788380D01*
X131151380Y-87693142D01*
X131199000Y-87550285D01*
X131246619Y-87502666D01*
X131151380Y-87169333D02*
X131151380Y-86502666D01*
X132151380Y-86931238D01*
X147146333Y-84685142D02*
X147098714Y-84732761D01*
X146955857Y-84780380D01*
X146860619Y-84780380D01*
X146717761Y-84732761D01*
X146622523Y-84637523D01*
X146574904Y-84542285D01*
X146527285Y-84351809D01*
X146527285Y-84208952D01*
X146574904Y-84018476D01*
X146622523Y-83923238D01*
X146717761Y-83828000D01*
X146860619Y-83780380D01*
X146955857Y-83780380D01*
X147098714Y-83828000D01*
X147146333Y-83875619D01*
X148003476Y-83780380D02*
X147813000Y-83780380D01*
X147717761Y-83828000D01*
X147670142Y-83875619D01*
X147574904Y-84018476D01*
X147527285Y-84208952D01*
X147527285Y-84589904D01*
X147574904Y-84685142D01*
X147622523Y-84732761D01*
X147717761Y-84780380D01*
X147908238Y-84780380D01*
X148003476Y-84732761D01*
X148051095Y-84685142D01*
X148098714Y-84589904D01*
X148098714Y-84351809D01*
X148051095Y-84256571D01*
X148003476Y-84208952D01*
X147908238Y-84161333D01*
X147717761Y-84161333D01*
X147622523Y-84208952D01*
X147574904Y-84256571D01*
X147527285Y-84351809D01*
X119173333Y-103735142D02*
X119125714Y-103782761D01*
X118982857Y-103830380D01*
X118887619Y-103830380D01*
X118744761Y-103782761D01*
X118649523Y-103687523D01*
X118601904Y-103592285D01*
X118554285Y-103401809D01*
X118554285Y-103258952D01*
X118601904Y-103068476D01*
X118649523Y-102973238D01*
X118744761Y-102878000D01*
X118887619Y-102830380D01*
X118982857Y-102830380D01*
X119125714Y-102878000D01*
X119173333Y-102925619D01*
X120078095Y-102830380D02*
X119601904Y-102830380D01*
X119554285Y-103306571D01*
X119601904Y-103258952D01*
X119697142Y-103211333D01*
X119935238Y-103211333D01*
X120030476Y-103258952D01*
X120078095Y-103306571D01*
X120125714Y-103401809D01*
X120125714Y-103639904D01*
X120078095Y-103735142D01*
X120030476Y-103782761D01*
X119935238Y-103830380D01*
X119697142Y-103830380D01*
X119601904Y-103782761D01*
X119554285Y-103735142D01*
X161647142Y-110656666D02*
X161694761Y-110704285D01*
X161742380Y-110847142D01*
X161742380Y-110942380D01*
X161694761Y-111085238D01*
X161599523Y-111180476D01*
X161504285Y-111228095D01*
X161313809Y-111275714D01*
X161170952Y-111275714D01*
X160980476Y-111228095D01*
X160885238Y-111180476D01*
X160790000Y-111085238D01*
X160742380Y-110942380D01*
X160742380Y-110847142D01*
X160790000Y-110704285D01*
X160837619Y-110656666D01*
X161075714Y-109799523D02*
X161742380Y-109799523D01*
X160694761Y-110037619D02*
X161409047Y-110275714D01*
X161409047Y-109656666D01*
X154011333Y-130913142D02*
X153963714Y-130960761D01*
X153820857Y-131008380D01*
X153725619Y-131008380D01*
X153582761Y-130960761D01*
X153487523Y-130865523D01*
X153439904Y-130770285D01*
X153392285Y-130579809D01*
X153392285Y-130436952D01*
X153439904Y-130246476D01*
X153487523Y-130151238D01*
X153582761Y-130056000D01*
X153725619Y-130008380D01*
X153820857Y-130008380D01*
X153963714Y-130056000D01*
X154011333Y-130103619D01*
X154344666Y-130008380D02*
X154963714Y-130008380D01*
X154630380Y-130389333D01*
X154773238Y-130389333D01*
X154868476Y-130436952D01*
X154916095Y-130484571D01*
X154963714Y-130579809D01*
X154963714Y-130817904D01*
X154916095Y-130913142D01*
X154868476Y-130960761D01*
X154773238Y-131008380D01*
X154487523Y-131008380D01*
X154392285Y-130960761D01*
X154344666Y-130913142D01*
X121261333Y-134215142D02*
X121213714Y-134262761D01*
X121070857Y-134310380D01*
X120975619Y-134310380D01*
X120832761Y-134262761D01*
X120737523Y-134167523D01*
X120689904Y-134072285D01*
X120642285Y-133881809D01*
X120642285Y-133738952D01*
X120689904Y-133548476D01*
X120737523Y-133453238D01*
X120832761Y-133358000D01*
X120975619Y-133310380D01*
X121070857Y-133310380D01*
X121213714Y-133358000D01*
X121261333Y-133405619D01*
X121642285Y-133405619D02*
X121689904Y-133358000D01*
X121785142Y-133310380D01*
X122023238Y-133310380D01*
X122118476Y-133358000D01*
X122166095Y-133405619D01*
X122213714Y-133500857D01*
X122213714Y-133596095D01*
X122166095Y-133738952D01*
X121594666Y-134310380D01*
X122213714Y-134310380D01*
X142073333Y-129897142D02*
X142025714Y-129944761D01*
X141882857Y-129992380D01*
X141787619Y-129992380D01*
X141644761Y-129944761D01*
X141549523Y-129849523D01*
X141501904Y-129754285D01*
X141454285Y-129563809D01*
X141454285Y-129420952D01*
X141501904Y-129230476D01*
X141549523Y-129135238D01*
X141644761Y-129040000D01*
X141787619Y-128992380D01*
X141882857Y-128992380D01*
X142025714Y-129040000D01*
X142073333Y-129087619D01*
X143025714Y-129992380D02*
X142454285Y-129992380D01*
X142740000Y-129992380D02*
X142740000Y-128992380D01*
X142644761Y-129135238D01*
X142549523Y-129230476D01*
X142454285Y-129278095D01*
M02*
