G04 #@! TF.GenerationSoftware,KiCad,Pcbnew,(5.0.0-rc2-dev-179-gab3780148)*
G04 #@! TF.CreationDate,2018-03-20T14:47:54-05:00*
G04 #@! TF.ProjectId,conductivity_sensor,636F6E6475637469766974795F73656E,rev?*
G04 #@! TF.SameCoordinates,Original*
G04 #@! TF.FileFunction,Soldermask,Bot*
G04 #@! TF.FilePolarity,Negative*
%FSLAX46Y46*%
G04 Gerber Fmt 4.6, Leading zero omitted, Abs format (unit mm)*
G04 Created by KiCad (PCBNEW (5.0.0-rc2-dev-179-gab3780148)) date 03/20/18 14:47:54*
%MOMM*%
%LPD*%
G01*
G04 APERTURE LIST*
%ADD10O,1.900000X2.400000*%
%ADD11R,2.400000X1.900000*%
%ADD12O,2.400000X1.900000*%
%ADD13C,2.000000*%
%ADD14R,2.000000X2.000000*%
%ADD15O,2.000000X2.000000*%
%ADD16R,2.000000X2.800000*%
%ADD17O,2.000000X2.800000*%
%ADD18R,2.800000X2.000000*%
%ADD19O,2.800000X2.000000*%
%ADD20C,6.400000*%
%ADD21R,2.800000X2.800000*%
%ADD22C,2.800000*%
%ADD23C,2.400000*%
G04 APERTURE END LIST*
D10*
X109855000Y-136525000D03*
D11*
X112395000Y-139065000D03*
D12*
X107315000Y-139065000D03*
D13*
X113665000Y-142240000D03*
X111165000Y-142240000D03*
D14*
X113665000Y-130810000D03*
D15*
X98425000Y-97790000D03*
X113665000Y-128270000D03*
X98425000Y-100330000D03*
X113665000Y-125730000D03*
X98425000Y-102870000D03*
X113665000Y-123190000D03*
X98425000Y-105410000D03*
X113665000Y-120650000D03*
X98425000Y-107950000D03*
X113665000Y-118110000D03*
X98425000Y-110490000D03*
X113665000Y-115570000D03*
X98425000Y-113030000D03*
X113665000Y-113030000D03*
X98425000Y-115570000D03*
X113665000Y-110490000D03*
X98425000Y-118110000D03*
X113665000Y-107950000D03*
X98425000Y-120650000D03*
X113665000Y-105410000D03*
X98425000Y-123190000D03*
X113665000Y-102870000D03*
X98425000Y-125730000D03*
X113665000Y-100330000D03*
X98425000Y-128270000D03*
X113665000Y-97790000D03*
X98425000Y-130810000D03*
X113665000Y-95250000D03*
X98425000Y-95250000D03*
D16*
X134112000Y-94996000D03*
D17*
X151892000Y-87376000D03*
X136652000Y-94996000D03*
X149352000Y-87376000D03*
X139192000Y-94996000D03*
X146812000Y-87376000D03*
X141732000Y-94996000D03*
X144272000Y-87376000D03*
X144272000Y-94996000D03*
X141732000Y-87376000D03*
X146812000Y-94996000D03*
X139192000Y-87376000D03*
X149352000Y-94996000D03*
X136652000Y-87376000D03*
X151892000Y-94996000D03*
X134112000Y-87376000D03*
D18*
X119507000Y-106553000D03*
D19*
X127127000Y-124333000D03*
X119507000Y-109093000D03*
X127127000Y-121793000D03*
X119507000Y-111633000D03*
X127127000Y-119253000D03*
X119507000Y-114173000D03*
X127127000Y-116713000D03*
X119507000Y-116713000D03*
X127127000Y-114173000D03*
X119507000Y-119253000D03*
X127127000Y-111633000D03*
X119507000Y-121793000D03*
X127127000Y-109093000D03*
X119507000Y-124333000D03*
X127127000Y-106553000D03*
D18*
X156210000Y-114935000D03*
D19*
X148590000Y-99695000D03*
X156210000Y-112395000D03*
X148590000Y-102235000D03*
X156210000Y-109855000D03*
X148590000Y-104775000D03*
X156210000Y-107315000D03*
X148590000Y-107315000D03*
X156210000Y-104775000D03*
X148590000Y-109855000D03*
X156210000Y-102235000D03*
X148590000Y-112395000D03*
X156210000Y-99695000D03*
X148590000Y-114935000D03*
D13*
X135255000Y-108585000D03*
D15*
X135255000Y-98425000D03*
D13*
X140335000Y-108585000D03*
D15*
X140335000Y-98425000D03*
D13*
X118364000Y-95504000D03*
D15*
X128524000Y-95504000D03*
D13*
X120269000Y-100076000D03*
D15*
X130429000Y-100076000D03*
D13*
X127508000Y-132588000D03*
D15*
X137668000Y-132588000D03*
D13*
X143637000Y-127000000D03*
D15*
X153797000Y-127000000D03*
D13*
X140970000Y-111760000D03*
D15*
X130810000Y-111760000D03*
D13*
X144780000Y-109855000D03*
D15*
X144780000Y-99695000D03*
D13*
X117856000Y-89916000D03*
D15*
X128016000Y-89916000D03*
D13*
X134874000Y-139700000D03*
D15*
X145034000Y-139700000D03*
D20*
X127635000Y-81915000D03*
X135255000Y-121285000D03*
X114300000Y-82550000D03*
D21*
X127960000Y-139192000D03*
D22*
X124460000Y-139192000D03*
X120960000Y-139192000D03*
X117460000Y-139192000D03*
D14*
X144145000Y-123190000D03*
D15*
X144145000Y-113030000D03*
D10*
X149860000Y-136525000D03*
D11*
X152400000Y-133985000D03*
D12*
X147320000Y-133985000D03*
D23*
X148590000Y-121158000D03*
X156090000Y-121158000D03*
D13*
X159385000Y-102235000D03*
X159385000Y-99735000D03*
X131064000Y-89916000D03*
X131064000Y-92416000D03*
D23*
X144145000Y-82804000D03*
X136645000Y-82804000D03*
D13*
X124420000Y-103378000D03*
X121920000Y-103378000D03*
X159385000Y-107950000D03*
X159385000Y-110450000D03*
X151598000Y-130556000D03*
X149098000Y-130556000D03*
D14*
X122428000Y-130048000D03*
D13*
X120428000Y-130048000D03*
D14*
X142240000Y-134080000D03*
D13*
X142240000Y-132080000D03*
M02*
