G04 #@! TF.GenerationSoftware,KiCad,Pcbnew,(5.0.0-rc2-dev-179-gab3780148)*
G04 #@! TF.CreationDate,2018-03-20T14:47:54-05:00*
G04 #@! TF.ProjectId,conductivity_sensor,636F6E6475637469766974795F73656E,rev?*
G04 #@! TF.SameCoordinates,Original*
G04 #@! TF.FileFunction,Copper,L2,Bot,Signal*
G04 #@! TF.FilePolarity,Positive*
%FSLAX46Y46*%
G04 Gerber Fmt 4.6, Leading zero omitted, Abs format (unit mm)*
G04 Created by KiCad (PCBNEW (5.0.0-rc2-dev-179-gab3780148)) date 03/20/18 14:47:54*
%MOMM*%
%LPD*%
G01*
G04 APERTURE LIST*
%ADD10O,1.500000X2.000000*%
%ADD11R,2.000000X1.500000*%
%ADD12O,2.000000X1.500000*%
%ADD13C,1.600000*%
%ADD14R,1.600000X1.600000*%
%ADD15O,1.600000X1.600000*%
%ADD16R,1.600000X2.400000*%
%ADD17O,1.600000X2.400000*%
%ADD18R,2.400000X1.600000*%
%ADD19O,2.400000X1.600000*%
%ADD20C,6.000000*%
%ADD21R,2.400000X2.400000*%
%ADD22C,2.400000*%
%ADD23C,2.000000*%
%ADD24C,0.889000*%
%ADD25C,0.304800*%
%ADD26C,0.508000*%
G04 APERTURE END LIST*
D10*
X109855000Y-136525000D03*
D11*
X112395000Y-139065000D03*
D12*
X107315000Y-139065000D03*
D13*
X113665000Y-142240000D03*
X111165000Y-142240000D03*
D14*
X113665000Y-130810000D03*
D15*
X98425000Y-97790000D03*
X113665000Y-128270000D03*
X98425000Y-100330000D03*
X113665000Y-125730000D03*
X98425000Y-102870000D03*
X113665000Y-123190000D03*
X98425000Y-105410000D03*
X113665000Y-120650000D03*
X98425000Y-107950000D03*
X113665000Y-118110000D03*
X98425000Y-110490000D03*
X113665000Y-115570000D03*
X98425000Y-113030000D03*
X113665000Y-113030000D03*
X98425000Y-115570000D03*
X113665000Y-110490000D03*
X98425000Y-118110000D03*
X113665000Y-107950000D03*
X98425000Y-120650000D03*
X113665000Y-105410000D03*
X98425000Y-123190000D03*
X113665000Y-102870000D03*
X98425000Y-125730000D03*
X113665000Y-100330000D03*
X98425000Y-128270000D03*
X113665000Y-97790000D03*
X98425000Y-130810000D03*
X113665000Y-95250000D03*
X98425000Y-95250000D03*
D16*
X134112000Y-94996000D03*
D17*
X151892000Y-87376000D03*
X136652000Y-94996000D03*
X149352000Y-87376000D03*
X139192000Y-94996000D03*
X146812000Y-87376000D03*
X141732000Y-94996000D03*
X144272000Y-87376000D03*
X144272000Y-94996000D03*
X141732000Y-87376000D03*
X146812000Y-94996000D03*
X139192000Y-87376000D03*
X149352000Y-94996000D03*
X136652000Y-87376000D03*
X151892000Y-94996000D03*
X134112000Y-87376000D03*
D18*
X119507000Y-106553000D03*
D19*
X127127000Y-124333000D03*
X119507000Y-109093000D03*
X127127000Y-121793000D03*
X119507000Y-111633000D03*
X127127000Y-119253000D03*
X119507000Y-114173000D03*
X127127000Y-116713000D03*
X119507000Y-116713000D03*
X127127000Y-114173000D03*
X119507000Y-119253000D03*
X127127000Y-111633000D03*
X119507000Y-121793000D03*
X127127000Y-109093000D03*
X119507000Y-124333000D03*
X127127000Y-106553000D03*
D18*
X156210000Y-114935000D03*
D19*
X148590000Y-99695000D03*
X156210000Y-112395000D03*
X148590000Y-102235000D03*
X156210000Y-109855000D03*
X148590000Y-104775000D03*
X156210000Y-107315000D03*
X148590000Y-107315000D03*
X156210000Y-104775000D03*
X148590000Y-109855000D03*
X156210000Y-102235000D03*
X148590000Y-112395000D03*
X156210000Y-99695000D03*
X148590000Y-114935000D03*
D13*
X135255000Y-108585000D03*
D15*
X135255000Y-98425000D03*
D13*
X140335000Y-108585000D03*
D15*
X140335000Y-98425000D03*
D13*
X118364000Y-95504000D03*
D15*
X128524000Y-95504000D03*
D13*
X120269000Y-100076000D03*
D15*
X130429000Y-100076000D03*
D13*
X127508000Y-132588000D03*
D15*
X137668000Y-132588000D03*
D13*
X143637000Y-127000000D03*
D15*
X153797000Y-127000000D03*
D13*
X140970000Y-111760000D03*
D15*
X130810000Y-111760000D03*
D13*
X144780000Y-109855000D03*
D15*
X144780000Y-99695000D03*
D13*
X117856000Y-89916000D03*
D15*
X128016000Y-89916000D03*
D13*
X134874000Y-139700000D03*
D15*
X145034000Y-139700000D03*
D20*
X127635000Y-81915000D03*
X135255000Y-121285000D03*
X114300000Y-82550000D03*
D21*
X127960000Y-139192000D03*
D22*
X124460000Y-139192000D03*
X120960000Y-139192000D03*
X117460000Y-139192000D03*
D14*
X144145000Y-123190000D03*
D15*
X144145000Y-113030000D03*
D10*
X149860000Y-136525000D03*
D11*
X152400000Y-133985000D03*
D12*
X147320000Y-133985000D03*
D23*
X148590000Y-121158000D03*
X156090000Y-121158000D03*
D13*
X159385000Y-102235000D03*
X159385000Y-99735000D03*
X131064000Y-89916000D03*
X131064000Y-92416000D03*
D23*
X144145000Y-82804000D03*
X136645000Y-82804000D03*
D13*
X124420000Y-103378000D03*
X121920000Y-103378000D03*
X159385000Y-107950000D03*
X159385000Y-110450000D03*
X151598000Y-130556000D03*
X149098000Y-130556000D03*
D14*
X122428000Y-130048000D03*
D13*
X120428000Y-130048000D03*
D14*
X142240000Y-134080000D03*
D13*
X142240000Y-132080000D03*
D24*
X148082000Y-83312000D03*
X139446000Y-118364000D03*
X129540000Y-109220000D03*
X132588000Y-109982000D03*
X120396000Y-133096000D03*
X114554000Y-135890000D03*
X151130000Y-91694000D03*
X144780000Y-104902000D03*
X123444000Y-120396000D03*
X125222000Y-127762000D03*
D25*
X114769800Y-130810000D02*
X119380000Y-135420200D01*
X113665000Y-130810000D02*
X114769800Y-130810000D01*
X119380000Y-135420200D02*
X119418200Y-135420200D01*
X119418200Y-135420200D02*
X120960000Y-136962000D01*
X120960000Y-136962000D02*
X120960000Y-139192000D01*
X113665000Y-128270000D02*
X124460000Y-139065000D01*
X124460000Y-139065000D02*
X124460000Y-139192000D01*
D26*
X153797000Y-127000000D02*
X152665630Y-127000000D01*
X152665630Y-127000000D02*
X151598000Y-128067630D01*
X151598000Y-128067630D02*
X151598000Y-129424630D01*
X151598000Y-129424630D02*
X151598000Y-130556000D01*
X151598000Y-130556000D02*
X153670000Y-130556000D01*
X153670000Y-130556000D02*
X158750000Y-125476000D01*
X158750000Y-125476000D02*
X158750000Y-111995000D01*
X158750000Y-111995000D02*
X156610000Y-109855000D01*
X156610000Y-109855000D02*
X156210000Y-109855000D01*
X145034000Y-139700000D02*
X146935000Y-139700000D01*
X146935000Y-139700000D02*
X149860000Y-136775000D01*
X149860000Y-136775000D02*
X149860000Y-136525000D01*
D25*
X156210000Y-109855000D02*
X154705200Y-109855000D01*
X154705200Y-109855000D02*
X154178000Y-109327800D01*
X154178000Y-109327800D02*
X154178000Y-105302200D01*
X154178000Y-105302200D02*
X154705200Y-104775000D01*
X154705200Y-104775000D02*
X156210000Y-104775000D01*
X110744000Y-144272000D02*
X107188000Y-140716000D01*
X113919000Y-144272000D02*
X110744000Y-144272000D01*
X115316000Y-145669000D02*
X113919000Y-144272000D01*
X138430000Y-145669000D02*
X115316000Y-145669000D01*
X142240000Y-134080000D02*
X142240000Y-141859000D01*
X107188000Y-140716000D02*
X105918000Y-140716000D01*
X105918000Y-140716000D02*
X98679000Y-133477000D01*
X98679000Y-133477000D02*
X98369222Y-133477000D01*
X142240000Y-141859000D02*
X138430000Y-145669000D01*
X98369222Y-133477000D02*
X96139000Y-131246778D01*
X96139000Y-131246778D02*
X96139000Y-124714000D01*
X96139000Y-124714000D02*
X93853000Y-122428000D01*
X93853000Y-122428000D02*
X93853000Y-101727000D01*
X93853000Y-101727000D02*
X95250000Y-100330000D01*
X95250000Y-100330000D02*
X98425000Y-100330000D01*
X144050000Y-134080000D02*
X145836000Y-132294000D01*
X145836000Y-132294000D02*
X149860000Y-132294000D01*
X142240000Y-134080000D02*
X144050000Y-134080000D01*
X149860000Y-136525000D02*
X149860000Y-132294000D01*
X149860000Y-132294000D02*
X151598000Y-130556000D01*
X150368000Y-123190000D02*
X150368000Y-117817800D01*
X150368000Y-117817800D02*
X148590000Y-116039800D01*
X148590000Y-116039800D02*
X148590000Y-114935000D01*
X148590000Y-124968000D02*
X150368000Y-123190000D01*
X142494000Y-124968000D02*
X148590000Y-124968000D01*
X138176000Y-129286000D02*
X142494000Y-124968000D01*
X131941370Y-129286000D02*
X138176000Y-129286000D01*
X127508000Y-132588000D02*
X128639370Y-132588000D01*
X128639370Y-132588000D02*
X131941370Y-129286000D01*
X115316000Y-136462520D02*
X115455702Y-136322818D01*
X109474000Y-113919000D02*
X98425000Y-102870000D01*
X115316000Y-142748000D02*
X115316000Y-136462520D01*
X130048000Y-142748000D02*
X115316000Y-142748000D01*
X130556000Y-142240000D02*
X130048000Y-142748000D01*
X127508000Y-132588000D02*
X130556000Y-135636000D01*
X130556000Y-135636000D02*
X130556000Y-142240000D01*
X115455702Y-136322818D02*
X115455702Y-135457182D01*
X115455702Y-135457182D02*
X109474000Y-129475480D01*
X109474000Y-129475480D02*
X109474000Y-113919000D01*
X96774000Y-105664000D02*
X97028000Y-105410000D01*
X97028000Y-105410000D02*
X98425000Y-105410000D01*
X96774000Y-131019658D02*
X96774000Y-105664000D01*
X104736200Y-132461000D02*
X98215342Y-132461000D01*
X98215342Y-132461000D02*
X96774000Y-131019658D01*
X109855000Y-136525000D02*
X108800200Y-136525000D01*
X108800200Y-136525000D02*
X104736200Y-132461000D01*
X108966000Y-105764118D02*
X108966000Y-81043102D01*
X109016780Y-105814898D02*
X108966000Y-105764118D01*
X109016780Y-108000780D02*
X109016780Y-105814898D01*
X136928579Y-77238579D02*
X137414000Y-77724000D01*
X110871000Y-109855000D02*
X109016780Y-108000780D01*
X113665000Y-118110000D02*
X110871000Y-115316000D01*
X110871000Y-115316000D02*
X110871000Y-109855000D01*
X112285102Y-77724000D02*
X121666000Y-77724000D01*
X137414000Y-77724000D02*
X139192000Y-77724000D01*
X108966000Y-81043102D02*
X112285102Y-77724000D01*
X121666000Y-77724000D02*
X122151421Y-77238579D01*
X122151421Y-77238579D02*
X136928579Y-77238579D01*
X139192000Y-77724000D02*
X140208000Y-78740000D01*
X140208000Y-78740000D02*
X144018000Y-78740000D01*
X144018000Y-78740000D02*
X148082000Y-82804000D01*
X148082000Y-82804000D02*
X148082000Y-83312000D01*
X121410508Y-127355610D02*
X118627409Y-127355610D01*
X129284508Y-126339610D02*
X122426508Y-126339610D01*
X118627409Y-127355610D02*
X116484390Y-125212591D01*
X116484390Y-125212591D02*
X116484390Y-118389390D01*
X116484390Y-118389390D02*
X113665000Y-115570000D01*
X122426508Y-126339610D02*
X121410508Y-127355610D01*
X129590789Y-121316789D02*
X129590789Y-126033329D01*
X127127000Y-119253000D02*
X127527000Y-119253000D01*
X127527000Y-119253000D02*
X129590789Y-121316789D01*
X129590789Y-126033329D02*
X129284508Y-126339610D01*
X118879918Y-126745999D02*
X117094001Y-124960082D01*
X117094001Y-124960082D02*
X117094000Y-114300000D01*
X128981178Y-125729999D02*
X122173998Y-125730000D01*
X117094000Y-114300000D02*
X115824000Y-113030000D01*
X115824000Y-113030000D02*
X113665000Y-113030000D01*
X121157998Y-126745999D02*
X118879918Y-126745999D01*
X128981178Y-123647178D02*
X128981178Y-125729999D01*
X122173998Y-125730000D02*
X121157998Y-126745999D01*
X127127000Y-121793000D02*
X128981178Y-123647178D01*
X125609499Y-124345701D02*
X125622200Y-124333000D01*
X125622200Y-124333000D02*
X127127000Y-124333000D01*
X117703611Y-113397241D02*
X117703611Y-124707574D01*
X117703611Y-124707574D02*
X118980037Y-125984000D01*
X118980037Y-125984000D02*
X120904000Y-125984000D01*
X122542299Y-124345701D02*
X125609499Y-124345701D01*
X120904000Y-125984000D02*
X122542299Y-124345701D01*
X114796370Y-110490000D02*
X117703611Y-113397241D01*
X113665000Y-110490000D02*
X114796370Y-110490000D01*
X151892000Y-86976000D02*
X149129702Y-84213702D01*
X138177491Y-79349611D02*
X136676070Y-77848190D01*
X147649182Y-84213702D02*
X146926298Y-83490818D01*
X109626390Y-103911390D02*
X113665000Y-107950000D01*
X112537611Y-78333611D02*
X109626390Y-81244832D01*
X149129702Y-84213702D02*
X147649182Y-84213702D01*
X109626390Y-81244832D02*
X109626390Y-103911390D01*
X122403930Y-77848190D02*
X121918509Y-78333611D01*
X136676070Y-77848190D02*
X122403930Y-77848190D01*
X146926298Y-82510418D02*
X143765491Y-79349611D01*
X146926298Y-83490818D02*
X146926298Y-82510418D01*
X121918509Y-78333611D02*
X112537611Y-78333611D01*
X143765491Y-79349611D02*
X138177491Y-79349611D01*
X151892000Y-87376000D02*
X151892000Y-86976000D01*
X110236001Y-81497341D02*
X110236001Y-101981001D01*
X149352000Y-87376000D02*
X149352000Y-86976000D01*
X143440022Y-79959222D02*
X130795880Y-79959222D01*
X146316687Y-83940687D02*
X146316687Y-82835887D01*
X110236001Y-101981001D02*
X113665000Y-105410000D01*
X149352000Y-86976000D02*
X146316687Y-83940687D01*
X122171018Y-78943222D02*
X112790120Y-78943222D01*
X122656441Y-78457799D02*
X122171018Y-78943222D01*
X130795880Y-79959222D02*
X129294457Y-78457799D01*
X129294457Y-78457799D02*
X122656441Y-78457799D01*
X146316687Y-82835887D02*
X143440022Y-79959222D01*
X112790120Y-78943222D02*
X110236001Y-81497341D01*
D26*
X132842000Y-110236000D02*
X132588000Y-109982000D01*
X132842000Y-111760000D02*
X132842000Y-110236000D01*
X139446000Y-118364000D02*
X132842000Y-111760000D01*
X139446000Y-123444000D02*
X139446000Y-118364000D01*
X136906000Y-125984000D02*
X139446000Y-123444000D01*
X134112000Y-125984000D02*
X136906000Y-125984000D01*
X130810000Y-129286000D02*
X134112000Y-125984000D01*
X124498000Y-129286000D02*
X130810000Y-129286000D01*
X122428000Y-130048000D02*
X123736000Y-130048000D01*
X123736000Y-130048000D02*
X124498000Y-129286000D01*
X159385000Y-107950000D02*
X156845000Y-107950000D01*
X156845000Y-107950000D02*
X156210000Y-107315000D01*
X114554000Y-135890000D02*
X114554000Y-136906000D01*
X114554000Y-136906000D02*
X112395000Y-139065000D01*
X112395000Y-139065000D02*
X112395000Y-141010000D01*
X112395000Y-141010000D02*
X111165000Y-142240000D01*
X121412000Y-131572000D02*
X122212000Y-131572000D01*
X122212000Y-131572000D02*
X122428000Y-131356000D01*
X122428000Y-131356000D02*
X122428000Y-130048000D01*
X121412000Y-132080000D02*
X121412000Y-131572000D01*
X120396000Y-133096000D02*
X121412000Y-132080000D01*
X102653999Y-123989999D02*
X114554000Y-135890000D01*
X98425000Y-123190000D02*
X99224999Y-123989999D01*
X99224999Y-123989999D02*
X102653999Y-123989999D01*
X128270000Y-104394000D02*
X129540000Y-105664000D01*
X129540000Y-105664000D02*
X129540000Y-109220000D01*
X126567370Y-104394000D02*
X128270000Y-104394000D01*
X124420000Y-103378000D02*
X125551370Y-103378000D01*
X125551370Y-103378000D02*
X126567370Y-104394000D01*
X130556000Y-108204000D02*
X129540000Y-109220000D01*
X130556000Y-103378000D02*
X130556000Y-108204000D01*
X132080000Y-101854000D02*
X130556000Y-103378000D01*
X132080000Y-96266000D02*
X132080000Y-101854000D01*
X129286000Y-93472000D02*
X132080000Y-96266000D01*
X129286000Y-91694000D02*
X129286000Y-93472000D01*
X131064000Y-89916000D02*
X129286000Y-91694000D01*
X124460000Y-105918000D02*
X125095000Y-106553000D01*
X125095000Y-106553000D02*
X127127000Y-106553000D01*
X124460000Y-104549370D02*
X124460000Y-105918000D01*
X124420000Y-103378000D02*
X124420000Y-104509370D01*
X124420000Y-104509370D02*
X124460000Y-104549370D01*
X127960000Y-137484000D02*
X122428000Y-131952000D01*
X127960000Y-139192000D02*
X127960000Y-137484000D01*
X122428000Y-131952000D02*
X122428000Y-130048000D01*
D25*
X134112000Y-87376000D02*
X134112000Y-88880800D01*
X134112000Y-88880800D02*
X133076800Y-89916000D01*
X133076800Y-89916000D02*
X131064000Y-89916000D01*
X141351000Y-82804000D02*
X139192000Y-84963000D01*
X139192000Y-84963000D02*
X139192000Y-87376000D01*
X144145000Y-82804000D02*
X141351000Y-82804000D01*
X133731000Y-82804000D02*
X128016000Y-88519000D01*
X128016000Y-88519000D02*
X128016000Y-89916000D01*
X136645000Y-82804000D02*
X133731000Y-82804000D01*
X154940000Y-95003917D02*
X151630083Y-91694000D01*
X151630083Y-91694000D02*
X151130000Y-91694000D01*
X154940000Y-97790000D02*
X154940000Y-95003917D01*
X154178000Y-98552000D02*
X154940000Y-97790000D01*
X154178000Y-101707800D02*
X154178000Y-98552000D01*
X156210000Y-102235000D02*
X154705200Y-102235000D01*
X154705200Y-102235000D02*
X154178000Y-101707800D01*
X159385000Y-102235000D02*
X156210000Y-102235000D01*
X132080000Y-108204000D02*
X128651000Y-111633000D01*
X128651000Y-111633000D02*
X127127000Y-111633000D01*
X132080000Y-105918000D02*
X132080000Y-108204000D01*
X138176000Y-99822000D02*
X132080000Y-105918000D01*
X138176000Y-98552000D02*
X138176000Y-99822000D01*
X139954000Y-96774000D02*
X138176000Y-98552000D01*
X141458800Y-96774000D02*
X139954000Y-96774000D01*
X141732000Y-94996000D02*
X141732000Y-96500800D01*
X141732000Y-96500800D02*
X141458800Y-96774000D01*
X144526000Y-104902000D02*
X144780000Y-104902000D01*
X141642999Y-107785001D02*
X144526000Y-104902000D01*
X140335000Y-108585000D02*
X141134999Y-107785001D01*
X141134999Y-107785001D02*
X141642999Y-107785001D01*
X159385000Y-99735000D02*
X156250000Y-99735000D01*
X156250000Y-99735000D02*
X156210000Y-99695000D01*
X140335000Y-108585000D02*
X135255000Y-108585000D01*
X140208000Y-109982000D02*
X141224000Y-109982000D01*
X141224000Y-109982000D02*
X141224000Y-109963037D01*
X141224000Y-109963037D02*
X146050000Y-105137037D01*
X146050000Y-104375000D02*
X148190000Y-102235000D01*
X148190000Y-102235000D02*
X148590000Y-102235000D01*
X146050000Y-105137037D02*
X146050000Y-104375000D01*
X139192000Y-110998000D02*
X140208000Y-109982000D01*
X144145000Y-121728482D02*
X139192000Y-116775482D01*
X139192000Y-116775482D02*
X139192000Y-110998000D01*
X144145000Y-123190000D02*
X144145000Y-121728482D01*
X148590000Y-121158000D02*
X145072200Y-121158000D01*
X145072200Y-121158000D02*
X144145000Y-122085200D01*
X144145000Y-122085200D02*
X144145000Y-123190000D01*
X144780000Y-99695000D02*
X144780000Y-100826370D01*
X144780000Y-100826370D02*
X146188630Y-102235000D01*
X146188630Y-102235000D02*
X148590000Y-102235000D01*
X144780000Y-92710000D02*
X145554790Y-93484791D01*
X145554790Y-93484791D02*
X145554790Y-97788840D01*
X145554790Y-97788840D02*
X144780000Y-98563630D01*
X144780000Y-98563630D02*
X144780000Y-99695000D01*
X140481200Y-92710000D02*
X144780000Y-92710000D01*
X136652000Y-87376000D02*
X136652000Y-88880800D01*
X136652000Y-88880800D02*
X140481200Y-92710000D01*
X151384000Y-100838000D02*
X150241000Y-99695000D01*
X150241000Y-99695000D02*
X148590000Y-99695000D01*
X151384000Y-110490000D02*
X151384000Y-100838000D01*
X150736210Y-111137790D02*
X151384000Y-110490000D01*
X145276370Y-113030000D02*
X147168580Y-111137790D01*
X144145000Y-113030000D02*
X145276370Y-113030000D01*
X147168580Y-111137790D02*
X150736210Y-111137790D01*
X116205000Y-109855000D02*
X117983000Y-111633000D01*
X117983000Y-111633000D02*
X119507000Y-111633000D01*
X116205000Y-86360000D02*
X116205000Y-109855000D01*
X114300000Y-84455000D02*
X116205000Y-86360000D01*
X114300000Y-82550000D02*
X114300000Y-84455000D01*
X121920000Y-117348000D02*
X121285000Y-116713000D01*
X121285000Y-116713000D02*
X119507000Y-116713000D01*
X121920000Y-118243383D02*
X121920000Y-117348000D01*
X123444000Y-120396000D02*
X123444000Y-119767383D01*
X123444000Y-119767383D02*
X121920000Y-118243383D01*
X130302000Y-127762000D02*
X125222000Y-127762000D01*
X130810000Y-127254000D02*
X130302000Y-127762000D01*
X130810000Y-125730000D02*
X130810000Y-127254000D01*
X135255000Y-121285000D02*
X130810000Y-125730000D01*
X124460000Y-85090000D02*
X121285000Y-85090000D01*
X127635000Y-81915000D02*
X124460000Y-85090000D01*
X121285000Y-85090000D02*
X117856000Y-88519000D01*
X117856000Y-88519000D02*
X117856000Y-89916000D01*
X128524000Y-95504000D02*
X128524000Y-98171000D01*
X128524000Y-98171000D02*
X130429000Y-100076000D01*
X117856000Y-89916000D02*
X122936000Y-89916000D01*
X122936000Y-89916000D02*
X128524000Y-95504000D01*
X144780000Y-109855000D02*
X148590000Y-109855000D01*
X140970000Y-111760000D02*
X142875000Y-109855000D01*
X142875000Y-109855000D02*
X144780000Y-109855000D01*
X151384000Y-124714000D02*
X149098000Y-127000000D01*
X149098000Y-127000000D02*
X143637000Y-127000000D01*
X151384000Y-113684200D02*
X151384000Y-124714000D01*
X148590000Y-112395000D02*
X150094800Y-112395000D01*
X150094800Y-112395000D02*
X151384000Y-113684200D01*
X137668000Y-132588000D02*
X143256000Y-127000000D01*
X143256000Y-127000000D02*
X143637000Y-127000000D01*
X119380000Y-100965000D02*
X119507000Y-101092000D01*
X119507000Y-101092000D02*
X119507000Y-106553000D01*
X120269000Y-100076000D02*
X119380000Y-100965000D01*
X117475000Y-96393000D02*
X117475000Y-108585000D01*
X118364000Y-95504000D02*
X117475000Y-96393000D01*
X117475000Y-108585000D02*
X117983000Y-109093000D01*
X117983000Y-109093000D02*
X119507000Y-109093000D01*
X142404999Y-97625001D02*
X142404999Y-97263001D01*
X142404999Y-97263001D02*
X144272000Y-95396000D01*
X144272000Y-95396000D02*
X144272000Y-94996000D01*
X140335000Y-98425000D02*
X141134999Y-97625001D01*
X141134999Y-97625001D02*
X142404999Y-97625001D01*
X138430000Y-97155000D02*
X138537800Y-97155000D01*
X138537800Y-97155000D02*
X139192000Y-96500800D01*
X139192000Y-96500800D02*
X139192000Y-94996000D01*
X137160000Y-98425000D02*
X138430000Y-97155000D01*
X135255000Y-98425000D02*
X137160000Y-98425000D01*
X148525480Y-90424000D02*
X150697182Y-92595702D01*
X150697182Y-92595702D02*
X151669665Y-92595702D01*
X151669665Y-92595702D02*
X153924000Y-94850037D01*
X153924000Y-94850037D02*
X153924000Y-97282000D01*
X152908000Y-109493000D02*
X155810000Y-112395000D01*
X152908000Y-98298000D02*
X152908000Y-109493000D01*
X144380000Y-90424000D02*
X148525480Y-90424000D01*
X141732000Y-87776000D02*
X144380000Y-90424000D01*
X141732000Y-87376000D02*
X141732000Y-87776000D01*
X155810000Y-112395000D02*
X156210000Y-112395000D01*
X153924000Y-97282000D02*
X152908000Y-98298000D01*
X156210000Y-114935000D02*
X156210000Y-112395000D01*
X124079000Y-116713000D02*
X121539000Y-114173000D01*
X121539000Y-114173000D02*
X119507000Y-114173000D01*
X127127000Y-116713000D02*
X124079000Y-116713000D01*
X125222000Y-109493200D02*
X125222000Y-112668000D01*
X125222000Y-112668000D02*
X126727000Y-114173000D01*
X126727000Y-114173000D02*
X127127000Y-114173000D01*
X127127000Y-109093000D02*
X125622200Y-109093000D01*
X125622200Y-109093000D02*
X125222000Y-109493200D01*
M02*
